<?xml version="1.0" standalone="no"?>
<!DOCTYPE svg PUBLIC "-//W3C//DTD SVG 20010904//EN"
 "http://www.w3.org/TR/2001/REC-SVG-20010904/DTD/svg10.dtd">
<svg version="1.0" xmlns="http://www.w3.org/2000/svg"
 width="1043.000000pt" height="511.000000pt" viewBox="0 0 1043.000000 511.000000"
 preserveAspectRatio="xMidYMid meet">

<g transform="translate(0.000000,511.000000) scale(0.100000,-0.100000)"
fill="#000000" stroke="none">
<path d="M10221 4976 c-8 -10 -10 -651 -9 -2426 3 -2239 4 -2414 20 -2423 12
-8 21 -7 32 2 15 12 16 237 16 2425 0 1863 -3 2415 -12 2424 -16 16 -33 15
-47 -2z"/>
<path d="M2405 4628 c-3 -18 -37 -337 -75 -708 -39 -371 -73 -694 -76 -717
l-6 -43 -307 0 -308 0 -16 -152 c-9 -84 -17 -163 -17 -175 l0 -23 305 0 c268
0 305 -2 305 -15 0 -19 -207 -1986 -214 -2032 l-5 -33 183 0 182 0 109 1040
110 1040 288 0 c267 0 287 1 287 18 0 9 7 80 15 157 8 77 15 148 15 158 0 16
-20 17 -286 17 l-286 0 6 48 c4 26 38 342 76 702 38 360 72 676 76 703 l6 47
-181 0 -180 0 -6 -32z"/>
<path d="M5097 4638 c-3 -13 -18 -146 -33 -295 l-28 -273 -558 0 c-497 0 -558
-2 -558 -15 0 -16 -26 -263 -34 -322 l-5 -33 555 0 554 0 0 -32 c0 -18 -14
-157 -30 -308 -16 -151 -30 -276 -30 -277 0 -2 -218 -3 -484 -3 l-484 0 -6
-42 c-3 -24 -10 -92 -16 -153 -6 -60 -13 -125 -16 -142 l-5 -33 1140 0 1140 0
5 33 c7 41 36 301 36 322 0 13 -52 15 -465 15 l-465 0 0 24 c0 13 14 151 30
306 17 155 30 284 30 286 0 2 243 4 540 4 297 0 540 3 540 8 0 4 9 84 20 177
11 94 20 173 20 178 0 4 -243 7 -540 7 -297 0 -540 1 -540 3 0 1 14 132 30
291 17 159 30 290 30 292 0 2 -83 4 -184 4 -182 0 -184 0 -189 -22z"/>
<path d="M7320 4519 c0 -26 -182 -1717 -201 -1864 -84 -664 -216 -1227 -398
-1694 -23 -58 -40 -105 -38 -106 1 -1 73 -30 160 -65 92 -36 162 -59 167 -54
14 14 115 297 170 481 96 313 160 597 229 1008 51 308 76 512 156 1265 35 338
67 636 71 663 l6 47 459 0 c256 0 459 -4 459 -9 0 -5 -15 -51 -34 -102 l-34
-94 -306 -3 c-223 -2 -306 -5 -306 -14 0 -20 -120 -1141 -125 -1175 l-6 -33
356 0 c195 0 355 -2 355 -4 0 -35 -43 -381 -50 -408 -14 -47 -52 -78 -98 -78
-28 0 -42 8 -73 41 l-38 41 -116 -47 c-128 -53 -123 -45 -83 -132 30 -65 93
-129 156 -160 53 -26 66 -28 177 -28 109 0 125 2 177 27 31 14 76 44 100 67
93 85 127 194 154 492 l18 189 318 0 c175 0 318 1 318 3 0 2 23 217 50 477 28
260 50 490 50 509 0 91 -49 168 -130 205 -41 19 -68 21 -307 24 -145 2 -263 7
-263 10 0 3 14 50 32 104 l32 98 467 0 466 0 12 103 c6 56 14 130 17 165 l7
62 -1267 0 c-933 0 -1266 -3 -1266 -11z m1868 -896 c-3 -43 -7 -86 -7 -95 -1
-17 -33 -18 -517 -18 l-516 0 5 23 c3 12 9 55 13 95 l7 72 511 0 512 0 -8 -77z
m-43 -410 c-2 -21 -7 -64 -10 -95 l-6 -58 -511 0 -511 0 6 68 c4 37 7 79 7 95
l0 27 515 0 515 0 -5 -37z"/>
<path d="M700 4400 c0 -11 -79 -767 -175 -1679 -96 -912 -175 -1664 -175
-1670 0 -8 51 -11 169 -11 l170 0 5 43 c7 47 36 313 36 322 0 3 135 5 300 5
233 0 300 3 300 13 0 6 65 622 145 1367 95 879 144 1371 140 1400 -9 58 -39
128 -72 162 -15 16 -51 37 -80 48 -50 19 -78 20 -408 20 -349 0 -355 0 -355
-20z m566 -367 c-4 -27 -56 -505 -117 -1063 -60 -558 -115 -1058 -121 -1112
l-11 -98 -123 0 -124 0 0 28 c0 15 5 65 10 112 10 88 230 2170 230 2176 0 2
59 4 131 4 l131 0 -6 -47z"/>
<path d="M7866 2635 c-72 -96 -230 -254 -323 -324 l-71 -54 96 -113 96 -113
40 31 c87 67 314 306 380 400 38 53 69 100 70 104 1 7 -212 143 -225 144 -4 0
-32 -34 -63 -75z"/>
<path d="M9049 2638 l-117 -61 63 -96 c71 -109 198 -327 250 -432 l36 -70 32
19 c18 10 73 41 122 67 50 26 92 49 94 51 5 5 -139 269 -195 356 -61 96 -156
228 -163 228 -3 0 -58 -28 -122 -62z"/>
<path d="M4803 2458 l-121 -100 92 -107 c122 -141 224 -274 298 -388 33 -52
64 -93 69 -91 4 2 60 47 123 102 70 59 113 103 109 110 -100 165 -233 339
-387 508 l-61 66 -122 -100z"/>
<path d="M3801 2093 c-78 -373 -178 -699 -305 -991 l-35 -82 151 -76 c83 -41
154 -72 158 -67 4 4 30 63 58 129 70 165 162 445 212 644 42 166 112 482 107
485 -3 2 -311 65 -318 65 -3 0 -16 -48 -28 -107z"/>
<path d="M5849 2137 l-147 -52 29 -80 c81 -226 155 -535 224 -939 19 -109 36
-201 39 -203 5 -5 307 87 319 98 9 7 -25 211 -84 497 -64 307 -190 724 -220
729 -8 1 -80 -21 -160 -50z"/>
<path d="M4275 1923 c-18 -309 7 -611 65 -783 76 -227 237 -389 431 -435 263
-62 521 0 687 165 142 142 232 350 277 645 8 49 13 90 12 92 -4 4 -332 72
-334 69 -2 -1 -12 -54 -22 -117 -38 -220 -100 -343 -214 -428 -134 -98 -311
-92 -421 15 -46 45 -82 127 -108 246 -19 90 -22 134 -23 338 0 129 3 254 8
278 l7 42 -179 0 -179 0 -7 -127z"/>
<path d="M8321 1851 c-63 -39 -117 -74 -122 -78 -4 -4 17 -46 47 -93 46 -72
159 -290 190 -367 9 -22 12 -21 142 58 l132 82 -58 111 c-55 104 -163 284
-200 334 l-17 22 -114 -69z"/>
<path d="M7495 1738 c-50 -198 -145 -470 -214 -621 -23 -49 -41 -90 -41 -92 0
-6 267 -155 277 -155 11 0 100 221 167 414 41 116 126 409 126 433 0 8 -268
93 -291 93 -3 0 -14 -33 -24 -72z"/>
<path d="M9190 1754 c-74 -31 -137 -58 -139 -60 -2 -2 23 -95 57 -206 67 -224
90 -310 132 -501 15 -71 30 -130 32 -132 3 -3 284 101 296 110 4 3 -54 254
-93 400 -42 162 -133 445 -143 445 -4 -1 -68 -26 -142 -56z"/>
<path d="M7836 1604 c-10 -79 -7 -234 8 -334 38 -246 146 -426 302 -500 213
-101 521 -68 684 73 115 99 234 318 242 448 l3 42 -135 38 c-74 22 -140 39
-146 39 -6 0 -19 -28 -28 -62 -57 -207 -176 -315 -343 -312 -108 2 -202 79
-241 198 -25 77 -47 286 -37 364 l6 52 -154 0 -154 0 -7 -46z"/>
</g>
</svg>
