<?xml version="1.0" standalone="no"?>
<!DOCTYPE svg PUBLIC "-//W3C//DTD SVG 20010904//EN"
 "http://www.w3.org/TR/2001/REC-SVG-20010904/DTD/svg10.dtd">
<svg version="1.0" xmlns="http://www.w3.org/2000/svg"
 width="675.000000pt" height="357.000000pt" viewBox="0 0 675.000000 357.000000"
 preserveAspectRatio="xMidYMid meet">

<g transform="translate(0.000000,357.000000) scale(0.100000,-0.100000)"
fill="#000000" stroke="none">
<path d="M1295 3068 c-4 -15 -35 -294 -35 -320 0 -17 -22 -18 -329 -18 l-330
0 -7 -57 c-4 -32 -8 -80 -8 -108 l-1 -50 324 -3 323 -2 -7 -83 c-3 -45 -12
-125 -18 -177 l-12 -95 -287 -3 -286 -2 -7 -68 c-3 -37 -8 -86 -11 -110 l-5
-42 672 2 673 3 7 35 c4 19 9 68 13 108 l6 72 -275 0 c-250 0 -275 2 -275 17
0 29 31 318 35 331 3 9 76 12 320 12 173 0 315 1 316 3 5 15 24 209 20 212 -2
3 -143 5 -313 5 -254 0 -310 2 -314 14 -3 7 -1 49 5 92 6 44 13 116 17 162 l7
82 -107 0 c-77 0 -108 -4 -111 -12z"/>
<path d="M5466 3068 c-2 -7 -9 -62 -15 -123 -36 -358 -69 -660 -77 -712 l-5
-33 -175 0 c-203 0 -187 11 -198 -127 l-7 -83 175 0 c96 0 177 -4 180 -8 3 -5
1 -49 -4 -98 -5 -49 -19 -174 -30 -279 -11 -104 -27 -253 -35 -330 -30 -295
-45 -431 -51 -472 l-6 -43 111 0 111 0 0 40 c0 21 4 72 10 112 5 40 23 208 40
373 49 483 70 679 75 693 3 9 46 12 169 12 189 0 170 -14 182 128 l7 82 -167
0 -166 0 0 31 c0 17 6 85 14 152 8 67 22 194 31 282 9 88 23 214 30 280 8 65
11 123 9 127 -9 14 -204 10 -208 -4z"/>
<path d="M2610 2988 c-5 -13 -14 -81 -20 -153 -6 -71 -15 -164 -20 -205 -5
-41 -19 -163 -30 -270 -51 -480 -61 -555 -101 -788 -38 -214 -130 -549 -189
-688 -22 -51 -24 -50 89 -93 63 -24 86 -29 92 -19 19 30 121 357 152 488 80
334 114 573 187 1310 12 118 23 221 25 228 3 9 67 12 275 12 l271 0 -7 -22
c-4 -13 -12 -39 -19 -58 l-12 -35 -179 -5 -178 -5 -7 -35 c-4 -19 -15 -109
-24 -200 -9 -91 -23 -218 -31 -282 -8 -64 -14 -135 -14 -157 l0 -41 206 0 206
0 -6 -52 c-3 -29 -9 -82 -12 -118 -9 -88 -26 -120 -64 -120 -18 0 -37 8 -47
20 -10 11 -23 20 -29 20 -14 0 -116 -40 -127 -50 -5 -4 0 -25 12 -47 90 -177
350 -157 419 31 11 28 25 107 31 176 7 68 15 128 17 132 3 5 88 8 190 8 169 0
184 1 184 18 0 9 5 55 10 102 14 117 40 362 47 435 4 52 2 65 -19 95 -37 55
-65 63 -235 68 -109 3 -153 8 -153 17 0 6 7 32 16 58 l16 47 276 2 277 3 8 84
c5 46 6 89 3 97 -5 12 -123 14 -741 14 l-735 0 -10 -22z m1101 -528 c-1 -25
-8 -48 -14 -52 -17 -11 -585 -10 -591 1 -3 5 -3 30 0 55 l7 46 301 -2 301 -3
-4 -45z m-28 -217 c2 -5 2 -29 -1 -55 l-4 -48 -299 0 -299 0 0 48 c0 27 3 52
7 55 9 10 591 9 596 0z"/>
<path d="M4465 2940 c-4 -7 -14 -72 -21 -144 -7 -72 -20 -196 -29 -276 -9 -80
-22 -206 -30 -280 -8 -74 -21 -200 -29 -280 -9 -80 -29 -275 -46 -435 -16
-159 -36 -353 -44 -429 -8 -77 -13 -143 -10 -148 3 -4 47 -8 98 -8 l94 0 13
108 14 107 170 3 c93 1 173 6 177 10 4 4 14 72 22 152 9 80 23 208 31 285 8
77 24 226 35 330 24 227 44 418 67 615 24 216 23 287 -5 328 -43 60 -65 65
-293 70 -158 3 -208 1 -214 -8z m325 -222 c0 -13 -5 -61 -10 -108 -10 -81 -20
-172 -54 -495 -9 -77 -22 -205 -31 -285 -9 -80 -22 -210 -31 -290 -8 -80 -17
-151 -19 -157 -3 -9 -27 -13 -75 -13 -82 0 -76 -19 -55 180 35 337 45 434 60
570 9 80 22 208 30 285 8 77 19 181 25 230 5 50 10 93 10 98 0 4 34 7 75 7 71
0 75 -1 75 -22z"/>
<path d="M2926 1880 c-41 -54 -192 -200 -207 -200 -5 0 -9 -7 -9 -16 0 -21 88
-124 106 -124 19 0 166 142 219 210 74 97 74 94 8 136 -31 20 -61 38 -67 40
-7 3 -29 -18 -50 -46z"/>
<path d="M3628 1889 c-32 -16 -58 -35 -58 -42 0 -7 17 -37 37 -67 21 -30 65
-105 98 -166 l61 -111 66 33 c37 18 69 38 73 44 14 22 -181 341 -208 340 -7
-1 -38 -14 -69 -31z"/>
<path d="M1128 1788 c-37 -29 -67 -58 -68 -64 0 -6 30 -47 66 -90 36 -43 93
-117 126 -164 33 -47 62 -87 64 -89 4 -4 44 27 108 82 l40 34 -43 64 c-44 65
-119 159 -188 237 l-38 42 -67 -52z"/>
<path d="M525 1548 c-40 -191 -110 -421 -167 -546 -15 -35 -28 -66 -28 -68 0
-7 159 -84 173 -84 37 0 218 579 221 709 l1 34 -80 18 c-44 10 -85 18 -91 18
-6 1 -19 -36 -29 -81z"/>
<path d="M1732 1591 c-85 -30 -83 -16 -33 -176 40 -128 90 -354 116 -532 4
-24 11 -43 15 -43 15 0 175 52 183 59 16 15 -94 508 -145 652 -27 76 -33 78
-136 40z"/>
<path d="M817 1533 c-14 -23 -18 -240 -7 -339 16 -142 42 -224 93 -302 78
-116 157 -155 317 -155 141 0 201 22 286 107 67 67 101 126 132 226 23 78 46
199 39 206 -5 5 -172 44 -189 44 -4 0 -10 -17 -13 -37 -10 -61 -36 -156 -52
-187 -8 -15 -33 -48 -55 -72 -94 -102 -252 -87 -305 27 -39 83 -48 147 -48
322 l0 167 -97 0 c-53 0 -99 -3 -101 -7z"/>
<path d="M3196 1421 c-33 -20 -61 -42 -63 -48 -2 -6 13 -37 33 -68 20 -32 52
-91 70 -131 18 -41 37 -74 41 -74 14 0 143 82 143 91 0 29 -141 270 -157 268
-5 0 -35 -17 -67 -38z"/>
<path d="M2700 1313 c-28 -103 -68 -217 -109 -307 -16 -35 -26 -68 -22 -73 8
-12 136 -83 150 -83 21 0 97 196 152 389 16 57 27 106 25 108 -2 2 -33 12 -69
22 -36 11 -74 22 -85 25 -17 6 -22 -3 -42 -81z"/>
<path d="M3720 1369 c-41 -17 -79 -34 -84 -39 -4 -4 6 -50 22 -102 40 -124 68
-229 83 -308 6 -36 15 -70 18 -76 4 -8 29 -3 81 18 41 16 79 33 84 38 10 10
-5 96 -40 225 -35 126 -76 259 -83 267 -3 4 -40 -7 -81 -23z"/>
<path d="M2917 1304 c-11 -11 -8 -170 3 -243 22 -132 94 -241 189 -285 37 -17
66 -21 151 -21 99 0 109 2 172 33 72 35 125 88 163 162 30 60 57 152 47 162
-8 8 -142 48 -161 48 -4 0 -14 -20 -21 -45 -32 -113 -116 -183 -207 -172 -54
6 -91 31 -120 82 -23 42 -46 173 -41 238 l3 42 -86 3 c-47 1 -88 0 -92 -4z"/>
</g>
</svg>
