<?xml version="1.0" standalone="no"?>
<!DOCTYPE svg PUBLIC "-//W3C//DTD SVG 20010904//EN"
 "http://www.w3.org/TR/2001/REC-SVG-20010904/DTD/svg10.dtd">
<svg version="1.0" xmlns="http://www.w3.org/2000/svg"
 width="855.000000pt" height="511.000000pt" viewBox="0 0 855.000000 511.000000"
 preserveAspectRatio="xMidYMid meet">

<g transform="translate(0.000000,511.000000) scale(0.100000,-0.100000)"
fill="#000000" stroke="none">
<path d="M487 4938 c-4 -24 -9 -74 -12 -113 -10 -106 -9 -105 -65 -105 -34 0
-50 -4 -54 -16 -14 -38 -7 -44 49 -44 54 0 54 0 50 -27 -12 -71 -34 -316 -29
-324 7 -12 41 -12 48 0 3 5 13 76 22 158 22 209 15 193 74 193 49 0 50 1 50
30 0 29 -2 30 -43 30 -24 0 -46 2 -49 5 -2 3 -1 33 3 67 4 35 10 91 13 126 l7
62 -29 0 c-27 0 -30 -3 -35 -42z"/>
<path d="M2070 4955 c0 -24 -1 -24 -97 -27 l-98 -3 -3 -27 -3 -28 220 0 c184
0 221 2 221 14 0 8 3 21 6 30 5 14 -6 16 -90 16 -96 0 -96 0 -96 25 0 21 -5
25 -30 25 -25 0 -30 -4 -30 -25z"/>
<path d="M2600 4945 l0 -34 -67 -3 c-66 -3 -68 -4 -71 -30 l-3 -28 67 0 67 0
-7 -31 c-3 -17 -6 -35 -6 -40 0 -5 -38 -9 -85 -9 l-85 0 0 -30 0 -29 103 -3
102 -3 -60 -38 c-33 -21 -86 -50 -117 -65 -61 -28 -66 -37 -44 -67 13 -18 16
-17 70 13 31 18 56 30 56 27 0 -3 -7 -22 -15 -42 -27 -63 -27 -63 105 -63
l120 0 -6 -32 c-4 -18 -13 -43 -20 -55 -20 -32 -68 -31 -89 1 -11 17 -22 22
-40 18 -29 -5 -29 -5 -10 -42 42 -81 164 -77 197 6 23 58 32 133 17 150 -8 10
-37 14 -115 14 -57 0 -104 2 -104 5 0 2 5 16 12 30 11 25 12 25 130 25 l118 0
0 30 0 30 -97 0 -97 0 34 30 c33 27 41 29 118 30 64 0 82 3 82 14 0 8 3 21 6
30 5 13 -3 16 -50 16 l-57 0 51 62 c27 35 50 66 50 70 0 4 -9 12 -20 18 -17 9
-24 7 -40 -12 -11 -13 -20 -27 -20 -33 -1 -5 -5 0 -10 13 -8 19 -17 22 -60 22
l-50 0 0 35 c0 32 -2 35 -30 35 -28 0 -30 -3 -30 -35z m150 -102 c0 -17 -66
-73 -87 -73 -24 0 -28 14 -17 58 6 19 13 22 55 22 27 0 49 -3 49 -7z"/>
<path d="M3188 4933 l-3 -48 -97 -3 -98 -3 0 -29 0 -30 88 0 c49 0 91 -2 93
-4 2 -2 2 -27 1 -55 l-4 -51 -83 0 c-77 0 -83 -1 -89 -22 -3 -13 -6 -26 -6
-30 0 -5 87 -8 194 -8 168 0 195 2 200 16 15 40 9 44 -74 44 -89 0 -89 1 -74
79 l7 31 93 0 94 0 0 30 0 30 -91 0 -91 0 4 50 3 50 -32 0 c-31 0 -32 -1 -35
-47z"/>
<path d="M4280 4954 c-6 -16 -13 -35 -15 -41 -3 -9 -27 -13 -75 -13 l-70 0 0
-30 c0 -30 1 -30 55 -30 39 0 55 -4 55 -13 0 -20 -92 -170 -139 -226 -39 -46
-40 -49 -23 -65 27 -23 33 -21 76 34 22 28 40 49 42 48 1 -2 -4 -59 -12 -128
-7 -69 -14 -140 -14 -158 0 -30 2 -33 28 -30 26 3 27 5 36 86 l8 82 89 0 89 0
0 -33 c0 -36 -24 -77 -45 -77 -8 0 -20 9 -29 21 -16 23 -49 22 -54 -2 -4 -23
35 -67 66 -74 37 -8 77 8 97 39 23 35 62 381 45 401 -10 12 -37 15 -116 15
-66 0 -104 4 -104 10 0 6 7 24 15 40 l16 30 118 0 c115 0 119 1 125 23 3 12 6
25 6 30 0 4 -52 7 -116 7 -89 0 -115 3 -111 13 15 40 17 57 8 57 -5 0 -16 3
-25 6 -11 4 -19 -3 -26 -22z m160 -251 c0 -5 -3 -18 -6 -30 -6 -22 -11 -23
-95 -23 -92 0 -99 3 -83 44 5 13 23 16 95 16 49 0 89 -3 89 -7z m-18 -148 l-4
-35 -89 0 -89 0 0 35 0 35 93 0 93 0 -4 -35z"/>
<path d="M4703 4962 l-22 -17 32 -52 c34 -56 42 -60 70 -38 18 13 17 16 -17
69 -20 31 -37 56 -38 56 -2 0 -13 -8 -25 -18z"/>
<path d="M4877 4973 c-2 -4 -12 -33 -22 -63 -10 -30 -29 -76 -44 -102 -25 -47
-25 -48 -6 -62 28 -21 29 -21 53 29 18 37 27 45 48 45 l27 0 -7 -61 c-3 -34
-6 -73 -6 -85 0 -23 -3 -24 -70 -24 l-70 0 0 -30 0 -30 66 0 66 0 -6 -37 c-15
-102 -27 -234 -21 -243 7 -12 42 -13 49 -2 3 5 10 60 16 123 17 172 10 159 80
159 45 0 60 4 60 14 0 8 3 21 6 30 5 12 -5 16 -58 18 l-63 3 9 83 8 82 48 0
c34 0 50 4 54 16 16 41 10 44 -89 44 -103 0 -105 2 -85 56 6 15 9 28 8 29 -10
9 -47 14 -51 8z"/>
<path d="M5385 4933 c-22 -25 -64 -62 -92 -81 -57 -38 -61 -43 -38 -62 13 -11
22 -10 49 5 l34 19 36 -28 c20 -15 36 -31 36 -36 0 -9 -125 -63 -172 -75 -32
-8 -31 -7 -17 -39 l11 -24 52 18 c28 9 80 31 116 49 l65 32 -57 -54 c-31 -29
-84 -68 -117 -87 -63 -37 -71 -49 -45 -71 13 -10 20 -10 44 4 15 9 34 17 42
17 13 0 78 -59 78 -72 0 -8 -105 -53 -172 -74 -53 -16 -56 -18 -45 -41 12 -28
28 -29 98 -4 140 48 274 139 335 226 52 76 44 89 -60 93 l-77 3 21 26 c19 24
19 28 5 44 -15 16 -13 20 30 55 56 48 98 106 90 126 -8 21 -36 28 -112 28 -53
0 -61 2 -56 16 6 16 -12 34 -32 33 -5 -1 -28 -21 -50 -46z m130 -108 c-27 -25
-52 -45 -55 -45 -3 0 -22 17 -44 36 -49 46 -38 54 69 53 l80 0 -50 -44z m18
-286 l-63 -61 -45 39 -45 38 26 23 c22 19 36 22 107 22 l82 0 -62 -61z"/>
<path d="M5885 4910 l-7 -70 -44 0 c-44 0 -44 0 -44 -35 0 -34 1 -35 41 -35
l40 0 -6 -57 c-3 -32 -8 -75 -11 -95 l-6 -38 -54 0 c-53 0 -54 0 -54 -30 l0
-30 233 2 232 3 3 28 c3 27 3 27 -53 27 l-57 0 7 68 c12 126 10 122 66 122
l49 0 0 35 c0 35 0 35 -46 35 l-47 0 7 70 6 70 -29 0 c-24 0 -29 -5 -35 -31
-3 -17 -6 -49 -6 -70 l0 -39 -66 0 -65 0 7 70 7 70 -31 0 c-30 0 -30 0 -37
-70z m171 -157 c-2 -10 -7 -53 -11 -95 l-7 -78 -65 0 -65 0 6 28 c2 15 8 57
11 95 l7 67 64 0 c57 0 65 -2 60 -17z"/>
<path d="M7069 4970 c-14 -8 -14 -14 5 -55 22 -47 32 -53 59 -32 15 11 15 15
-3 55 -19 42 -32 49 -61 32z"/>
<path d="M7546 4968 c-2 -7 -11 -42 -20 -78 -10 -36 -37 -107 -62 -158 -43
-89 -44 -95 -27 -108 25 -18 26 -18 45 14 l17 27 1 -32 c0 -18 5 -55 11 -83
12 -58 9 -66 -69 -158 l-45 -53 20 -20 20 -20 34 38 c19 21 44 51 57 67 12 16
24 27 25 25 39 -56 67 -85 101 -100 47 -21 139 -25 196 -8 32 10 36 15 32 36
-4 23 -7 23 -51 16 -116 -20 -185 5 -226 80 l-19 35 28 61 c34 76 78 252 74
294 -3 29 -7 33 -51 41 l-48 9 7 44 c6 41 5 43 -20 43 -15 0 -28 -6 -30 -12z
m87 -145 c5 -9 -34 -170 -53 -218 -16 -42 -27 -19 -36 76 -8 98 10 149 55 149
16 0 32 -3 34 -7z"/>
<path d="M7740 4976 c0 -3 -11 -129 -25 -282 -14 -152 -25 -281 -25 -286 0 -4
14 -8 30 -8 25 0 30 4 30 25 0 29 38 476 44 523 4 30 3 32 -25 32 -16 0 -29
-2 -29 -4z"/>
<path d="M1465 4961 c-11 -5 -43 -12 -70 -15 -64 -9 -76 -16 -69 -43 5 -18 11
-21 40 -16 33 6 34 5 34 -30 0 -58 -7 -67 -55 -67 -37 0 -43 -3 -47 -25 -6
-30 -2 -35 34 -35 15 0 28 -5 28 -11 0 -20 -61 -164 -90 -211 l-29 -47 21 -16
c13 -8 26 -11 31 -6 5 5 24 46 43 92 38 96 40 88 19 -91 -8 -69 -15 -129 -15
-133 0 -5 12 -7 28 -5 l27 3 16 140 c9 77 17 142 18 144 0 2 10 -4 22 -15 20
-18 21 -18 35 0 12 16 11 23 -7 47 -11 16 -24 31 -29 34 -6 4 -10 21 -10 40 0
31 3 34 33 37 27 2 33 8 35 31 3 24 0 27 -29 27 -31 0 -32 1 -25 38 3 20 6 47
6 59 0 16 8 23 29 28 25 5 29 10 22 28 -9 25 -19 29 -46 18z"/>
<path d="M3576 4928 c-3 -18 -15 -114 -26 -213 -17 -152 -48 -308 -75 -376 -4
-12 1 -18 21 -23 14 -4 27 -6 29 -4 6 7 36 109 50 169 12 52 55 374 55 412 0
4 36 7 81 7 60 0 80 -3 77 -12 -3 -8 -28 -15 -59 -18 l-54 -5 -7 -60 c-4 -33
-9 -79 -12 -102 l-6 -43 61 0 60 0 -3 -42 c-3 -42 -4 -43 -35 -40 -17 2 -34
-2 -37 -7 -9 -15 30 -51 54 -51 28 0 70 44 70 72 0 59 9 68 65 68 l52 0 7 53
c16 135 6 157 -68 157 -25 0 -36 5 -36 15 0 11 18 15 83 17 81 3 82 3 85 31
l3 27 -215 0 -215 0 -5 -32z m324 -128 c0 -19 -7 -20 -90 -20 -83 0 -90 1 -90
20 0 19 7 20 90 20 83 0 90 -1 90 -20z m-10 -75 c0 -12 -17 -15 -90 -15 -73 0
-90 3 -90 15 0 12 17 15 90 15 73 0 90 -3 90 -15z"/>
<path d="M792 4923 l3 -28 134 -5 135 -5 -67 -59 c-53 -46 -67 -64 -67 -86 0
-58 -4 -60 -111 -60 l-99 0 0 -30 0 -30 100 0 101 0 -5 -32 c-3 -18 -8 -67
-11 -108 -4 -41 -11 -83 -16 -93 -14 -25 -51 -18 -64 11 -7 16 -17 22 -35 20
-35 -4 -37 -38 -6 -76 67 -78 166 -31 180 86 3 26 8 80 12 120 l6 72 93 0 c75
0 94 3 99 16 16 41 10 44 -89 44 l-95 0 0 27 c0 20 20 47 80 109 124 126 117
134 -113 134 l-168 0 3 -27z"/>
<path d="M6366 4913 c-5 -33 -52 -495 -59 -578 -2 -26 2 -30 25 -33 22 -3 28
2 32 20 6 25 56 523 56 551 0 15 14 17 150 17 83 0 150 -4 150 -9 0 -24 -51
-478 -56 -493 -8 -26 -33 -29 -55 -7 -15 15 -28 19 -45 15 -31 -8 -30 -27 2
-65 44 -53 127 -38 152 26 13 34 65 507 60 554 l-3 34 -202 3 -201 2 -6 -37z"/>
<path d="M196 4918 c-6 -27 -56 -515 -56 -540 0 -13 8 -18 25 -18 20 0 27 6
32 30 5 28 8 30 53 30 41 0 49 3 53 23 3 12 15 122 28 244 27 261 29 253 -67
253 -58 0 -64 -2 -68 -22z m94 -65 c0 -26 -23 -238 -35 -330 -5 -34 -10 -43
-26 -43 -23 0 -24 4 -4 191 22 205 23 209 45 209 15 0 20 -7 20 -27z"/>
<path d="M1555 4928 c-3 -7 -16 -125 -30 -263 -13 -137 -27 -267 -30 -287 l-5
-38 100 0 c97 0 100 1 101 23 0 12 12 135 27 272 15 138 26 258 24 268 -5 25
-42 37 -118 37 -43 0 -66 -4 -69 -12z m124 -85 c0 -16 -10 -120 -22 -233 l-22
-205 -39 -3 -39 -3 6 48 c3 26 13 132 23 236 l18 187 38 0 c35 0 38 -2 37 -27z"/>
<path d="M6917 4843 c-4 -3 -7 -17 -7 -30 l0 -23 156 0 155 0 -61 -89 c-33
-49 -88 -119 -122 -155 -59 -65 -61 -66 -80 -49 -20 17 -21 17 -37 -7 -9 -14
-37 -48 -63 -75 l-46 -50 20 -25 20 -25 47 51 46 52 38 -33 c68 -59 183 -81
280 -54 34 9 37 12 31 37 -9 36 -7 35 -51 23 -53 -15 -128 -14 -166 3 -66 30
-66 29 0 100 79 84 223 291 223 320 0 2 -7 12 -16 20 -13 13 -44 16 -188 16
-95 0 -176 -3 -179 -7z"/>
<path d="M1939 4813 c0 -10 -4 -44 -8 -75 l-7 -58 147 0 147 0 7 60 c10 89 9
90 -151 90 -121 0 -134 -2 -135 -17z m231 -58 c0 -25 -1 -25 -90 -25 -89 0
-90 0 -90 25 0 25 1 25 90 25 89 0 90 0 90 -25z"/>
<path d="M6447 4823 c-4 -3 -7 -17 -7 -30 0 -23 1 -23 120 -23 l120 0 0 30 0
30 -113 0 c-63 0 -117 -3 -120 -7z"/>
<path d="M7800 4793 c0 -15 19 -124 36 -211 4 -19 9 -22 27 -16 12 3 23 8 25
9 2 2 -6 55 -18 119 -21 110 -23 116 -46 116 -16 0 -24 -6 -24 -17z"/>
<path d="M4640 4740 c0 -25 4 -30 25 -30 30 0 30 -2 11 -169 -11 -104 -15
-116 -39 -135 -25 -20 -25 -22 -9 -44 l18 -23 45 33 c26 18 63 48 84 66 l38
34 -21 21 c-21 20 -22 20 -42 2 -25 -22 -25 -26 -8 131 14 133 9 144 -58 144
-42 0 -44 -1 -44 -30z"/>
<path d="M6456 4709 c-5 -18 -26 -211 -26 -244 0 -20 5 -25 24 -25 16 0 27 7
31 20 6 17 15 20 75 20 l68 0 6 58 c16 132 16 148 7 162 -14 21 -179 28 -185
9z m130 -80 c-3 -17 -6 -47 -6 -65 0 -34 -1 -34 -45 -34 l-44 0 5 53 c8 76 9
77 55 77 41 0 41 0 35 -31z"/>
<path d="M1855 4628 c-9 -42 -33 -313 -28 -320 6 -12 41 -10 48 2 5 7 29 199
35 278 0 1 68 2 151 2 l151 0 -6 -37 c-3 -21 -8 -65 -12 -98 -4 -33 -11 -68
-16 -77 -10 -20 -38 -24 -55 -7 -12 12 -53 -4 -53 -21 0 -18 54 -50 86 -50 73
0 96 49 110 239 l7 90 -27 11 c-15 5 -108 10 -206 10 -178 0 -180 0 -185 -22z"/>
<path d="M3643 4603 c-37 -39 -38 -44 -21 -61 18 -18 102 66 86 85 -16 19 -29
14 -65 -24z"/>
<path d="M3872 4631 c-11 -7 -8 -19 15 -59 24 -41 32 -49 46 -41 23 13 22 22
-8 69 -27 42 -32 45 -53 31z"/>
<path d="M3144 4602 l-21 -17 36 -47 c20 -26 38 -47 41 -47 3 0 13 6 24 14 18
13 17 16 -19 64 -20 28 -37 51 -38 51 -1 -1 -11 -8 -23 -18z"/>
<path d="M1946 4548 c-3 -7 -7 -39 -10 -70 l-6 -58 109 0 c104 0 109 1 115 23
12 45 7 105 -10 111 -31 12 -194 7 -198 -6z m164 -53 c0 -24 -3 -25 -60 -25
-57 0 -60 1 -60 25 0 24 3 25 60 25 57 0 60 -1 60 -25z"/>
<path d="M2975 4546 c-1 -6 -16 -52 -32 -103 l-29 -92 24 -10 c12 -6 24 -11
26 -11 4 0 51 151 60 191 5 23 2 27 -20 32 -14 2 -27 0 -29 -7z"/>
<path d="M3314 4542 c-9 -5 -7 -26 7 -77 10 -38 18 -79 19 -90 1 -32 14 -45
38 -38 27 7 27 14 1 124 -21 89 -32 103 -65 81z"/>
<path d="M3050 4478 c0 -119 40 -178 119 -178 57 0 87 20 112 74 26 58 25 83
-6 88 -22 5 -26 1 -35 -33 -20 -74 -97 -91 -119 -28 -6 18 -11 54 -11 80 0 48
-1 49 -30 49 -30 0 -30 -1 -30 -52z"/>
<path d="M3747 4496 c-17 -13 -17 -15 4 -50 22 -38 26 -41 48 -27 15 10 9 35
-17 68 -15 19 -19 20 -35 9z"/>
<path d="M8045 4491 c-36 -15 -58 -49 -63 -100 -4 -43 -1 -53 21 -75 74 -74
191 19 163 128 -10 42 -73 66 -121 47z m69 -47 c37 -36 5 -114 -47 -114 -32 0
-47 18 -47 55 0 58 59 95 94 59z"/>
<path d="M3591 4423 c-21 -64 -21 -68 -5 -80 10 -7 21 -10 25 -6 9 9 51 134
47 138 -2 1 -12 5 -24 9 -19 6 -24 -1 -43 -61z"/>
<path d="M3896 4477 c-16 -11 -16 -17 1 -80 16 -59 20 -66 38 -61 30 9 29 8
10 79 -19 73 -25 80 -49 62z"/>
<path d="M5799 4415 l-77 -73 23 -22 22 -21 79 75 c77 74 78 75 60 95 -11 12
-22 21 -25 21 -3 0 -40 -34 -82 -75z"/>
<path d="M6037 4472 c-10 -10 -17 -21 -17 -25 0 -4 27 -38 61 -77 l61 -71 24
22 24 22 -43 46 c-23 25 -52 58 -64 74 -25 32 -25 32 -46 9z"/>
<path d="M3667 4446 c-7 -19 8 -82 27 -111 36 -55 138 -37 170 30 19 40 20 40
-9 49 -15 4 -24 -2 -37 -24 -13 -23 -24 -30 -47 -30 -35 0 -51 22 -51 69 0 26
-4 31 -24 31 -13 0 -26 -6 -29 -14z"/>
<path d="M270 4111 c0 -28 -2 -30 -47 -33 -44 -3 -48 -5 -51 -30 l-3 -28 119
0 c119 0 120 0 124 25 7 32 3 35 -48 35 -43 0 -43 0 -37 30 5 28 4 30 -26 30
-28 0 -31 -3 -31 -29z"/>
<path d="M474 4060 l-7 -80 -32 0 c-25 0 -34 -5 -39 -22 -9 -36 -8 -38 29 -38
l35 0 -6 -42 c-12 -75 -43 -187 -65 -236 l-22 -47 -10 63 c-8 55 -11 62 -31
62 -24 0 -24 4 -10 -108 5 -38 8 -42 26 -36 23 7 21 1 -19 -52 -23 -31 -23
-31 -3 -49 15 -13 23 -15 33 -7 21 18 68 108 93 181 l24 66 0 -97 c0 -110 9
-143 40 -151 44 -11 83 55 92 153 3 29 0 35 -19 38 -22 3 -23 1 -39 -90 -3
-21 -11 -38 -17 -38 -10 0 -5 183 9 283 6 39 4 47 -10 47 -11 0 -16 9 -16 30
0 30 1 30 54 30 47 0 54 3 60 23 10 36 8 37 -49 37 l-55 0 6 63 c3 34 7 70 9
80 2 13 -4 17 -25 17 -28 0 -29 0 -36 -80z"/>
<path d="M815 4053 c-21 -48 -61 -120 -87 -160 -49 -76 -51 -85 -18 -103 15
-8 22 -4 39 23 26 40 26 39 2 -173 -11 -91 -17 -168 -14 -172 2 -5 15 -8 27
-8 29 0 28 -4 56 285 20 198 25 227 53 293 31 72 31 74 12 88 -10 8 -22 14
-25 14 -3 0 -23 -39 -45 -87z"/>
<path d="M964 4102 c-15 -20 -38 -49 -51 -63 -20 -21 -26 -41 -29 -90 -2 -35
-6 -74 -9 -86 -5 -21 -2 -23 36 -23 37 0 40 -2 28 -16 -7 -8 -30 -24 -51 -35
-39 -20 -42 -26 -32 -53 6 -17 36 -8 86 26 31 21 48 23 48 5 0 -13 -89 -70
-127 -82 -24 -7 -28 -21 -14 -44 11 -18 51 -3 111 40 45 33 50 34 50 15 0 -21
-57 -66 -127 -98 -55 -26 -61 -32 -54 -51 6 -14 15 -21 27 -19 19 4 98 47 142
78 25 19 27 13 16 -46 -8 -37 -30 -49 -47 -26 -16 21 -47 11 -47 -15 0 -27 35
-59 65 -59 57 0 89 77 83 197 -2 48 0 74 8 77 7 3 13 -21 18 -71 6 -77 24
-153 36 -153 3 0 14 6 24 13 16 12 17 17 6 37 -7 13 -15 63 -18 111 -4 81 -3
88 17 100 22 15 26 26 13 47 -7 10 -19 7 -53 -13 -53 -30 -75 -31 -89 -6 -18
35 -11 40 58 43 l67 3 7 64 c8 70 0 91 -33 91 -18 0 -19 2 -4 29 13 27 13 31
-1 45 -9 10 -33 16 -61 16 -36 0 -44 3 -39 15 3 8 -3 19 -13 25 -16 8 -24 3
-47 -28z m96 -82 c-9 -16 -21 -20 -62 -20 -50 0 -51 0 -33 20 13 14 31 20 62
20 41 0 43 -1 33 -20z m-62 -97 c-2 -23 -8 -29 -35 -31 -35 -3 -36 -1 -27 36
5 16 14 22 36 22 26 0 29 -3 26 -27z m112 13 c0 -32 -13 -46 -42 -46 -23 0
-29 4 -24 16 3 9 6 22 6 30 0 9 11 14 30 14 19 0 30 -5 30 -14z"/>
<path d="M1607 4098 c-4 -24 -9 -74 -12 -113 -10 -106 -9 -105 -65 -105 -34 0
-50 -4 -54 -16 -14 -38 -7 -44 49 -44 54 0 54 0 50 -27 -12 -71 -34 -316 -29
-324 7 -12 41 -12 48 0 3 5 13 76 22 158 22 209 15 193 74 193 49 0 50 1 50
30 0 29 -2 30 -43 30 -24 0 -46 2 -49 5 -2 3 -1 33 3 67 4 35 10 91 13 126 l7
62 -29 0 c-27 0 -30 -3 -35 -42z"/>
<path d="M3741 4027 c-6 -62 -11 -119 -11 -125 0 -8 -18 -12 -50 -12 l-50 0 1
43 c0 23 4 68 8 100 l7 57 -31 0 -32 0 -11 -107 c-19 -168 -25 -153 68 -153
44 0 80 -3 80 -7 0 -5 -7 -66 -15 -138 -8 -71 -15 -136 -15 -142 0 -9 -20 -13
-66 -13 l-67 0 6 38 c3 20 9 72 13 115 l7 77 -30 0 -30 0 -12 -122 c-7 -68
-14 -133 -17 -145 l-4 -23 220 0 c169 0 220 3 220 13 0 15 18 178 25 235 6 41
6 42 -24 42 -33 0 -36 -6 -46 -125 -10 -108 -8 -105 -77 -105 l-60 0 5 33 c3
17 11 85 18 149 l12 117 81 3 80 3 7 35 c4 19 11 77 14 128 l7 92 -30 0 -29 0
-7 -82 c-10 -120 -9 -118 -67 -118 l-50 0 7 63 c3 34 9 90 13 125 l7 62 -31 0
-32 0 -12 -113z"/>
<path d="M4277 4082 c-38 -61 -131 -156 -184 -187 -36 -21 -39 -31 -18 -59 13
-18 17 -16 79 28 35 25 87 71 115 103 28 31 52 55 54 52 59 -82 93 -119 140
-155 33 -24 62 -44 66 -44 8 0 34 51 29 55 -2 1 -23 16 -48 32 -49 34 -104 89
-139 140 -17 26 -20 37 -11 52 8 16 7 22 -9 31 -31 16 -36 13 -74 -48z"/>
<path d="M4745 4058 c-22 -46 -63 -119 -93 -162 l-53 -79 21 -21 21 -21 19 23
c10 12 20 22 22 22 2 0 -4 -75 -14 -167 -10 -93 -15 -174 -13 -181 3 -7 15
-12 27 -10 20 3 24 11 31 68 14 113 15 115 36 96 16 -15 19 -15 33 1 29 34 59
93 89 170 l30 78 -6 -85 c-10 -144 -11 -148 -54 -152 -33 -3 -36 -6 -39 -35
-3 -32 -2 -33 33 -33 l37 0 -4 -52 c-3 -49 -1 -53 21 -56 30 -5 41 12 41 66 0
41 0 42 35 42 35 0 41 6 47 45 2 17 -3 21 -35 23 -34 3 -38 6 -34 25 3 12 9
63 13 112 9 124 19 145 28 61 7 -71 51 -226 65 -226 4 0 15 6 26 14 17 13 17
16 -9 87 -22 61 -55 193 -56 222 0 4 20 7 44 7 41 0 44 2 48 30 l5 30 -64 0
-64 0 7 70 7 70 -31 0 c-30 0 -30 0 -37 -70 l-7 -70 -64 0 -64 0 0 -30 c0 -28
2 -30 40 -30 22 0 40 -2 40 -4 0 -36 -124 -285 -136 -273 -3 3 2 68 10 145 14
122 21 150 51 213 19 41 35 79 35 86 0 10 -29 33 -42 33 -2 0 -21 -37 -43 -82z"/>
<path d="M5791 4131 c-11 -7 -10 -19 8 -66 l22 -58 -36 -37 c-33 -33 -35 -40
-24 -58 13 -20 13 -20 40 -1 l27 19 4 -43 c5 -47 -9 -74 -74 -142 -35 -37 -37
-43 -24 -60 14 -19 16 -19 55 20 25 24 41 33 41 24 0 -45 -23 -185 -32 -196
-16 -20 -26 -16 -33 16 -5 22 -10 28 -26 24 -28 -8 -25 -58 6 -89 42 -42 95
-14 114 59 18 74 34 279 28 371 -6 85 -5 90 25 143 17 29 29 55 27 57 -2 2
-13 8 -25 14 -18 10 -22 7 -33 -24 -15 -42 -22 -42 -41 -2 -17 35 -28 42 -49
29z"/>
<path d="M6060 4106 c0 -18 -3 -48 -6 -65 -6 -30 -8 -31 -60 -31 -42 0 -54 -3
-54 -15 0 -22 -19 -204 -25 -237 -4 -28 -4 -28 51 -28 l55 0 -7 -77 c-4 -43
-11 -83 -16 -89 -5 -7 -29 -15 -55 -19 -68 -10 -74 -13 -67 -44 4 -14 8 -27 9
-29 1 -1 55 11 121 28 65 16 120 30 122 30 1 0 2 -13 2 -30 0 -22 5 -30 18
-30 42 1 45 12 27 111 -9 52 -20 98 -24 102 -15 15 -52 -3 -47 -21 19 -64 18
-69 -9 -76 -15 -4 -29 -5 -31 -3 -2 2 -1 35 3 73 l8 69 56 3 56 3 13 124 c15
145 11 155 -53 155 l-40 0 6 65 6 65 -29 0 c-27 0 -30 -3 -30 -34z m-20 -183
c0 -16 -3 -52 -6 -80 -6 -47 -9 -53 -30 -53 -21 0 -24 5 -24 34 0 18 3 54 6
80 6 40 10 46 30 46 20 0 24 -5 24 -27z m110 0 c0 -16 -3 -52 -6 -80 -6 -50
-8 -53 -35 -53 -25 0 -27 3 -24 33 3 17 7 53 10 80 6 42 9 47 31 47 20 0 24
-5 24 -27z"/>
<path d="M6425 4065 c-5 -58 -10 -75 -22 -75 -13 0 -14 8 -9 40 3 23 2 40 -3
40 -5 0 -16 2 -23 5 -11 5 -18 -18 -32 -97 -10 -57 -22 -113 -27 -125 -6 -17
-4 -23 12 -28 26 -9 28 -6 43 52 8 32 18 49 30 51 17 4 18 -2 12 -55 -17 -151
-12 -138 -72 -159 -51 -17 -55 -20 -49 -44 9 -35 11 -35 51 -21 20 7 38 11 41
8 2 -3 0 -45 -6 -93 -11 -92 -7 -109 25 -102 16 3 21 20 32 113 13 106 21 126
55 138 16 5 -1 57 -19 57 -12 0 -14 9 -9 48 13 107 15 112 35 112 16 0 20 7
20 30 0 21 -5 30 -16 30 -15 0 -16 9 -10 75 l7 75 -29 0 c-30 0 -30 0 -37 -75z"/>
<path d="M6650 4101 l0 -40 -47 -3 c-44 -3 -48 -5 -51 -30 -3 -27 -2 -28 42
-28 49 0 51 -3 40 -59 -6 -30 -7 -31 -65 -31 -56 0 -59 -1 -59 -25 l0 -26 143
3 c139 3 142 4 145 26 3 21 0 22 -52 22 -51 0 -56 2 -56 23 0 55 10 67 55 67
35 0 45 4 50 20 10 30 -2 40 -48 40 l-43 0 4 40 c4 39 3 40 -27 40 -29 0 -31
-2 -31 -39z"/>
<path d="M7661 4095 c-11 -25 -30 -60 -42 -76 -19 -28 -20 -32 -6 -46 21 -22
44 -10 64 32 l17 35 73 0 c40 0 73 -2 73 -5 0 -4 -7 -19 -15 -35 -14 -27 -14
-30 6 -41 25 -13 29 -9 54 49 28 65 17 76 -84 80 -72 2 -82 5 -77 19 7 17 -9
33 -31 33 -7 0 -21 -20 -32 -45z"/>
<path d="M578 4123 c-21 -5 -21 -6 -4 -62 14 -48 23 -56 45 -42 11 7 11 17 -4
60 -9 28 -17 50 -18 50 -1 -1 -10 -3 -19 -6z"/>
<path d="M5287 4080 c-15 -42 -22 -50 -42 -50 -15 0 -25 -6 -25 -14 0 -8 -11
-121 -25 -252 -31 -299 -31 -294 -1 -294 18 0 25 7 30 30 5 30 6 30 69 30 l63
0 22 213 c13 116 22 223 22 238 0 31 -17 49 -47 49 -27 0 -27 -2 -7 45 13 31
13 39 2 46 -28 18 -44 8 -61 -41z m59 -132 c-3 -13 -8 -49 -11 -80 l-6 -58
-35 0 c-38 0 -38 -1 -28 99 l7 61 39 0 c35 0 38 -2 34 -22z m-30 -270 c-4 -46
-11 -87 -16 -91 -4 -5 -20 -7 -36 -5 -22 2 -29 8 -27 23 1 11 5 50 8 88 l7 67
35 0 36 0 -7 -82z"/>
<path d="M5499 4103 c-5 -16 -29 -68 -51 -116 -35 -74 -40 -90 -27 -98 26 -17
39 -9 61 36 21 43 24 45 66 45 l44 0 -6 -37 c-3 -21 -13 -105 -21 -188 -20
-192 -27 -215 -66 -215 -22 0 -32 7 -41 25 -8 18 -18 25 -32 23 -33 -5 -31
-42 2 -79 53 -59 135 -41 167 36 7 17 23 126 35 244 l22 215 -22 18 c-13 10
-38 18 -61 18 l-39 0 15 37 c18 43 14 63 -15 63 -13 0 -24 -10 -31 -27z"/>
<path d="M7496 4115 c-17 -13 -17 -16 19 -60 39 -47 51 -51 69 -23 7 12 2 26
-23 57 -36 46 -38 46 -65 26z"/>
<path d="M2451 3998 c-20 -207 -41 -329 -72 -421 -16 -49 -29 -92 -29 -96 0
-4 11 -13 24 -19 24 -11 26 -9 46 46 12 31 29 85 37 120 14 55 19 62 40 62 24
0 24 -2 18 -57 -9 -89 -13 -100 -35 -106 -21 -6 -25 -23 -10 -47 8 -12 18 -11
77 8 92 29 109 42 94 70 -10 18 -15 20 -37 12 -14 -6 -27 -10 -30 -10 -6 0 -5
49 2 93 6 33 10 37 35 37 22 0 29 -5 29 -19 0 -34 31 -105 58 -134 29 -31 92
-67 115 -67 8 0 17 11 19 25 4 21 -1 28 -38 46 -24 11 -44 24 -44 28 0 4 18
22 41 41 38 30 40 34 25 49 -11 11 -20 13 -30 6 -73 -54 -86 -54 -86 -5 0 29
0 29 68 32 61 3 67 5 70 26 3 20 -1 22 -42 22 -46 0 -46 0 -46 35 0 33 2 35
34 35 28 0 34 4 38 25 5 23 2 25 -28 25 -31 0 -34 3 -34 30 0 25 -4 30 -24 30
-19 0 -26 -7 -31 -30 -6 -26 -11 -30 -42 -30 -34 0 -35 1 -31 30 4 27 2 30
-23 30 -22 0 -29 -6 -34 -30 -6 -26 -11 -30 -41 -30 -33 0 -34 1 -34 40 l0 40
174 0 174 0 7 71 c11 110 12 109 -210 109 l-182 0 -12 -122z m345 46 c-3 -9
-6 -22 -6 -30 0 -11 -26 -14 -140 -14 -77 0 -140 3 -140 8 0 4 3 17 6 30 6 21
10 22 146 22 124 0 139 -2 134 -16z m-230 -250 c-3 -9 -6 -24 -6 -35 0 -16 -7
-19 -41 -19 -38 0 -41 2 -35 23 3 12 6 28 6 35 0 7 15 12 41 12 33 0 40 -3 35
-16z m130 0 c-3 -9 -6 -24 -6 -35 0 -15 -7 -19 -35 -19 -33 0 -35 2 -35 35 0
34 1 35 41 35 33 0 40 -3 35 -16z"/>
<path d="M6940 4115 c0 -2 -9 -87 -20 -187 -25 -220 -39 -281 -85 -372 -32
-64 -34 -70 -17 -82 25 -20 29 -18 58 31 53 92 79 208 109 493 l7 62 132 0
133 0 -13 -87 c-25 -166 -45 -393 -38 -430 10 -61 30 -85 67 -81 40 4 66 50
74 133 5 51 4 55 -15 55 -17 0 -22 -8 -27 -37 -10 -60 -24 -88 -37 -75 -17 17
10 305 47 519 10 58 -4 63 -201 63 -96 0 -174 -2 -174 -5z"/>
<path d="M1912 4083 l3 -28 134 -5 135 -5 -67 -59 c-53 -46 -67 -64 -67 -86 0
-58 -4 -60 -111 -60 l-99 0 0 -30 0 -30 100 0 101 0 -5 -32 c-3 -18 -8 -67
-11 -108 -4 -41 -11 -83 -16 -93 -14 -25 -51 -18 -64 11 -7 16 -17 22 -35 20
-35 -4 -37 -38 -6 -76 67 -78 166 -31 180 86 3 26 8 80 12 120 l6 72 93 0 c75
0 94 3 99 16 16 41 10 44 -89 44 l-95 0 0 27 c0 20 20 47 80 109 124 126 117
134 -113 134 l-168 0 3 -27z"/>
<path d="M2987 4103 c-4 -3 -7 -17 -7 -30 0 -18 5 -23 25 -23 26 0 26 -1 20
-62 -10 -101 -12 -108 -40 -108 -15 0 -25 -6 -25 -14 0 -8 -3 -21 -6 -30 -5
-12 1 -16 23 -16 l29 0 -11 -102 c-10 -103 -10 -103 -42 -117 -33 -15 -40 -34
-24 -60 7 -12 26 -6 100 29 50 24 91 47 91 52 0 5 -5 18 -10 29 -10 18 -13 18
-41 3 l-30 -15 5 43 c18 145 15 137 44 140 21 2 28 9 30 31 3 24 0 27 -24 27
l-27 0 7 77 c8 90 10 93 42 93 20 0 24 5 24 30 l0 30 -73 0 c-41 0 -77 -3 -80
-7z"/>
<path d="M3166 4068 c-10 -75 -36 -316 -36 -333 0 -9 9 -15 25 -15 29 0 30 2
45 165 16 179 9 165 85 165 76 0 71 18 50 -165 -19 -171 -20 -165 10 -165 28
0 28 -2 50 208 10 101 12 149 5 163 -10 17 -22 19 -120 19 l-109 0 -5 -42z"/>
<path d="M1316 4078 c-6 -27 -56 -515 -56 -540 0 -13 8 -18 25 -18 20 0 27 6
32 30 5 28 8 30 53 30 41 0 49 3 53 23 3 12 15 122 28 244 27 261 29 253 -67
253 -58 0 -64 -2 -68 -22z m94 -65 c0 -26 -23 -238 -35 -330 -5 -34 -10 -43
-26 -43 -23 0 -24 4 -4 191 22 205 23 209 45 209 15 0 20 -7 20 -27z"/>
<path d="M7719 3993 c-5 -13 -9 -27 -9 -29 0 -16 -58 -77 -95 -101 -41 -26
-42 -28 -28 -49 8 -13 12 -32 8 -44 -6 -18 -15 -20 -81 -20 -57 0 -74 -3 -74
-14 0 -8 -3 -21 -6 -30 -5 -13 3 -16 50 -16 31 0 56 -3 56 -7 -1 -5 -14 -24
-31 -43 l-29 -35 56 -19 c32 -10 52 -22 47 -27 -5 -5 -40 -16 -78 -25 -39 -9
-75 -18 -82 -19 -15 -5 -5 -45 13 -52 16 -6 155 32 202 56 l37 19 80 -38 c72
-35 80 -37 92 -22 22 30 14 39 -52 67 -36 16 -65 30 -65 31 0 2 17 29 37 59
34 50 40 55 75 55 36 0 38 2 38 30 l0 30 -115 0 c-110 0 -115 1 -106 19 9 15
7 20 -12 25 -21 6 -21 7 12 33 19 15 45 39 59 54 l23 27 60 -62 60 -61 18 24
19 25 -38 27 c-44 32 -93 109 -85 131 4 11 -2 17 -20 20 -21 5 -28 1 -36 -19z
m11 -312 c0 -5 -15 -26 -34 -45 -32 -34 -35 -35 -67 -25 -49 17 -53 24 -33 53
17 22 27 25 77 26 31 0 57 -4 57 -9z"/>
<path d="M3246 3928 c-18 -210 -54 -291 -175 -391 -32 -27 -33 -28 -16 -53
l16 -25 50 42 c27 22 64 61 82 86 l32 45 6 -62 c7 -70 30 -102 73 -102 38 0
64 27 81 85 22 74 20 97 -8 97 -21 0 -25 -8 -36 -56 -12 -51 -32 -76 -49 -59
-4 4 -6 45 -5 91 2 71 0 84 -13 84 -12 0 -15 6 -11 23 5 17 37 259 37 274 0 2
-13 3 -29 3 l-28 0 -7 -82z"/>
<path d="M7141 3940 c-14 -39 -27 -73 -31 -75 -4 -2 -20 23 -35 55 -29 60 -43
71 -64 47 -8 -10 -2 -33 24 -93 19 -43 35 -84 35 -90 0 -14 -74 -121 -113
-162 l-31 -32 22 -23 23 -22 30 35 c16 19 44 57 61 83 l32 49 12 -34 c7 -18
13 -42 13 -53 2 -32 15 -45 39 -38 28 7 28 24 -1 116 l-24 73 20 44 c32 75 66
178 59 184 -3 3 -15 6 -26 6 -18 0 -26 -13 -45 -70z"/>
<path d="M184 3913 c-14 -133 -13 -138 24 -141 30 -3 33 -6 28 -30 -2 -15 -7
-54 -11 -87 -12 -130 -14 -136 -41 -129 -33 9 -43 -21 -16 -48 25 -25 66 -18
83 14 9 16 37 215 39 271 0 4 13 7 29 7 17 0 32 4 35 8 3 5 9 44 15 87 14 111
10 115 -94 115 l-83 0 -8 -67z m136 0 c0 -10 -3 -35 -6 -55 -6 -36 -8 -38 -45
-38 l-39 0 0 48 c0 27 3 52 7 55 3 4 24 7 45 7 30 0 38 -4 38 -17z"/>
<path d="M7530 3941 c-5 -11 -28 -41 -51 -67 l-40 -47 21 -21 21 -21 25 30
c14 17 39 50 56 74 30 42 30 45 13 58 -25 18 -32 17 -45 -6z"/>
<path d="M4270 3878 c0 -7 -9 -94 -20 -193 -25 -233 -26 -225 4 -225 14 0 28
5 31 10 7 11 44 335 45 388 0 29 -3 32 -30 32 -17 0 -30 -5 -30 -12z"/>
<path d="M7992 3848 l3 -33 230 0 229 0 7 33 6 32 -239 0 -239 0 3 -32z"/>
<path d="M5435 3834 c-11 -4 14 -156 27 -169 4 -4 16 -4 28 0 20 6 22 12 16
53 -15 109 -30 133 -71 116z"/>
<path d="M6673 3810 c-4 -17 -15 -20 -82 -22 -75 -3 -76 -3 -79 -30 l-3 -28
78 0 79 0 -8 -87 c-5 -48 -14 -93 -20 -100 -16 -19 -44 -16 -59 7 -10 14 -21
18 -36 14 -30 -8 -29 -36 0 -70 19 -21 32 -27 66 -27 68 0 91 30 103 134 14
124 16 129 38 129 16 0 20 7 20 30 0 24 -4 30 -21 30 -16 0 -20 5 -16 20 4 17
0 20 -25 20 -21 0 -31 -6 -35 -20z"/>
<path d="M160 3710 c0 -10 -11 -48 -24 -84 -23 -65 -21 -76 14 -76 12 0 62
159 55 171 -11 18 -45 10 -45 -11z"/>
<path d="M6546 3687 c-17 -12 -17 -15 0 -50 18 -38 28 -43 53 -28 12 8 12 14
2 40 -18 43 -34 54 -55 38z"/>
<path d="M266 3278 c-3 -13 -6 -40 -6 -60 0 -35 -2 -37 -37 -40 -33 -3 -38 -7
-41 -30 -3 -24 0 -28 22 -28 14 0 26 -3 26 -8 0 -23 -44 -159 -75 -232 -33
-79 -34 -86 -18 -98 9 -6 20 -9 24 -5 4 5 24 55 43 113 39 114 39 118 11 -105
-21 -166 -21 -167 12 -163 l28 3 17 155 c9 85 17 164 18 175 1 20 1 20 15 1
12 -16 17 -17 30 -6 21 18 19 33 -10 60 -36 34 -33 110 5 110 10 0 20 10 23
22 7 27 1 38 -21 38 -16 0 -17 8 -12 60 6 60 6 60 -21 60 -19 0 -28 -6 -33
-22z"/>
<path d="M1366 3258 c-9 -24 -34 -66 -55 -95 -37 -48 -38 -52 -22 -67 22 -20
35 -20 51 -1 20 24 22 12 9 -59 l-11 -66 -39 0 c-37 0 -39 -2 -39 -30 0 -27 3
-30 34 -30 l34 0 -14 -72 c-8 -40 -14 -79 -14 -85 0 -10 35 -13 140 -13 128 0
140 -2 140 -18 0 -41 -60 -59 -79 -23 -7 13 -18 17 -36 14 -33 -7 -33 -37 1
-68 62 -57 174 -9 174 74 0 13 8 21 23 23 32 4 38 58 6 58 -17 0 -20 4 -15 23
3 12 6 36 6 54 0 30 3 32 38 35 32 3 37 7 40 31 3 25 1 27 -31 27 l-34 0 9 62
c14 107 13 108 -174 108 -71 0 -128 3 -128 6 0 3 5 14 10 25 10 18 23 19 169
19 136 0 160 2 165 16 16 43 13 44 -144 44 -128 0 -149 2 -144 15 4 10 -3 18
-21 25 -14 5 -28 10 -29 10 -2 0 -11 -19 -20 -42z m257 -210 c-10 -83 -2 -78
-119 -78 l-105 0 7 48 c3 26 8 50 11 55 2 4 50 7 107 7 l103 0 -4 -32z m-23
-162 c0 -13 -3 -38 -6 -55 l-6 -31 -110 0 -110 0 7 48 c4 26 9 50 12 55 2 4
51 7 109 7 103 0 104 0 104 -24z"/>
<path d="M1470 3049 c-7 -11 -10 -22 -8 -23 2 -1 21 -13 43 -25 37 -22 40 -22
52 -4 15 20 7 29 -49 59 -25 13 -28 12 -38 -7z"/>
<path d="M1446 2884 c-3 -9 -6 -17 -6 -18 0 -2 17 -15 39 -29 28 -19 41 -23
50 -14 19 19 12 33 -28 55 -46 26 -47 26 -55 6z"/>
<path d="M2037 3242 c-38 -61 -131 -156 -184 -187 -36 -21 -39 -31 -18 -59 13
-18 17 -16 79 28 35 25 87 71 115 103 28 31 52 55 54 52 59 -82 93 -119 140
-155 33 -24 62 -44 66 -44 8 0 34 51 29 55 -2 1 -23 16 -48 32 -49 34 -104 89
-139 140 -17 26 -20 37 -11 52 8 16 7 22 -9 31 -31 16 -36 13 -74 -48z"/>
<path d="M3196 3228 c-4 -40 -10 -76 -14 -79 -4 -4 -27 -10 -50 -14 l-44 -7 7
56 7 56 -30 0 c-30 0 -31 -1 -37 -64 -7 -63 -8 -64 -41 -71 -30 -5 -34 -10
-34 -36 0 -29 2 -30 30 -24 17 4 30 3 30 -2 0 -4 -7 -67 -14 -139 -19 -172 -8
-221 58 -260 45 -27 167 -25 221 3 51 27 90 68 110 117 18 44 19 42 -18 51
-20 5 -27 3 -27 -7 0 -24 -50 -87 -83 -105 -19 -10 -57 -17 -94 -17 -52 -1
-65 3 -88 24 l-27 25 7 120 c3 66 10 140 13 165 7 43 9 45 50 54 23 5 45 7 48
4 3 -3 -2 -69 -10 -146 -9 -78 -16 -144 -16 -147 0 -3 13 -5 28 -5 l29 0 16
156 c9 86 18 158 20 160 1 2 22 7 46 13 l43 9 -6 -71 c-10 -102 -15 -116 -42
-123 -17 -4 -24 -13 -24 -29 0 -30 11 -36 50 -29 46 10 59 38 74 165 18 142
13 154 -53 146 -25 -3 -55 -9 -65 -13 -18 -7 -19 -3 -12 64 l7 72 -29 0 c-29
0 -29 -1 -36 -72z"/>
<path d="M3705 3250 l-16 -49 -67 -3 c-65 -3 -67 -4 -70 -30 -3 -28 -3 -28 53
-28 l56 0 -27 -50 c-15 -27 -52 -80 -82 -116 l-54 -66 21 -21 c20 -20 21 -20
41 -2 25 22 24 28 6 -135 -8 -63 -10 -119 -6 -123 4 -5 18 -7 31 -5 23 3 24 7
44 193 19 179 22 194 55 257 l35 68 133 0 132 0 0 30 0 30 -120 0 c-66 0 -120
2 -120 4 0 2 7 21 16 41 13 31 13 39 2 46 -30 20 -46 9 -63 -41z"/>
<path d="M4344 3240 l-7 -60 -96 0 -97 0 -17 -152 c-19 -170 -37 -249 -73
-321 -30 -60 -30 -61 2 -75 24 -12 26 -10 49 42 28 63 49 135 66 224 12 61 12
62 45 62 21 0 34 -5 34 -12 0 -49 -25 -235 -32 -243 -6 -7 -14 -4 -22 7 -15
20 -56 14 -56 -9 0 -20 46 -63 67 -63 31 0 62 29 72 68 5 20 14 93 21 161 14
144 11 151 -67 151 l-44 0 3 48 3 47 71 3 71 3 6 -158 6 -158 -26 -26 c-21
-23 -23 -30 -14 -48 13 -23 26 -27 36 -11 12 19 22 10 40 -35 18 -48 38 -65
79 -65 34 0 53 31 65 109 6 36 9 66 8 67 -1 1 -14 5 -30 9 -26 7 -27 6 -27
-31 0 -83 -28 -113 -49 -53 -17 48 -15 56 34 154 25 49 48 104 51 121 5 28 3
32 -19 36 -21 4 -27 0 -32 -21 -11 -44 -47 -121 -56 -121 -5 0 -9 52 -9 115
l0 114 68 3 c65 3 67 4 70 31 l3 27 -72 0 -72 0 7 60 7 60 -30 0 c-29 0 -30
-2 -37 -60z"/>
<path d="M4457 3293 c-14 -4 -17 -11 -13 -26 4 -12 9 -34 13 -50 5 -22 9 -26
27 -21 11 4 22 8 24 9 5 5 -20 95 -27 94 -3 -1 -14 -3 -24 -6z"/>
<path d="M4759 3273 c0 -16 -6 -75 -12 -133 l-12 -105 -47 -3 c-46 -3 -48 -5
-48 -33 0 -28 2 -29 45 -29 l46 0 -5 -32 c-6 -33 -26 -219 -26 -237 0 -5 -11
-12 -25 -15 -25 -6 -30 -20 -19 -49 6 -16 63 -9 155 21 53 17 68 35 56 67 -5
11 -14 10 -51 -3 -25 -9 -47 -14 -49 -12 -2 3 2 57 9 120 7 63 13 121 13 128
1 7 14 12 30 12 28 0 30 -2 41 -71 15 -89 69 -199 118 -239 43 -36 53 -37 70
-9 13 20 10 26 -32 68 -51 52 -93 135 -102 204 l-7 47 92 0 91 0 0 30 0 30
-146 0 -147 0 7 63 c3 34 9 95 13 135 l6 72 -32 0 c-27 0 -31 -4 -32 -27z"/>
<path d="M6547 3293 c-4 -3 -7 -23 -7 -44 0 -67 -3 -69 -95 -69 l-82 0 -12
-122 c-6 -68 -14 -135 -17 -150 l-6 -28 87 0 88 0 -6 -47 c-4 -27 -10 -85 -13
-130 l-7 -83 26 0 c20 0 28 6 31 23 5 23 26 207 26 226 0 7 32 11 90 11 65 0
90 3 90 13 0 16 19 185 25 220 8 47 -23 67 -104 67 l-69 0 5 60 c6 59 5 60
-19 60 -14 0 -28 -3 -31 -7z m-28 -240 c-5 -38 -8 -78 -8 -90 -1 -21 -6 -23
-57 -23 l-56 0 7 83 c4 45 9 85 12 90 2 4 28 7 57 7 l52 0 -7 -67z m177 -23
l-9 -90 -59 0 -60 0 7 83 c4 45 9 85 12 90 2 4 30 7 61 7 l58 0 -10 -90z"/>
<path d="M8213 3261 l-16 -41 -64 0 c-34 0 -63 -3 -63 -7 0 -5 -14 -136 -30
-292 -17 -157 -30 -286 -30 -288 0 -2 81 -3 180 -3 178 0 180 0 184 23 5 20
57 514 56 529 0 4 -7 14 -16 22 -11 12 -35 16 -85 16 l-69 0 14 35 c13 29 13
35 1 35 -7 0 -21 3 -30 6 -12 5 -20 -4 -32 -35z m150 -148 c-7 -77 -1 -73
-128 -73 l-115 0 0 44 c0 77 -2 76 130 76 l118 0 -5 -47z m-17 -149 c-3 -9 -6
-33 -6 -55 l0 -39 -120 0 -120 0 0 33 c0 78 -1 77 132 77 105 0 119 -2 114
-16z m-20 -185 c-3 -17 -6 -44 -6 -60 l0 -29 -121 0 -122 0 7 46 c3 26 6 53 6
60 0 11 26 14 121 14 l122 0 -7 -31z"/>
<path d="M414 3277 c-3 -8 0 -26 6 -41 13 -36 14 -36 -14 -36 -19 0 -25 -6
-28 -30 -4 -29 -4 -30 39 -30 l43 0 0 -39 c0 -61 -7 -71 -51 -71 -35 0 -39 -3
-39 -24 0 -21 5 -25 37 -28 l37 -3 -3 -50 c-1 -27 -5 -53 -7 -57 -3 -5 -30 -8
-60 -8 -53 0 -54 0 -54 -30 0 -30 1 -30 55 -30 l55 0 -5 -37 c-3 -21 -7 -60
-8 -88 -2 -47 -1 -50 23 -50 27 0 37 24 39 102 2 68 7 73 67 73 53 0 54 0 54
30 0 30 -1 30 -53 30 l-53 0 3 38 c8 80 9 82 58 82 41 0 45 2 45 25 0 23 -4
25 -46 25 -43 0 -46 2 -40 23 3 12 6 36 6 54 0 31 1 32 53 35 48 3 52 5 55 31
3 23 0 27 -22 27 l-26 0 17 36 c15 31 15 36 3 44 -27 17 -38 10 -56 -35 -16
-42 -19 -45 -53 -45 -24 0 -31 3 -22 9 11 7 11 15 0 45 -13 37 -44 50 -55 23z"/>
<path d="M2617 3283 c-3 -5 -8 -46 -12 -92 -15 -187 -73 -324 -186 -445 -67
-72 -67 -72 -49 -96 l18 -23 28 22 c68 52 147 165 189 267 l22 55 12 -48 c17
-68 52 -141 103 -214 23 -35 46 -68 50 -73 4 -7 17 -1 32 13 l24 23 -44 60
c-103 140 -139 263 -131 446 l5 112 -28 0 c-16 0 -31 -3 -33 -7z"/>
<path d="M5570 3256 c0 -63 -4 -66 -95 -66 -82 0 -83 0 -88 -27 -3 -16 -3 -31
0 -35 2 -5 40 -8 84 -8 l79 0 0 -37 c-1 -76 -28 -264 -40 -278 -20 -24 -59
-19 -70 10 -7 18 -17 25 -36 25 -25 0 -26 -2 -20 -32 18 -97 151 -104 189 -11
8 21 20 90 26 153 16 160 19 168 44 172 17 2 23 11 25 36 3 27 0 32 -17 32
-18 0 -21 6 -21 50 0 49 -1 50 -30 50 -27 0 -30 -3 -30 -34z"/>
<path d="M5855 3270 c-33 -9 -59 -21 -58 -26 9 -42 13 -46 32 -41 23 6 26 -6
15 -62 -5 -26 -11 -31 -35 -31 -19 0 -30 -6 -34 -20 -8 -25 1 -40 25 -40 17 0
17 -3 3 -57 -8 -32 -29 -93 -46 -136 -25 -65 -28 -80 -16 -87 19 -13 24 -5 53
80 30 87 31 77 11 -85 -19 -151 -19 -145 9 -145 31 0 32 4 47 164 11 123 13
128 28 107 17 -22 17 -22 34 -3 16 18 16 21 -13 60 -35 49 -33 99 4 104 15 2
22 11 24 31 3 22 -1 27 -19 27 -21 0 -21 3 -15 57 6 52 14 67 40 76 13 4 -3
47 -17 46 -7 -1 -39 -9 -72 -19z"/>
<path d="M5009 3254 c-13 -14 -52 -44 -86 -66 -57 -38 -60 -43 -50 -65 5 -12
13 -23 17 -23 13 0 96 58 140 98 l45 41 -21 21 -20 20 -25 -26z"/>
<path d="M5997 3273 c-2 -5 -7 -37 -11 -73 -4 -36 -9 -84 -12 -107 l-6 -43
110 0 110 0 5 43 c26 188 27 187 -103 187 -49 0 -91 -3 -93 -7z m149 -90 c-3
-21 -6 -46 -6 -55 0 -15 -9 -18 -56 -18 -47 0 -55 3 -50 16 3 9 6 33 6 55 l0
39 56 0 57 0 -7 -37z"/>
<path d="M6931 3158 c-20 -207 -41 -329 -72 -421 -16 -49 -29 -92 -29 -96 0
-4 11 -13 24 -19 24 -11 26 -9 46 46 12 31 29 85 37 120 14 55 19 62 40 62 24
0 24 -2 18 -57 -9 -89 -13 -100 -35 -106 -21 -6 -25 -23 -10 -47 8 -12 18 -11
77 8 92 29 109 42 94 70 -10 18 -15 20 -37 12 -14 -6 -27 -10 -30 -10 -6 0 -5
49 2 93 6 33 10 37 35 37 22 0 29 -5 29 -19 0 -34 31 -105 58 -134 29 -31 92
-67 115 -67 8 0 17 11 19 25 4 21 -1 28 -38 46 -24 11 -44 24 -44 28 0 4 18
22 41 41 38 30 40 34 25 49 -11 11 -20 13 -30 6 -73 -54 -86 -54 -86 -5 0 29
0 29 68 32 61 3 67 5 70 26 3 20 -1 22 -42 22 -46 0 -46 0 -46 35 0 33 2 35
34 35 28 0 34 4 38 25 5 23 2 25 -28 25 -31 0 -34 3 -34 30 0 25 -4 30 -24 30
-19 0 -26 -7 -31 -30 -6 -26 -11 -30 -42 -30 -34 0 -35 1 -31 30 4 27 2 30
-23 30 -22 0 -29 -6 -34 -30 -6 -26 -11 -30 -41 -30 -33 0 -34 1 -34 40 l0 40
174 0 174 0 7 71 c11 110 12 109 -210 109 l-182 0 -12 -122z m345 46 c-3 -9
-6 -22 -6 -30 0 -11 -26 -14 -140 -14 -77 0 -140 3 -140 8 0 4 3 17 6 30 6 21
10 22 146 22 124 0 139 -2 134 -16z m-230 -250 c-3 -9 -6 -24 -6 -35 0 -16 -7
-19 -41 -19 -38 0 -41 2 -35 23 3 12 6 28 6 35 0 7 15 12 41 12 33 0 40 -3 35
-16z m130 0 c-3 -9 -6 -24 -6 -35 0 -15 -7 -19 -35 -19 -33 0 -35 2 -35 35 0
34 1 35 41 35 33 0 40 -3 35 -16z"/>
<path d="M7510 3268 c0 -7 -3 -23 -6 -35 l-6 -23 185 0 185 0 4 30 c3 17 2 32
0 35 -3 3 -86 5 -184 5 -136 0 -178 -3 -178 -12z"/>
<path d="M5265 3256 c-19 -14 -19 -16 9 -74 23 -48 32 -59 48 -54 11 2 22 10
25 17 5 15 -44 125 -56 125 -4 0 -16 -6 -26 -14z"/>
<path d="M7460 3060 l0 -30 90 0 90 0 0 -37 c0 -54 -28 -292 -35 -303 -11 -17
-25 -11 -35 15 -7 18 -17 25 -35 25 -28 0 -29 -4 -14 -49 15 -43 61 -67 99
-51 40 16 50 48 66 200 8 74 17 150 20 168 l5 32 89 0 90 0 0 30 0 30 -215 0
-215 0 0 -30z"/>
<path d="M3807 3073 c-4 -3 -7 -21 -7 -38 0 -18 -3 -47 -6 -64 -6 -30 -9 -31
-55 -31 -48 0 -49 -1 -49 -30 0 -29 2 -30 45 -30 51 0 50 2 39 -109 l-7 -61
-58 0 c-59 0 -59 0 -59 -30 l0 -30 150 0 150 0 0 30 0 30 -60 0 c-68 0 -66 -6
-54 109 l7 61 53 0 c53 0 54 0 54 30 0 29 -1 30 -50 30 l-50 0 6 70 c7 70 7
70 -18 70 -14 0 -28 -3 -31 -7z"/>
<path d="M5407 3058 c-16 -12 -15 -17 9 -78 15 -36 28 -66 29 -68 2 -2 15 2
28 10 l26 13 -27 64 c-29 70 -39 78 -65 59z"/>
<path d="M5206 3044 c-13 -34 -7 -44 29 -44 19 0 35 -1 35 -2 0 -2 -7 -57 -15
-123 l-15 -119 -45 -46 c-43 -44 -44 -45 -27 -68 l18 -23 41 36 42 36 41 -30
c74 -53 203 -65 295 -27 38 16 41 24 23 49 -12 15 -16 15 -58 1 -84 -30 -222
-2 -255 50 -11 18 -11 43 3 158 18 161 16 168 -58 168 -34 0 -50 -4 -54 -16z"/>
<path d="M2030 3038 c0 -7 -9 -94 -20 -193 -25 -233 -26 -225 4 -225 14 0 28
5 31 10 7 11 44 335 45 388 0 29 -3 32 -30 32 -17 0 -30 -5 -30 -12z"/>
<path d="M5940 2970 c0 -29 1 -30 50 -30 45 0 50 -2 50 -22 0 -58 -9 -68 -61
-68 -48 0 -49 -1 -49 -30 0 -29 2 -30 45 -30 l45 0 0 -45 0 -44 -62 -3 c-60
-3 -63 -4 -66 -30 l-3 -28 144 0 c123 0 146 2 151 16 15 38 8 44 -55 44 -52 0
-60 2 -55 16 3 9 6 29 6 44 0 27 3 29 48 32 43 3 47 5 50 31 3 26 2 27 -42 27
-41 0 -46 2 -46 23 0 57 9 67 61 67 48 0 49 1 49 30 l0 30 -130 0 -130 0 0
-30z"/>
<path d="M7496 2895 c-9 -30 -31 -81 -47 -112 -28 -54 -29 -58 -13 -70 25 -18
36 -13 61 33 28 49 74 184 67 195 -3 5 -15 9 -28 9 -18 0 -25 -10 -40 -55z"/>
<path d="M7777 2942 c-27 -3 -28 -5 -22 -45 4 -23 16 -82 27 -130 18 -81 21
-87 41 -81 34 10 37 17 26 59 -7 22 -19 76 -28 120 -16 79 -16 80 -44 77z"/>
<path d="M742 2648 c-41 -117 -40 -111 -21 -115 11 -3 25 11 42 40 27 45 70
147 65 152 -2 2 -14 6 -28 10 -24 5 -27 1 -58 -87z"/>
<path d="M1477 2402 c-38 -61 -131 -156 -184 -187 -36 -21 -39 -31 -18 -59 13
-18 17 -16 79 28 35 25 87 71 115 103 28 31 52 55 54 52 59 -82 93 -119 140
-155 33 -24 62 -44 66 -44 8 0 34 51 29 55 -2 1 -23 16 -48 32 -49 34 -104 89
-139 140 -17 26 -20 37 -11 52 8 16 7 22 -9 31 -31 16 -36 13 -74 -48z"/>
<path d="M1891 2143 c-18 -175 -34 -327 -35 -338 -1 -20 30 -33 45 -18 4 4 18
104 31 221 12 117 25 217 28 222 4 6 14 8 23 4 12 -4 14 -10 7 -24 -7 -13 -5
-22 9 -34 9 -9 20 -16 23 -16 3 0 16 25 29 55 21 51 25 55 57 55 27 0 32 -3
28 -17 -2 -10 -7 -48 -11 -85 l-7 -68 -54 0 c-40 0 -54 -4 -54 -14 0 -8 -3
-21 -6 -30 -5 -13 3 -16 51 -16 l57 0 -6 -67 c-13 -130 -8 -123 -87 -123 l-69
0 0 -30 0 -30 154 0 c131 0 155 2 160 16 15 38 8 44 -55 44 l-61 0 7 53 c3 28
9 71 12 95 l5 42 49 0 c48 0 49 1 49 30 0 29 -2 30 -46 30 l-47 0 7 61 c3 34
6 73 6 85 0 22 4 24 55 24 54 0 55 0 55 30 0 29 -1 30 -50 30 l-49 0 6 66 6
66 -29 -4 c-26 -3 -29 -7 -32 -43 -4 -71 -10 -85 -36 -85 -23 0 -24 2 -15 32
14 49 11 58 -16 58 -19 0 -26 -7 -31 -27 -3 -16 -12 -49 -20 -75 l-15 -46 -29
16 c-20 12 -28 23 -25 37 2 11 7 46 10 78 l6 57 -28 0 -29 0 -33 -317z"/>
<path d="M3347 2453 c-4 -3 -7 -23 -7 -43 0 -21 -3 -52 -6 -69 l-6 -31 -79 0
-79 0 0 -30 0 -30 75 0 c65 0 75 -2 75 -17 0 -10 -7 -92 -17 -182 -12 -118
-21 -169 -33 -184 -21 -25 -46 -17 -63 20 -9 21 -18 27 -34 25 -29 -4 -30 -35
-3 -80 26 -42 62 -56 108 -41 52 17 67 63 89 274 18 176 19 179 43 185 18 4
26 14 28 33 3 23 0 27 -22 27 -22 0 -25 4 -21 28 2 15 6 48 9 75 6 46 5 47
-23 47 -15 0 -31 -3 -34 -7z"/>
<path d="M4716 2390 c-7 -66 -9 -70 -32 -70 -20 0 -24 -5 -24 -30 0 -24 4 -30
21 -30 19 0 20 -4 14 -67 -9 -95 -13 -103 -46 -110 -24 -5 -29 -10 -29 -35 0
-29 2 -30 31 -24 25 5 29 3 25 -12 -2 -9 -8 -50 -11 -89 -4 -40 -11 -73 -16
-73 -5 0 -9 7 -9 15 0 8 -9 15 -20 15 -14 0 -20 -7 -20 -23 0 -34 28 -67 55
-67 39 0 55 38 67 155 11 102 12 107 39 121 24 12 27 18 20 37 -5 12 -16 21
-24 19 -13 -2 -15 7 -10 55 6 77 9 83 33 83 16 0 20 7 20 30 0 23 -5 30 -19
30 -17 0 -19 6 -15 35 2 19 6 51 8 70 4 33 3 35 -23 35 -28 0 -29 -2 -35 -70z"/>
<path d="M4876 2403 c-22 -68 -59 -146 -91 -189 l-23 -30 20 -25 c13 -16 21
-20 25 -11 16 40 17 -7 2 -145 -25 -220 -25 -223 6 -223 18 0 25 5 25 20 0 19
7 20 110 20 l110 0 0 30 c0 29 -2 30 -46 30 -38 0 -45 3 -40 16 3 9 6 31 6 50
0 33 1 34 40 34 36 0 40 3 40 25 0 22 -4 25 -35 25 -38 0 -41 7 -29 69 6 27
11 31 39 31 30 0 45 13 45 41 0 5 -16 9 -36 9 l-35 0 3 48 c3 47 3 47 41 50
32 3 37 7 37 28 0 24 -1 24 -91 24 -75 0 -90 3 -86 14 22 57 28 99 15 107 -26
17 -35 8 -52 -48z m84 -150 c0 -58 -10 -73 -47 -73 -32 0 -35 2 -29 23 3 12 6
34 6 50 0 24 4 27 35 27 32 0 35 -3 35 -27z m-18 -173 c-4 -50 -4 -50 -38 -50
-32 0 -34 2 -34 34 0 53 9 66 44 66 l31 0 -3 -50z m-12 -112 c0 -7 -3 -30 -6
-50 -6 -35 -9 -38 -41 -38 -32 0 -35 2 -29 23 3 12 6 34 6 50 0 24 4 27 35 27
21 0 35 -5 35 -12z"/>
<path d="M4980 2452 c-13 -6 -14 -14 -5 -52 9 -39 13 -45 34 -42 21 3 23 7 17
44 -10 59 -14 64 -46 50z"/>
<path d="M5498 2420 c-15 -22 -45 -52 -67 -68 -32 -23 -37 -32 -29 -46 7 -12
17 -16 33 -12 18 5 28 -1 44 -23 l21 -29 -66 -29 -65 -29 18 -23 18 -22 73 37
c81 40 178 128 188 171 9 34 -24 63 -73 63 -29 0 -34 3 -29 17 6 16 -9 33 -29
32 -5 0 -22 -17 -37 -39z m103 -77 c-5 -10 -21 -29 -35 -42 l-25 -24 -20 24
c-37 44 -27 59 41 59 43 0 48 -2 39 -17z"/>
<path d="M6055 2448 c-2 -7 -15 -128 -30 -268 -36 -352 -28 -320 -85 -320 -45
0 -48 -1 -52 -30 l-5 -30 154 0 153 0 0 30 0 30 -65 0 c-76 0 -71 -12 -54 152
16 160 10 148 79 148 41 0 60 4 60 13 0 6 3 22 6 35 6 21 4 22 -56 22 l-63 0
7 83 c4 45 9 97 13 115 5 30 4 32 -26 32 -17 0 -33 -6 -36 -12z"/>
<path d="M6647 2418 c-4 -24 -9 -74 -12 -113 -10 -106 -9 -105 -65 -105 -34 0
-50 -4 -54 -16 -14 -38 -7 -44 49 -44 54 0 54 0 50 -27 -12 -71 -34 -316 -29
-324 7 -12 41 -12 48 0 3 5 13 76 22 158 22 209 15 193 74 193 49 0 50 1 50
30 0 29 -2 30 -43 30 -24 0 -46 2 -49 5 -2 3 -1 33 3 67 4 35 10 91 13 126 l7
62 -29 0 c-27 0 -30 -3 -35 -42z"/>
<path d="M807 2400 c-15 -42 -22 -50 -42 -50 -15 0 -25 -6 -25 -14 0 -8 -11
-121 -25 -252 -31 -299 -31 -294 -1 -294 18 0 25 7 30 30 5 30 6 30 69 30 l63
0 22 213 c13 116 22 223 22 238 0 31 -17 49 -47 49 -27 0 -27 -2 -7 45 13 31
13 39 2 46 -28 18 -44 8 -61 -41z m59 -132 c-3 -13 -8 -49 -11 -80 l-6 -58
-35 0 c-38 0 -38 -1 -28 99 l7 61 39 0 c35 0 38 -2 34 -22z m-30 -270 c-4 -46
-11 -87 -16 -91 -4 -5 -20 -7 -36 -5 -22 2 -29 8 -27 23 1 11 5 50 8 88 l7 67
35 0 36 0 -7 -82z"/>
<path d="M1019 2423 c-5 -16 -29 -68 -51 -116 -35 -74 -40 -90 -27 -98 26 -17
39 -9 61 36 21 43 24 45 66 45 l44 0 -6 -37 c-3 -21 -13 -105 -21 -188 -20
-192 -27 -215 -66 -215 -22 0 -32 7 -41 25 -8 18 -18 25 -32 23 -33 -5 -31
-42 2 -79 53 -59 135 -41 167 36 7 17 23 126 35 244 l22 215 -22 18 c-13 10
-38 18 -61 18 l-39 0 15 37 c18 43 14 63 -15 63 -13 0 -24 -10 -31 -27z"/>
<path d="M3586 2435 c-17 -13 -16 -16 15 -57 19 -24 35 -44 36 -46 0 -2 13 4
27 13 l26 17 -32 44 c-34 47 -43 51 -72 29z"/>
<path d="M4167 2400 c-15 -42 -22 -50 -42 -50 -15 0 -25 -6 -25 -14 0 -8 -11
-121 -25 -252 -31 -299 -31 -294 -1 -294 18 0 25 7 30 30 5 30 6 30 69 30 l63
0 22 213 c13 116 22 223 22 238 0 31 -17 49 -47 49 -27 0 -27 -2 -7 45 13 31
13 39 2 46 -28 18 -44 8 -61 -41z m59 -132 c-3 -13 -8 -49 -11 -80 l-6 -58
-35 0 c-38 0 -38 -1 -28 99 l7 61 39 0 c35 0 38 -2 34 -22z m-30 -270 c-4 -46
-11 -87 -16 -91 -4 -5 -20 -7 -36 -5 -22 2 -29 8 -27 23 1 11 5 50 8 88 l7 67
35 0 36 0 -7 -82z"/>
<path d="M4379 2423 c-5 -16 -29 -68 -51 -116 -35 -74 -40 -90 -27 -98 26 -17
39 -9 61 36 21 43 24 45 66 45 l44 0 -6 -37 c-3 -21 -13 -105 -21 -188 -20
-192 -27 -215 -66 -215 -22 0 -32 7 -41 25 -8 18 -18 25 -32 23 -33 -5 -31
-42 2 -79 53 -59 135 -41 167 36 7 17 23 126 35 244 l22 215 -22 18 c-13 10
-38 18 -61 18 l-39 0 15 37 c18 43 14 63 -15 63 -13 0 -24 -10 -31 -27z"/>
<path d="M5300 2430 c-36 -9 -65 -22 -64 -29 1 -6 2 -18 3 -27 1 -13 8 -15 31
-10 32 6 37 -4 24 -51 -5 -18 -14 -23 -39 -23 -21 0 -35 -6 -39 -16 -12 -31
-6 -44 19 -44 20 0 25 -5 25 -24 0 -31 -42 -166 -74 -239 -18 -40 -22 -57 -13
-66 6 -6 14 -11 18 -11 8 0 52 121 69 189 6 23 13 41 14 40 2 -2 -5 -71 -15
-154 -23 -191 -23 -185 1 -185 28 0 35 24 50 178 12 127 19 149 38 117 7 -14
11 -13 26 4 18 20 18 21 -14 57 -22 26 -30 43 -26 58 3 11 6 24 6 29 0 4 11 7
24 7 17 0 25 7 28 25 6 29 2 35 -24 35 -15 0 -18 8 -18 46 0 42 3 47 30 57 19
7 28 17 25 25 -3 8 -5 18 -5 23 0 12 -22 10 -100 -11z"/>
<path d="M5842 2432 l-22 -17 37 -52 c41 -56 48 -60 77 -38 18 14 17 17 -23
70 -23 30 -43 55 -44 55 -1 0 -12 -8 -25 -18z"/>
<path d="M7492 2442 c-10 -7 -8 -19 8 -56 11 -26 20 -55 20 -63 0 -12 7 -14
27 -8 16 4 30 8 32 10 2 3 -6 31 -19 65 -22 59 -37 71 -68 52z"/>
<path d="M8033 2442 c-10 -6 -10 -17 -3 -42 6 -19 10 -47 10 -62 0 -31 12 -42
40 -33 23 7 24 24 9 95 -11 50 -26 61 -56 42z"/>
<path d="M8187 2443 c-2 -5 -7 -20 -11 -35 -5 -21 -12 -28 -31 -28 -15 0 -25
-6 -25 -14 0 -8 -3 -21 -6 -30 -4 -12 0 -16 15 -16 28 0 27 -11 -13 -126 -19
-55 -34 -99 -33 -100 13 -10 47 -13 47 -5 0 6 10 11 21 11 20 0 21 -4 16 -51
-4 -29 -9 -54 -12 -57 -2 -3 -22 -8 -42 -11 -33 -5 -38 -10 -41 -35 -4 -29 -3
-29 38 -22 l42 7 -3 -73 c-4 -68 -3 -73 17 -76 23 -3 34 19 34 74 0 60 11 94
31 94 14 0 19 7 19 30 0 20 -5 30 -15 30 -11 0 -15 12 -15 44 0 39 3 45 23 48
31 4 38 48 7 48 -20 0 -21 3 -15 50 7 48 6 50 -18 50 -22 0 -25 -5 -31 -50 -4
-27 -11 -50 -16 -50 -14 0 -13 13 13 96 l22 74 43 0 c40 0 42 1 42 30 0 28 -3
30 -34 30 -34 0 -35 1 -29 35 5 31 3 35 -15 35 -11 0 -23 -3 -25 -7z"/>
<path d="M8385 2427 c-33 -11 -61 -21 -63 -23 -2 -1 -12 -81 -23 -179 -22
-207 -35 -289 -54 -365 -13 -50 -13 -56 2 -67 9 -7 20 -13 25 -13 13 0 36 96
53 218 25 181 25 182 40 182 19 0 19 2 -5 -209 -10 -96 -17 -178 -14 -183 9
-15 43 -8 48 10 2 9 12 96 21 192 11 112 22 179 30 185 7 6 15 22 17 35 3 24
0 25 -49 28 l-53 3 0 37 c0 65 9 79 58 97 59 22 66 28 57 54 -8 25 -13 25 -90
-2z"/>
<path d="M220 2426 c0 -8 -3 -21 -6 -30 -5 -14 12 -16 151 -16 l156 0 -6 -57
c-3 -32 -8 -73 -11 -90 l-5 -33 -143 0 -143 0 -7 -42 c-3 -24 -9 -92 -12 -153
-5 -94 -3 -115 13 -145 48 -93 234 -100 326 -12 34 32 67 92 67 122 0 15 -6
20 -29 20 -24 0 -31 -6 -40 -33 -21 -64 -86 -107 -161 -107 -95 0 -126 42
-116 159 4 42 9 88 12 104 l6 27 142 0 143 0 6 45 c4 25 10 87 13 139 6 88 6
94 -14 105 -13 7 -83 11 -181 11 -132 0 -161 -3 -161 -14z"/>
<path d="M6952 2403 l3 -28 134 -5 135 -5 -67 -59 c-53 -46 -67 -64 -67 -86 0
-58 -4 -60 -111 -60 l-99 0 0 -30 0 -30 100 0 101 0 -5 -32 c-3 -18 -8 -67
-11 -108 -4 -41 -11 -83 -16 -93 -14 -25 -51 -18 -64 11 -7 16 -17 22 -35 20
-35 -4 -37 -38 -6 -76 67 -78 166 -31 180 86 3 26 8 80 12 120 l6 72 93 0 c75
0 94 3 99 16 16 41 10 44 -89 44 l-95 0 0 27 c0 20 20 47 80 109 124 126 117
134 -113 134 l-168 0 3 -27z"/>
<path d="M7626 2408 c-10 -37 -8 -38 51 -38 l56 0 -24 -26 c-13 -14 -43 -37
-66 -51 -47 -27 -49 -31 -30 -56 11 -16 16 -15 60 13 55 34 57 35 57 16 0 -16
-82 -91 -122 -112 -24 -13 -26 -17 -16 -39 13 -29 27 -24 100 36 51 43 58 46
58 25 0 -22 -76 -101 -135 -140 -51 -34 -54 -38 -43 -61 10 -22 13 -23 38 -10
14 7 50 35 79 61 l53 48 -7 -54 c-4 -30 -11 -63 -17 -72 -11 -22 -38 -24 -38
-3 0 20 -39 20 -46 0 -8 -19 20 -62 44 -69 52 -17 97 34 109 121 10 80 18 83
50 20 28 -56 29 -57 51 -42 l22 16 -21 42 c-12 23 -37 63 -55 90 -19 26 -34
50 -34 53 0 4 20 24 45 46 60 53 72 75 50 97 -15 15 -19 13 -55 -29 -21 -25
-40 -43 -43 -40 -2 3 -9 20 -16 39 -9 28 -8 39 4 58 13 20 24 23 74 23 54 0
59 2 63 25 3 13 3 27 0 30 -3 3 -69 5 -148 5 -138 0 -142 -1 -148 -22z"/>
<path d="M3730 2390 l0 -30 95 0 c69 0 95 -3 95 -12 0 -35 -49 -465 -55 -480
-13 -33 -55 -33 -71 2 -8 16 -13 17 -36 7 -27 -12 -27 -13 -12 -43 16 -33 50
-54 89 -54 30 0 81 42 89 74 9 35 56 460 56 504 0 21 -5 43 -12 50 -8 8 -50
12 -125 12 l-113 0 0 -30z"/>
<path d="M6356 2398 c-6 -27 -56 -515 -56 -540 0 -13 8 -18 25 -18 20 0 27 6
32 30 5 28 8 30 53 30 41 0 49 3 53 23 3 12 15 122 28 244 27 261 29 253 -67
253 -58 0 -64 -2 -68 -22z m94 -65 c0 -26 -23 -238 -35 -330 -5 -34 -10 -43
-26 -43 -23 0 -24 4 -4 191 22 205 23 209 45 209 15 0 20 -7 20 -27z"/>
<path d="M2995 2398 c-2 -7 -15 -132 -30 -278 -14 -146 -28 -273 -30 -282 -2
-14 4 -18 25 -18 24 0 29 5 32 28 3 25 7 27 55 30 62 4 54 -23 84 279 19 184
21 224 10 237 -17 20 -139 23 -146 4z m95 -82 c0 -18 -3 -54 -6 -80 -6 -41
-10 -46 -32 -46 -24 0 -25 1 -18 53 3 28 6 64 6 80 0 22 4 27 25 27 22 0 25
-4 25 -34z m-24 -253 c-11 -114 -15 -123 -43 -123 -21 0 -24 3 -19 28 2 15 8
57 11 95 6 63 8 67 32 67 25 0 25 0 19 -67z"/>
<path d="M1834 2223 c-12 -54 -23 -104 -25 -111 -2 -8 6 -18 18 -22 20 -8 23
-4 42 78 29 127 30 146 6 150 -18 2 -23 -9 -41 -95z"/>
<path d="M3560 2296 c0 -8 -11 -120 -25 -248 -31 -291 -31 -270 3 -266 l27 3
22 205 c12 113 24 231 28 263 l6 57 -31 0 c-19 0 -30 -5 -30 -14z"/>
<path d="M3670 2273 c0 -10 -7 -76 -15 -148 -8 -71 -15 -145 -15 -162 l0 -33
94 0 93 0 12 123 c7 67 15 140 18 163 8 61 -10 74 -108 74 -69 0 -79 -2 -79
-17z m130 -72 c0 -51 -9 -61 -52 -61 -37 0 -40 2 -34 23 3 12 6 32 6 45 0 19
5 22 40 22 38 0 40 -2 40 -29z m-14 -133 c-3 -13 -6 -35 -6 -50 0 -26 -3 -28
-40 -28 -39 0 -40 1 -40 34 0 56 8 66 52 66 37 0 40 -2 34 -22z"/>
<path d="M8024 2260 c-21 -8 -21 -10 -6 -77 8 -37 16 -69 17 -71 1 -1 14 2 28
7 l25 10 -14 63 c-17 73 -22 79 -50 68z"/>
<path d="M5768 2254 c-5 -4 -8 -20 -8 -36 0 -26 3 -28 36 -28 35 0 36 -1 31
-32 -3 -18 -11 -78 -17 -133 -7 -55 -17 -103 -23 -107 -46 -27 -51 -35 -39
-62 10 -21 15 -25 29 -17 41 22 183 143 183 155 0 8 -7 19 -15 26 -13 11 -20
9 -40 -10 -14 -13 -28 -21 -31 -18 -3 4 0 58 7 122 9 79 10 119 3 126 -13 13
-107 25 -116 14z"/>
<path d="M7448 2205 c-5 -22 -2 -25 23 -25 16 0 29 -4 29 -8 0 -4 -7 -64 -15
-132 -15 -120 -17 -126 -50 -160 -39 -40 -42 -52 -20 -70 13 -11 22 -7 54 24
37 36 38 36 55 17 10 -10 40 -29 68 -41 60 -26 166 -29 238 -7 38 11 45 17 42
37 -4 33 -7 35 -51 22 -52 -16 -165 -15 -204 2 -18 7 -44 27 -59 43 l-28 29
16 132 c19 153 16 162 -51 162 -38 0 -43 -3 -47 -25z"/>
<path d="M1470 2198 c0 -7 -9 -94 -20 -193 -25 -233 -26 -225 4 -225 14 0 28
5 31 10 7 11 44 335 45 388 0 29 -3 32 -30 32 -17 0 -30 -5 -30 -12z"/>
<path d="M3187 2203 c-12 -3 -16 -11 -12 -22 3 -10 12 -53 20 -96 9 -43 17
-81 20 -83 2 -2 15 -2 28 2 23 5 24 8 16 53 -29 159 -28 157 -72 146z"/>
<path d="M5470 2119 c-29 -46 -60 -77 -108 -109 -21 -14 -22 -16 -7 -37 15
-22 17 -22 42 -6 25 17 26 16 50 -11 13 -16 22 -33 20 -39 -2 -6 -33 -27 -69
-47 l-66 -36 18 -24 19 -25 57 30 c106 56 224 196 224 265 0 23 -34 40 -81 40
-25 0 -29 3 -24 19 4 14 0 20 -19 23 -21 4 -30 -3 -56 -43z m106 -86 c-9 -16
-25 -39 -36 -53 l-20 -25 -25 30 c-42 51 -27 75 47 75 l49 0 -15 -27z"/>
<path d="M955 2154 c-11 -4 14 -156 27 -169 4 -4 16 -4 28 0 20 6 22 12 16 53
-15 109 -30 133 -71 116z"/>
<path d="M4315 2154 c-11 -4 14 -156 27 -169 4 -4 16 -4 28 0 20 6 22 12 16
53 -15 109 -30 133 -71 116z"/>
<path d="M8015 2033 c-9 -51 -42 -194 -50 -214 -4 -10 2 -19 19 -27 25 -11 26
-10 46 56 12 37 26 98 33 135 10 58 9 70 -3 77 -27 18 -39 10 -45 -27z"/>
<path d="M2445 1971 c-36 -15 -58 -49 -63 -100 -4 -43 -1 -53 21 -75 74 -74
191 19 163 128 -10 42 -73 66 -121 47z m69 -47 c37 -36 5 -114 -47 -114 -32 0
-47 18 -47 55 0 58 59 95 94 59z"/>
<path d="M387 1613 c-4 -3 -7 -17 -7 -30 0 -23 -2 -23 -100 -23 l-100 0 0 -30
0 -30 71 0 71 0 -6 -27 c-3 -16 -8 -58 -12 -95 l-6 -68 30 0 c29 0 30 1 36 63
13 118 16 127 43 127 18 0 23 -4 19 -17 -2 -10 -8 -53 -12 -95 l-6 -78 30 0
c29 0 30 1 36 68 13 130 7 122 92 122 l74 0 0 30 0 30 -101 0 -101 0 4 30 c4
27 2 30 -22 30 -15 0 -30 -3 -33 -7z"/>
<path d="M1360 1583 c0 -62 -9 -82 -39 -85 -21 -2 -27 -9 -29 -35 -3 -30 -1
-33 22 -33 29 0 30 -3 20 -98 -7 -59 -7 -60 -46 -76 -34 -13 -39 -18 -33 -38
10 -31 8 -30 40 -18 l27 10 -5 -42 c-4 -24 -9 -69 -13 -100 -6 -59 -17 -74
-27 -39 -3 15 -11 18 -26 14 -19 -5 -21 -10 -15 -37 9 -43 22 -56 54 -56 47 0
59 26 75 161 10 83 19 127 29 134 8 6 22 15 32 20 14 9 15 15 5 33 -7 13 -17
19 -26 16 -11 -5 -15 1 -15 24 0 59 11 91 34 94 16 2 22 11 24 36 3 27 0 32
-19 32 -21 0 -22 3 -16 60 l7 60 -30 0 c-28 0 -30 -3 -30 -37z"/>
<path d="M1586 1604 c-3 -9 -6 -32 -6 -52 0 -71 -8 -82 -56 -82 -50 0 -47 7
-64 -142 -16 -154 -18 -148 35 -148 47 0 48 -1 39 -37 -5 -19 -14 -22 -68 -25
-58 -3 -61 -4 -64 -30 -3 -28 -3 -28 60 -28 l64 0 -6 -56 c-6 -58 2 -73 34
-61 13 5 26 50 26 93 0 23 3 24 64 24 58 0 64 2 70 23 3 12 6 25 6 30 0 4 -29
7 -65 7 l-65 0 0 30 c0 29 1 30 50 30 43 0 50 3 54 23 5 22 26 207 26 225 0
20 -32 42 -61 42 -24 0 -29 4 -29 25 0 24 3 25 55 25 52 0 55 1 55 25 0 23 -3
25 -50 25 -47 0 -50 2 -50 25 0 20 -5 25 -24 25 -13 0 -27 -7 -30 -16z m74
-224 l0 -30 -70 0 c-67 0 -70 1 -70 23 0 34 6 37 77 37 l63 0 0 -30z m-12
-107 c-3 -27 -5 -28 -70 -31 l-68 -3 0 31 0 30 71 0 70 0 -3 -27z"/>
<path d="M1978 1598 c-3 -20 -10 -23 -60 -26 -54 -3 -58 -5 -58 -27 0 -24 3
-25 56 -25 55 0 56 -1 51 -26 -4 -23 -2 -25 27 -22 23 2 32 8 34 26 3 20 9 22
63 22 57 0 59 -1 59 -26 0 -22 4 -25 28 -22 19 2 28 9 30 26 3 20 9 22 58 22
51 0 54 1 54 25 0 23 -3 25 -50 25 -47 0 -50 2 -50 25 0 21 -5 25 -29 25 -23
0 -30 -5 -33 -22 -3 -20 -10 -23 -60 -26 -56 -3 -58 -2 -58 23 0 21 -5 25 -29
25 -23 0 -30 -5 -33 -22z"/>
<path d="M3705 1570 l-16 -49 -67 -3 c-65 -3 -67 -4 -70 -30 -3 -28 -3 -28 53
-28 l56 0 -27 -50 c-15 -27 -52 -80 -82 -116 l-54 -66 21 -21 c20 -20 21 -20
41 -2 25 22 24 28 6 -135 -8 -63 -10 -119 -6 -123 4 -5 18 -7 31 -5 23 3 24 7
44 193 19 179 22 194 55 257 l35 68 133 0 132 0 0 30 0 30 -120 0 c-66 0 -120
2 -120 4 0 2 7 21 16 41 13 31 13 39 2 46 -30 20 -46 9 -63 -41z"/>
<path d="M4310 1595 c0 -24 -1 -24 -97 -27 l-98 -3 -3 -27 -3 -28 220 0 c184
0 221 2 221 14 0 8 3 21 6 30 5 14 -6 16 -90 16 -96 0 -96 0 -96 25 0 21 -5
25 -30 25 -25 0 -30 -4 -30 -25z"/>
<path d="M4840 1585 l0 -34 -67 -3 c-66 -3 -68 -4 -71 -30 l-3 -28 67 0 67 0
-7 -31 c-3 -17 -6 -35 -6 -40 0 -5 -38 -9 -85 -9 l-85 0 0 -30 0 -29 103 -3
102 -3 -60 -38 c-33 -21 -86 -50 -117 -65 -61 -28 -66 -37 -44 -67 13 -18 16
-17 70 13 31 18 56 30 56 27 0 -3 -7 -22 -15 -42 -27 -63 -27 -63 105 -63
l120 0 -6 -32 c-4 -18 -13 -43 -20 -55 -20 -32 -68 -31 -89 1 -11 17 -22 22
-40 18 -29 -5 -29 -5 -10 -42 42 -81 164 -77 197 6 23 58 32 133 17 150 -8 10
-37 14 -115 14 -57 0 -104 2 -104 5 0 2 5 16 12 30 11 25 12 25 130 25 l118 0
0 30 0 30 -97 0 -97 0 34 30 c33 27 41 29 118 30 64 0 82 3 82 14 0 8 3 21 6
30 5 13 -3 16 -50 16 l-57 0 51 62 c27 35 50 66 50 70 0 4 -9 12 -20 18 -17 9
-24 7 -40 -12 -11 -13 -20 -27 -20 -33 -1 -5 -5 0 -10 13 -8 19 -17 22 -60 22
l-50 0 0 35 c0 32 -2 35 -30 35 -28 0 -30 -3 -30 -35z m150 -102 c0 -17 -66
-73 -87 -73 -24 0 -28 14 -17 58 6 19 13 22 55 22 27 0 49 -3 49 -7z"/>
<path d="M5428 1573 l-3 -48 -97 -3 -98 -3 0 -29 0 -30 88 0 c49 0 91 -2 93
-4 2 -2 2 -27 1 -55 l-4 -51 -83 0 c-77 0 -83 -1 -89 -22 -3 -13 -6 -26 -6
-30 0 -5 87 -8 194 -8 168 0 195 2 200 16 15 40 9 44 -74 44 -89 0 -89 1 -74
79 l7 31 93 0 94 0 0 30 0 30 -91 0 -91 0 4 50 3 50 -32 0 c-31 0 -32 -1 -35
-47z"/>
<path d="M7166 1563 c-15 -32 -41 -74 -57 -93 l-30 -35 4 61 c3 34 1 67 -3 75
-13 20 -145 26 -153 6 -3 -8 -9 -58 -13 -111 l-7 -96 32 0 c37 0 36 9 16 -165
-8 -71 -15 -133 -15 -137 0 -5 -5 -8 -11 -8 -12 0 -9 74 8 203 6 47 5 49 -18
45 -23 -3 -25 -9 -36 -108 -6 -58 -12 -118 -12 -133 -1 -17 -8 -30 -20 -35
-14 -5 -17 -12 -10 -29 11 -29 22 -29 111 3 107 39 109 40 97 68 -8 16 -17 22
-30 19 -15 -4 -19 0 -19 23 0 49 11 74 31 74 14 0 19 7 19 26 0 23 2 25 15 14
19 -16 50 -4 106 41 20 16 40 29 44 29 4 0 30 -20 57 -45 28 -25 54 -45 59
-45 4 0 13 9 20 21 9 18 7 23 -12 37 -12 8 -37 28 -55 44 l-34 30 24 31 c35
47 66 113 66 141 0 28 -16 36 -76 36 -43 0 -43 0 -32 25 13 28 12 30 -18 39
-17 5 -24 -3 -48 -51z m-136 -45 c0 -7 -3 -30 -6 -50 -6 -33 -10 -38 -33 -38
-25 0 -26 2 -23 50 4 48 5 50 33 50 17 0 29 -5 29 -12z m250 -31 c0 -17 -48
-87 -60 -87 -16 0 -41 60 -35 80 5 16 16 20 51 20 29 0 44 -4 44 -13z m-158
-89 c18 18 26 15 43 -19 19 -35 20 -33 -72 -95 -68 -45 -80 -44 -76 4 7 64 12
79 33 85 13 3 20 13 20 28 0 22 0 22 20 4 16 -14 23 -16 32 -7z"/>
<path d="M7616 1343 c-15 -153 -30 -288 -33 -300 -5 -22 -10 -23 -88 -23 -77
0 -83 -1 -89 -22 -3 -13 -6 -26 -6 -30 0 -5 104 -8 230 -8 l230 0 0 30 0 30
-105 0 -105 0 0 28 c0 15 7 83 15 152 8 69 15 126 15 127 0 1 42 4 93 5 l92 3
3 28 3 27 -92 0 -92 0 7 87 c4 48 10 100 13 115 5 26 3 28 -29 28 l-34 0 -28
-277z"/>
<path d="M836 1549 c-22 -33 -62 -85 -90 -114 -50 -53 -51 -54 -33 -76 l18
-22 24 23 c31 29 30 34 9 -145 -18 -161 -11 -201 41 -241 91 -69 288 -25 340
77 20 37 19 46 -5 54 -14 5 -30 -5 -62 -38 -50 -52 -108 -72 -178 -63 -71 10
-84 31 -81 134 l1 42 154 0 154 0 6 38 c26 173 23 182 -65 182 -33 0 -59 2
-59 4 0 3 14 27 31 55 43 69 33 81 -67 81 l-74 0 12 25 c13 28 12 30 -17 39
-16 4 -27 -6 -59 -55z m137 -90 c-31 -53 -45 -60 -111 -57 l-61 3 32 42 c32
42 33 42 95 43 l63 0 -18 -31z m-43 -126 c0 -10 -3 -35 -6 -55 -6 -37 -8 -38
-50 -38 -48 0 -49 2 -38 73 6 36 8 37 50 37 35 0 44 -3 44 -17z m156 -14 c-3
-17 -6 -42 -6 -55 0 -22 -4 -24 -50 -24 -55 0 -58 6 -44 79 6 30 9 31 57 31
l50 0 -7 -31z"/>
<path d="M6407 1560 c-15 -42 -22 -50 -42 -50 -15 0 -25 -6 -25 -14 0 -8 -11
-121 -25 -252 -31 -299 -31 -294 -1 -294 18 0 25 7 30 30 5 30 6 30 69 30 l63
0 22 213 c13 116 22 223 22 238 0 31 -17 49 -47 49 -27 0 -27 -2 -7 45 13 31
13 39 2 46 -28 18 -44 8 -61 -41z m59 -132 c-3 -13 -8 -49 -11 -80 l-6 -58
-35 0 c-38 0 -38 -1 -28 99 l7 61 39 0 c35 0 38 -2 34 -22z m-30 -270 c-4 -46
-11 -87 -16 -91 -4 -5 -20 -7 -36 -5 -22 2 -29 8 -27 23 1 11 5 50 8 88 l7 67
35 0 36 0 -7 -82z"/>
<path d="M6619 1583 c-5 -16 -29 -68 -51 -116 -35 -74 -40 -90 -27 -98 26 -17
39 -9 61 36 21 43 24 45 66 45 l44 0 -6 -37 c-3 -21 -13 -105 -21 -188 -20
-192 -27 -215 -66 -215 -22 0 -32 7 -41 25 -8 18 -18 25 -32 23 -33 -5 -31
-42 2 -79 53 -59 135 -41 167 36 7 17 23 126 35 244 l22 215 -22 18 c-13 10
-38 18 -61 18 l-39 0 15 37 c18 43 14 63 -15 63 -13 0 -24 -10 -31 -27z"/>
<path d="M2990 1565 l0 -35 95 0 c52 0 95 -2 95 -5 0 -3 -7 -21 -14 -40 l-15
-35 -75 0 c-42 0 -76 -1 -76 -3 0 -1 -11 -105 -25 -231 -32 -291 -32 -278 3
-274 l27 3 22 200 c12 110 22 212 22 228 1 23 5 27 31 27 36 0 36 12 10 -225
-25 -228 -25 -215 5 -215 14 0 25 3 26 8 0 4 10 102 22 217 l22 210 28 3 c25
3 27 1 27 -35 0 -21 -9 -117 -20 -213 -11 -96 -20 -178 -20 -182 0 -5 11 -8
25 -8 30 0 30 -2 50 205 24 244 22 235 56 235 21 0 29 -5 29 -17 -1 -43 -39
-364 -45 -373 -3 -5 -13 -10 -21 -10 -14 0 -20 -45 -6 -53 19 -10 73 15 82 39
6 14 20 117 31 230 17 161 19 207 9 219 -8 10 -37 15 -95 17 l-83 3 15 37 15
37 96 3 97 3 3 33 3 32 -225 0 -226 0 0 -35z"/>
<path d="M5816 1568 c-3 -18 -15 -114 -26 -213 -17 -152 -48 -308 -75 -376 -4
-12 1 -18 21 -23 14 -4 27 -6 29 -4 6 7 36 109 50 169 12 52 55 374 55 412 0
4 36 7 81 7 60 0 80 -3 77 -12 -3 -8 -28 -15 -59 -18 l-54 -5 -7 -60 c-4 -33
-9 -79 -12 -102 l-6 -43 61 0 60 0 -3 -42 c-3 -42 -4 -43 -35 -40 -17 2 -34
-2 -37 -7 -9 -15 30 -51 54 -51 28 0 70 44 70 72 0 59 9 68 65 68 l52 0 7 53
c16 135 6 157 -68 157 -25 0 -36 5 -36 15 0 11 18 15 83 17 81 3 82 3 85 31
l3 27 -215 0 -215 0 -5 -32z m324 -128 c0 -19 -7 -20 -90 -20 -83 0 -90 1 -90
20 0 19 7 20 90 20 83 0 90 -1 90 -20z m-10 -75 c0 -12 -17 -15 -90 -15 -73 0
-90 3 -90 15 0 12 17 15 90 15 73 0 90 -3 90 -15z"/>
<path d="M190 1396 c-32 -69 -34 -75 -18 -85 30 -19 39 -13 69 54 30 66 36 95
20 95 -5 0 -15 2 -23 5 -8 3 -25 -21 -48 -69z"/>
<path d="M537 1463 c-16 -4 -17 -11 -12 -46 8 -53 25 -117 30 -117 2 0 14 4
28 9 l24 9 -16 76 c-8 42 -20 75 -26 75 -5 -1 -18 -3 -28 -6z"/>
<path d="M1883 1453 l-22 -15 32 -49 c18 -27 34 -49 37 -49 3 1 13 7 23 14 17
13 17 16 3 43 -8 15 -23 38 -33 50 -17 19 -20 20 -40 6z"/>
<path d="M2062 1426 c-13 -24 -37 -56 -53 -72 -27 -26 -28 -29 -12 -46 15 -17
17 -17 35 -1 18 16 20 15 36 -8 9 -13 17 -28 17 -34 0 -5 -29 -25 -65 -43 -61
-31 -71 -44 -50 -66 10 -10 74 13 127 47 l37 23 47 -32 c26 -17 61 -36 77 -42
27 -9 31 -8 41 14 10 22 8 25 -25 39 -19 8 -48 24 -65 36 l-29 21 28 36 c77
98 65 132 -46 132 -29 0 -41 4 -36 11 7 11 -12 29 -31 29 -6 0 -21 -20 -33
-44z m119 -74 c-5 -9 -18 -25 -28 -35 -19 -16 -20 -16 -34 0 -46 55 -46 53 15
53 51 0 56 -2 47 -18z"/>
<path d="M4179 1453 c0 -10 -4 -44 -8 -75 l-7 -58 147 0 147 0 7 60 c10 89 9
90 -151 90 -121 0 -134 -2 -135 -17z m231 -58 c0 -25 -1 -25 -90 -25 -89 0
-90 0 -90 25 0 25 1 25 90 25 89 0 90 0 90 -25z"/>
<path d="M3807 1393 c-4 -3 -7 -21 -7 -38 0 -18 -3 -47 -6 -64 -6 -30 -9 -31
-55 -31 -48 0 -49 -1 -49 -30 0 -29 2 -30 45 -30 51 0 50 2 39 -109 l-7 -61
-58 0 c-59 0 -59 0 -59 -30 l0 -30 150 0 150 0 0 30 0 30 -60 0 c-68 0 -66 -6
-54 109 l7 61 53 0 c53 0 54 0 54 30 0 29 -1 30 -50 30 l-50 0 6 70 c7 70 7
70 -18 70 -14 0 -28 -3 -31 -7z"/>
<path d="M1857 1316 c-17 -13 -16 -16 14 -60 35 -49 49 -55 69 -31 11 13 8 23
-16 57 -34 48 -42 52 -67 34z"/>
<path d="M6555 1314 c-11 -4 14 -156 27 -169 4 -4 16 -4 28 0 20 6 22 12 16
53 -15 109 -30 133 -71 116z"/>
<path d="M4095 1268 c-9 -42 -33 -313 -28 -320 6 -12 41 -10 48 2 5 7 29 199
35 278 0 1 68 2 151 2 l151 0 -6 -37 c-3 -21 -8 -65 -12 -98 -4 -33 -11 -68
-16 -77 -10 -20 -38 -24 -55 -7 -12 12 -53 -4 -53 -21 0 -18 54 -50 86 -50 73
0 96 49 110 239 l7 90 -27 11 c-15 5 -108 10 -206 10 -178 0 -180 0 -185 -22z"/>
<path d="M226 1264 c-3 -9 -6 -24 -6 -35 0 -17 10 -19 116 -21 l117 -3 -42
-52 c-23 -29 -48 -53 -56 -53 -12 0 -41 37 -71 88 -5 9 -54 -12 -54 -23 0 -8
16 -34 35 -60 l35 -46 -43 -18 c-23 -10 -58 -22 -77 -25 -68 -14 -69 -15 -61
-44 6 -21 13 -26 32 -24 46 6 134 34 166 52 33 19 33 19 80 -5 51 -26 161 -58
173 -50 4 3 10 16 12 30 4 21 1 26 -21 31 -55 12 -127 34 -141 44 -12 8 -9 16
22 47 46 49 81 118 74 148 -7 29 -38 35 -176 35 -89 0 -109 -3 -114 -16z"/>
<path d="M5883 1243 c-37 -39 -38 -44 -21 -61 18 -18 102 66 86 85 -16 19 -29
14 -65 -24z"/>
<path d="M6112 1271 c-11 -7 -8 -19 15 -59 24 -41 32 -49 46 -41 23 13 22 22
-8 69 -27 42 -32 45 -53 31z"/>
<path d="M5384 1242 l-21 -17 36 -47 c20 -26 38 -47 41 -47 3 0 13 6 24 14 18
13 17 16 -19 64 -20 28 -37 51 -38 51 -1 -1 -11 -8 -23 -18z"/>
<path d="M4186 1188 c-3 -7 -7 -39 -10 -70 l-6 -58 109 0 c104 0 109 1 115 23
12 45 7 105 -10 111 -31 12 -194 7 -198 -6z m164 -53 c0 -24 -3 -25 -60 -25
-57 0 -60 1 -60 25 0 24 3 25 60 25 57 0 60 -1 60 -25z"/>
<path d="M5215 1186 c-1 -6 -16 -52 -32 -103 l-29 -92 24 -10 c12 -6 24 -11
26 -11 4 0 51 151 60 191 5 23 2 27 -20 32 -14 2 -27 0 -29 -7z"/>
<path d="M7097 1153 c-4 -26 -9 -83 -13 -125 l-7 -78 101 0 101 0 7 47 c4 25
7 80 8 122 l1 76 -96 3 -96 3 -6 -48z m145 -48 c-6 -90 -9 -95 -58 -95 -49 0
-50 2 -38 94 l7 47 46 -3 46 -3 -3 -40z"/>
<path d="M5554 1182 c-9 -5 -7 -26 7 -77 10 -38 18 -79 19 -90 1 -32 14 -45
38 -38 27 7 27 14 1 124 -21 89 -32 103 -65 81z"/>
<path d="M5290 1118 c0 -119 40 -178 119 -178 57 0 87 20 112 74 26 58 25 83
-6 88 -22 5 -26 1 -35 -33 -20 -74 -97 -91 -119 -28 -6 18 -11 54 -11 80 0 48
-1 49 -30 49 -30 0 -30 -1 -30 -52z"/>
<path d="M1890 1130 c-7 -17 -30 -56 -52 -86 -37 -54 -38 -57 -22 -75 17 -19
18 -19 41 2 12 12 40 55 60 96 32 63 36 75 23 83 -25 16 -37 11 -50 -20z"/>
<path d="M2019 1158 c-1 -1 -7 -47 -13 -100 l-12 -98 112 0 c128 0 118 -8 128
100 4 37 2 72 -3 80 -8 11 -35 16 -111 18 -55 2 -101 2 -101 0z m161 -72 c0
-7 -3 -28 -6 -45 -6 -30 -8 -31 -60 -31 -53 0 -54 1 -54 29 0 54 8 61 66 61
39 0 54 -4 54 -14z"/>
<path d="M5987 1136 c-17 -13 -17 -15 4 -50 22 -38 26 -41 48 -27 15 10 9 35
-17 68 -15 19 -19 20 -35 9z"/>
<path d="M5831 1063 c-21 -64 -21 -68 -5 -80 10 -7 21 -10 25 -6 9 9 51 134
47 138 -2 1 -12 5 -24 9 -19 6 -24 -1 -43 -61z"/>
<path d="M6136 1117 c-16 -11 -16 -17 1 -80 16 -59 20 -66 38 -61 30 9 29 8
10 79 -19 73 -25 80 -49 62z"/>
<path d="M5907 1086 c-7 -19 8 -82 27 -111 36 -55 138 -37 170 30 19 40 20 40
-9 49 -15 4 -24 -2 -37 -24 -13 -23 -24 -30 -47 -30 -35 0 -51 22 -51 69 0 26
-4 31 -24 31 -13 0 -26 -6 -29 -14z"/>
<path d="M2422 968 c-41 -117 -40 -111 -21 -115 11 -3 25 11 42 40 27 45 70
147 65 152 -2 2 -14 6 -28 10 -24 5 -27 1 -58 -87z"/>
<path d="M8022 968 c-41 -117 -40 -111 -21 -115 11 -3 25 11 42 40 27 45 70
147 65 152 -2 2 -14 6 -28 10 -24 5 -27 1 -58 -87z"/>
<path d="M436 743 c-3 -21 -6 -56 -6 -78 0 -74 -7 -85 -54 -85 l-42 0 6 56 c6
53 19 73 48 74 16 0 15 12 -1 34 -13 18 -17 17 -89 -8 -42 -14 -83 -26 -92
-26 -12 0 -13 -5 -5 -29 10 -28 12 -29 46 -19 19 5 36 8 38 6 2 -2 1 -22 -2
-45 l-6 -42 -51 -3 c-47 -3 -51 -5 -54 -30 -3 -27 -2 -28 47 -28 57 0 56 1 45
-84 l-7 -47 -58 -16 c-59 -16 -70 -30 -51 -61 7 -10 17 -9 52 3 24 8 45 13 47
11 9 -9 -9 -136 -22 -152 -14 -20 -33 -11 -46 23 -12 31 -56 30 -51 -2 9 -65
42 -94 97 -86 34 4 62 46 69 100 3 28 9 73 12 99 5 44 9 51 40 65 34 17 41 31
25 56 -5 8 -16 11 -30 6 -18 -5 -21 -2 -21 24 0 52 8 61 56 61 l44 0 0 -110 0
-110 -43 -28 c-40 -25 -43 -29 -34 -55 l9 -27 33 20 c18 11 35 20 37 20 3 0 8
-17 12 -38 11 -69 52 -104 101 -86 37 15 81 157 54 175 -27 17 -35 8 -47 -51
-14 -65 -35 -79 -52 -34 -17 44 -12 86 14 113 32 34 97 142 91 151 -3 4 -14
10 -24 13 -16 4 -26 -6 -50 -48 -45 -79 -51 -78 -51 14 l0 81 75 0 75 0 0 30
0 30 -71 0 -72 0 8 100 7 100 -25 0 c-20 0 -25 -6 -31 -37z"/>
<path d="M843 763 c-21 -63 -89 -207 -117 -251 -34 -50 -34 -51 -14 -69 19
-17 21 -17 44 12 l24 30 -1 -30 c0 -16 -8 -100 -18 -185 -10 -85 -16 -158 -14
-162 2 -5 15 -8 28 -8 28 0 25 -16 60 315 17 167 30 245 45 285 20 51 21 55 4
67 -24 17 -33 16 -41 -4z"/>
<path d="M951 769 c-14 -6 -21 -15 -18 -23 3 -8 11 -32 18 -55 13 -42 16 -45
43 -35 20 8 19 39 -2 85 -15 33 -20 36 -41 28z"/>
<path d="M1516 708 c-4 -40 -10 -76 -14 -79 -4 -4 -27 -10 -50 -14 l-44 -7 7
56 7 56 -30 0 c-30 0 -31 -1 -37 -64 -7 -63 -8 -64 -41 -71 -30 -5 -34 -10
-34 -36 0 -29 2 -30 30 -24 17 4 30 3 30 -2 0 -4 -7 -67 -14 -139 -19 -172 -8
-221 58 -260 45 -27 167 -25 221 3 51 27 90 68 110 117 18 44 19 42 -18 51
-20 5 -27 3 -27 -7 0 -24 -50 -87 -83 -105 -19 -10 -57 -17 -94 -17 -52 -1
-65 3 -88 24 l-27 25 7 120 c3 66 10 140 13 165 7 43 9 45 50 54 23 5 45 7 48
4 3 -3 -2 -69 -10 -146 -9 -78 -16 -144 -16 -147 0 -3 13 -5 28 -5 l29 0 16
156 c9 86 18 158 20 160 1 2 22 7 46 13 l43 9 -6 -71 c-10 -102 -15 -116 -42
-123 -17 -4 -24 -13 -24 -29 0 -30 11 -36 50 -29 46 10 59 38 74 165 18 142
13 154 -53 146 -25 -3 -55 -9 -65 -13 -18 -7 -19 -3 -12 64 l7 72 -29 0 c-29
0 -29 -1 -36 -72z"/>
<path d="M2032 764 l-22 -15 47 -67 c26 -37 48 -68 49 -70 4 -6 44 23 44 32 0
8 -88 136 -93 136 -2 0 -13 -7 -25 -16z"/>
<path d="M3040 718 c-23 -62 -85 -194 -111 -236 -12 -19 -11 -23 6 -36 18 -13
21 -12 37 12 l18 27 0 -30 c-1 -16 -9 -100 -20 -185 -10 -85 -16 -158 -14
-162 7 -11 42 -10 49 2 3 5 19 128 34 272 22 202 34 276 51 321 25 62 25 61
-6 71 -19 6 -24 -1 -44 -56z"/>
<path d="M3741 667 c-6 -62 -11 -119 -11 -125 0 -8 -18 -12 -50 -12 l-50 0 1
43 c0 23 4 68 8 100 l7 57 -31 0 -32 0 -11 -107 c-19 -168 -25 -153 68 -153
44 0 80 -3 80 -7 0 -5 -7 -66 -15 -138 -8 -72 -15 -136 -15 -142 0 -9 -20 -13
-66 -13 l-67 0 6 38 c3 20 9 72 13 115 l7 77 -30 0 -30 0 -12 -122 c-7 -68
-14 -133 -17 -145 l-4 -23 220 0 c169 0 220 3 220 13 0 15 18 178 25 235 6 41
6 42 -24 42 -33 0 -36 -6 -46 -125 -10 -108 -8 -105 -77 -105 l-60 0 5 33 c3
17 11 85 18 149 l12 117 81 3 80 3 7 35 c4 19 11 77 14 128 l7 92 -30 0 -29 0
-7 -82 c-10 -120 -9 -118 -67 -118 l-50 0 7 63 c3 34 9 90 13 125 l7 62 -31 0
-32 0 -12 -113z"/>
<path d="M4890 711 c-20 -62 -89 -196 -96 -188 -2 2 4 39 13 84 22 104 16 113
-72 113 -57 0 -63 -2 -69 -22 -9 -37 -8 -38 44 -38 56 0 56 0 39 -82 -15 -74
-25 -78 -40 -19 -14 55 -17 57 -42 39 -15 -12 -15 -19 8 -98 29 -98 28 -103
-42 -244 -43 -85 -44 -90 -27 -103 16 -12 21 -11 36 9 9 13 30 51 45 85 15 34
31 63 34 63 4 0 10 -20 14 -45 6 -41 9 -45 28 -39 12 3 24 8 26 10 2 2 -5 41
-16 87 -15 67 -17 90 -8 116 10 30 12 31 24 17 13 -15 15 -15 27 1 12 16 13
14 13 -17 1 -19 -6 -93 -14 -165 -20 -172 -19 -175 6 -175 12 0 23 8 26 20 5
18 14 20 109 20 l104 0 0 30 c0 28 -2 30 -40 30 -43 0 -46 6 -34 69 6 27 10
31 40 31 30 0 34 3 34 25 0 21 -5 25 -30 25 -29 0 -30 1 -30 50 l0 50 40 0
c36 0 40 3 40 25 0 22 -4 25 -36 25 -36 0 -36 1 -30 31 3 17 6 40 6 50 0 15 7
19 35 19 19 0 35 4 35 9 0 5 3 16 6 25 5 14 -6 16 -80 16 -47 0 -86 4 -86 8 0
5 7 30 16 56 18 52 18 51 -12 60 -19 6 -24 -1 -44 -63z m76 -133 c-3 -13 -6
-36 -6 -51 0 -26 -3 -28 -32 -25 -32 3 -33 4 -30 43 5 52 7 55 44 55 27 0 30
-3 24 -22z m-16 -155 c0 -55 -10 -73 -41 -73 -26 0 -29 3 -29 34 0 52 9 66 41
66 25 0 29 -4 29 -27z m-17 -135 c-2 -5 -3 -26 -3 -48 0 -39 -1 -40 -36 -40
-36 0 -36 1 -30 31 3 17 6 40 6 51 0 16 6 19 33 16 17 -2 31 -6 30 -10z"/>
<path d="M4990 772 c-13 -6 -14 -14 -5 -52 9 -39 13 -45 34 -42 21 3 23 7 17
44 -10 59 -14 64 -46 50z"/>
<path d="M6395 710 c-7 -69 -7 -70 -36 -70 -26 0 -29 -4 -29 -30 0 -26 4 -30
26 -30 25 0 26 -2 20 -37 -3 -21 -6 -55 -6 -75 0 -35 -3 -38 -40 -49 -39 -12
-46 -22 -34 -53 4 -11 14 -13 36 -9 26 5 30 3 25 -13 -3 -10 -9 -54 -13 -97
-3 -42 -10 -77 -15 -77 -5 0 -9 7 -9 15 0 16 -35 21 -45 5 -3 -5 1 -25 9 -45
13 -29 20 -35 45 -35 46 0 60 31 73 163 12 114 12 116 41 128 22 9 27 17 23
33 -3 12 -6 24 -6 28 0 3 -8 4 -19 1 -17 -4 -18 0 -14 44 6 66 9 73 32 73 11
0 21 9 25 23 9 34 8 37 -19 37 -27 0 -27 1 -10 113 4 24 1 27 -24 27 -28 0
-29 -1 -36 -70z"/>
<path d="M2514 728 c-15 -24 -42 -62 -61 -86 -34 -41 -35 -44 -18 -63 10 -10
21 -19 24 -19 8 0 81 95 111 144 23 37 23 39 5 52 -28 20 -32 18 -61 -28z"/>
<path d="M3150 736 c0 -68 -11 -96 -36 -96 -14 0 -24 -6 -24 -14 0 -8 -3 -21
-6 -30 -5 -12 0 -16 20 -16 24 0 26 -3 26 -44 0 -57 -8 -76 -30 -76 -20 0 -22
-7 -40 -175 -14 -127 -14 -127 13 -123 14 2 23 11 25 25 3 20 9 23 52 23 31 0
50 5 53 13 3 8 8 59 12 114 7 96 6 102 -14 112 -22 12 -26 41 -15 100 5 24 12
31 30 31 20 0 24 5 24 30 0 24 -4 30 -21 30 -21 0 -22 3 -16 65 l6 65 -29 0
c-27 0 -30 -3 -30 -34z m16 -382 c-3 -26 -6 -57 -6 -70 0 -19 -5 -24 -26 -24
-26 0 -27 1 -20 46 3 26 6 57 6 70 0 19 5 24 26 24 26 0 27 -1 20 -46z"/>
<path d="M3282 680 c-12 -49 -33 -113 -47 -142 -24 -49 -24 -54 -9 -65 9 -7
20 -10 24 -8 5 3 13 -33 20 -80 12 -81 11 -86 -11 -122 -13 -21 -41 -57 -63
-81 -38 -41 -38 -43 -21 -62 18 -20 19 -20 52 12 19 18 44 48 56 67 l21 35 27
-62 c27 -60 44 -73 66 -51 7 7 0 34 -24 90 l-35 80 26 92 c14 51 30 119 36
152 5 33 15 62 20 63 6 2 10 17 10 33 0 28 -1 29 -51 29 -57 0 -55 -4 -33 84
5 23 3 26 -18 26 -22 0 -26 -8 -46 -90z m68 -107 c0 -26 -11 -85 -27 -143 -5
-22 -7 -19 -14 20 -10 58 -11 135 -2 143 3 4 15 7 25 7 13 0 18 -7 18 -27z"/>
<path d="M5287 720 c-15 -42 -22 -50 -42 -50 -15 0 -25 -6 -25 -14 0 -8 -11
-121 -25 -252 -31 -299 -31 -294 -1 -294 18 0 25 7 30 30 5 30 6 30 69 30 l63
0 22 213 c13 116 22 223 22 238 0 31 -17 49 -47 49 -27 0 -27 -2 -7 45 13 31
13 39 2 46 -28 18 -44 8 -61 -41z m59 -132 c-3 -13 -8 -49 -11 -80 l-6 -58
-35 0 c-38 0 -38 -1 -28 99 l7 61 39 0 c35 0 38 -2 34 -22z m-30 -270 c-4 -46
-11 -87 -16 -91 -4 -5 -20 -7 -36 -5 -22 2 -29 8 -27 23 1 11 5 50 8 88 l7 67
35 0 36 0 -7 -82z"/>
<path d="M5499 743 c-5 -16 -29 -68 -51 -116 -35 -74 -40 -90 -27 -98 26 -17
39 -9 61 36 21 43 24 45 66 45 l44 0 -6 -37 c-3 -21 -13 -105 -21 -188 -20
-192 -27 -215 -66 -215 -22 0 -32 7 -41 25 -8 18 -18 25 -32 23 -33 -5 -31
-42 2 -79 53 -59 135 -41 167 36 7 17 23 126 35 244 l22 215 -22 18 c-13 10
-38 18 -61 18 l-39 0 15 37 c18 43 14 63 -15 63 -13 0 -24 -10 -31 -27z"/>
<path d="M5817 758 c-16 -12 -16 -17 3 -75 21 -61 22 -61 50 -51 l29 10 -22
61 c-24 65 -33 74 -60 55z"/>
<path d="M6066 748 c-3 -13 -6 -33 -6 -45 0 -18 -6 -23 -25 -23 -22 0 -24 3
-18 30 5 27 3 30 -20 30 -21 0 -28 -7 -37 -37 -7 -21 -21 -53 -32 -71 -20 -32
-20 -33 -2 -47 26 -19 29 -19 44 10 10 19 21 25 47 25 29 0 33 -3 33 -27 0
-65 -7 -72 -74 -75 -58 -3 -61 -4 -64 -30 -3 -26 -1 -28 36 -28 40 0 40 0 33
-32 -11 -48 -39 -98 -74 -135 -30 -32 -30 -33 -12 -53 l19 -21 37 37 c40 39
73 104 84 167 5 26 12 37 25 37 15 0 17 -9 12 -95 -4 -77 -2 -99 12 -120 26
-40 86 -33 110 14 19 36 30 111 18 111 -6 0 -17 3 -25 6 -11 4 -16 -6 -21 -40
-4 -25 -12 -48 -17 -52 -23 -14 -30 15 -23 94 l7 82 43 0 c42 0 44 1 44 30 l0
30 -60 0 c-59 0 -60 1 -60 28 0 62 8 72 61 72 36 0 49 4 49 14 0 8 3 21 6 30
5 13 -2 16 -45 16 l-51 0 0 45 c0 41 -2 45 -24 45 -16 0 -26 -7 -30 -22z"/>
<path d="M533 745 l-22 -15 32 -53 c17 -28 32 -54 33 -55 6 -9 44 11 44 22 0
6 -15 35 -33 64 -31 50 -33 51 -54 37z"/>
<path d="M4115 728 c-13 -81 -64 -611 -59 -619 7 -12 421 -12 428 0 3 4 20
144 38 310 24 222 29 306 22 319 -10 15 -36 17 -217 20 l-206 2 -6 -32z m372
-80 c-3 -29 -16 -149 -28 -265 l-23 -213 -158 0 -158 0 0 28 c0 15 11 132 25
260 14 128 25 235 25 238 0 2 73 4 161 4 l162 0 -6 -52z"/>
<path d="M4306 658 c-3 -7 -7 -25 -10 -40 -6 -26 -10 -28 -56 -28 -37 0 -50
-4 -50 -14 0 -8 -3 -21 -6 -30 -5 -13 2 -16 44 -16 l51 0 -15 -37 c-9 -20 -32
-61 -52 -91 -70 -103 -67 -98 -53 -116 18 -21 26 -14 73 58 l40 61 -7 -80 c-3
-44 -9 -90 -12 -102 -4 -20 -1 -23 25 -23 l30 0 7 93 c3 51 10 99 14 106 5 8
18 -11 36 -53 25 -58 29 -64 46 -53 11 7 19 16 19 21 0 5 -20 51 -45 104 -25
52 -45 99 -45 103 0 5 22 9 49 9 41 0 51 4 56 20 10 31 -2 40 -51 40 l-44 0 0
40 c0 34 -3 40 -20 40 -11 0 -22 -6 -24 -12z"/>
<path d="M6500 730 c0 -20 5 -30 16 -30 8 0 22 -17 31 -37 8 -21 22 -46 31
-56 16 -18 15 -20 -7 -38 -12 -10 -41 -24 -62 -30 -43 -13 -44 -14 -26 -47
l13 -23 71 36 70 36 48 -30 c54 -34 90 -40 99 -15 10 27 7 30 -32 42 -20 6
-46 18 -57 26 -18 13 -18 15 14 51 46 53 68 102 55 123 -9 14 -32 17 -138 20
l-126 3 0 -31z m200 -38 c0 -4 -15 -23 -33 -40 -37 -36 -46 -33 -66 21 l-11
27 55 0 c30 0 55 -4 55 -8z"/>
<path d="M1046 728 c-9 -37 -8 -38 45 -38 50 0 51 0 45 -27 -3 -16 -15 -125
-26 -243 -12 -118 -25 -225 -30 -237 -17 -42 -50 -23 -50 28 0 14 -7 19 -25
19 -22 0 -25 -4 -25 -36 0 -26 8 -43 29 -65 35 -35 61 -37 96 -6 32 27 38 63
69 366 22 217 22 225 4 243 -13 13 -33 18 -72 18 -47 0 -54 -3 -60 -22z"/>
<path d="M2200 687 c-30 -83 -101 -219 -150 -287 -47 -64 -47 -63 -25 100 21
150 21 150 -14 150 -28 0 -30 -3 -36 -52 -3 -29 -14 -116 -23 -193 l-17 -140
-71 -50 c-64 -46 -70 -53 -61 -73 13 -29 23 -28 82 13 l50 34 16 -31 c46 -89
173 -72 216 30 23 55 33 122 18 122 -8 0 -20 3 -29 6 -11 4 -17 -2 -21 -23
-24 -109 -62 -150 -111 -118 -37 24 -31 64 15 116 78 90 163 238 219 386 l20
52 -28 10 c-27 9 -28 8 -50 -52z"/>
<path d="M2627 744 c-4 -4 -7 -18 -7 -31 0 -21 4 -23 50 -23 28 0 50 -2 50 -5
0 -4 -7 -19 -15 -35 -13 -25 -22 -30 -54 -30 l-38 0 -16 -157 c-21 -196 -22
-183 8 -183 19 0 25 6 29 33 7 38 26 220 26 242 0 12 14 15 69 15 l70 0 -5
-32 c-10 -77 -24 -215 -24 -235 0 -18 6 -23 24 -23 28 0 29 5 47 186 7 67 9
128 6 138 -4 11 -18 16 -47 16 -43 0 -46 5 -29 44 10 21 20 26 58 28 42 3 46
5 46 28 l0 25 -121 3 c-66 1 -123 -1 -127 -4z"/>
<path d="M905 608 c-8 -26 -54 -492 -49 -500 8 -13 44 -9 49 5 5 11 55 467 55
495 0 6 -11 12 -25 12 -14 0 -27 -6 -30 -12z"/>
<path d="M1884 551 c-9 -46 -52 -215 -59 -233 -9 -23 43 -47 56 -26 7 11 40
144 64 254 4 18 -1 23 -25 26 -26 4 -31 1 -36 -21z"/>
<path d="M2506 531 c-16 -27 -50 -71 -76 -100 l-47 -51 22 -20 21 -20 41 43
c23 23 60 71 82 106 l42 65 -23 13 c-13 7 -25 12 -28 12 -3 1 -18 -21 -34 -48z"/>
<path d="M5766 538 c-9 -36 -8 -38 24 -38 29 0 31 -2 26 -32 -3 -18 -10 -76
-16 -128 -11 -92 -12 -96 -51 -136 l-40 -41 20 -24 20 -24 38 38 c39 37 40 37
57 18 10 -10 40 -29 68 -41 60 -26 166 -29 238 -7 38 11 45 17 42 37 -4 33 -7
35 -51 22 -52 -16 -165 -15 -204 2 -18 7 -44 26 -59 42 l-27 29 14 115 c8 63
15 125 15 137 0 32 -27 53 -70 53 -31 0 -39 -4 -44 -22z"/>
<path d="M2696 493 c-3 -21 -8 -65 -11 -98 -11 -109 -47 -162 -163 -241 -2 -1
3 -14 10 -28 l14 -26 48 31 c26 18 59 47 74 65 15 19 30 34 33 34 3 0 25 -27
48 -60 23 -33 45 -60 49 -60 4 0 16 7 26 15 18 14 18 15 1 42 -10 15 -38 51
-61 78 -40 48 -42 53 -34 90 5 22 12 75 15 118 l7 77 -25 0 c-22 0 -26 -5 -31
-37z"/>
<path d="M2204 452 c3 -22 9 -92 12 -156 6 -95 10 -116 21 -111 8 3 22 5 30 5
14 0 15 13 9 98 -3 53 -9 121 -12 150 -7 50 -8 52 -37 52 -29 0 -29 -1 -23
-38z"/>
<path d="M6596 455 c-7 -34 -8 -35 -56 -35 -49 0 -50 -1 -50 -30 0 -29 1 -30
48 -30 l48 0 -4 -35 -4 -35 -64 0 -64 0 0 -30 0 -30 61 0 61 0 -4 -62 c-3 -61
-2 -63 22 -63 14 0 26 6 27 15 1 8 5 36 8 62 l6 48 58 0 c58 0 59 1 63 30 l5
30 -59 0 -58 0 0 35 0 35 50 0 c49 0 50 1 50 30 0 29 -2 30 -45 30 -45 0 -45
0 -45 35 0 30 -3 35 -24 35 -19 0 -25 -7 -30 -35z"/>
<path d="M5435 474 c-11 -4 14 -156 27 -169 4 -4 16 -4 28 0 20 6 22 12 16 53
-15 109 -30 133 -71 116z"/>
<path d="M2471 297 c-22 -34 -59 -81 -81 -105 -39 -42 -40 -43 -23 -68 l16
-25 44 43 c41 40 140 185 132 192 -2 2 -14 8 -25 14 -20 11 -26 6 -63 -51z"/>
<path d="M6925 291 c-36 -15 -58 -49 -63 -100 -4 -43 -1 -53 21 -75 74 -74
191 19 163 128 -10 42 -73 66 -121 47z m69 -47 c37 -36 5 -114 -47 -114 -32 0
-47 18 -47 55 0 58 59 95 94 59z"/>
</g>
</svg>
