<?xml version="1.0" standalone="no"?>
<!DOCTYPE svg PUBLIC "-//W3C//DTD SVG 20010904//EN"
 "http://www.w3.org/TR/2001/REC-SVG-20010904/DTD/svg10.dtd">
<svg version="1.0" xmlns="http://www.w3.org/2000/svg"
 width="1137.000000pt" height="333.000000pt" viewBox="0 0 1137.000000 333.000000"
 preserveAspectRatio="xMidYMid meet">

<g transform="translate(0.000000,333.000000) scale(0.100000,-0.100000)"
fill="#000000" stroke="none">
<path d="M786 3143 c-3 -16 -14 -122 -26 -238 -11 -115 -23 -220 -25 -231 -4
-19 -32 -40 -40 -32 -2 2 7 96 19 211 l22 207 -28 0 c-16 0 -28 -5 -28 -12 0
-7 -10 -105 -21 -218 -20 -188 -26 -213 -52 -223 -5 -1 -5 -15 -2 -30 6 -22
11 -26 29 -21 28 8 210 76 214 79 1 1 -3 14 -9 29 -9 20 -17 25 -32 20 -18 -6
-19 -3 -14 42 4 27 9 79 13 117 7 66 7 67 35 67 26 0 29 4 29 30 0 26 -4 30
-26 30 -25 0 -26 2 -21 43 22 156 21 157 -6 157 -20 0 -27 -6 -31 -27z"/>
<path d="M920 3161 c0 -6 -11 -115 -25 -243 -14 -128 -25 -252 -25 -274 0 -57
30 -94 76 -94 50 0 73 15 95 63 26 59 25 87 -4 87 -19 0 -26 -8 -36 -40 -25
-84 -88 -68 -77 19 3 25 8 76 12 112 6 66 7 66 70 123 65 58 73 73 52 94 -9 9
-21 3 -55 -30 -23 -23 -45 -40 -47 -37 -2 2 0 38 4 79 5 41 9 92 10 113 0 33
-3 37 -25 37 -14 0 -25 -4 -25 -9z"/>
<path d="M1967 3123 c-4 -27 -9 -81 -13 -120 l-7 -73 -47 0 c-43 0 -48 -3 -52
-25 -5 -24 -3 -25 43 -25 33 0 49 -4 49 -12 0 -7 -7 -71 -15 -143 -20 -176
-20 -175 10 -175 14 0 25 3 26 8 0 4 8 77 17 162 l17 155 48 3 c42 3 47 5 47
28 0 22 -4 24 -46 24 -46 0 -46 0 -41 29 4 16 9 70 13 120 l7 91 -25 0 c-23 0
-26 -5 -31 -47z"/>
<path d="M3418 3148 c-3 -22 -8 -23 -89 -26 -84 -3 -87 -4 -92 -28 -2 -14 1
-28 7 -30 6 -2 97 -3 201 -2 l190 3 3 28 3 27 -85 0 c-85 0 -86 0 -86 25 0 34
-47 37 -52 3z"/>
<path d="M3907 3163 c-4 -3 -7 -19 -7 -35 0 -28 -1 -28 -59 -28 -55 0 -59 -2
-63 -25 -5 -24 -4 -25 53 -25 l59 0 0 -35 0 -35 -80 0 c-62 0 -80 -3 -80 -14
0 -8 -3 -21 -6 -30 -5 -14 7 -16 92 -16 l99 0 -25 -20 c-14 -11 -62 -39 -107
-62 -70 -37 -82 -46 -77 -63 10 -31 11 -31 69 -2 30 15 55 25 55 23 0 -2 -7
-20 -15 -39 -8 -20 -15 -41 -15 -47 0 -6 41 -10 111 -10 l111 0 -7 -32 c-4
-18 -11 -41 -17 -50 -12 -25 -64 -24 -80 2 -15 23 -58 27 -58 6 0 -8 12 -28
26 -45 21 -26 33 -31 69 -31 27 0 51 7 67 20 41 32 67 162 37 181 -8 5 -54 9
-103 9 -76 0 -87 2 -82 16 3 9 6 20 6 25 0 5 49 9 109 9 110 0 121 4 121 41 0
5 -43 9 -95 9 l-96 0 34 30 c32 28 40 30 111 30 l76 0 0 30 c0 29 -2 30 -45
30 l-45 0 45 56 c37 45 44 59 34 70 -17 21 -32 17 -51 -13 -13 -21 -18 -23
-18 -10 0 14 -9 17 -55 17 l-56 0 7 35 c6 32 4 35 -18 35 -14 0 -28 -3 -31 -7z
m133 -120 c0 -17 -56 -63 -77 -63 -19 0 -23 5 -23 28 0 16 3 32 7 35 9 9 93 9
93 0z"/>
<path d="M4438 3128 l-3 -43 -86 -3 c-80 -3 -87 -5 -93 -25 -3 -12 -6 -25 -6
-29 0 -5 41 -8 91 -8 79 0 90 -2 85 -16 -3 -9 -6 -31 -6 -50 l0 -34 -80 0 -80
0 0 -30 0 -30 178 2 177 3 3 28 3 27 -73 0 -73 0 3 50 4 50 90 0 89 0 -3 28
c-3 27 -4 27 -86 30 l-83 3 7 44 c6 45 6 45 -24 45 -29 0 -31 -2 -34 -42z"/>
<path d="M6107 3163 c-3 -5 -8 -46 -11 -93 -9 -112 -30 -198 -62 -262 -31 -61
-110 -147 -170 -185 -49 -31 -49 -32 -30 -58 13 -18 15 -17 64 14 28 18 77 60
108 93 64 70 63 70 96 -37 11 -38 22 -72 24 -73 1 -2 12 -1 23 3 29 9 27 28
-15 144 l-35 100 20 65 c16 54 41 222 41 282 0 15 -45 20 -53 7z"/>
<path d="M6954 3119 c-27 -28 -68 -62 -91 -76 -38 -22 -41 -27 -30 -44 14 -23
18 -23 43 -4 29 22 47 18 79 -15 l28 -30 -58 -25 c-32 -15 -71 -29 -87 -32
-35 -7 -42 -17 -28 -42 10 -20 11 -20 67 0 31 10 76 30 101 44 25 14 47 23 49
21 8 -8 -118 -106 -168 -131 -45 -23 -48 -27 -37 -45 15 -24 20 -24 60 -4 30
16 31 16 67 -20 43 -43 44 -42 -81 -87 -87 -31 -97 -40 -79 -68 8 -12 22 -10
88 13 110 39 201 95 266 165 91 99 85 131 -25 131 l-58 0 15 24 c14 20 14 25
1 35 -13 11 -6 21 44 68 97 90 90 123 -28 123 -53 0 -63 3 -58 15 3 8 -2 19
-13 24 -14 8 -27 1 -67 -40z m136 -84 c-48 -49 -64 -52 -104 -17 -46 40 -31
52 63 52 l75 0 -34 -35z m50 -224 c0 -10 -98 -101 -109 -101 -4 0 -23 16 -42
36 l-34 35 24 20 c18 15 39 19 92 19 38 0 69 -4 69 -9z"/>
<path d="M7497 3136 c-21 -46 -137 -167 -181 -191 -41 -22 -41 -24 -22 -50 13
-18 16 -18 42 -5 16 8 65 50 109 92 53 52 82 74 86 65 27 -48 122 -142 169
-167 13 -7 20 -4 29 17 6 14 10 26 9 27 -57 37 -118 90 -149 132 -33 43 -39
56 -30 72 8 16 6 21 -15 31 -14 6 -26 11 -28 11 -1 0 -10 -15 -19 -34z"/>
<path d="M8016 3135 l-7 -35 -83 0 c-67 0 -85 -3 -90 -16 -15 -38 -8 -44 54
-44 l61 0 -6 -37 c-32 -197 -64 -288 -132 -371 -36 -44 -36 -44 -16 -64 20
-20 20 -20 57 23 48 57 90 142 112 229 l18 70 73 0 72 0 -5 -32 c-36 -254 -40
-267 -82 -254 -12 4 -24 16 -27 27 -5 14 -14 19 -28 17 -54 -8 5 -98 64 -98
73 0 91 32 113 200 9 69 19 133 21 143 2 10 -5 27 -16 38 -15 15 -33 19 -97
19 l-78 0 5 43 6 42 118 3 118 3 -3 27 c-3 27 -4 27 -85 30 l-83 3 0 34 c0 30
-3 35 -24 35 -19 0 -25 -7 -30 -35z"/>
<path d="M9087 3162 c-16 -3 -17 -10 -12 -45 9 -54 11 -56 35 -50 17 5 19 11
14 42 -9 48 -15 58 -37 53z"/>
<path d="M9196 3104 l-28 -64 -63 0 c-59 0 -63 -1 -67 -25 -5 -24 -3 -25 40
-25 l45 0 -7 -37 c-3 -21 -6 -46 -6 -55 0 -14 -9 -18 -44 -18 -31 0 -46 -5
-50 -16 -11 -29 -6 -34 39 -34 44 0 45 -1 39 -27 -15 -64 -48 -136 -79 -177
-33 -43 -33 -45 -14 -61 15 -14 21 -15 34 -5 17 14 75 127 75 147 0 30 17 10
29 -35 6 -27 24 -66 38 -87 25 -37 25 -37 45 -18 19 20 19 20 -6 58 -30 44
-56 124 -56 172 0 32 1 33 44 33 39 0 44 3 48 25 5 24 3 25 -43 25 -54 0 -54
1 -43 72 6 35 9 37 48 40 34 2 42 7 44 26 3 17 -2 22 -17 22 -26 0 -26 1 -1
50 25 49 25 66 2 72 -15 4 -24 -8 -46 -58z"/>
<path d="M9966 3154 c-3 -9 -6 -26 -6 -39 0 -20 -6 -24 -37 -27 -31 -2 -39 -7
-41 -25 -3 -20 1 -23 32 -23 33 0 36 -2 36 -29 0 -49 -9 -61 -46 -61 -30 0
-34 -3 -34 -25 0 -23 4 -25 41 -25 l40 0 -6 -82 c-4 -46 -11 -87 -15 -92 -11
-12 -23 52 -18 100 2 33 0 39 -17 42 -19 3 -22 -6 -33 -83 -7 -47 -21 -113
-32 -148 -18 -58 -19 -63 -3 -75 22 -16 27 -9 48 62 l16 59 25 -36 c13 -20 46
-49 72 -64 41 -24 57 -28 127 -28 80 0 145 17 145 39 -1 27 -16 37 -44 26 -43
-16 -160 -12 -201 7 -32 15 -35 21 -35 57 0 65 9 86 36 86 19 0 24 5 24 25 0
19 -5 25 -23 25 -20 0 -22 4 -19 39 3 35 8 40 30 43 19 2 28 10 30 26 3 19 -1
22 -27 22 -28 0 -31 3 -31 33 0 41 9 54 40 58 17 3 26 11 28 27 3 19 -1 22
-26 22 -29 0 -30 1 -25 40 5 38 4 40 -20 40 -13 0 -28 -7 -31 -16z"/>
<path d="M10578 3133 l-3 -38 -82 -3 c-81 -3 -83 -3 -83 -27 0 -24 2 -25 80
-25 l80 0 -5 -37 c-2 -21 -7 -59 -10 -85 l-6 -48 -90 0 c-88 0 -89 0 -89 -25
0 -24 3 -25 60 -25 33 0 60 -4 60 -8 0 -18 -62 -105 -105 -145 -45 -44 -45
-44 -25 -62 20 -18 21 -18 68 32 27 28 63 77 81 110 l32 58 -5 -60 c-3 -33 -8
-90 -12 -127 -7 -68 -7 -68 19 -68 28 0 31 11 42 135 11 125 11 125 55 38 21
-43 53 -91 70 -108 28 -27 32 -28 47 -13 15 15 14 19 -14 55 -44 55 -93 135
-93 150 0 9 19 13 70 13 68 0 70 1 70 25 0 25 -1 25 -90 25 l-90 0 0 33 c0 17
3 56 6 85 l7 52 83 0 c83 0 84 0 84 25 0 25 -1 25 -80 25 l-80 0 0 40 c0 36
-3 40 -24 40 -21 0 -25 -5 -28 -37z"/>
<path d="M2815 3139 c-47 -9 -80 -20 -79 -27 3 -33 5 -34 40 -29 33 6 36 4 30
-16 -3 -12 -6 -34 -6 -49 0 -26 -3 -28 -45 -28 -41 0 -45 -2 -45 -25 0 -21 5
-25 30 -25 17 0 30 -2 30 -5 0 -15 -55 -148 -80 -191 -28 -51 -27 -74 6 -74
10 0 47 78 77 160 10 27 8 -10 -8 -135 -19 -152 -19 -145 9 -145 26 0 28 7 41
145 3 33 8 75 11 94 5 33 6 33 21 12 12 -17 18 -20 29 -10 20 17 17 32 -11 59
-17 16 -25 34 -25 57 0 30 3 33 29 33 23 0 30 5 33 25 5 22 2 25 -23 25 -32 0
-34 6 -23 73 5 28 12 39 30 43 13 3 24 11 24 18 -1 28 -16 31 -95 15z"/>
<path d="M6367 3014 c-20 -165 -59 -302 -108 -378 -29 -47 -30 -51 -13 -63 10
-7 23 -12 29 -10 18 6 83 148 106 232 12 44 24 87 26 95 3 9 14 -3 29 -32 26
-51 35 -56 54 -33 10 12 4 28 -29 90 l-42 75 11 82 c5 46 10 84 10 85 0 2 -12
3 -28 3 l-27 0 -18 -146z"/>
<path d="M6556 3118 c-40 -309 -63 -394 -138 -501 -16 -22 -17 -31 -8 -42 7
-8 18 -15 25 -15 17 0 65 78 95 155 13 33 27 64 31 68 3 5 12 -19 18 -53 13
-68 50 -170 60 -170 4 0 16 6 26 14 18 13 18 15 -3 67 -51 130 -75 284 -61
394 14 111 12 125 -15 125 -22 0 -25 -6 -30 -42z"/>
<path d="M9635 3133 c-38 -13 -112 -31 -163 -40 -84 -15 -93 -19 -90 -37 2
-17 10 -21 43 -21 22 0 56 4 75 7 l35 8 -53 -50 c-29 -28 -62 -50 -73 -50 -14
0 -19 -7 -19 -25 0 -28 2 -28 80 -26 61 2 59 -2 -22 -44 -26 -14 -56 -25 -68
-25 -15 0 -20 -7 -20 -25 0 -25 1 -25 89 -25 l90 0 -4 -32 c-3 -18 -7 -59 -10
-90 -7 -59 -24 -76 -43 -42 -7 13 -15 15 -35 8 -24 -8 -25 -11 -14 -34 20 -39
58 -56 94 -41 40 17 51 43 59 151 7 90 7 90 34 90 15 0 41 3 57 6 23 4 31 1
39 -15 8 -17 12 -18 30 -8 l22 12 -30 68 c-30 66 -40 75 -67 58 -10 -7 -11
-13 -1 -31 6 -12 9 -25 5 -28 -3 -4 -38 -8 -78 -10 l-72 -4 45 32 c25 18 64
51 87 73 40 38 42 42 26 59 -15 17 -18 16 -54 -17 -31 -27 -48 -35 -78 -35
l-38 0 44 45 c25 24 43 50 40 57 -3 9 16 20 55 32 61 19 76 34 61 59 -7 12
-19 10 -78 -10z"/>
<path d="M169 3148 c0 -2 -15 -137 -33 -300 l-32 -298 203 0 202 0 5 33 c3 17
18 146 32 286 26 246 26 255 8 268 -13 10 -64 13 -201 13 -101 0 -183 -1 -184
-2z m340 -90 c0 -18 -10 -125 -22 -238 l-22 -205 -148 -3 -147 -3 0 23 c0 13
10 121 22 241 l22 217 148 0 148 0 -1 -32z"/>
<path d="M335 3048 c-2 -7 -6 -29 -7 -48 -3 -34 -4 -35 -50 -38 -43 -3 -48 -5
-48 -28 0 -21 4 -24 40 -24 26 0 40 -4 40 -13 0 -33 -34 -106 -70 -155 -34
-45 -39 -56 -29 -73 11 -21 11 -21 41 7 16 16 44 56 61 89 l31 60 25 -82 c26
-82 33 -91 59 -74 16 9 3 60 -42 170 -14 36 -26 66 -26 68 0 2 23 3 50 3 28 0
50 4 50 9 0 5 3 16 6 25 5 13 -2 16 -44 16 l-51 0 6 50 c5 46 4 50 -16 50 -12
0 -24 -6 -26 -12z"/>
<path d="M4796 3138 c-3 -7 -12 -83 -21 -168 -17 -164 -37 -276 -62 -349 -14
-42 -14 -46 3 -58 10 -7 21 -13 24 -13 10 0 50 139 65 228 7 42 19 132 25 200
l13 122 75 0 c63 0 73 -2 68 -16 -3 -9 -6 -18 -6 -20 0 -2 -22 -4 -49 -4 l-49
0 -6 -77 c-4 -43 -10 -86 -12 -95 -5 -16 2 -18 51 -18 l56 0 -3 -37 c-3 -35
-5 -38 -30 -35 -14 1 -29 -2 -33 -8 -11 -17 15 -40 44 -40 43 0 62 21 68 73
l6 47 48 0 c54 0 53 -3 64 100 9 81 3 90 -57 90 -42 0 -49 3 -44 16 3 9 6 18
6 20 0 2 34 4 75 4 73 0 75 1 75 25 l0 25 -195 0 c-148 0 -197 -3 -199 -12z
m294 -133 c0 -12 -16 -15 -85 -15 -71 0 -83 2 -79 15 5 12 24 15 85 15 64 0
79 -3 79 -15z m-10 -70 c0 -12 -16 -15 -80 -15 -64 0 -80 3 -80 15 0 12 16 15
80 15 64 0 80 -3 80 -15z"/>
<path d="M5835 3138 c-2 -7 -13 -105 -25 -218 -11 -113 -24 -206 -28 -208 -31
-11 -36 -21 -24 -47 14 -30 12 -31 134 47 76 49 77 50 62 73 l-16 24 -40 -30
c-23 -16 -43 -28 -45 -26 -2 2 6 88 17 191 12 102 18 191 15 196 -9 14 -45 12
-50 -2z"/>
<path d="M8367 3143 c-4 -3 -7 -17 -7 -30 0 -22 3 -23 80 -23 44 0 80 -4 80
-10 0 -5 -5 -20 -11 -34 -11 -23 -18 -25 -78 -28 l-66 -3 -22 -205 c-12 -113
-22 -215 -22 -227 l-1 -23 183 0 183 0 18 173 c9 94 20 190 23 213 8 61 -11
74 -103 74 l-74 0 17 35 17 35 87 0 c81 0 87 2 92 22 3 12 4 25 1 30 -6 10
-388 11 -397 1z m93 -215 c0 -18 -7 -91 -15 -163 -8 -71 -15 -136 -15 -142 0
-7 -12 -13 -26 -13 -26 0 -27 1 -21 53 3 28 11 107 18 175 11 118 13 122 35
122 20 0 24 -5 24 -32z m110 15 c0 -42 -13 -63 -36 -63 -21 0 -24 5 -24 40 0
38 2 40 30 40 22 0 30 -5 30 -17z m100 0 c0 -10 -7 -89 -17 -175 l-16 -158
-29 0 c-27 0 -29 2 -24 33 3 17 10 79 16 137 17 175 18 180 46 180 16 0 24 -6
24 -17z m-118 -153 c-4 -37 -6 -40 -34 -40 -23 0 -29 4 -24 16 3 9 6 27 6 40
0 20 5 24 28 24 26 0 27 -2 24 -40z m-12 -119 c0 -45 -10 -61 -36 -61 -20 0
-24 5 -24 29 0 45 10 61 36 61 20 0 24 -5 24 -29z"/>
<path d="M8858 3120 c-3 -21 0 -30 10 -30 10 0 12 -8 8 -27 -3 -16 -13 -104
-22 -196 -12 -119 -21 -170 -31 -174 -7 -3 -13 -16 -13 -30 0 -27 4 -27 85 -7
l28 7 -7 -57 c-6 -55 -6 -56 18 -56 23 0 25 4 32 69 5 56 10 70 25 74 23 6 25
42 4 54 -13 8 -13 28 2 173 11 110 21 168 30 173 7 4 13 19 13 32 0 25 -1 25
-89 25 l-89 0 -4 -30z m108 -52 c-3 -13 -6 -33 -6 -45 0 -16 -6 -23 -20 -23
-17 0 -20 7 -20 38 0 44 5 52 33 52 15 0 18 -5 13 -22z m-16 -158 c0 -36 -2
-40 -26 -40 -20 0 -25 4 -20 16 3 9 6 27 6 40 0 17 6 24 20 24 17 0 20 -7 20
-40z m-14 -121 c-3 -17 -6 -39 -6 -49 0 -10 -9 -20 -20 -23 -17 -4 -20 0 -20
33 0 52 8 70 32 70 18 0 20 -5 14 -31z"/>
<path d="M2250 3115 l0 -25 122 0 122 0 -62 -63 c-54 -54 -62 -68 -62 -100 l0
-37 -95 0 c-95 0 -95 0 -95 -25 0 -25 1 -25 91 -25 l91 0 -7 -97 c-4 -54 -11
-106 -16 -115 -14 -26 -48 -22 -61 7 -7 16 -17 24 -26 20 -7 -3 -18 -5 -23 -5
-18 0 -9 -39 17 -69 35 -42 84 -43 124 -3 29 30 34 51 45 185 l7 77 89 0 c88
0 89 0 89 25 0 25 -1 25 -85 25 l-85 0 0 27 c0 20 20 47 76 104 66 69 74 80
64 98 -10 20 -20 21 -165 21 l-155 0 0 -25z"/>
<path d="M10105 3126 c-3 -9 -7 -23 -10 -31 -4 -12 7 -15 61 -15 l65 0 -6 -52
c-10 -79 -9 -78 -69 -78 l-55 0 -7 -47 c-4 -27 -8 -82 -8 -124 -1 -96 15 -119
81 -119 53 0 86 28 102 86 16 56 14 64 -14 64 -20 0 -26 -7 -35 -40 -11 -41
-40 -66 -66 -56 -10 4 -14 25 -14 83 0 43 4 83 8 90 4 6 32 13 62 15 l55 3 9
103 c6 75 6 106 -3 115 -6 6 -43 13 -81 15 -58 4 -71 1 -75 -12z"/>
<path d="M1681 2918 c-12 -117 -25 -237 -28 -265 -6 -52 -5 -53 20 -53 21 0
26 5 29 28 3 25 7 27 51 30 28 2 47 8 48 15 0 7 10 103 22 214 13 111 19 211
15 223 -6 17 -16 20 -71 20 l-64 0 -22 -212z m109 150 c0 -21 -31 -311 -36
-335 -3 -15 -12 -23 -25 -23 -18 0 -20 5 -15 43 3 23 10 87 16 142 19 182 19
185 41 185 10 0 19 -6 19 -12z"/>
<path d="M2945 3119 c-4 -13 -55 -498 -55 -526 0 -10 24 -13 88 -13 l89 0 22
213 c12 116 24 232 27 257 3 25 0 52 -5 60 -14 20 -159 28 -166 9z m115 -71
c0 -13 -9 -104 -20 -203 -11 -99 -20 -186 -20 -192 0 -8 -14 -13 -35 -13 -42
0 -41 -20 -15 220 11 102 20 191 20 198 0 7 14 12 35 12 30 0 35 -3 35 -22z"/>
<path d="M5270 3090 l0 -30 155 0 c86 0 155 -4 155 -9 0 -45 -43 -401 -50
-418 -13 -31 -65 -32 -80 -3 -8 16 -17 19 -33 14 -31 -9 -31 -10 -17 -45 27
-63 118 -73 165 -17 28 33 30 42 50 243 24 237 23 233 48 237 16 2 23 11 25
31 l3 27 -210 0 -211 0 0 -30z"/>
<path d="M5932 3082 c-9 -7 -5 -24 18 -75 17 -37 34 -67 38 -67 5 0 16 6 25
13 16 11 15 17 -13 75 -28 60 -41 70 -68 54z"/>
<path d="M3296 2999 c-3 -17 -6 -49 -6 -70 l0 -39 130 0 c147 0 145 -2 138 91
l-3 44 -126 3 -126 3 -7 -32z m214 -34 c0 -25 -1 -25 -85 -25 -76 0 -85 2 -85
18 0 29 8 32 92 32 77 0 78 0 78 -25z"/>
<path d="M10446 3002 c-8 -13 17 -102 28 -101 38 2 42 13 28 62 -10 35 -18 47
-32 47 -10 0 -21 -3 -24 -8z"/>
<path d="M10672 2958 l-21 -49 22 -8 c19 -8 25 -3 44 33 28 53 28 63 -1 68
-20 4 -26 -2 -44 -44z"/>
<path d="M5300 2983 c0 -5 -7 -66 -15 -138 -19 -171 -20 -165 10 -165 18 0 25
5 25 20 0 18 7 20 74 20 41 0 77 4 81 10 3 5 11 59 17 121 11 105 11 112 -7
125 -20 15 -185 21 -185 7z m140 -82 c0 -15 -3 -49 -6 -75 l-7 -46 -48 0 -49
0 5 43 c16 115 11 107 60 107 43 0 45 -1 45 -29z"/>
<path d="M7476 2908 c-7 -43 -36 -315 -36 -339 0 -14 7 -19 28 -19 l28 0 17
173 c22 223 23 217 -8 217 -19 0 -25 -6 -29 -32z"/>
<path d="M3220 2843 c0 -10 -7 -76 -15 -148 -8 -71 -15 -134 -15 -138 0 -5 12
-7 27 -5 28 3 28 4 40 113 6 61 12 118 12 128 1 15 14 17 136 17 l135 0 -1
-42 c-1 -69 -15 -148 -27 -160 -10 -10 -17 -10 -33 0 -23 15 -59 7 -59 -12 0
-33 63 -62 103 -47 44 17 57 50 69 175 11 101 10 119 -2 126 -8 6 -95 10 -192
10 -163 0 -178 -1 -178 -17z"/>
<path d="M4857 2822 c-34 -35 -36 -40 -22 -52 14 -12 21 -8 53 23 33 33 35 38
21 52 -13 13 -19 11 -52 -23z"/>
<path d="M5068 2850 c-15 -9 -14 -14 9 -55 26 -48 34 -53 51 -32 8 9 4 24 -14
55 -14 23 -26 42 -27 42 -1 0 -10 -5 -19 -10z"/>
<path d="M4392 2818 c-8 -8 -3 -22 20 -55 35 -47 40 -50 58 -28 10 12 9 19 -3
37 -44 62 -53 68 -75 46z"/>
<path d="M3300 2743 c0 -21 -3 -48 -6 -60 -6 -23 -5 -23 95 -23 97 0 101 1
107 24 3 13 4 38 2 57 l-3 34 -97 3 -98 3 0 -38z m150 -23 c0 -18 -7 -20 -55
-20 -39 0 -55 4 -55 13 0 22 11 27 62 27 41 0 48 -3 48 -20z"/>
<path d="M4222 2702 c-12 -42 -25 -84 -28 -94 -8 -21 35 -36 47 -17 4 8 18 49
29 93 18 64 19 80 8 87 -26 17 -33 8 -56 -69z"/>
<path d="M4559 2770 c-14 -8 -13 -19 5 -104 19 -87 23 -95 41 -90 11 4 22 8
24 11 5 4 -12 93 -29 156 -12 39 -16 42 -41 27z"/>
<path d="M4313 2744 c-9 -24 4 -119 21 -152 18 -35 71 -57 116 -47 37 8 77 55
86 101 7 39 7 39 -22 48 -19 6 -23 2 -28 -28 -7 -36 -37 -66 -67 -66 -32 0
-49 34 -49 98 0 60 -1 62 -25 62 -14 0 -28 -7 -32 -16z"/>
<path d="M9651 2741 l-23 -18 31 -50 c17 -28 31 -54 31 -59 1 -26 17 -35 42
-23 25 11 26 12 12 46 -8 19 -27 54 -42 78 -27 43 -27 44 -51 26z"/>
<path d="M9396 2718 c-11 -17 -34 -48 -52 -68 -34 -37 -34 -37 -14 -55 20 -18
21 -18 51 11 17 16 42 49 57 73 25 42 25 44 7 57 -26 19 -28 18 -49 -18z"/>
<path d="M4944 2716 c-3 -7 3 -28 14 -45 16 -27 21 -29 36 -18 17 12 17 14 -1
45 -19 34 -40 41 -49 18z"/>
<path d="M10924 2714 c-36 -18 -54 -51 -54 -99 0 -78 86 -105 143 -44 21 23
27 39 27 73 0 68 -55 101 -116 70z m70 -40 c22 -21 20 -46 -5 -78 -26 -33 -54
-33 -75 -1 -36 55 34 125 80 79z"/>
<path d="M4804 2655 c-20 -64 -20 -65 -1 -71 11 -4 23 0 28 7 10 15 40 111 36
114 -1 2 -11 5 -22 8 -17 6 -23 -2 -41 -58z"/>
<path d="M5087 2708 c-15 -12 -16 -17 -1 -73 9 -33 17 -61 19 -63 2 -2 12 1
23 7 20 11 20 13 5 68 -19 70 -24 77 -46 61z"/>
<path d="M4877 2687 c-10 -26 11 -101 33 -119 25 -20 81 -24 111 -8 19 10 49
59 49 80 0 22 -47 10 -58 -15 -9 -19 -19 -25 -42 -25 -33 0 -50 26 -50 76 0
17 -6 24 -19 24 -10 0 -21 -6 -24 -13z"/>
<path d="M1203 2633 c-3 -10 -18 -50 -33 -90 -24 -62 -25 -73 -12 -78 8 -3 19
0 24 7 16 22 78 156 78 167 0 19 -50 12 -57 -6z"/>
<path d="M340 2365 l0 -35 -84 0 -84 0 -6 -31 c-3 -17 -6 -47 -6 -65 0 -29 3
-34 24 -34 25 0 36 16 36 56 l0 24 140 0 140 0 0 -40 c0 -35 3 -40 24 -40 26
0 36 21 36 76 0 45 -16 54 -96 54 l-73 0 6 35 c5 34 5 35 -26 35 -29 0 -31 -2
-31 -35z"/>
<path d="M2396 2384 c-3 -9 -6 -33 -6 -55 l0 -39 -90 0 c-71 0 -90 -3 -90 -14
0 -8 -3 -21 -6 -30 -5 -14 6 -16 85 -16 l91 0 -5 -37 c-3 -21 -12 -103 -20
-183 -9 -80 -18 -153 -21 -162 -8 -26 -33 -22 -40 5 -4 19 -11 23 -30 19 -29
-5 -30 -17 -4 -59 16 -27 26 -33 54 -33 61 0 75 31 92 204 l7 68 33 -63 c19
-35 53 -82 76 -106 l41 -42 17 22 c18 21 17 23 -35 79 -74 80 -75 86 -21 153
51 62 53 67 30 86 -15 12 -20 10 -38 -15 -12 -16 -31 -41 -43 -55 l-21 -26
-11 28 c-6 16 -11 48 -11 73 l0 44 85 0 85 0 0 30 0 30 -81 0 -82 0 7 55 c6
53 5 55 -18 55 -13 0 -27 -7 -30 -16z"/>
<path d="M2507 2382 c-14 -16 -13 -20 23 -49 32 -28 40 -30 50 -18 16 19 8 38
-28 63 -28 20 -30 21 -45 4z"/>
<path d="M2945 2333 c-3 -38 -7 -77 -8 -88 -2 -16 -10 -21 -42 -23 l-40 -3 3
49 c3 41 8 52 28 61 27 12 30 23 11 39 -20 17 -167 -36 -167 -59 0 -25 12 -30
49 -19 l32 9 -3 -37 c-3 -36 -4 -37 -46 -40 -35 -3 -45 -8 -52 -28 -6 -14 -10
-27 -10 -30 0 -2 22 -4 49 -4 l49 0 -5 -47 c-7 -70 -7 -70 -66 -89 -48 -15
-53 -19 -49 -41 4 -20 9 -23 26 -19 11 4 33 9 48 12 l27 6 -6 -58 c-9 -92 -34
-120 -58 -66 -6 13 -19 22 -32 22 -26 0 -27 -5 -12 -49 20 -56 83 -70 118 -26
21 28 27 48 36 143 6 57 10 64 39 79 41 20 39 18 26 42 -9 17 -15 19 -30 11
-18 -10 -20 -7 -20 19 0 50 9 61 51 61 l39 0 0 -102 0 -103 -39 -25 c-33 -22
-37 -28 -30 -48 9 -23 9 -23 39 -6 34 21 31 23 50 -36 26 -79 94 -86 123 -11
20 51 30 111 18 111 -5 0 -16 3 -25 6 -11 4 -16 0 -16 -12 0 -38 -21 -94 -35
-94 -8 0 -17 12 -21 28 -3 15 -8 35 -11 45 -3 10 9 33 30 58 19 22 45 60 58
85 21 39 22 46 9 54 -22 14 -26 11 -64 -50 l-35 -55 -1 78 0 77 64 0 c56 0 66
3 71 20 10 33 -3 40 -71 40 -61 0 -64 1 -60 23 3 12 7 52 11 90 5 66 5 67 -19
67 -23 0 -25 -4 -31 -67z"/>
<path d="M3794 2348 c-24 -73 -59 -150 -90 -200 -25 -40 -26 -42 -8 -55 16
-12 21 -11 37 9 l18 23 -5 -40 c-3 -22 -10 -85 -16 -140 -6 -55 -13 -115 -16
-133 -5 -32 -4 -33 23 -30 l28 3 26 245 c19 182 31 259 47 298 21 49 21 53 4
59 -9 3 -20 8 -24 10 -3 2 -14 -20 -24 -49z"/>
<path d="M4436 2338 c-3 -35 -9 -87 -12 -115 l-6 -53 -47 0 -47 0 7 58 c14
108 12 122 -15 122 -29 0 -33 -9 -41 -115 -4 -44 -9 -88 -11 -97 -5 -16 3 -18
70 -18 l76 0 -1 -27 c0 -16 -6 -77 -12 -138 l-12 -110 -59 -3 -59 -3 7 83 c4
46 10 93 13 106 4 19 1 22 -25 22 l-29 0 -12 -100 c-6 -56 -11 -116 -11 -135
l0 -35 195 0 194 0 5 33 c5 29 26 218 26 232 0 4 -12 5 -27 3 -29 -3 -30 -5
-52 -200 -1 -5 -26 -8 -56 -8 l-56 0 6 48 c3 26 10 85 15 132 6 46 10 88 10
92 0 5 33 8 74 8 86 0 81 -8 92 138 l7 92 -26 0 c-27 0 -27 0 -43 -127 l-6
-53 -45 0 -46 0 7 83 c4 45 9 97 13 115 5 30 4 32 -25 32 -29 0 -30 -1 -36
-62z"/>
<path d="M5330 2393 c0 -5 -14 -134 -30 -288 -37 -341 -36 -325 -6 -325 23 0
23 3 40 168 27 258 25 250 47 245 21 -6 25 -18 8 -28 -7 -5 -4 -14 7 -26 22
-24 36 -13 54 41 11 34 17 40 42 40 26 0 28 -3 28 -37 0 -21 -3 -55 -6 -75 -7
-38 -7 -38 -55 -38 -36 0 -49 -4 -49 -14 0 -8 -3 -21 -6 -30 -5 -13 3 -16 46
-16 l52 0 -7 -77 c-4 -43 -9 -81 -12 -85 -2 -5 -31 -8 -64 -8 -32 0 -59 -4
-59 -9 0 -5 -3 -16 -6 -25 -5 -14 11 -16 139 -16 l145 0 4 25 c5 24 4 25 -50
25 l-55 0 7 53 c3 28 6 67 6 85 0 31 1 32 44 32 37 0 45 4 50 23 9 36 8 37
-39 37 l-45 0 5 43 c16 114 11 106 63 109 43 3 47 5 47 28 0 23 -4 25 -45 28
l-46 3 6 55 c7 61 6 64 -27 64 -20 0 -23 -5 -23 -37 0 -58 -10 -83 -32 -83
-18 0 -19 5 -13 40 6 37 5 40 -17 40 -21 0 -25 -7 -37 -60 -15 -68 -22 -76
-52 -60 -20 11 -21 17 -14 86 l7 74 -26 0 c-14 0 -26 -3 -26 -7z"/>
<path d="M6397 2393 c-3 -5 -8 -56 -12 -115 l-7 -107 -41 -3 c-37 -3 -42 -6
-45 -30 -3 -27 -1 -28 39 -28 41 0 41 0 35 -31 -3 -17 -6 -35 -6 -40 0 -4 -19
-9 -42 -11 -39 -3 -43 -6 -46 -30 -3 -25 0 -28 27 -28 40 0 39 -14 -1 -75 -68
-100 -65 -92 -45 -112 17 -17 19 -17 48 17 16 19 44 65 62 102 l32 68 52 0
c43 0 53 3 58 20 10 31 -2 40 -52 40 -42 0 -45 2 -39 23 3 12 6 30 6 40 0 14
9 17 45 17 43 0 45 1 45 30 0 28 -2 30 -41 30 l-41 0 6 53 c21 186 21 177 -7
177 -14 0 -28 -3 -30 -7z"/>
<path d="M6641 2193 c-11 -115 -24 -236 -28 -271 -3 -34 -11 -69 -17 -78 -14
-18 -42 -10 -49 16 -3 13 -11 16 -30 13 -23 -5 -24 -7 -15 -34 19 -54 80 -76
125 -44 28 20 38 70 63 315 11 113 23 224 26 248 6 41 6 42 -23 42 l-30 0 -22
-207z"/>
<path d="M8067 2393 c-4 -3 -7 -24 -7 -45 l0 -38 -45 0 c-43 0 -45 -1 -45 -30
0 -28 2 -30 41 -30 l41 0 -7 -67 c-4 -38 -10 -71 -14 -75 -3 -4 -24 -8 -46
-10 -35 -3 -40 -6 -40 -28 0 -21 5 -26 38 -30 l37 -5 -28 -60 c-16 -33 -50
-84 -76 -112 -45 -50 -47 -54 -32 -75 l16 -22 53 55 c28 31 63 79 76 108 l25
52 32 -68 c17 -38 47 -83 67 -101 l35 -34 16 23 c15 22 14 25 -23 64 -45 46
-66 85 -76 137 l-7 37 63 3 c61 3 64 4 67 31 2 20 -1 27 -13 27 -13 0 -15 8
-11 45 3 25 8 65 11 89 7 56 -11 76 -67 76 l-40 0 6 45 c7 43 6 45 -17 45 -13
0 -27 -3 -30 -7z m93 -180 c0 -21 -3 -55 -6 -75 -6 -34 -10 -38 -37 -38 -29 0
-29 1 -23 38 3 20 6 54 6 75 0 34 2 37 30 37 28 0 30 -2 30 -37z"/>
<path d="M8399 2357 c-12 -23 -32 -54 -46 -68 l-25 -27 23 -16 c22 -15 24 -15
46 12 12 15 22 31 23 35 0 5 10 7 23 5 14 -2 23 -11 25 -26 5 -33 48 -27 45 6
-2 17 2 22 21 22 17 0 25 7 28 25 5 24 4 25 -52 25 -52 0 -58 2 -53 19 3 13
-2 20 -16 24 -17 4 -25 -3 -42 -36z"/>
<path d="M8584 2334 c-22 -44 -28 -66 -21 -73 8 -8 5 -11 -10 -11 -12 0 -23
-8 -26 -20 -5 -18 -14 -20 -90 -20 -68 0 -86 -3 -91 -16 -16 -41 -9 -44 84
-44 50 0 90 -2 90 -4 0 -29 -16 -36 -86 -36 l-74 0 0 -29 c0 -15 -3 -56 -6
-90 -7 -61 -7 -61 20 -61 23 0 26 4 26 34 0 18 3 48 6 65 6 30 9 31 56 31 l50
0 -7 -32 c-10 -49 -89 -130 -162 -170 -46 -24 -50 -34 -30 -62 12 -16 16 -15
57 15 25 17 62 48 84 68 l38 36 -7 -67 c-7 -67 -6 -68 18 -68 26 0 37 27 37
96 0 40 13 44 36 9 9 -14 39 -41 66 -61 47 -35 50 -36 66 -20 19 19 25 11 -63
80 -53 41 -93 107 -87 145 4 30 6 31 53 31 47 0 49 -1 49 -29 0 -35 -24 -60
-37 -38 -5 9 -15 12 -26 8 -17 -6 -17 -8 3 -34 15 -18 31 -27 50 -27 36 0 50
23 57 97 7 67 1 73 -79 73 -51 0 -58 2 -58 20 0 18 7 20 85 20 l85 0 0 30 0
30 -80 0 c-73 0 -80 2 -80 20 0 11 4 20 8 20 5 0 15 11 22 25 18 34 46 32 53
-4 5 -24 10 -28 27 -24 13 3 20 14 20 29 0 17 6 23 26 26 17 2 30 11 35 26 8
21 6 22 -55 22 -58 0 -64 2 -59 19 3 13 -2 20 -19 23 -20 4 -27 -4 -54 -58z"/>
<path d="M749 2353 c-14 -45 -71 -161 -105 -215 l-24 -37 22 -15 c20 -14 23
-14 40 14 10 17 19 30 21 30 2 0 -5 -69 -14 -152 -24 -204 -24 -198 6 -198 29
0 28 -8 55 275 15 150 27 224 41 258 23 54 20 77 -10 77 -14 0 -23 -11 -32
-37z"/>
<path d="M846 2381 c-8 -13 24 -101 37 -101 33 1 38 16 20 63 -16 45 -43 62
-57 38z"/>
<path d="M1266 2355 c-6 -32 -10 -35 -41 -35 -31 0 -35 -3 -35 -25 0 -22 4
-25 33 -25 32 0 32 -1 29 -40 -4 -39 -5 -40 -42 -40 -32 0 -38 -4 -42 -25 -5
-23 -3 -25 36 -25 l41 -1 -40 -37 c-22 -21 -49 -43 -60 -50 -16 -9 -18 -14 -9
-29 7 -10 21 -17 34 -15 20 2 21 -1 16 -35 -3 -21 -8 -73 -12 -115 l-6 -78 26
0 c16 0 26 6 26 15 0 10 16 15 63 17 l62 3 7 65 c4 36 9 88 12 117 7 62 -8 83
-60 83 l-35 0 23 30 c18 25 29 30 65 30 39 0 43 2 43 25 0 18 -5 25 -20 25
-11 0 -20 2 -20 4 0 3 16 37 36 76 20 40 34 73 32 75 -2 1 -13 5 -24 9 -17 5
-24 0 -35 -25 -7 -18 -15 -27 -17 -21 -2 7 -13 12 -24 12 -18 0 -19 4 -14 35
6 32 5 35 -17 35 -20 0 -26 -6 -31 -35z m65 -102 c-27 -47 -31 -49 -31 -15 0
26 4 32 20 32 17 0 19 -3 11 -17z m-11 -230 c-1 -39 -14 -53 -49 -53 -36 0
-37 1 -33 30 4 27 8 30 43 30 22 0 39 -3 39 -7z m-10 -110 c-1 -39 -14 -53
-49 -53 -36 0 -37 1 -33 30 4 27 8 30 43 30 22 0 39 -3 39 -7z"/>
<path d="M3309 2353 c-14 -45 -71 -161 -105 -215 l-24 -37 22 -15 c20 -14 23
-14 40 14 10 17 19 30 21 30 2 0 -5 -69 -14 -152 -24 -204 -24 -198 6 -198 29
0 28 -8 55 275 15 150 27 224 41 258 23 54 20 77 -10 77 -14 0 -23 -11 -32
-37z"/>
<path d="M3406 2381 c-8 -13 24 -101 37 -101 33 1 38 16 20 63 -16 45 -43 62
-57 38z"/>
<path d="M3896 2368 c-3 -13 -6 -40 -6 -60 0 -33 -3 -38 -24 -38 -22 0 -36
-16 -36 -41 0 -5 12 -9 26 -9 25 0 26 -2 20 -37 -3 -21 -6 -48 -6 -60 0 -16
-6 -23 -20 -23 -12 0 -21 -8 -24 -22 -10 -51 -26 -230 -20 -239 10 -16 36 -9
41 11 4 16 14 20 48 20 48 0 45 -8 61 147 6 55 4 63 -15 75 -22 13 -26 40 -15
97 5 24 12 31 30 31 19 0 24 5 24 25 0 19 -5 25 -21 25 -20 0 -21 4 -17 60 4
56 3 60 -18 60 -14 0 -24 -8 -28 -22z m14 -337 c0 -10 -3 -39 -6 -65 -5 -36
-11 -46 -25 -46 -21 0 -25 37 -13 99 7 35 44 46 44 12z"/>
<path d="M4015 2313 c-10 -43 -28 -102 -42 -132 -23 -54 -21 -70 13 -71 7 0
14 -31 18 -77 5 -69 4 -80 -18 -117 -13 -23 -38 -54 -55 -70 -29 -28 -30 -31
-14 -48 9 -10 20 -18 24 -18 5 0 27 25 51 56 l42 56 28 -56 c25 -49 31 -55 48
-46 18 10 18 13 -13 85 -29 70 -30 78 -19 118 7 23 22 85 33 137 11 52 25 97
30 98 5 2 9 15 9 28 0 22 -4 24 -46 24 l-45 0 6 55 c7 50 6 55 -12 55 -16 0
-23 -14 -38 -77z m61 -110 c-27 -141 -29 -149 -37 -118 -9 40 -11 130 -2 138
3 4 15 7 25 7 16 0 19 -5 14 -27z"/>
<path d="M5849 2348 c-11 -30 -22 -44 -37 -46 -24 -4 -23 2 -52 -275 -26 -243
-26 -237 5 -237 20 0 25 5 25 25 0 24 3 25 60 25 41 0 60 4 60 13 0 6 9 89 20
182 27 232 27 243 -7 257 -16 7 -29 13 -31 13 -1 1 3 16 9 34 9 27 9 35 -2 42
-25 16 -35 10 -50 -33z m47 -154 c-3 -26 -6 -57 -6 -70 0 -21 -5 -24 -36 -24
l-37 0 7 38 c3 20 6 52 6 70 0 30 2 32 36 32 l37 0 -7 -46z m-22 -216 c-3 -40
-9 -76 -11 -80 -2 -5 -18 -8 -35 -8 l-31 0 7 53 c3 28 6 64 6 80 0 24 3 27 36
27 l35 0 -7 -72z"/>
<path d="M6043 2373 c-24 -67 -48 -123 -66 -156 -18 -33 -19 -39 -7 -47 26
-17 37 -11 55 30 17 37 21 40 57 40 30 0 38 -4 38 -19 0 -45 -31 -310 -40
-343 -9 -33 -15 -38 -40 -38 -20 0 -31 6 -35 20 -4 13 -15 20 -31 20 -34 0
-32 -34 5 -71 49 -49 121 -37 146 25 8 18 24 122 35 230 25 224 24 226 -46
226 -24 0 -44 2 -44 4 0 2 6 22 14 44 13 36 13 41 -1 46 -24 10 -33 7 -40 -11z"/>
<path d="M6925 2290 l-7 -100 -34 0 c-30 0 -34 -3 -34 -25 0 -20 5 -25 25 -25
14 0 25 -2 25 -5 0 -11 -60 -124 -68 -129 -10 -6 18 276 29 289 5 5 9 -9 9
-33 0 -30 4 -42 14 -42 23 0 28 17 21 75 -6 45 -11 55 -26 55 -11 0 -19 7 -19
16 0 10 -7 14 -22 12 -22 -3 -24 -11 -50 -258 -15 -140 -27 -267 -27 -282 l-1
-28 90 0 c50 0 90 -4 90 -8 0 -5 11 -14 24 -20 24 -11 25 -9 55 74 17 47 39
128 48 180 15 84 19 94 38 94 l21 0 -16 -175 -16 -175 26 0 27 0 12 158 c15
183 16 192 41 192 11 0 19 9 22 25 5 25 4 25 -63 25 -69 0 -69 0 -69 28 0 15
3 43 6 62 6 33 10 36 67 55 52 17 61 23 59 40 -2 11 -6 22 -8 24 -2 2 -39 -7
-82 -19 l-79 -23 -12 -121 c-17 -166 -23 -206 -30 -206 -6 0 -61 104 -61 115
0 3 16 5 35 5 31 0 35 3 35 25 0 21 -5 25 -31 25 l-31 0 7 68 c3 37 8 82 11
100 4 29 2 32 -19 32 -24 0 -25 -3 -32 -100z m44 -285 c7 -19 17 -33 22 -30
13 9 11 -15 -7 -71 -17 -50 -34 -78 -34 -56 0 8 -22 12 -71 12 l-70 0 3 33 c2
17 8 31 14 30 6 -1 23 23 38 53 15 30 29 54 32 54 2 0 1 -34 -3 -75 -6 -71 -5
-75 14 -75 17 0 21 9 27 46 3 26 6 62 6 80 0 44 13 43 29 -1z"/>
<path d="M7425 2369 c-67 -13 -80 -19 -80 -35 0 -15 6 -19 35 -17 l36 2 -6
-47 -5 -47 -42 -3 c-38 -3 -43 -6 -43 -28 0 -20 5 -24 30 -24 l30 0 -27 -72
c-14 -40 -39 -97 -56 -126 -25 -44 -27 -56 -16 -63 28 -18 38 -7 70 75 19 47
35 84 36 82 1 -1 -4 -58 -12 -127 -19 -163 -20 -159 9 -159 26 0 28 9 42 173
7 82 14 96 34 72 10 -12 16 -13 26 -4 21 17 17 32 -14 62 -22 21 -27 34 -24
57 4 25 9 30 33 30 24 0 29 4 29 25 0 20 -5 25 -25 25 -20 0 -25 5 -25 24 0
55 12 86 36 92 25 6 27 10 16 34 -6 13 -16 13 -87 -1z"/>
<path d="M9394 2377 l-21 -12 26 -56 c25 -51 29 -55 49 -46 17 8 21 16 16 31
-7 23 -43 96 -47 96 -1 -1 -11 -6 -23 -13z"/>
<path d="M10205 2378 c-2 -7 -6 -29 -7 -48 l-3 -35 -82 -3 c-81 -3 -83 -3 -83
-27 0 -24 2 -25 80 -25 l81 0 -5 -32 c-3 -18 -11 -80 -17 -138 -6 -57 -15
-112 -20 -123 -14 -24 -51 -18 -64 11 -10 22 -22 26 -49 16 -12 -4 -13 -11 -5
-32 18 -46 39 -62 83 -62 78 1 95 31 115 215 15 132 17 140 39 143 30 5 32 52
1 52 -18 0 -20 5 -17 48 3 42 1 47 -20 50 -12 2 -24 -3 -27 -10z"/>
<path d="M10417 2382 c-20 -4 -20 -5 4 -94 10 -38 22 -45 48 -29 11 7 10 18
-3 64 -18 61 -22 66 -49 59z"/>
<path d="M1700 2350 c0 -30 0 -30 59 -30 57 0 58 -1 53 -25 -4 -23 -9 -25 -53
-25 -56 0 -57 -2 -61 -105 l-3 -60 62 -3 c62 -3 62 -3 51 -27 -10 -23 -17 -25
-80 -25 -66 0 -68 -1 -68 -24 0 -23 4 -25 50 -28 l51 -3 -31 -42 -30 -41 52
-18 53 -17 -44 -19 c-24 -10 -61 -21 -82 -24 -39 -7 -46 -17 -30 -43 13 -20
80 -7 159 30 l63 31 76 -36 c77 -37 86 -38 103 -7 8 16 0 22 -58 46 -37 16
-68 29 -70 30 -2 2 14 28 35 58 35 51 41 56 76 57 33 0 37 3 37 25 l0 25 -105
0 c-58 0 -105 3 -105 6 0 3 5 14 10 25 9 17 22 19 99 19 102 0 101 -1 101 101
0 63 -6 69 -66 69 -34 0 -42 12 -26 37 4 6 34 13 67 15 57 3 60 4 63 31 l3 27
-205 0 -206 0 0 -30z m220 -55 c0 -21 -5 -25 -30 -25 -16 0 -30 4 -30 9 0 25
14 41 36 41 19 0 24 -5 24 -25z m-114 -97 c-3 -13 -6 -29 -6 -35 0 -7 -11 -13
-25 -13 -22 0 -25 4 -25 35 0 33 2 35 31 35 28 0 31 -3 25 -22z m104 -13 c0
-32 -2 -35 -30 -35 -23 0 -30 5 -30 19 0 35 12 51 36 51 21 0 24 -5 24 -35z
m108 3 c-2 -28 -8 -34 -30 -36 -26 -3 -28 -1 -28 32 0 33 2 36 31 36 28 0 30
-2 27 -32z m-97 -205 c-5 -10 -22 -30 -38 -46 -27 -25 -32 -26 -61 -16 -38 13
-39 18 -11 53 17 22 28 26 70 26 44 0 49 -2 40 -17z"/>
<path d="M3036 2367 c-18 -13 -18 -16 10 -65 30 -53 43 -62 62 -39 8 9 2 26
-22 65 -29 47 -34 51 -50 39z"/>
<path d="M4920 2368 c0 -7 -7 -71 -15 -143 -21 -189 -24 -175 36 -175 48 0 51
-1 45 -22 -3 -13 -6 -29 -6 -35 0 -9 -17 -13 -50 -13 -47 0 -50 -2 -50 -25 0
-23 3 -25 48 -25 l47 0 -3 -45 -4 -45 -64 0 c-35 0 -64 -4 -64 -9 0 -5 -3 -16
-6 -25 -5 -14 11 -16 145 -16 l151 0 0 25 c0 24 -3 25 -55 25 -54 0 -55 0 -55
29 0 53 8 61 61 61 46 0 49 2 49 25 0 23 -3 25 -51 25 -48 0 -51 1 -45 23 3
12 6 28 6 35 0 8 17 12 49 12 59 0 56 -9 72 167 10 107 10 135 -1 148 -17 20
-240 23 -240 3z m100 -57 c0 -5 -3 -23 -6 -40 -5 -24 -12 -31 -30 -31 -21 0
-24 5 -24 40 0 38 2 40 30 40 17 0 30 -4 30 -9z m100 -8 c0 -42 -13 -63 -36
-63 -21 0 -24 5 -24 40 0 38 2 40 30 40 22 0 30 -5 30 -17z m-120 -153 c0 -37
-2 -40 -28 -40 -26 0 -27 2 -24 40 4 34 7 40 28 40 21 0 24 -4 24 -40z m106
24 c-3 -9 -6 -27 -6 -40 0 -20 -5 -24 -31 -24 -24 0 -30 3 -25 16 3 9 6 27 6
40 0 20 5 24 31 24 24 0 30 -3 25 -16z"/>
<path d="M7865 2374 c-11 -4 4 -187 17 -199 3 -4 16 -4 28 0 19 6 21 12 16 48
-3 23 -8 68 -12 100 -6 56 -15 66 -49 51z"/>
<path d="M9517 2373 c-4 -3 -7 -15 -7 -25 0 -16 10 -18 96 -18 l95 0 -28 -40
c-15 -22 -31 -40 -35 -40 -3 0 -18 14 -33 32 -24 29 -28 30 -42 15 -15 -15
-15 -18 1 -36 18 -19 17 -20 -26 -23 l-43 -3 -17 -150 c-23 -208 -23 -207 5
-203 19 3 23 11 27 53 5 48 6 50 38 53 l33 3 -7 -46 c-6 -45 -6 -47 17 -43 20
2 24 9 27 46 3 41 4 42 39 42 33 0 35 -1 28 -27 -3 -16 -11 -29 -16 -31 -5 -2
-9 -17 -9 -34 0 -23 4 -29 16 -24 9 3 20 6 24 6 20 0 30 44 46 185 17 154 14
170 -26 177 -18 3 -17 7 10 47 37 54 37 69 4 81 -28 11 -207 14 -217 3z m81
-205 c-2 -18 -11 -24 -35 -26 -18 -2 -33 1 -33 7 0 27 14 41 42 41 25 0 29 -4
26 -22z m112 13 c0 -27 -15 -41 -41 -41 -24 0 -29 4 -29 25 0 22 4 25 35 25
19 0 35 -4 35 -9z m-120 -105 c0 -32 -13 -46 -41 -46 -24 0 -29 4 -29 23 0 31
7 37 42 37 17 0 28 -5 28 -14z m110 7 c-1 -35 -14 -53 -41 -53 -26 0 -29 4
-29 30 0 28 3 30 35 30 19 0 35 -3 35 -7z"/>
<path d="M10515 2370 c-3 -5 -9 -32 -12 -60 -6 -48 -5 -50 19 -50 20 0 27 6
32 30 l6 30 101 0 101 0 -7 -30 c-6 -28 -5 -30 24 -30 31 0 31 1 31 50 0 45
-3 52 -26 60 -33 13 -261 13 -269 0z"/>
<path d="M11010 2350 c0 -28 2 -30 40 -30 40 0 40 0 40 -38 0 -50 -34 -171
-67 -235 -30 -61 -110 -164 -152 -198 l-31 -24 21 -25 21 -25 70 74 c53 55 81
96 113 163 l43 90 12 -54 c11 -51 85 -213 115 -252 14 -19 15 -19 35 -1 26 24
26 28 -11 81 -66 97 -103 217 -115 381 -4 51 -12 97 -18 102 -6 4 -35 11 -63
15 l-53 7 0 -31z"/>
<path d="M945 2351 c-10 -31 2 -41 46 -41 l40 0 -6 -42 c-3 -24 -14 -128 -25
-231 -11 -104 -23 -193 -26 -198 -12 -20 -34 -7 -42 24 -7 24 -13 31 -28 29
-28 -5 -28 -8 -15 -52 19 -65 85 -81 123 -30 24 33 79 523 60 542 -6 6 -36 13
-66 16 -48 4 -55 2 -61 -17z"/>
<path d="M1445 2358 c-6 -16 -55 -516 -55 -557 0 -26 4 -31 25 -31 23 0 25 4
26 43 1 60 11 78 49 91 66 21 97 119 67 206 -12 32 -10 43 20 117 40 101 41
120 7 133 -37 15 -134 13 -139 -2z m105 -57 c0 -6 -12 -42 -26 -81 -24 -63
-25 -76 -15 -109 17 -60 14 -114 -9 -139 -28 -29 -52 -29 -46 1 3 12 10 81 16
152 15 184 16 185 51 185 16 0 29 -4 29 -9z"/>
<path d="M3505 2351 c-10 -31 2 -41 46 -41 l40 0 -6 -42 c-3 -24 -14 -128 -25
-231 -11 -104 -23 -193 -26 -198 -12 -20 -34 -7 -42 24 -7 24 -13 31 -28 29
-28 -5 -28 -8 -15 -52 19 -65 85 -81 123 -30 24 33 79 523 60 542 -6 6 -36 13
-66 16 -48 4 -55 2 -61 -17z"/>
<path d="M4767 2363 c-4 -3 -7 -17 -7 -30 0 -17 6 -23 21 -23 19 0 21 -4 15
-31 -3 -17 -6 -49 -6 -70 0 -33 -4 -41 -25 -49 -31 -12 -34 -49 -4 -57 15 -4
19 -11 15 -32 -3 -14 -8 -57 -12 -94 -6 -60 -9 -70 -30 -77 -25 -10 -30 -25
-15 -48 6 -11 21 -7 72 18 78 40 73 34 59 60 -7 14 -17 19 -27 16 -13 -6 -15
0 -9 40 3 26 6 62 6 80 0 27 4 34 19 34 19 0 31 18 31 46 0 8 -9 14 -20 14
-17 0 -19 5 -14 53 9 85 13 97 34 97 16 0 20 7 20 30 0 30 0 30 -58 30 -32 0
-62 -3 -65 -7z"/>
<path d="M9924 2357 l-21 -12 26 -56 c25 -51 29 -55 49 -46 12 6 22 14 22 19
0 9 -49 108 -53 108 -1 -1 -11 -6 -23 -13z"/>
<path d="M7556 2352 c-5 -9 -56 -477 -56 -519 0 -24 1 -24 88 -21 l87 3 27
255 28 255 -21 18 c-15 12 -39 17 -85 17 -34 0 -65 -4 -68 -8z m114 -59 c0 -5
-9 -101 -21 -215 l-22 -208 -34 0 c-40 0 -39 -14 -13 230 11 102 20 188 20
193 0 4 16 7 35 7 19 0 35 -3 35 -7z"/>
<path d="M6306 2328 c2 -13 6 -44 9 -69 5 -40 9 -46 25 -42 21 6 25 29 14 96
-5 30 -11 37 -29 37 -17 0 -22 -5 -19 -22z"/>
<path d="M6496 2338 c-3 -7 -11 -35 -20 -62 -13 -39 -13 -51 -4 -58 7 -4 16
-8 19 -8 12 0 51 118 43 131 -8 13 -34 11 -38 -3z"/>
<path d="M6565 2308 c-11 -83 -35 -320 -35 -349 0 -24 4 -29 25 -29 17 0 25 6
25 18 0 9 9 96 20 192 25 222 25 210 -4 210 -21 0 -26 -6 -31 -42z"/>
<path d="M6995 2293 c-9 -32 -17 -60 -18 -63 0 -3 7 -6 15 -8 18 -4 54 88 44
113 -11 29 -25 14 -41 -42z"/>
<path d="M10543 2221 c-47 -53 -51 -60 -38 -77 13 -18 15 -17 50 16 20 19 46
50 57 69 17 27 19 35 7 42 -21 13 -20 13 -76 -50z"/>
<path d="M10683 2269 c-8 -8 -1 -25 27 -66 22 -30 41 -60 42 -65 3 -8 11 -7
26 1 l22 12 -39 62 c-41 64 -58 76 -78 56z"/>
<path d="M5264 2243 c-11 -48 -35 -147 -40 -164 -3 -11 3 -18 15 -22 23 -6 33
18 55 130 12 62 12 73 -1 77 -22 9 -22 8 -29 -21z"/>
<path d="M816 2238 c-5 -15 -46 -414 -46 -440 0 -12 8 -18 25 -18 14 0 25 2
25 4 0 12 40 396 45 429 5 34 3 37 -20 37 -14 0 -27 -6 -29 -12z"/>
<path d="M3376 2238 c-5 -15 -46 -414 -46 -440 0 -12 8 -18 25 -18 14 0 25 2
25 4 0 12 40 396 45 429 5 34 3 37 -20 37 -14 0 -27 -6 -29 -12z"/>
<path d="M10393 2213 c-17 -6 -16 -14 3 -79 14 -49 18 -54 37 -48 31 9 31 7
10 70 -19 58 -27 67 -50 57z"/>
<path d="M2232 2178 c-8 -8 -2 -23 26 -59 38 -50 49 -54 66 -27 7 12 2 26 -23
57 -34 43 -49 49 -69 29z"/>
<path d="M9350 2165 c0 -20 5 -25 25 -25 21 0 25 -4 21 -22 -3 -13 -10 -66
-16 -118 -10 -89 -13 -97 -47 -132 -32 -33 -35 -39 -22 -55 7 -10 15 -20 16
-22 2 -3 18 10 36 27 l33 32 33 -24 c63 -47 209 -59 285 -25 33 15 34 56 1 51
-51 -9 -168 -14 -198 -8 -18 3 -47 18 -64 34 l-32 27 16 128 c18 146 14 157
-48 157 -35 0 -39 -3 -39 -25z"/>
<path d="M10053 2178 l-21 -10 24 -52 c13 -28 24 -57 24 -63 0 -17 12 -16 35
1 18 13 18 15 -5 70 -12 31 -25 58 -29 60 -3 2 -16 -1 -28 -6z"/>
<path d="M10626 2182 c-2 -4 -7 -24 -11 -45 l-7 -37 -58 0 c-50 0 -60 -3 -65
-20 -9 -29 2 -40 41 -40 19 0 34 -4 34 -8 0 -15 -62 -107 -96 -142 -31 -33
-33 -38 -20 -55 14 -19 16 -19 50 15 19 19 51 62 72 95 l36 60 -5 -40 c-3 -22
-9 -73 -13 -112 l-7 -73 26 0 c28 0 27 -3 46 155 5 50 10 64 16 50 25 -66 58
-132 72 -147 15 -17 18 -17 34 -2 18 16 17 18 -13 62 -17 25 -39 67 -49 93
l-18 48 42 3 c38 3 42 6 45 31 3 27 3 27 -55 27 l-58 0 3 45 c4 40 2 45 -16
45 -12 0 -23 -3 -26 -8z"/>
<path d="M216 2148 c-20 -126 -28 -258 -16 -293 16 -50 60 -75 128 -75 90 0
152 44 180 127 10 29 9 32 -15 38 -14 3 -26 5 -27 3 -1 -2 -9 -20 -18 -40 -22
-48 -61 -73 -114 -73 -60 0 -84 25 -84 85 l0 47 51 21 c51 22 189 109 189 119
0 4 -7 14 -16 24 -15 17 -18 16 -62 -17 -41 -32 -133 -84 -148 -84 -3 0 -3 34
1 75 l7 75 -25 0 c-22 0 -27 -6 -31 -32z"/>
<path d="M9868 2155 c-6 -30 -2 -35 32 -35 l26 0 -13 -112 -13 -113 -41 -37
c-36 -33 -39 -39 -27 -57 17 -27 19 -27 53 9 33 34 47 37 66 13 39 -46 170
-68 261 -43 43 12 52 22 43 49 -5 18 -9 18 -52 5 -83 -25 -170 -13 -220 30
l-27 23 14 131 c15 153 12 162 -55 162 -37 0 -43 -3 -47 -25z"/>
<path d="M5994 2120 c-20 -8 -20 -10 -5 -88 13 -70 17 -79 34 -74 27 7 31 27
17 90 -16 74 -21 81 -46 72z"/>
<path d="M7862 2053 c-7 -26 -31 -85 -53 -132 -36 -78 -38 -85 -22 -97 10 -7
21 -14 24 -14 9 0 85 168 102 227 15 50 15 51 -6 57 -12 3 -24 6 -27 6 -3 0
-12 -21 -18 -47z"/>
<path d="M10385 1968 c-10 -40 -26 -94 -36 -120 -18 -47 -18 -48 3 -59 26 -14
31 -7 62 91 30 95 40 150 27 150 -5 0 -16 3 -24 6 -11 4 -19 -12 -32 -68z"/>
<path d="M2279 2004 c-7 -9 -39 -34 -71 -55 -52 -36 -57 -41 -45 -59 15 -25
18 -25 53 2 106 80 114 88 101 108 -14 24 -21 25 -38 4z"/>
<path d="M8884 1950 c-50 -20 -78 -92 -58 -145 9 -22 59 -43 90 -37 72 13 106
124 52 169 -20 17 -60 23 -84 13z m70 -62 c18 -52 -40 -110 -79 -78 -20 17
-19 69 2 92 25 27 65 20 77 -14z"/>
<path d="M1863 1589 l-15 -39 -59 0 c-51 0 -59 -2 -59 -19 0 -10 -11 -126 -25
-257 -14 -131 -25 -244 -25 -251 0 -10 36 -13 164 -13 l163 0 6 43 c3 23 16
137 28 254 18 173 20 215 9 228 -9 11 -31 15 -77 15 -69 0 -68 -2 -46 56 2 6
-8 14 -22 16 -23 5 -28 1 -42 -33z m137 -128 c0 -71 0 -71 -119 -71 l-107 0 4
43 c5 69 1 67 117 67 l105 0 0 -39z m-19 -125 c2 -2 2 -27 1 -55 l-4 -51 -109
0 c-122 0 -119 -2 -103 79 l7 31 102 0 c56 0 104 -2 106 -4z m-15 -193 c-3
-21 -6 -46 -6 -55 0 -16 -12 -18 -111 -18 l-111 0 6 31 c3 17 6 42 6 55 0 24
1 24 111 24 l112 0 -7 -37z"/>
<path d="M2477 1623 c-3 -5 -8 -41 -12 -80 -7 -73 -7 -73 -37 -73 -29 0 -30 2
-24 31 8 41 -8 59 -51 59 -33 0 -34 1 -28 30 6 27 4 30 -19 30 -16 0 -26 -6
-26 -15 0 -28 -42 -126 -75 -175 -31 -46 -32 -50 -16 -64 13 -12 20 -13 29 -4
9 9 18 6 37 -12 29 -27 26 -33 -46 -90 -42 -33 -45 -39 -35 -59 l12 -22 40 30
c51 36 96 91 131 158 24 44 32 53 56 53 19 0 27 -5 27 -18 0 -27 -51 -102 -99
-145 -35 -32 -40 -40 -31 -57 8 -15 15 -18 28 -11 25 14 84 71 108 105 l21 29
21 -45 c12 -24 35 -56 50 -71 l28 -27 14 24 c12 23 10 28 -22 65 -33 38 -58
97 -58 135 0 13 10 16 50 16 47 0 50 2 50 25 0 23 -4 25 -46 25 l-46 0 7 80
c7 76 6 80 -13 80 -12 0 -23 -3 -25 -7z m-127 -138 c0 -28 -16 -32 -44 -10
-23 17 -13 35 20 35 19 0 24 -5 24 -25z m-42 -61 c18 -12 20 -19 12 -35 -13
-24 -19 -23 -49 1 -19 17 -21 23 -11 35 16 19 20 19 48 -1z"/>
<path d="M2895 1575 l-7 -54 -77 -3 -76 -3 -12 -95 c-6 -52 -12 -114 -12 -137
l-1 -43 76 0 76 0 -5 -32 c-4 -18 -9 -70 -13 -115 l-7 -83 26 0 c27 0 29 7 43
158 l7 72 78 0 c43 0 80 3 82 8 3 4 11 60 18 125 9 90 9 121 0 130 -6 6 -42
13 -79 15 l-68 4 4 54 c4 52 4 54 -21 54 -23 0 -26 -5 -32 -55z m-19 -167 c-3
-29 -6 -65 -6 -80 0 -27 -2 -28 -50 -28 l-50 0 0 34 c0 18 3 54 6 80 l7 46 50
0 50 0 -7 -52z m170 30 c-3 -13 -8 -49 -11 -80 l-6 -58 -55 0 -55 0 6 58 c11
106 9 102 70 102 52 0 55 -1 51 -22z"/>
<path d="M4017 1583 c-4 -27 -9 -81 -13 -120 l-7 -73 -47 0 c-43 0 -48 -3 -52
-25 -5 -24 -3 -25 43 -25 33 0 49 -4 49 -12 0 -7 -7 -71 -15 -143 -20 -176
-20 -175 10 -175 14 0 25 3 26 8 0 4 8 77 17 162 l17 155 48 3 c42 3 47 5 47
28 0 22 -4 24 -46 24 -46 0 -46 0 -41 29 4 16 9 70 13 120 l7 91 -25 0 c-23 0
-26 -5 -31 -47z"/>
<path d="M6107 1623 c-3 -5 -8 -46 -11 -93 -9 -112 -30 -198 -62 -262 -31 -61
-110 -147 -170 -185 -49 -31 -49 -32 -30 -58 13 -18 15 -17 64 14 28 18 77 60
108 93 64 70 63 70 96 -37 11 -38 22 -72 24 -73 1 -2 12 -1 23 3 29 9 27 28
-15 144 l-35 100 20 65 c16 54 41 222 41 282 0 15 -45 20 -53 7z"/>
<path d="M6460 1599 c-9 -20 -20 -29 -35 -29 -22 0 -24 -5 -30 -77 -3 -43 -7
-94 -8 -113 l-2 -35 73 -3 c43 -2 70 -7 67 -12 -3 -6 5 -15 18 -21 21 -9 26
-21 32 -68 3 -31 8 -63 11 -72 2 -8 -14 -43 -35 -77 -35 -54 -38 -62 -24 -74
13 -11 20 -7 48 26 l32 38 13 -33 c17 -44 15 -42 39 -30 20 11 20 12 1 54 -25
58 -26 74 -7 137 14 47 30 130 54 288 5 31 4 32 -31 32 l-36 0 7 45 c6 44 5
45 -21 45 -20 0 -26 -5 -26 -21 0 -35 -40 -195 -54 -214 -10 -14 -11 0 -4 70
9 90 2 115 -28 115 -10 0 -13 7 -8 24 4 18 1 25 -15 29 -15 3 -22 -2 -31 -24z
m40 -99 c0 -16 -7 -20 -30 -20 -23 0 -30 4 -30 20 0 16 7 20 30 20 23 0 30 -4
30 -20z m150 -51 c0 -36 -22 -164 -31 -179 -10 -18 -12 121 -3 169 7 34 34 43
34 10z m-160 -34 c0 -21 -5 -25 -30 -25 -16 0 -30 4 -30 9 0 25 14 41 36 41
19 0 24 -5 24 -25z"/>
<path d="M6970 1563 l-15 -68 -37 -3 -37 -3 10 33 c15 54 12 68 -16 68 -14 0
-25 -6 -25 -13 0 -8 -9 -42 -21 -77 -24 -75 -19 -81 54 -73 l50 6 -7 -29 c-12
-52 -104 -228 -145 -278 -23 -26 -41 -51 -41 -56 0 -4 8 -14 19 -24 17 -16 20
-14 59 36 22 29 56 79 75 111 l35 58 26 -47 c14 -26 26 -50 26 -53 0 -9 -52
-47 -101 -76 -37 -20 -38 -22 -23 -43 l16 -23 36 22 c20 13 54 36 75 52 l37
29 51 -46 c56 -50 73 -56 88 -28 8 15 0 25 -45 60 -30 23 -54 47 -54 53 0 6
11 25 25 43 23 30 45 75 59 122 12 38 -17 54 -95 54 -38 0 -69 3 -69 8 0 4 3
17 6 30 6 21 11 22 109 22 85 0 104 3 109 16 16 41 10 44 -95 44 -91 0 -100 2
-95 18 3 9 10 38 14 64 8 42 7 47 -12 52 -12 3 -23 6 -26 6 -3 0 -12 -30 -20
-67z m95 -302 c-13 -27 -30 -53 -35 -56 -14 -8 -34 17 -54 68 l-14 37 64 0 64
0 -25 -49z"/>
<path d="M7556 1599 c-3 -17 -6 -48 -6 -68 0 -69 -8 -81 -51 -81 l-39 0 7 48
c3 26 9 48 13 50 4 1 15 8 24 15 14 10 15 15 4 29 -12 17 -18 16 -94 -10 -76
-25 -81 -28 -73 -49 5 -13 10 -23 11 -23 2 0 18 4 36 9 35 10 39 3 26 -46 -5
-19 -13 -23 -49 -23 -36 0 -44 -4 -49 -22 -9 -37 -8 -38 39 -38 l45 0 0 -49
c0 -59 -12 -73 -74 -91 -40 -11 -46 -16 -40 -34 9 -29 9 -30 45 -17 18 6 37
11 44 11 15 0 2 -130 -15 -140 -19 -12 -40 -1 -40 21 0 14 -7 19 -25 19 -29 0
-32 -17 -10 -59 39 -76 127 -42 139 53 3 25 9 66 12 91 4 38 10 48 37 61 42
21 40 19 26 42 -10 16 -17 18 -32 11 -17 -9 -18 -7 -15 33 3 43 3 43 46 46
l42 3 0 -100 0 -100 -37 -28 c-21 -15 -39 -28 -41 -29 -2 -1 2 -12 8 -24 11
-20 13 -20 35 -6 34 23 42 20 49 -16 23 -116 110 -106 141 16 8 33 14 60 12
62 -1 1 -12 4 -23 8 -19 6 -22 2 -28 -36 -4 -24 -10 -49 -15 -57 -15 -24 -38
-4 -45 39 -6 37 -3 46 28 83 51 63 81 128 64 138 -23 15 -33 10 -52 -31 -35
-73 -46 -71 -46 9 l0 71 64 0 c60 0 64 1 68 25 3 13 3 27 0 30 -3 3 -34 5 -69
5 l-64 0 6 53 c3 28 8 69 10 90 5 34 3 37 -19 37 -18 0 -25 -7 -30 -31z"/>
<path d="M7897 1535 c-21 -50 -54 -116 -73 -145 -35 -53 -35 -54 -16 -72 19
-19 19 -19 40 14 21 32 22 32 21 8 0 -14 -8 -94 -18 -177 l-17 -153 28 0 c15
0 28 4 28 9 0 5 11 115 25 244 17 167 30 250 45 287 11 29 19 54 18 55 -2 1
-12 7 -23 13 -18 9 -23 2 -58 -83z"/>
<path d="M9038 1588 l-3 -43 -77 -3 c-75 -3 -78 -4 -78 -27 0 -24 2 -25 76
-25 l77 0 -7 -31 c-3 -17 -6 -44 -6 -60 l0 -29 -90 0 c-89 0 -90 0 -90 -25 0
-24 2 -25 65 -25 l65 0 -25 -50 c-14 -27 -52 -78 -85 -113 -55 -59 -58 -65
-45 -83 15 -18 18 -16 78 48 35 36 71 85 82 107 10 23 21 41 24 41 4 0 1 -51
-6 -112 -17 -154 -17 -148 12 -148 17 0 26 7 29 23 5 23 26 216 26 245 0 9 14
-14 31 -53 33 -79 95 -168 111 -163 7 3 16 11 22 20 7 12 2 25 -23 54 -33 37
-91 147 -91 172 0 8 20 12 69 12 68 0 81 7 81 41 0 5 -43 9 -96 9 l-96 0 6 31
c3 17 6 44 6 60 l0 29 85 0 c84 0 85 0 85 25 0 25 -1 25 -81 25 l-82 0 6 45
c7 44 6 45 -23 45 -27 0 -29 -3 -32 -42z"/>
<path d="M9556 1614 c-3 -9 -6 -27 -6 -40 0 -23 -2 -24 -79 -24 -78 0 -91 -6
-91 -41 0 -5 37 -9 81 -9 l82 0 -7 -61 c-3 -34 -6 -73 -6 -85 0 -23 -2 -24
-90 -24 -89 0 -90 0 -90 -25 0 -24 3 -25 60 -25 l60 0 -20 -41 c-12 -22 -46
-66 -75 -96 -45 -46 -52 -59 -44 -75 5 -10 13 -18 18 -18 17 0 110 109 136
159 14 29 28 51 30 49 3 -3 -1 -52 -20 -205 -4 -42 -4 -43 24 -43 l28 0 13
130 13 131 38 -78 c21 -43 51 -94 67 -113 30 -35 30 -35 51 -16 l21 20 -29 30
c-30 31 -101 142 -101 158 0 4 31 8 69 8 65 0 69 1 73 25 l5 25 -94 0 -94 0 6
58 c13 121 5 112 101 112 83 0 84 0 84 25 0 24 -2 24 -82 27 l-83 3 3 38 c3
34 1 37 -21 37 -14 0 -28 -7 -31 -16z"/>
<path d="M10076 1614 c-3 -9 -6 -29 -6 -44 l0 -29 -87 -3 c-88 -3 -88 -3 -91
-30 l-3 -28 85 0 c95 0 94 1 80 -69 l-6 -31 -73 0 c-57 0 -74 -3 -79 -16 -17
-44 -15 -44 174 -44 l180 0 0 30 0 30 -70 0 -70 0 0 34 c0 63 4 66 96 66 l84
0 0 30 0 30 -83 0 -82 0 3 45 c4 42 2 45 -21 45 -14 0 -28 -7 -31 -16z"/>
<path d="M710 1576 c-10 -25 -31 -63 -44 -83 -19 -28 -23 -40 -14 -50 15 -18
-5 -216 -33 -332 -17 -69 -19 -85 -7 -92 7 -5 16 -9 20 -9 8 0 33 79 44 136 4
21 12 34 21 34 13 0 15 -10 11 -50 -4 -43 -3 -50 12 -50 19 0 30 27 30 73 0
18 5 27 16 27 14 0 15 -7 10 -37 -3 -21 -6 -48 -6 -61 0 -13 -6 -22 -12 -21
-28 3 -36 -2 -31 -21 6 -22 32 -33 56 -24 25 9 34 50 53 243 18 189 18 190
-19 204 -5 1 -1 16 9 33 22 39 13 63 -26 71 -24 4 -30 10 -28 27 2 15 -3 22
-20 24 -18 3 -26 -5 -42 -42z m63 -86 c-11 -19 -25 -30 -40 -30 -27 0 -29 8
-7 38 9 13 26 22 40 22 l25 0 -18 -30z m-42 -93 c-1 -4 -1 -18 -1 -32 0 -16
-6 -25 -16 -25 -12 0 -15 6 -10 23 3 12 6 28 6 35 0 8 5 12 11 10 6 -2 10 -7
10 -11z m69 -22 c0 -24 -5 -35 -15 -35 -15 0 -22 50 -8 63 15 15 23 5 23 -28z
m-80 -120 c0 -24 -5 -35 -15 -35 -15 0 -22 50 -8 63 15 15 23 5 23 -28z m68 3
c-4 -46 -28 -49 -28 -4 0 26 4 36 16 36 11 0 14 -8 12 -32z"/>
<path d="M1355 1553 c-11 -109 -5 -103 -100 -103 -66 0 -84 -3 -89 -16 -16
-40 -9 -44 80 -44 l87 0 -6 -37 c-12 -71 -63 -156 -137 -227 -69 -67 -70 -69
-55 -93 l16 -24 51 42 c61 52 120 129 144 188 l18 44 16 -51 c21 -63 74 -153
116 -193 l31 -30 17 26 c17 26 17 27 -22 69 -56 60 -89 121 -106 196 -9 36
-16 71 -16 78 0 9 26 12 95 12 l95 0 0 30 0 30 -95 0 c-94 0 -95 0 -91 23 3
12 8 50 11 85 l6 62 -30 0 c-29 0 -29 -1 -36 -67z"/>
<path d="M3289 1578 c-11 -30 -22 -44 -37 -46 -24 -4 -23 2 -52 -275 -26 -243
-26 -237 5 -237 20 0 25 5 25 25 0 24 3 25 60 25 41 0 60 4 60 13 0 6 9 89 20
182 27 232 27 243 -7 257 -16 7 -29 13 -31 13 -1 1 3 16 9 34 9 27 9 35 -2 42
-25 16 -35 10 -50 -33z m47 -154 c-3 -26 -6 -57 -6 -70 0 -21 -5 -24 -36 -24
l-37 0 7 38 c3 20 6 52 6 70 0 30 2 32 36 32 l37 0 -7 -46z m-22 -216 c-3 -40
-9 -76 -11 -80 -2 -5 -18 -8 -35 -8 l-31 0 7 53 c3 28 6 64 6 80 0 24 3 27 36
27 l35 0 -7 -72z"/>
<path d="M3483 1603 c-24 -67 -48 -123 -66 -156 -18 -33 -19 -39 -7 -47 26
-17 37 -11 55 30 17 37 21 40 57 40 30 0 38 -4 38 -19 0 -45 -31 -310 -40
-343 -9 -33 -15 -38 -40 -38 -20 0 -31 6 -35 20 -4 13 -15 20 -31 20 -34 0
-32 -34 5 -71 49 -49 121 -37 146 25 8 18 24 122 35 230 25 224 24 226 -46
226 -24 0 -44 2 -44 4 0 2 6 22 14 44 13 36 13 41 -1 46 -24 10 -33 7 -40 -11z"/>
<path d="M6317 1613 c-12 -3 -16 -10 -12 -21 3 -9 11 -38 16 -64 10 -47 21
-56 47 -39 9 5 11 18 7 37 -12 54 -27 94 -33 93 -4 -1 -15 -3 -25 -6z"/>
<path d="M7090 1599 c-10 -18 -7 -25 27 -54 45 -41 49 -41 64 -13 10 19 8 25
-17 45 -51 42 -62 45 -74 22z"/>
<path d="M8014 1614 c-19 -8 20 -99 42 -99 25 0 28 23 9 68 -14 35 -25 41 -51
31z"/>
<path d="M8675 1575 l-7 -44 -67 -3 c-64 -3 -66 -4 -69 -30 l-3 -28 65 0 c56
0 66 -3 66 -17 0 -10 -9 -96 -19 -192 -14 -131 -23 -177 -36 -190 -15 -15 -18
-14 -35 7 -10 12 -20 27 -22 33 -5 14 -38 0 -38 -17 0 -52 59 -95 108 -78 44
15 59 63 77 244 20 208 21 210 45 210 16 0 20 7 20 30 0 22 -5 30 -18 30 -14
0 -17 7 -14 45 4 42 3 45 -21 45 -23 0 -27 -5 -32 -45z"/>
<path d="M10943 1610 l-22 -9 21 -59 c17 -49 23 -59 39 -55 30 8 32 21 14 71
-22 59 -25 62 -52 52z"/>
<path d="M11164 1575 c-5 -36 -10 -45 -26 -45 -15 0 -19 6 -16 28 2 21 -2 28
-17 30 -16 2 -26 -12 -51 -63 -30 -65 -30 -66 -10 -77 16 -9 23 -7 34 11 9 13
25 21 43 21 28 0 29 -2 29 -45 l0 -45 -59 0 c-51 0 -61 -3 -66 -20 -9 -28 2
-40 36 -40 21 0 29 -5 29 -17 -1 -27 -34 -94 -65 -131 -26 -32 -27 -34 -11
-50 17 -16 20 -14 56 26 36 41 70 114 70 154 0 11 7 18 20 18 18 0 19 -5 13
-64 -8 -89 2 -135 33 -146 34 -13 71 6 83 44 20 68 21 84 5 90 -27 10 -34 7
-34 -20 0 -29 -16 -64 -30 -64 -11 0 -13 81 -4 128 5 27 11 31 43 34 31 3 36
6 36 28 0 23 -4 25 -52 28 l-53 3 0 45 0 44 50 0 c47 0 50 2 50 25 0 23 -4 25
-46 25 l-45 0 7 45 c6 43 5 45 -19 45 -23 0 -27 -5 -33 -45z"/>
<path d="M5835 1598 c-2 -7 -13 -105 -25 -218 -11 -113 -24 -206 -28 -208 -31
-11 -36 -21 -24 -47 14 -30 12 -31 134 47 76 49 77 50 62 73 l-16 24 -40 -30
c-23 -16 -43 -28 -45 -26 -2 2 6 88 17 191 12 102 18 191 15 196 -9 14 -45 12
-50 -2z"/>
<path d="M10426 1588 c-3 -13 -10 -75 -16 -138 -14 -149 -36 -275 -60 -353
-18 -58 -19 -63 -3 -74 27 -21 31 -16 52 50 27 89 40 159 59 332 l17 150 74 3
c65 3 72 1 69 -15 -2 -14 -14 -19 -54 -21 l-51 -3 -7 -67 c-12 -127 -14 -122
47 -122 l54 0 -6 -37 c-6 -34 -10 -38 -33 -35 -15 1 -29 -2 -32 -7 -10 -16 24
-41 54 -41 37 0 60 32 60 82 l0 37 53 3 52 3 9 77 c11 102 8 108 -55 108 -43
0 -50 3 -45 16 3 9 6 18 6 20 0 2 34 4 75 4 73 0 75 1 75 25 l0 25 -195 0
c-194 0 -195 0 -199 -22z m294 -123 c0 -12 -16 -15 -80 -15 -64 0 -80 3 -80
15 0 12 16 15 80 15 64 0 80 -3 80 -15z m-10 -70 c0 -12 -16 -15 -80 -15 -64
0 -80 3 -80 15 0 12 16 15 80 15 64 0 80 -3 80 -15z"/>
<path d="M880 1575 c0 -20 5 -25 26 -25 25 0 26 -2 20 -32 -4 -18 -20 -49 -36
-69 -26 -33 -27 -37 -12 -52 15 -16 18 -15 43 9 l26 25 17 -26 c21 -32 58 -33
84 0 24 31 40 159 21 181 -8 10 -35 14 -100 14 -88 0 -89 0 -89 -25z m144 -77
c-8 -66 -16 -76 -42 -50 -17 17 -19 25 -9 61 9 33 16 41 34 41 23 0 23 -2 17
-52z"/>
<path d="M2553 1593 c-9 -3 -11 -17 -7 -46 8 -50 15 -60 38 -51 13 5 16 14 11
38 -14 68 -15 70 -42 59z"/>
<path d="M4296 1584 c-12 -32 -4 -34 121 -34 l127 0 -61 -62 c-48 -49 -62 -71
-65 -98 l-3 -35 -92 -3 c-91 -3 -93 -3 -93 -27 0 -25 1 -25 91 -25 l91 0 -7
-67 c-10 -113 -16 -141 -31 -154 -18 -15 -45 -4 -51 22 -5 16 -11 19 -32 14
-35 -9 -34 -8 -17 -48 16 -39 41 -57 81 -57 63 0 90 41 100 150 3 41 8 90 11
108 l5 32 83 0 c84 0 96 5 96 41 0 5 -40 9 -90 9 -84 0 -90 1 -90 21 0 12 32
53 76 100 55 58 75 85 72 102 -3 22 -6 22 -159 25 -136 2 -157 0 -163 -14z"/>
<path d="M7635 1588 c-6 -14 41 -108 53 -108 4 0 14 5 22 10 13 8 12 16 -10
57 -25 48 -55 67 -65 41z"/>
<path d="M8117 1593 c-4 -3 -7 -17 -7 -30 0 -20 5 -23 40 -23 38 0 40 -2 40
-29 0 -38 -38 -399 -45 -429 -8 -33 -37 -24 -49 16 -10 34 -13 37 -35 23 -17
-11 -8 -67 16 -93 34 -38 101 -16 116 37 11 37 57 494 51 509 -3 8 -15 17 -27
20 -30 8 -92 8 -100 -1z"/>
<path d="M198 1560 l-5 -30 134 0 c73 0 133 -3 133 -6 0 -4 -19 -30 -43 -58
-23 -28 -48 -58 -54 -67 -7 -8 -17 -78 -24 -155 -6 -76 -15 -147 -20 -156 -14
-26 -48 -22 -61 7 -11 25 -32 31 -56 17 -16 -11 -2 -52 28 -82 26 -26 80 -26
113 1 34 26 44 67 53 212 l7 118 68 82 c71 85 83 119 50 137 -11 5 -85 10
-169 10 l-150 0 -4 -30z"/>
<path d="M3731 1378 c-12 -117 -25 -237 -28 -265 -6 -52 -5 -53 20 -53 21 0
26 5 29 28 3 25 7 27 51 30 28 2 47 8 48 15 0 7 10 103 22 214 13 111 19 211
15 223 -6 17 -16 20 -71 20 l-64 0 -22 -212z m109 150 c0 -21 -31 -311 -36
-335 -3 -15 -12 -23 -25 -23 -18 0 -20 5 -15 43 3 23 10 87 16 142 19 182 19
185 41 185 10 0 19 -6 19 -12z"/>
<path d="M5270 1550 l0 -30 155 0 c86 0 155 -4 155 -9 0 -45 -43 -401 -50
-418 -13 -31 -65 -32 -80 -3 -8 16 -17 19 -33 14 -31 -9 -31 -10 -17 -45 27
-63 118 -73 165 -17 28 33 30 42 50 243 24 237 23 233 48 237 16 2 23 11 25
31 l3 27 -210 0 -211 0 0 -30z"/>
<path d="M8350 1556 c0 -23 4 -25 53 -28 58 -3 56 2 37 -96 -14 -67 -21 -69
-40 -9 -12 38 -17 41 -43 31 -13 -4 -10 -18 14 -86 l30 -81 -40 -81 c-22 -45
-48 -93 -58 -108 -17 -26 -17 -29 0 -45 16 -16 18 -16 32 2 8 11 32 49 52 85
l37 65 14 -48 c14 -49 18 -53 42 -37 12 8 11 19 -8 84 l-22 75 24 93 c52 198
49 208 -55 208 -67 0 -69 -1 -69 -24z"/>
<path d="M5932 1542 c-9 -7 -5 -24 18 -75 17 -37 34 -67 38 -67 5 0 16 6 25
13 16 11 15 17 -13 75 -28 60 -41 70 -68 54z"/>
<path d="M7980 1466 c0 -21 -39 -397 -45 -428 -4 -25 -2 -28 23 -28 l28 0 22
213 c28 267 28 257 -3 257 -15 0 -25 -6 -25 -14z"/>
<path d="M9424 1456 c-8 -21 15 -96 29 -96 7 0 18 4 25 8 20 13 -6 102 -30
102 -10 0 -21 -6 -24 -14z"/>
<path d="M9650 1423 c-24 -55 -24 -50 0 -63 17 -9 22 -5 40 29 25 50 25 67 0
74 -16 4 -24 -4 -40 -40z"/>
<path d="M5300 1443 c0 -5 -7 -66 -15 -138 -19 -171 -20 -165 10 -165 18 0 25
5 25 20 0 18 7 20 74 20 41 0 77 4 81 10 3 5 11 59 17 121 11 105 11 112 -7
125 -20 15 -185 21 -185 7z m140 -82 c0 -15 -3 -49 -6 -75 l-7 -46 -48 0 -49
0 5 43 c16 115 11 107 60 107 43 0 45 -1 45 -29z"/>
<path d="M6298 1443 c-22 -5 -22 0 -1 -73 16 -59 25 -68 51 -51 11 7 11 19 -3
70 -10 33 -20 60 -24 60 -3 -1 -14 -3 -23 -6z"/>
<path d="M10890 1395 c0 -20 5 -25 26 -25 25 0 26 -2 21 -37 -3 -21 -9 -74
-13 -117 -7 -74 -9 -81 -44 -116 -36 -36 -37 -38 -21 -59 l17 -22 34 36 c33
34 34 35 54 16 62 -56 172 -75 270 -47 51 15 56 19 50 39 -9 31 -9 31 -45 18
-44 -15 -153 -14 -192 3 -18 7 -42 24 -54 38 -23 24 -23 24 -8 142 18 143 14
156 -50 156 -41 0 -45 -2 -45 -25z"/>
<path d="M8543 1389 c-21 -8 -21 -9 -7 -61 7 -29 14 -63 14 -75 0 -24 7 -27
34 -17 20 8 20 44 -2 110 -15 47 -19 51 -39 43z"/>
<path d="M957 1364 c-4 -4 -7 -18 -7 -31 0 -14 -6 -23 -16 -23 -11 0 -15 6
-11 19 3 14 -1 20 -17 23 -20 4 -24 -3 -39 -60 -9 -35 -14 -68 -11 -73 10 -16
24 -10 36 16 13 29 48 34 48 8 -1 -49 -11 -63 -50 -63 -29 0 -39 -5 -43 -19
-7 -27 0 -31 44 -31 30 0 36 -3 34 -17 -2 -10 -6 -37 -8 -60 -5 -40 -3 -43 18
-43 27 0 35 17 35 75 0 42 1 44 33 47 24 2 33 8 35 26 3 19 -1 22 -27 22 -33
0 -37 11 -25 58 5 16 14 22 35 22 24 0 29 4 29 25 0 21 -5 25 -28 25 -24 0
-28 4 -27 27 0 27 -22 42 -38 27z"/>
<path d="M3434 1350 c-20 -8 -20 -10 -5 -88 13 -70 17 -79 34 -74 27 7 31 27
17 90 -16 74 -21 81 -46 72z"/>
<path d="M6433 1310 c-4 -14 -14 -20 -33 -20 -16 0 -30 -7 -34 -16 -10 -26 -7
-34 14 -34 13 0 20 -7 20 -18 0 -34 -30 -119 -52 -147 -16 -20 -19 -32 -11
-43 15 -25 28 -24 43 4 l14 25 19 -25 c20 -28 58 -34 76 -12 15 18 34 123 27
152 -4 15 -16 25 -36 29 -48 11 -38 35 15 35 41 0 45 2 45 25 0 21 -5 25 -30
25 -23 0 -30 4 -30 20 0 14 -7 20 -21 20 -12 0 -23 -8 -26 -20z m34 -195 c-5
-47 -16 -69 -24 -49 -2 7 -12 10 -23 7 -17 -5 -18 -3 -2 41 12 33 22 46 36 46
16 0 18 -6 13 -45z"/>
<path d="M10486 1281 c-33 -34 -35 -39 -21 -51 14 -11 21 -8 50 20 19 19 35
39 35 46 0 27 -30 20 -64 -15z"/>
<path d="M10698 1309 c-16 -9 -15 -13 10 -54 29 -48 30 -49 51 -36 12 7 9 17
-13 55 -15 25 -28 46 -29 46 -1 0 -10 -5 -19 -11z"/>
<path d="M10022 1277 c-8 -9 0 -24 26 -55 33 -38 39 -41 55 -30 17 12 16 16
-14 56 -32 43 -49 51 -67 29z"/>
<path d="M6295 1243 c-3 -15 -15 -62 -26 -103 -33 -122 -33 -117 -9 -123 18
-4 24 1 36 29 16 37 57 204 52 209 -2 1 -13 6 -25 9 -19 6 -23 3 -28 -21z"/>
<path d="M9876 1228 c-2 -7 -15 -49 -29 -93 -25 -79 -23 -94 10 -95 13 0 47
85 59 144 5 28 3 41 -7 47 -19 12 -29 11 -33 -3z"/>
<path d="M10198 1232 c-10 -2 -18 -7 -18 -11 0 -12 38 -183 42 -186 2 -1 13 1
24 5 21 8 22 10 8 74 -18 89 -35 123 -56 118z"/>
<path d="M9950 1153 c0 -50 5 -77 20 -101 53 -86 171 -56 198 50 6 23 10 43 9
44 -1 1 -13 4 -26 6 -20 2 -26 -3 -33 -28 -16 -64 -80 -85 -105 -34 -7 14 -13
49 -13 78 0 49 -2 52 -25 52 -24 0 -25 -2 -25 -67z"/>
<path d="M10575 1180 c-3 -5 2 -25 12 -45 17 -32 20 -34 37 -22 19 14 19 15 0
45 -18 32 -38 41 -49 22z"/>
<path d="M10455 1167 c-1 -7 -11 -34 -20 -60 -18 -50 -11 -75 17 -64 11 4 48
96 48 119 0 12 -41 16 -45 5z"/>
<path d="M10717 1168 c-15 -12 -15 -17 0 -73 20 -73 17 -69 41 -56 19 10 20
13 5 68 -17 69 -24 77 -46 61z"/>
<path d="M2182 1098 c-29 -58 -30 -64 -15 -75 26 -20 28 -17 57 46 31 69 33
91 7 91 -12 0 -28 -19 -49 -62z"/>
<path d="M2503 1152 c-10 -6 -7 -24 9 -75 12 -37 25 -67 28 -67 3 0 14 6 23
13 16 11 16 16 -4 75 -20 60 -31 70 -56 54z"/>
<path d="M10510 1120 c0 -46 21 -95 45 -104 25 -9 74 -7 96 4 19 10 49 59 49
80 0 20 -45 10 -55 -12 -11 -26 -49 -35 -71 -17 -8 6 -17 29 -20 50 -5 29 -11
39 -25 39 -15 0 -19 -8 -19 -40z"/>
<path d="M2290 1101 c0 -62 7 -81 30 -81 27 0 30 9 23 73 -5 52 -8 57 -29 57
-22 0 -24 -4 -24 -49z"/>
<path d="M2394 1128 c3 -13 9 -40 12 -61 7 -42 15 -50 38 -41 19 7 20 33 4 85
-9 32 -16 39 -36 39 -20 0 -23 -4 -18 -22z"/>
<path d="M4774 1058 c-9 -29 -25 -69 -35 -90 -16 -32 -17 -37 -3 -42 9 -3 17
-6 20 -6 7 0 84 159 84 175 0 9 -9 15 -24 15 -21 0 -27 -8 -42 -52z"/>
<path d="M10940 525 c0 -243 4 -375 10 -375 6 0 10 132 10 375 0 243 -4 375
-10 375 -6 0 -10 -132 -10 -375z"/>
<path d="M206 829 c-3 -17 -6 -46 -6 -65 0 -28 -4 -33 -27 -36 -20 -2 -29 -9
-31 -25 -3 -19 1 -23 23 -23 26 0 26 0 20 -62 -9 -84 -9 -85 -44 -93 -25 -5
-31 -12 -31 -32 0 -22 3 -25 30 -21 29 4 30 3 26 -26 -3 -17 -8 -57 -11 -88
-4 -32 -11 -58 -16 -58 -5 0 -9 7 -9 15 0 17 -9 19 -28 6 -18 -11 -5 -59 20
-72 26 -14 57 -2 68 25 4 13 14 67 20 122 6 54 15 100 19 102 5 1 16 9 26 16
21 15 12 58 -11 49 -16 -6 -18 17 -8 80 5 26 12 37 24 37 16 0 30 19 30 41 0
5 -10 9 -21 9 -21 0 -22 3 -16 65 6 63 6 65 -17 65 -18 0 -25 -7 -30 -31z"/>
<path d="M1370 831 l0 -31 -74 0 -73 0 -17 -146 c-20 -169 -46 -279 -80 -340
l-24 -43 23 -15 c22 -14 24 -14 39 9 25 37 74 193 81 257 l7 57 146 3 146 3 6
25 c4 14 10 55 14 92 8 86 -2 98 -85 98 -60 0 -60 0 -57 28 3 23 -1 27 -24 30
-25 3 -28 0 -28 -27z m140 -103 c0 -7 -3 -30 -6 -50 l-7 -38 -120 0 -119 0 6
31 c3 17 6 40 6 50 0 18 9 19 120 19 89 0 120 -3 120 -12z"/>
<path d="M2894 846 c-3 -9 -9 -40 -13 -69 l-6 -52 -60 -3 c-57 -3 -75 -12 -75
-39 0 -9 18 -13 58 -13 32 0 61 -2 64 -5 11 -11 -23 -140 -53 -200 -16 -34
-52 -89 -80 -123 -54 -67 -56 -74 -34 -92 20 -16 50 10 107 93 52 76 85 152
107 246 l18 76 63 3 63 3 -6 -28 c-3 -15 -13 -90 -23 -167 -20 -153 -33 -183
-76 -173 -13 4 -29 15 -34 26 -7 15 -14 17 -31 10 -31 -11 -29 -31 6 -68 22
-24 38 -31 66 -31 85 0 101 33 130 260 29 221 29 220 -80 220 l-75 0 6 58 c4
31 7 61 8 67 2 17 -44 18 -50 1z"/>
<path d="M3402 819 l-15 -39 -59 0 c-40 0 -58 -4 -58 -12 0 -7 -11 -119 -25
-248 -14 -129 -25 -245 -25 -257 0 -23 1 -23 165 -23 125 0 165 3 165 13 0 6
12 121 26 255 20 192 23 246 14 257 -9 10 -33 15 -77 15 -69 0 -70 0 -49 51 5
12 0 18 -20 22 -23 4 -28 0 -42 -34z m138 -113 c0 -13 -3 -38 -6 -55 l-6 -31
-110 0 c-96 0 -109 2 -104 16 3 9 6 33 6 55 l0 39 110 0 c109 0 110 0 110 -24z
m-22 -188 l-3 -53 -107 -3 -108 -3 0 40 c0 71 0 71 117 71 l104 0 -3 -52z
m-12 -130 c-3 -13 -6 -38 -6 -55 l0 -33 -111 0 -112 0 7 38 c3 20 6 45 6 55 0
15 12 17 111 17 111 0 111 0 105 -22z"/>
<path d="M5475 838 c-2 -13 -6 -39 -7 -58 -3 -34 -5 -35 -46 -38 l-44 -3 7 40
c6 39 5 41 -17 41 -21 0 -27 -8 -42 -57 -10 -32 -33 -86 -51 -121 -33 -62 -33
-62 -12 -77 19 -13 22 -12 40 18 11 18 26 47 34 65 13 30 16 32 67 32 l55 0
-6 -57 c-7 -86 -4 -83 -83 -83 -68 0 -70 -1 -70 -25 0 -24 2 -25 70 -25 l71 0
-6 -52 c-3 -29 -8 -68 -11 -85 l-5 -33 -85 0 c-82 0 -85 -1 -94 -26 -6 -14
-10 -27 -10 -30 0 -2 95 -4 211 -4 l210 0 -3 27 c-3 28 -4 28 -86 31 l-83 3 6
72 c4 40 8 78 10 85 3 8 26 12 70 12 63 0 65 1 65 25 0 24 -2 25 -66 25 l-66
0 6 31 c3 17 6 49 6 70 l0 38 73 3 c69 3 72 4 72 28 0 24 -3 25 -67 28 l-68 3
7 59 c6 60 6 60 -20 60 -19 0 -28 -6 -32 -22z"/>
<path d="M5987 852 c-12 -2 -16 -9 -13 -19 3 -8 9 -26 12 -39 6 -22 3 -24 -30
-24 -29 0 -36 -4 -36 -20 0 -17 7 -20 50 -20 28 0 50 -4 50 -9 0 -29 -14 -41
-50 -41 l-37 0 -11 -102 c-7 -57 -15 -133 -18 -170 l-7 -68 115 0 116 0 6 43
c3 23 11 93 17 155 13 129 9 139 -50 144 -35 3 -38 5 -30 26 7 19 15 22 64 22
48 0 55 2 55 20 0 15 -7 20 -26 20 -23 0 -25 3 -20 23 13 40 11 51 -6 55 -12
2 -24 -10 -38 -37 -18 -37 -24 -41 -58 -41 -24 0 -32 3 -23 9 9 6 11 18 6 40
-7 35 -12 39 -38 33z m119 -238 c-3 -9 -6 -20 -6 -25 0 -5 -27 -9 -60 -9 -57
0 -60 1 -60 25 0 24 2 25 66 25 56 0 65 -2 60 -16z m-6 -83 c0 -33 -14 -41
-71 -41 -56 0 -59 1 -59 25 0 24 2 25 65 25 36 0 65 -4 65 -9z m-14 -107 c-3
-9 -6 -20 -6 -25 0 -5 -27 -9 -60 -9 -57 0 -60 1 -60 25 0 24 2 25 66 25 56 0
65 -2 60 -16z"/>
<path d="M6866 823 c-3 -21 -6 -50 -6 -65 0 -23 -5 -28 -24 -28 -22 0 -36 -16
-36 -41 0 -5 7 -9 16 -9 22 0 14 -42 -35 -187 -34 -101 -36 -112 -20 -116 19
-5 39 34 54 100 15 73 20 35 8 -65 -18 -154 -17 -172 6 -172 25 0 27 9 42 165
7 72 14 132 15 134 2 2 9 -1 17 -7 10 -8 16 -6 25 8 10 16 8 24 -12 47 -28 34
-26 88 5 96 24 6 26 47 3 47 -15 0 -16 9 -11 65 6 63 6 65 -17 65 -19 0 -24
-7 -30 -37z"/>
<path d="M7157 853 c-4 -3 -7 -19 -7 -33 0 -15 -3 -42 -6 -59 -6 -27 -10 -31
-40 -31 -31 0 -34 -3 -34 -30 0 -27 3 -30 30 -30 25 0 30 -4 30 -25 0 -33 -29
-303 -35 -332 -7 -29 -25 -30 -32 -3 -4 16 -11 19 -27 14 -28 -9 -28 -8 -16
-40 13 -34 26 -44 61 -44 50 0 61 26 80 207 10 93 18 180 19 196 0 17 5 27 15
27 10 0 15 10 15 30 0 17 -4 30 -10 30 -5 0 -7 26 -3 65 5 60 4 65 -14 65 -11
0 -23 -3 -26 -7z"/>
<path d="M7505 805 l-7 -55 -79 0 -79 0 0 -30 0 -30 185 0 c153 0 185 2 185
14 0 8 3 21 6 30 5 14 -5 16 -76 16 l-83 0 7 55 6 55 -29 0 c-28 0 -30 -2 -36
-55z"/>
<path d="M7931 837 c-28 -71 -65 -145 -105 -206 -42 -65 -43 -70 -27 -85 24
-22 26 -21 50 17 25 39 25 42 2 -165 l-17 -158 28 0 c15 0 28 4 28 9 0 5 11
114 25 243 20 192 29 243 49 289 l25 56 -25 12 c-22 9 -26 8 -33 -12z"/>
<path d="M8096 844 c-3 -9 -6 -24 -6 -34 0 -16 -9 -19 -52 -22 -46 -3 -53 -6
-56 -25 -3 -23 -3 -23 132 -23 l136 0 0 25 c0 23 -3 25 -50 25 l-50 0 0 35 c0
30 -3 35 -24 35 -13 0 -27 -7 -30 -16z"/>
<path d="M9630 831 c0 -62 -11 -91 -36 -91 -14 0 -25 -8 -29 -20 -8 -26 1 -40
26 -40 14 0 19 -7 19 -29 0 -41 -27 -176 -47 -236 l-16 -50 -21 80 c-18 69
-24 80 -41 77 -29 -5 -29 -8 -16 -53 7 -22 11 -43 9 -45 -2 -2 -21 -11 -42
-19 -29 -12 -37 -13 -33 -3 3 7 18 50 33 95 l28 82 45 3 c42 3 46 6 49 31 l3
27 -105 0 -106 0 0 -30 c0 -27 3 -30 30 -30 17 0 30 -1 30 -3 0 -14 -62 -183
-76 -205 -11 -19 -14 -34 -8 -45 8 -14 18 -12 84 14 66 25 76 27 86 14 7 -9
18 -13 29 -9 15 6 14 2 -5 -35 -20 -41 -21 -43 -3 -56 12 -9 22 -10 30 -3 25
20 73 160 94 269 11 63 23 124 25 137 3 16 11 22 29 22 14 0 25 -3 25 -7 0
-33 -41 -367 -46 -374 -9 -15 -21 -10 -27 11 -3 12 -14 20 -27 20 -19 0 -21
-4 -15 -27 9 -36 33 -63 57 -63 27 0 54 16 63 37 8 23 45 352 45 409 0 46 -9
54 -64 54 l-32 0 4 60 c4 59 4 60 -22 60 -22 0 -26 -4 -26 -29z"/>
<path d="M10046 838 c-3 -13 -8 -44 -11 -70 l-6 -48 -60 0 c-59 0 -59 0 -59
-30 0 -30 0 -30 56 -30 l56 0 -7 -42 c-18 -106 -71 -210 -149 -296 l-39 -43
22 -22 23 -22 50 55 c61 68 133 212 150 303 l13 67 57 0 c41 0 58 -4 58 -13 0
-15 -28 -238 -35 -284 -6 -33 -28 -63 -46 -63 -6 0 -20 11 -33 25 -21 23 -27
24 -49 14 -25 -11 -25 -13 -12 -40 41 -78 144 -79 184 -2 12 23 51 310 51 375
0 43 -7 46 -105 50 l-59 3 2 45 c2 25 4 54 5 65 2 15 -5 21 -25 23 -22 3 -28
-1 -32 -20z"/>
<path d="M729 808 c-11 -30 -22 -44 -37 -46 -24 -4 -23 2 -52 -275 -26 -243
-26 -237 5 -237 20 0 25 5 25 25 0 24 3 25 60 25 41 0 60 4 60 13 0 6 9 89 20
182 27 232 27 243 -7 257 -16 7 -29 13 -31 13 -1 1 3 16 9 34 9 27 9 35 -2 42
-25 16 -35 10 -50 -33z m47 -154 c-3 -26 -6 -57 -6 -70 0 -21 -5 -24 -36 -24
l-37 0 7 38 c3 20 6 52 6 70 0 30 2 32 36 32 l37 0 -7 -46z m-22 -216 c-3 -40
-9 -76 -11 -80 -2 -5 -18 -8 -35 -8 l-31 0 7 53 c3 28 6 64 6 80 0 24 3 27 36
27 l35 0 -7 -72z"/>
<path d="M923 833 c-24 -67 -48 -123 -66 -156 -18 -33 -19 -39 -7 -47 26 -17
37 -11 55 30 17 37 21 40 57 40 30 0 38 -4 38 -19 0 -45 -31 -310 -40 -343 -9
-33 -15 -38 -40 -38 -20 0 -31 6 -35 20 -4 13 -15 20 -31 20 -34 0 -32 -34 5
-71 49 -49 121 -37 146 25 8 18 24 122 35 230 25 224 24 226 -46 226 -24 0
-44 2 -44 4 0 2 6 22 14 44 13 36 13 41 -1 46 -24 10 -33 7 -40 -11z"/>
<path d="M2785 836 c-18 -13 -17 -15 5 -52 13 -21 25 -40 26 -42 1 -2 12 1 23
8 l21 11 -20 39 c-24 48 -32 53 -55 36z"/>
<path d="M4311 810 c-8 -27 -20 -44 -36 -50 -27 -10 -26 -3 -55 -288 -25 -238
-25 -222 4 -222 18 0 25 6 28 22 3 20 10 23 61 26 31 2 57 6 58 10 0 4 10 97
23 207 15 125 20 206 14 217 -5 10 -20 21 -33 24 -14 3 -25 7 -25 9 0 1 5 17
11 35 9 26 9 34 -2 41 -26 16 -36 9 -48 -31z m49 -134 c0 -13 -3 -44 -6 -70
-6 -44 -8 -46 -40 -46 l-34 0 6 58 c8 79 9 82 44 82 25 0 30 -4 30 -24z m-24
-218 c-3 -29 -6 -65 -6 -80 0 -25 -3 -28 -35 -28 l-36 0 7 68 c8 90 9 92 45
92 l32 0 -7 -52z"/>
<path d="M4495 803 c-10 -27 -31 -74 -47 -107 -24 -47 -27 -61 -16 -67 24 -16
35 -9 53 31 17 37 21 40 57 40 46 0 44 11 22 -197 -18 -179 -26 -203 -65 -203
-19 0 -30 6 -34 20 -9 28 -55 28 -55 -1 0 -32 53 -79 90 -79 81 0 95 32 121
280 24 228 24 230 -47 230 -24 0 -44 2 -44 4 0 2 7 21 16 41 13 31 13 39 2 46
-25 16 -35 9 -53 -38z"/>
<path d="M4940 838 c-1 -46 -31 -231 -44 -266 -29 -81 -78 -161 -137 -224 -33
-35 -59 -66 -59 -69 0 -3 8 -13 19 -23 17 -16 21 -13 83 53 61 64 138 192 138
228 0 27 18 3 25 -34 8 -46 57 -143 102 -205 38 -53 41 -54 68 -34 17 12 15
18 -37 97 -89 135 -102 178 -102 346 l-1 143 -27 0 c-16 0 -28 -6 -28 -12z"/>
<path d="M5825 838 c-11 -6 -21 -12 -22 -13 -4 -3 29 -99 36 -106 3 -4 16 -3
28 2 l22 8 -20 60 c-12 34 -22 61 -22 61 -1 0 -11 -6 -22 -12z"/>
<path d="M6541 803 c-12 -27 -36 -64 -52 -83 l-31 -35 6 55 c8 76 0 85 -76 85
l-62 0 -7 -40 c-3 -22 -9 -66 -13 -97 l-6 -58 30 0 c27 0 30 -3 30 -32 -1 -56
-26 -247 -33 -254 -15 -15 -16 5 -7 87 14 123 13 139 -9 139 -16 0 -20 -14
-31 -125 -9 -93 -16 -125 -26 -125 -16 0 -18 -18 -5 -38 10 -16 39 -10 129 26
46 18 62 29 58 39 -3 8 -6 19 -6 24 0 6 -9 7 -20 4 -17 -6 -20 -2 -20 29 0 47
9 66 31 66 13 0 19 7 20 23 0 12 3 16 6 10 8 -21 27 -15 86 26 48 34 58 37 68
25 7 -8 30 -29 52 -46 38 -30 40 -31 53 -13 12 17 9 23 -37 64 l-51 46 20 25
c32 42 63 110 60 133 -3 19 -10 22 -56 25 -48 3 -51 4 -42 23 13 23 5 39 -19
39 -11 0 -26 -17 -40 -47z m-125 -39 c-3 -9 -6 -31 -6 -50 0 -30 -3 -34 -25
-34 -23 0 -25 4 -25 43 0 50 4 57 38 57 18 0 23 -4 18 -16z m219 -51 c-8 -16
-22 -37 -30 -48 -14 -17 -17 -18 -26 -5 -40 61 -34 80 27 80 l45 0 -16 -27z
m-157 -55 c8 -8 15 -8 25 1 12 9 18 6 31 -13 9 -14 16 -30 16 -35 0 -14 -115
-91 -136 -91 -12 0 -15 6 -10 23 3 12 6 37 6 55 0 25 4 32 20 32 13 0 20 7 20
20 0 22 10 26 28 8z"/>
<path d="M8516 841 c-4 -5 5 -51 18 -103 13 -51 27 -110 31 -130 5 -32 10 -38
30 -38 28 0 31 16 14 90 -27 121 -52 190 -70 190 -10 0 -20 -4 -23 -9z"/>
<path d="M9028 845 c-3 -3 -36 -11 -74 -18 -61 -11 -69 -15 -72 -36 -4 -22 -1
-24 32 -18 34 5 36 4 36 -21 0 -59 -10 -72 -50 -72 -25 0 -40 -5 -44 -16 -11
-28 -7 -34 24 -34 17 0 30 -4 30 -8 0 -21 -42 -129 -72 -182 -32 -58 -32 -60
-13 -74 24 -17 29 -10 71 97 14 38 27 67 29 65 1 -2 -6 -67 -15 -145 l-16
-143 26 0 27 0 13 137 c12 134 13 136 30 115 22 -27 27 -27 39 -4 8 15 3 27
-20 55 -40 48 -37 81 9 85 26 3 32 7 32 28 0 19 -5 24 -25 24 -23 0 -25 3 -25
50 0 47 2 52 29 63 24 10 27 16 20 35 -9 23 -12 26 -21 17z"/>
<path d="M300 810 c0 -19 5 -30 14 -30 7 0 25 -24 40 -52 24 -49 25 -54 9 -66
-10 -7 -35 -18 -55 -24 -42 -12 -44 -16 -23 -44 14 -19 16 -18 75 13 l61 33
38 -26 c51 -33 95 -37 99 -8 2 16 -4 23 -25 28 -15 4 -39 14 -52 23 l-23 15
25 26 c25 27 67 91 67 104 0 4 -7 14 -16 22 -12 13 -39 16 -125 16 l-109 0 0
-30z m171 -48 c-5 -9 -18 -25 -29 -35 -21 -19 -27 -15 -51 31 -11 21 -10 22
39 22 45 0 50 -2 41 -18z"/>
<path d="M1730 810 l0 -30 165 0 c91 0 165 3 165 8 0 4 3 17 6 30 l6 22 -171
0 -171 0 0 -30z"/>
<path d="M3770 810 l0 -30 140 0 140 0 -6 -47 c-3 -27 -7 -62 -10 -80 l-5 -32
-132 -3 -132 -3 -12 -110 c-13 -126 -9 -175 20 -212 55 -70 203 -71 281 -3 37
33 72 101 63 124 -12 32 -44 17 -68 -31 -29 -56 -74 -83 -141 -83 -35 0 -54 6
-75 24 -25 22 -28 30 -27 88 0 35 4 84 8 110 l7 47 132 3 132 3 12 115 c17
155 22 150 -178 150 l-149 0 0 -30z"/>
<path d="M9086 783 c-3 -21 -15 -130 -26 -243 -11 -113 -22 -220 -25 -238 l-6
-32 90 0 90 0 5 33 c10 61 46 422 46 460 0 46 -22 57 -110 57 l-58 0 -6 -37z
m120 -60 c-3 -21 -13 -108 -21 -193 -21 -209 -18 -200 -60 -200 -32 0 -34 2
-30 28 3 15 12 101 20 192 21 221 18 210 61 210 36 0 36 0 30 -37z"/>
<path d="M9387 814 c-4 -4 -7 -18 -7 -31 0 -22 2 -23 91 -23 l90 0 -3 28 c-3
27 -4 27 -83 30 -45 1 -84 0 -88 -4z"/>
<path d="M6950 771 c0 -26 4 -31 25 -31 27 0 30 -12 19 -82 -7 -38 -24 -43
-24 -7 0 19 -24 27 -34 11 -3 -5 3 -38 13 -73 18 -63 18 -65 -4 -129 -12 -36
-32 -85 -44 -108 -22 -44 -21 -62 5 -62 9 0 29 29 48 73 l34 72 7 -38 c8 -41
16 -50 38 -41 13 4 12 15 -4 80 -19 73 -19 75 1 175 12 56 20 120 18 143 l-3
41 -47 3 c-47 3 -48 3 -48 -27z"/>
<path d="M8455 718 c-11 -51 -35 -288 -35 -345 0 -104 24 -136 102 -136 51 0
93 40 113 107 21 70 20 86 -9 86 -19 0 -25 -8 -37 -51 -17 -64 -55 -97 -88
-80 -11 6 -24 23 -27 37 -4 14 3 105 15 202 12 97 21 183 21 190 0 6 -11 12
-25 12 -17 0 -26 -7 -30 -22z"/>
<path d="M7985 669 c-4 -12 -3 -25 2 -30 6 -6 59 -8 119 -7 l109 3 3 28 3 27
-115 0 c-108 0 -115 -1 -121 -21z"/>
<path d="M8663 672 c-13 -2 -23 -5 -23 -6 0 -2 7 -47 15 -102 8 -54 15 -135
15 -180 0 -44 2 -83 5 -86 3 -3 17 -3 31 0 l26 5 -7 101 c-6 94 -30 266 -37
270 -2 1 -13 0 -25 -2z"/>
<path d="M1690 656 c0 -8 -3 -21 -6 -30 -5 -14 6 -16 86 -16 l92 0 -6 -27 c-3
-16 -11 -83 -17 -150 -13 -132 -28 -168 -51 -119 -7 17 -17 25 -26 21 -7 -3
-18 -5 -22 -5 -14 0 9 -56 30 -75 10 -9 30 -15 46 -13 49 6 62 39 79 198 9 80
18 151 20 158 3 8 29 12 85 12 l80 0 0 30 0 30 -195 0 c-162 0 -195 -2 -195
-14z"/>
<path d="M8357 581 c-9 -50 -30 -130 -46 -180 -30 -93 -28 -101 14 -101 17 0
56 118 79 240 9 47 19 95 22 108 4 19 0 22 -24 22 -27 0 -28 -2 -45 -89z"/>
<path d="M7600 617 c-19 -74 -62 -200 -87 -254 l-24 -53 -105 0 -104 0 0 -30
0 -30 200 0 c166 0 200 2 200 14 0 8 3 21 6 30 5 14 -4 16 -60 16 -36 0 -66 2
-66 5 0 2 13 37 29 77 23 60 69 206 75 242 0 5 -11 12 -26 16 -26 8 -28 6 -38
-33z"/>
<path d="M5770 641 c0 -5 -3 -16 -6 -25 -5 -13 1 -16 28 -16 l35 0 -13 -106
c-16 -133 -18 -137 -59 -169 -39 -29 -40 -32 -20 -59 15 -19 16 -19 49 13 l33
32 53 -33 c49 -31 59 -33 139 -33 118 0 168 22 143 63 -7 10 -15 10 -36 2 -39
-14 -161 -12 -199 4 -64 27 -66 35 -49 178 17 149 14 158 -54 158 -24 0 -44
-4 -44 -9z"/>
<path d="M7377 633 c-3 -5 1 -42 8 -83 8 -41 14 -96 14 -122 1 -47 2 -48 32
-48 l32 0 -7 68 c-4 37 -11 95 -17 130 -10 55 -14 62 -34 62 -13 0 -26 -3 -28
-7z"/>
<path d="M7062 622 c-9 -6 -11 -30 -6 -94 6 -77 9 -85 25 -81 21 6 24 37 13
131 -7 53 -10 58 -32 44z"/>
<path d="M387 560 c-6 -28 -9 -30 -52 -30 -41 0 -45 -2 -45 -25 0 -23 4 -25
46 -25 43 0 46 -2 40 -22 -3 -13 -6 -29 -6 -35 0 -9 -18 -13 -54 -13 -46 0
-56 -3 -61 -20 -10 -31 2 -40 57 -40 l50 0 -4 -56 c-5 -54 -4 -55 21 -52 23 3
27 8 31 53 l5 50 55 5 c51 5 55 7 58 33 3 27 3 27 -53 27 -48 0 -56 3 -51 16
3 9 6 24 6 35 0 16 7 19 45 19 41 0 45 2 45 25 0 23 -4 25 -40 25 -38 0 -40 2
-40 30 0 25 -4 30 -24 30 -18 0 -25 -7 -29 -30z"/>
<path d="M874 580 c-20 -8 -20 -10 -5 -88 13 -70 17 -79 34 -74 27 7 31 27 17
90 -16 74 -21 81 -46 72z"/>
<path d="M4454 580 c-20 -8 -20 -9 -5 -87 14 -74 17 -79 38 -75 27 5 29 24 12
104 -13 63 -18 68 -45 58z"/>
<path d="M7970 555 l0 -25 120 0 120 0 0 25 0 25 -120 0 -120 0 0 -25z"/>
<path d="M2929 558 c-13 -11 -11 -20 12 -64 26 -51 35 -54 67 -29 6 5 -48 105
-56 105 -5 0 -15 -6 -23 -12z"/>
<path d="M1726 507 c-3 -18 -22 -66 -41 -107 -28 -57 -33 -75 -23 -82 7 -4 19
-7 27 -5 17 3 63 91 84 164 15 50 15 51 -6 57 -33 9 -34 8 -41 -27z"/>
<path d="M1958 525 c-11 -11 38 -235 51 -235 4 0 15 6 24 13 17 12 17 17 -3
97 -11 47 -20 95 -20 108 0 16 -6 22 -23 22 -13 0 -26 -2 -29 -5z"/>
<path d="M1276 483 c-2 -16 -8 -59 -11 -98 -3 -38 -9 -85 -12 -102 l-5 -33
136 0 c159 0 146 -13 149 145 2 97 2 99 -23 106 -14 4 -71 7 -127 8 l-101 1
-6 -27z m209 -95 c-10 -93 -5 -88 -95 -88 l-80 0 6 63 c8 92 3 87 94 87 l81 0
-6 -62z"/>
<path d="M6485 468 c-5 -13 -25 -180 -25 -205 0 -10 25 -13 94 -13 l94 0 9 93
c10 109 8 123 -20 131 -42 11 -147 7 -152 -6z m125 -85 c0 -72 -8 -83 -55 -83
l-43 0 5 48 c7 70 8 72 53 72 40 0 40 0 40 -37z"/>
<path d="M7961 458 c-5 -13 -12 -65 -16 -115 l-7 -93 120 0 c92 0 121 3 125
14 3 7 8 54 12 104 l8 92 -27 10 c-15 5 -68 10 -117 10 -84 0 -90 -1 -98 -22z
m183 -85 c-9 -75 -7 -73 -79 -73 l-65 0 0 53 c0 30 3 57 7 60 3 4 37 7 74 7
l69 0 -6 -47z"/>
<path d="M10412 405 c-58 -26 -77 -111 -35 -157 23 -26 86 -23 118 5 36 30 46
102 19 134 -25 29 -62 36 -102 18z m66 -37 c17 -17 15 -68 -5 -90 -48 -53
-110 20 -67 80 17 24 53 29 72 10z"/>
<path d="M2214 288 c-9 -29 -25 -69 -35 -90 -16 -32 -17 -37 -3 -42 9 -3 17
-6 20 -6 7 0 84 159 84 175 0 9 -9 15 -24 15 -21 0 -27 -8 -42 -52z"/>
</g>
</svg>
