<?xml version="1.0" standalone="no"?>
<!DOCTYPE svg PUBLIC "-//W3C//DTD SVG 20010904//EN"
 "http://www.w3.org/TR/2001/REC-SVG-20010904/DTD/svg10.dtd">
<svg version="1.0" xmlns="http://www.w3.org/2000/svg"
 width="856.000000pt" height="508.000000pt" viewBox="0 0 856.000000 508.000000"
 preserveAspectRatio="xMidYMid meet">

<g transform="translate(0.000000,508.000000) scale(0.100000,-0.100000)"
fill="#000000" stroke="none">
<path d="M437 4978 c-4 -24 -9 -74 -12 -113 -10 -106 -9 -105 -65 -105 -34 0
-50 -4 -54 -16 -14 -38 -7 -44 49 -44 54 0 54 0 50 -27 -12 -71 -34 -316 -29
-324 7 -12 41 -12 48 0 3 5 13 76 22 158 22 209 15 193 74 193 49 0 50 1 50
30 0 29 -2 30 -43 30 -24 0 -46 2 -49 5 -2 3 -1 33 3 67 4 35 10 91 13 126 l7
62 -29 0 c-27 0 -30 -3 -35 -42z"/>
<path d="M2670 4993 c0 -16 -3 -45 -6 -65 -7 -38 -7 -38 -54 -38 -47 0 -47 0
-53 -37 -3 -21 -9 -73 -13 -115 -4 -43 -10 -78 -14 -78 -3 0 -17 11 -29 24
-30 32 -26 90 7 94 17 3 22 10 22 33 0 19 -5 29 -15 29 -11 0 -15 12 -15 44 0
46 18 76 46 76 17 0 18 11 1 34 -12 17 -16 17 -82 0 -83 -21 -89 -25 -80 -54
6 -18 12 -21 37 -16 28 5 30 4 24 -17 -3 -12 -6 -32 -6 -44 0 -19 -5 -23 -34
-23 -22 0 -36 -6 -40 -16 -12 -31 -6 -44 19 -44 24 0 26 -2 19 -37 -8 -46 -50
-165 -75 -215 -16 -32 -17 -37 -3 -49 22 -18 31 -4 64 97 34 103 36 93 15 -71
-20 -158 -19 -165 4 -165 11 0 23 4 26 10 5 8 34 241 35 279 0 11 3 11 15 1
12 -10 18 -10 30 0 13 11 15 7 15 -29 l0 -41 46 0 47 0 -7 -87 c-4 -49 -8 -97
-9 -108 -2 -15 4 -20 23 -20 27 0 33 18 45 147 l6 67 52 3 52 3 15 142 c9 78
12 151 8 163 -6 16 -16 20 -49 20 l-42 0 7 65 7 65 -31 0 c-26 0 -30 -4 -30
-27z m-24 -235 c-11 -122 -16 -138 -38 -138 -20 0 -20 4 -14 83 10 112 14 127
38 127 19 0 20 -4 14 -72z m108 30 c-3 -24 -8 -70 -12 -103 -6 -53 -10 -60
-31 -63 -23 -4 -24 -3 -17 60 15 143 16 148 42 148 22 0 23 -3 18 -42z"/>
<path d="M4246 4975 l-7 -45 -84 0 c-66 0 -84 -3 -89 -16 -15 -40 -9 -44 74
-44 44 0 80 -4 80 -8 0 -35 -121 -169 -175 -194 -29 -13 -30 -16 -9 -46 18
-26 25 -23 100 34 l48 37 26 -32 c26 -31 27 -31 45 -11 17 19 17 21 -9 55
l-27 35 22 40 c13 22 25 40 28 40 3 -1 17 -23 30 -51 12 -28 48 -77 78 -110
l56 -60 23 22 23 22 -57 56 c-31 31 -69 81 -84 111 l-26 55 86 3 c87 3 102 9
102 45 0 15 -11 17 -99 17 l-99 0 6 45 c5 45 4 45 -26 45 -28 0 -30 -3 -36
-45z"/>
<path d="M4826 4948 c-4 -40 -10 -76 -14 -79 -4 -4 -27 -10 -50 -14 l-44 -7 7
56 7 56 -30 0 c-30 0 -31 -1 -37 -64 -7 -63 -8 -64 -41 -71 -30 -5 -34 -10
-34 -36 0 -29 2 -30 30 -24 17 4 30 3 30 -2 0 -4 -7 -67 -14 -139 -19 -172 -8
-221 58 -260 45 -27 167 -25 221 3 51 27 90 68 110 117 18 44 19 42 -18 51
-20 5 -27 3 -27 -7 0 -24 -50 -87 -83 -105 -19 -10 -57 -17 -94 -17 -52 -1
-65 3 -88 24 l-27 25 7 120 c3 66 10 140 13 165 7 43 9 45 50 54 23 5 45 7 48
4 3 -3 -2 -69 -10 -146 -9 -78 -16 -144 -16 -147 0 -3 13 -5 28 -5 l29 0 16
156 c9 86 18 158 20 160 1 2 22 7 46 13 l43 9 -6 -71 c-10 -102 -15 -116 -42
-123 -17 -4 -24 -13 -24 -29 0 -30 11 -36 50 -29 46 10 59 38 74 165 18 142
13 154 -53 146 -25 -3 -55 -9 -65 -13 -18 -7 -19 -3 -12 64 l7 72 -29 0 c-29
0 -29 -1 -36 -72z"/>
<path d="M5239 4968 c-13 -28 -36 -69 -51 -90 -16 -21 -28 -47 -28 -59 0 -17
5 -20 28 -15 71 13 162 17 162 7 0 -17 40 -13 46 4 6 16 -24 122 -37 130 -4 3
-15 2 -24 -1 -13 -5 -15 -14 -11 -39 6 -28 3 -33 -16 -39 -13 -3 -33 -6 -45
-6 -22 0 -21 2 14 71 31 59 35 72 23 79 -27 17 -36 11 -61 -42z"/>
<path d="M5440 5003 c0 -10 -5 -58 -11 -108 -5 -49 -7 -105 -4 -123 8 -44 41
-72 84 -72 67 0 102 33 117 109 6 28 4 31 -18 31 -20 0 -28 -8 -41 -41 -15
-37 -19 -40 -49 -37 -32 3 -33 5 -36 50 -3 41 0 47 20 53 28 8 128 67 128 75
0 3 -6 15 -14 25 -13 18 -15 17 -63 -13 -27 -18 -53 -32 -58 -32 -4 0 -5 23
-1 50 l7 50 -31 0 c-22 0 -30 -5 -30 -17z"/>
<path d="M6005 4965 c-26 -59 -100 -170 -130 -195 -15 -12 -15 -10 1 29 14 36
15 44 3 52 -22 14 -27 11 -44 -21 -9 -17 -24 -30 -34 -30 -17 0 -15 10 21 95
39 96 41 115 10 115 -12 0 -28 -29 -55 -101 -21 -55 -47 -108 -57 -117 -12
-11 -17 -26 -14 -39 5 -18 11 -20 47 -15 37 5 40 3 33 -14 -16 -43 -71 -124
-84 -124 -9 0 -12 -6 -8 -16 3 -9 6 -20 6 -26 0 -12 59 -6 123 12 31 9 38 15
35 33 -2 18 -9 22 -36 19 -19 -1 -32 1 -30 5 17 39 60 113 65 113 3 0 12 -8
18 -17 12 -17 14 -17 34 1 19 17 21 17 21 3 0 -15 13 -17 90 -17 86 0 90 1 90
22 l0 21 25 -23 c20 -19 27 -21 40 -10 22 18 20 25 -24 80 -22 28 -51 74 -66
103 -21 44 -24 59 -16 80 6 15 7 27 2 27 -5 0 -16 3 -25 6 -11 4 -22 -9 -41
-51z m62 -127 c15 -29 29 -56 31 -60 2 -5 -30 -8 -71 -8 l-75 0 40 60 c22 33
41 60 44 60 2 0 16 -24 31 -52z"/>
<path d="M6546 4983 c-3 -21 -6 -56 -6 -78 0 -74 -7 -85 -54 -85 l-42 0 6 56
c6 53 19 73 48 74 16 0 15 12 -1 34 -13 18 -17 17 -89 -8 -42 -14 -83 -26 -92
-26 -12 0 -13 -5 -5 -29 10 -28 12 -29 46 -19 19 5 36 8 38 6 2 -2 1 -22 -2
-45 l-6 -42 -51 -3 c-47 -3 -51 -5 -54 -30 -3 -27 -2 -28 47 -28 57 0 56 1 45
-84 l-7 -47 -58 -16 c-59 -16 -70 -30 -51 -61 7 -10 17 -9 52 3 24 8 45 13 47
11 9 -9 -9 -136 -22 -152 -14 -20 -33 -11 -46 23 -12 31 -56 30 -51 -2 9 -65
42 -94 97 -86 34 4 62 46 69 100 3 28 9 73 12 99 5 44 9 51 40 65 34 17 41 31
25 56 -5 8 -16 11 -30 6 -18 -5 -21 -2 -21 24 0 52 8 61 56 61 l44 0 0 -110 0
-110 -43 -28 c-40 -25 -43 -29 -34 -55 l9 -27 33 20 c18 11 35 20 37 20 3 0 8
-17 12 -38 11 -69 52 -104 101 -86 37 15 81 157 54 175 -27 17 -35 8 -47 -51
-14 -65 -35 -79 -52 -34 -17 44 -12 86 14 113 32 34 97 142 91 151 -3 4 -14
10 -24 13 -16 4 -26 -6 -50 -48 -45 -79 -51 -78 -51 14 l0 81 75 0 75 0 0 30
0 30 -71 0 -72 0 8 100 7 100 -25 0 c-20 0 -25 -6 -31 -37z"/>
<path d="M6953 5003 c-21 -63 -89 -207 -117 -251 -34 -50 -34 -51 -14 -69 19
-17 21 -17 44 12 l24 30 -1 -30 c0 -16 -8 -100 -18 -185 -10 -85 -16 -158 -14
-162 2 -5 15 -8 28 -8 28 0 25 -16 60 315 17 167 30 245 45 285 20 51 21 55 4
67 -24 17 -33 16 -41 -4z"/>
<path d="M7061 5009 c-14 -6 -21 -15 -18 -23 3 -8 11 -32 18 -55 13 -42 16
-45 43 -35 20 8 19 39 -2 85 -15 33 -20 36 -41 28z"/>
<path d="M7620 4990 l0 -30 -74 0 c-43 0 -78 -5 -82 -11 -3 -6 -15 -81 -25
-167 -21 -181 -38 -251 -79 -341 -28 -60 -29 -64 -13 -77 10 -7 22 -12 28 -10
30 9 87 162 107 286 l12 80 162 0 161 0 12 101 c15 125 12 131 -84 137 -64 4
-65 5 -65 33 0 26 -4 29 -30 29 -27 0 -30 -3 -30 -30z m150 -132 c0 -80 3 -78
-142 -78 l-130 0 6 31 c3 17 6 42 6 55 l0 24 130 0 130 0 0 -32z"/>
<path d="M1317 4960 c-15 -42 -22 -50 -42 -50 -15 0 -25 -6 -25 -14 0 -8 -11
-121 -25 -252 -31 -299 -31 -294 -1 -294 18 0 25 7 30 30 5 30 6 30 69 30 l63
0 22 213 c13 116 22 223 22 238 0 31 -17 49 -47 49 -27 0 -27 -2 -7 45 13 31
13 39 2 46 -28 18 -44 8 -61 -41z m59 -132 c-3 -13 -8 -49 -11 -80 l-6 -58
-35 0 c-38 0 -38 -1 -28 99 l7 61 39 0 c35 0 38 -2 34 -22z m-30 -270 c-4 -46
-11 -87 -16 -91 -4 -5 -20 -7 -36 -5 -22 2 -29 8 -27 23 1 11 5 50 8 88 l7 67
35 0 36 0 -7 -82z"/>
<path d="M1529 4983 c-5 -16 -29 -68 -51 -116 -35 -74 -40 -90 -27 -98 26 -17
39 -9 61 36 21 43 24 45 66 45 l44 0 -6 -37 c-3 -21 -13 -105 -21 -188 -20
-192 -27 -215 -66 -215 -22 0 -32 7 -41 25 -8 18 -18 25 -32 23 -33 -5 -31
-42 2 -79 53 -59 135 -41 167 36 7 17 23 126 35 244 l22 215 -22 18 c-13 10
-38 18 -61 18 l-39 0 15 37 c18 43 14 63 -15 63 -13 0 -24 -10 -31 -27z"/>
<path d="M3095 5001 c-11 -5 -43 -12 -70 -15 -64 -9 -76 -16 -69 -43 5 -18 11
-21 40 -16 33 6 34 5 34 -30 0 -58 -7 -67 -55 -67 -37 0 -43 -3 -47 -25 -6
-30 -2 -35 34 -35 15 0 28 -5 28 -11 0 -20 -61 -164 -90 -211 l-29 -47 21 -16
c13 -8 26 -11 31 -6 5 5 24 46 43 92 38 96 40 88 19 -91 -8 -69 -15 -129 -15
-133 0 -5 12 -7 28 -5 l27 3 16 140 c9 77 17 142 18 144 0 2 10 -4 22 -15 20
-18 21 -18 35 0 12 16 11 23 -7 47 -11 16 -24 31 -29 34 -6 4 -10 21 -10 40 0
31 3 34 33 37 27 2 33 8 35 31 3 24 0 27 -29 27 -31 0 -32 1 -25 38 3 20 6 47
6 59 0 16 8 23 29 28 25 5 29 10 22 28 -9 25 -19 29 -46 18z"/>
<path d="M3864 4973 c-15 -21 -48 -57 -73 -81 -44 -42 -44 -43 -25 -62 19 -19
19 -19 53 7 18 15 54 54 78 87 41 56 43 61 27 73 -25 19 -29 17 -60 -24z"/>
<path d="M1905 4988 c-4 -13 -25 -207 -25 -233 0 -13 25 -15 148 -15 l148 0
12 113 c16 148 18 147 -154 147 -91 0 -126 -3 -129 -12z m227 -93 c-1 -22 -5
-52 -8 -67 l-6 -28 -88 0 -89 0 5 38 c3 20 7 52 10 70 l5 33 87 -3 87 -3 -3
-40z"/>
<path d="M3507 4993 c-16 -15 -7 -55 14 -60 19 -5 20 -11 14 -72 -9 -99 -13
-109 -38 -113 -17 -2 -23 -11 -25 -35 -3 -28 0 -33 17 -33 12 0 21 -6 21 -13
0 -37 -43 -176 -70 -225 -28 -52 -29 -57 -13 -74 9 -10 20 -18 24 -18 5 0 24
33 43 73 29 61 46 118 72 235 3 17 11 22 34 22 29 0 30 -1 25 -37 -13 -88 -32
-289 -28 -295 2 -5 13 -8 23 -8 10 0 21 3 23 8 3 4 13 80 23 169 17 162 17
162 43 165 21 2 27 9 29 36 3 29 1 32 -23 32 -29 0 -28 -12 -10 131 4 35 11
48 25 52 15 4 20 14 20 36 l0 31 -118 0 c-65 0 -122 -3 -125 -7z m140 -130
c-4 -38 -7 -78 -7 -90 0 -19 -6 -23 -31 -23 l-31 0 7 63 c11 109 14 117 42
117 26 0 26 0 20 -67z"/>
<path d="M6643 4985 l-22 -15 32 -53 c17 -28 32 -54 33 -55 6 -9 44 11 44 22
0 6 -15 35 -33 64 -31 50 -33 51 -54 37z"/>
<path d="M742 4963 l3 -28 134 -5 135 -5 -67 -59 c-53 -46 -67 -64 -67 -86 0
-58 -4 -60 -111 -60 l-99 0 0 -30 0 -30 100 0 101 0 -5 -32 c-3 -18 -8 -67
-11 -108 -4 -41 -11 -83 -16 -93 -14 -25 -51 -18 -64 11 -7 16 -17 22 -35 20
-35 -4 -37 -38 -6 -76 67 -78 166 -31 180 86 3 26 8 80 12 120 l6 72 93 0 c75
0 94 3 99 16 16 41 10 44 -89 44 l-95 0 0 27 c0 20 20 47 80 109 124 126 117
134 -113 134 l-168 0 3 -27z"/>
<path d="M7156 4968 c-9 -37 -8 -38 45 -38 50 0 51 0 45 -27 -3 -16 -15 -125
-26 -243 -12 -118 -25 -225 -30 -237 -17 -42 -50 -23 -50 28 0 14 -7 19 -25
19 -22 0 -25 -4 -25 -36 0 -26 8 -43 29 -65 35 -35 61 -37 96 -6 32 27 38 63
69 366 22 217 22 225 4 243 -13 13 -33 18 -72 18 -47 0 -54 -3 -60 -22z"/>
<path d="M146 4958 c-6 -27 -56 -515 -56 -540 0 -13 8 -18 25 -18 20 0 27 6
32 30 5 28 8 30 53 30 41 0 49 3 53 23 3 12 15 122 28 244 27 261 29 253 -67
253 -58 0 -64 -2 -68 -22z m94 -65 c0 -26 -23 -238 -35 -330 -5 -34 -10 -43
-26 -43 -23 0 -24 4 -4 191 22 205 23 209 45 209 15 0 20 -7 20 -27z"/>
<path d="M3185 4968 c-3 -7 -16 -125 -30 -263 -13 -137 -27 -267 -30 -287 l-5
-38 100 0 c97 0 100 1 101 23 0 12 12 135 27 272 15 138 26 258 24 268 -5 25
-42 37 -118 37 -43 0 -66 -4 -69 -12z m124 -85 c0 -16 -10 -120 -22 -233 l-22
-205 -39 -3 -39 -3 6 48 c3 26 13 132 23 236 l18 187 38 0 c35 0 38 -2 37 -27z"/>
<path d="M7015 4848 c-8 -26 -54 -492 -49 -500 8 -13 44 -9 49 5 5 11 55 467
55 495 0 6 -11 12 -25 12 -14 0 -27 -6 -30 -12z"/>
<path d="M3858 4782 c-17 -26 -56 -70 -85 -98 -52 -51 -53 -52 -36 -73 l18
-22 43 36 c35 30 107 122 135 171 4 6 -5 16 -18 22 -23 10 -27 8 -57 -36z"/>
<path d="M5170 4758 c0 -7 -9 -94 -20 -193 -25 -233 -26 -225 5 -225 27 0 30
7 40 103 l6 57 45 0 c41 0 44 -2 44 -27 0 -43 -11 -73 -26 -73 -8 0 -14 7 -14
15 0 17 -9 19 -29 6 -18 -12 -5 -48 25 -68 31 -20 70 -6 83 30 14 35 46 350
38 370 -5 14 -21 17 -102 17 -69 0 -95 -3 -95 -12z m142 -68 c-4 -28 -7 -30
-48 -30 -42 0 -44 1 -44 30 0 29 1 30 48 30 48 0 49 0 44 -30z m-12 -110 c0
-29 -2 -30 -45 -30 -43 0 -45 1 -45 30 0 29 2 30 45 30 43 0 45 -1 45 -30z"/>
<path d="M1465 4714 c-11 -4 14 -156 27 -169 4 -4 16 -4 28 0 20 6 22 12 16
53 -15 109 -30 133 -71 116z"/>
<path d="M1800 4678 c-1 -2 -9 -74 -18 -160 l-18 -158 98 0 c95 0 98 1 98 23
1 12 7 74 14 137 13 115 12 139 -8 152 -10 7 -165 12 -166 6z m116 -158 l-9
-100 -40 0 -39 0 6 63 c15 140 14 137 54 137 l37 0 -9 -100z"/>
<path d="M2040 4673 c0 -5 -7 -66 -15 -138 -22 -195 -31 -175 80 -175 52 0 95
3 95 8 0 4 7 66 15 137 8 72 15 133 15 137 0 4 -7 14 -16 22 -11 12 -36 16
-95 16 -43 0 -79 -3 -79 -7z m127 -75 c-3 -13 -9 -58 -12 -100 l-7 -78 -40 0
c-40 0 -40 0 -35 33 3 17 9 62 13 100 l6 67 40 0 c37 0 40 -2 35 -22z"/>
<path d="M5397 4623 c-25 -197 -19 -250 29 -272 31 -14 53 -14 92 0 36 13 58
43 71 98 9 40 8 41 -19 41 -22 0 -29 -5 -33 -29 -8 -39 -34 -63 -66 -59 -24 3
-26 7 -29 59 -3 54 -2 57 27 69 17 7 51 25 76 41 42 27 44 30 33 54 -10 23
-13 24 -32 10 -12 -8 -39 -24 -60 -36 l-39 -21 6 46 c7 45 6 46 -22 46 -26 0
-29 -3 -34 -47z"/>
<path d="M7526 4631 c-4 -6 -11 -50 -16 -98 -5 -48 -12 -107 -15 -130 l-6 -43
149 0 149 0 6 44 c14 101 18 202 8 216 -8 12 -39 16 -139 18 -85 3 -132 0
-136 -7z m220 -107 c-3 -26 -6 -60 -6 -75 l0 -29 -90 0 c-102 0 -96 -7 -84 98
l7 52 90 0 90 0 -7 -46z"/>
<path d="M5905 4618 c-4 -14 -25 -222 -25 -251 0 -16 10 -17 112 -15 l113 3
12 119 c17 159 19 156 -108 156 -71 0 -101 -4 -104 -12z m160 -95 c-15 -123
-9 -113 -71 -113 l-54 0 6 58 c10 106 7 102 70 102 l55 0 -6 -47z"/>
<path d="M3837 4556 c-15 -25 -57 -72 -92 -105 -64 -59 -64 -60 -46 -82 l18
-22 31 22 c41 29 122 121 146 165 19 36 19 37 0 51 -26 20 -26 20 -57 -29z"/>
<path d="M4208 4589 c-16 -9 -15 -14 15 -54 35 -48 48 -53 67 -30 11 13 8 22
-17 52 -34 42 -42 46 -65 32z"/>
<path d="M4030 4523 c-6 -27 -20 -67 -30 -89 l-18 -42 25 -11 c13 -6 25 -11
27 -11 5 0 43 107 54 152 9 33 8 37 -12 42 -33 9 -33 9 -46 -41z"/>
<path d="M4394 4560 l-21 -8 22 -86 c12 -47 24 -89 28 -92 3 -3 15 -3 27 1 19
6 21 12 15 43 -7 45 -35 135 -44 143 -3 4 -15 3 -27 -1z"/>
<path d="M4120 4495 c0 -105 39 -155 121 -155 59 0 103 34 121 92 10 33 9 41
-3 49 -23 14 -37 10 -44 -13 -11 -37 -46 -68 -75 -68 -40 0 -60 30 -65 91 -3
49 -5 54 -29 57 -25 3 -26 2 -26 -53z"/>
<path d="M5755 4474 c-44 -18 -80 -38 -79 -44 1 -5 2 -17 3 -26 1 -20 29 -14
117 26 67 30 72 36 52 61 -11 14 -23 11 -93 -17z"/>
<path d="M1859 4126 c-12 -28 -35 -70 -50 -93 -24 -34 -27 -43 -15 -50 12 -7
12 -27 0 -145 -8 -76 -25 -178 -37 -228 -22 -85 -22 -90 -5 -96 10 -3 22 -3
27 0 7 5 29 74 45 149 4 15 13 27 22 27 14 0 15 -8 9 -55 -6 -50 -5 -55 13
-55 24 0 32 18 32 71 0 28 4 39 15 39 10 0 15 -10 15 -34 0 -47 -11 -97 -20
-91 -11 7 -40 -5 -40 -16 0 -20 39 -47 60 -42 34 9 42 38 61 218 24 224 24
249 -2 266 -19 13 -19 15 -4 47 24 48 17 66 -28 70 -36 3 -38 5 -32 31 5 25 3
29 -19 33 -22 4 -27 -1 -47 -46z m81 -71 c0 -3 -7 -17 -16 -30 -11 -17 -25
-25 -46 -25 l-29 0 21 30 c14 19 30 30 46 30 13 0 24 -2 24 -5z m-54 -137 c-3
-13 -6 -29 -6 -35 0 -7 -7 -13 -15 -13 -15 0 -20 26 -9 54 10 26 37 20 30 -6z
m72 -10 c-2 -20 -9 -34 -19 -36 -12 -2 -14 5 -11 33 6 47 35 50 30 3z m-88
-128 c0 -29 -4 -40 -15 -40 -10 0 -15 10 -15 33 0 19 3 37 7 40 15 16 23 5 23
-33z m80 31 c0 -31 -15 -71 -26 -71 -15 0 -18 21 -8 58 6 21 34 32 34 13z"/>
<path d="M2677 4138 c-4 -24 -9 -74 -12 -113 -10 -106 -9 -105 -65 -105 -34 0
-50 -4 -54 -16 -14 -38 -7 -44 49 -44 54 0 54 0 50 -27 -12 -71 -34 -316 -29
-324 7 -12 41 -12 48 0 3 5 13 76 22 158 22 209 15 193 74 193 49 0 50 1 50
30 0 29 -2 30 -43 30 -24 0 -46 2 -49 5 -2 3 -1 33 3 67 4 35 10 91 13 126 l7
62 -29 0 c-27 0 -30 -3 -35 -42z"/>
<path d="M4806 4135 l-7 -45 -84 0 c-66 0 -84 -3 -89 -16 -15 -40 -9 -44 74
-44 44 0 80 -4 80 -8 0 -35 -121 -169 -175 -194 -29 -13 -30 -16 -9 -46 18
-26 25 -23 100 34 l48 37 26 -32 c26 -31 27 -31 45 -11 17 19 17 21 -9 55
l-27 35 22 40 c13 22 25 40 28 40 3 -1 17 -23 30 -51 12 -28 48 -77 78 -110
l56 -60 23 22 23 22 -57 56 c-31 31 -69 81 -84 111 l-26 55 86 3 c87 3 102 9
102 45 0 15 -11 17 -99 17 l-99 0 6 45 c5 45 4 45 -26 45 -28 0 -30 -3 -36
-45z"/>
<path d="M6015 4130 l-7 -50 -59 0 c-59 0 -59 0 -59 -30 0 -23 4 -30 20 -30
18 0 20 -7 20 -69 0 -64 18 -179 36 -224 5 -14 -12 -36 -73 -95 -71 -69 -79
-80 -70 -100 6 -12 13 -22 17 -22 13 0 85 60 122 102 l36 41 17 -34 c10 -19
33 -51 53 -71 34 -35 37 -37 54 -21 25 22 23 30 -17 75 -20 21 -43 54 -52 72
-15 33 -15 36 20 117 19 46 43 117 52 157 14 58 21 72 36 72 14 0 19 7 19 30
0 30 0 30 -56 30 l-57 0 6 50 c6 50 6 50 -23 50 -26 0 -29 -3 -35 -50z m59
-147 c-11 -61 -54 -193 -63 -193 -12 0 -21 49 -28 148 l-6 82 52 0 52 0 -7
-37z"/>
<path d="M7514 4155 c-5 -22 -12 -25 -50 -25 -40 0 -44 -2 -44 -25 0 -16 6
-25 15 -25 11 0 15 -12 15 -45 0 -38 -3 -45 -19 -45 -16 0 -21 -9 -25 -42 -22
-184 -38 -273 -56 -324 -28 -76 -29 -94 -7 -108 14 -9 20 -8 27 4 21 32 58
169 69 255 7 50 14 107 17 128 l6 37 79 0 c78 0 79 0 79 25 0 16 -6 25 -15 25
-8 0 -15 3 -15 8 0 20 22 82 29 82 5 0 11 11 13 25 5 23 2 25 -28 25 -30 0
-34 3 -34 25 0 20 -5 25 -25 25 -18 0 -26 -7 -31 -25z m40 -102 c-18 -76 -50
-86 -56 -18 -3 45 -3 45 30 45 30 0 32 -2 26 -27z"/>
<path d="M3557 4120 c-15 -42 -22 -50 -42 -50 -15 0 -25 -6 -25 -14 0 -8 -11
-121 -25 -252 -31 -299 -31 -294 -1 -294 18 0 25 7 30 30 5 30 6 30 69 30 l63
0 22 213 c13 116 22 223 22 238 0 31 -17 49 -47 49 -27 0 -27 -2 -7 45 13 31
13 39 2 46 -28 18 -44 8 -61 -41z m59 -132 c-3 -13 -8 -49 -11 -80 l-6 -58
-35 0 c-38 0 -38 -1 -28 99 l7 61 39 0 c35 0 38 -2 34 -22z m-30 -270 c-4 -46
-11 -87 -16 -91 -4 -5 -20 -7 -36 -5 -22 2 -29 8 -27 23 1 11 5 50 8 88 l7 67
35 0 36 0 -7 -82z"/>
<path d="M3769 4143 c-5 -16 -29 -68 -51 -116 -35 -74 -40 -90 -27 -98 26 -17
39 -9 61 36 21 43 24 45 66 45 l44 0 -6 -37 c-3 -21 -13 -105 -21 -188 -20
-192 -27 -215 -66 -215 -22 0 -32 7 -41 25 -8 18 -18 25 -32 23 -33 -5 -31
-42 2 -79 53 -59 135 -41 167 36 7 17 23 126 35 244 l22 215 -22 18 c-13 10
-38 18 -61 18 l-39 0 15 37 c18 43 14 63 -15 63 -13 0 -24 -10 -31 -27z"/>
<path d="M4424 4133 c-15 -21 -48 -57 -73 -81 -44 -42 -44 -43 -25 -62 19 -19
19 -19 53 7 18 15 54 54 78 87 41 56 43 61 27 73 -25 19 -29 17 -60 -24z"/>
<path d="M5810 4159 c0 -20 -80 -184 -96 -196 -11 -8 -13 -19 -9 -33 6 -19 13
-21 46 -18 21 2 39 0 39 -3 0 -4 -20 -38 -45 -75 -42 -62 -57 -104 -37 -104
12 0 124 20 143 26 11 3 15 12 11 30 -4 23 -8 25 -39 19 l-35 -6 27 43 c14 24
40 70 57 102 29 57 29 60 12 73 -25 19 -30 17 -44 -17 -8 -20 -19 -30 -34 -30
-21 0 -20 4 22 91 34 72 41 94 30 100 -19 12 -48 11 -48 -2z"/>
<path d="M7015 4161 c-11 -5 -43 -12 -70 -15 -64 -9 -76 -16 -69 -43 5 -18 11
-21 40 -16 33 6 34 5 34 -30 0 -58 -7 -67 -55 -67 -37 0 -43 -3 -47 -25 -6
-30 -2 -35 34 -35 15 0 28 -5 28 -11 0 -20 -61 -164 -90 -211 l-29 -47 21 -16
c13 -8 26 -11 31 -6 5 5 24 46 43 92 38 96 40 88 19 -91 -8 -69 -15 -129 -15
-133 0 -5 12 -7 28 -5 l27 3 16 140 c9 77 17 142 18 144 0 2 10 -4 22 -15 20
-18 21 -18 35 0 12 16 11 23 -7 47 -11 16 -24 31 -29 34 -6 4 -10 21 -10 40 0
31 3 34 33 37 27 2 33 8 35 31 3 24 0 27 -29 27 -31 0 -32 1 -25 38 3 20 6 47
6 59 0 16 8 23 29 28 25 5 29 10 22 28 -9 25 -19 29 -46 18z"/>
<path d="M180 4148 c0 -7 -3 -23 -6 -35 l-6 -23 185 0 185 0 4 30 c3 17 2 32
0 35 -3 3 -86 5 -184 5 -136 0 -178 -3 -178 -12z"/>
<path d="M4067 4153 c-16 -15 -7 -55 14 -60 19 -5 20 -11 14 -72 -9 -99 -13
-109 -38 -113 -17 -2 -23 -11 -25 -35 -3 -28 0 -33 17 -33 12 0 21 -6 21 -13
0 -37 -43 -176 -70 -225 -28 -52 -29 -57 -13 -74 9 -10 20 -18 24 -18 5 0 24
33 43 73 29 61 46 118 72 235 3 17 11 22 34 22 29 0 30 -1 25 -37 -13 -88 -32
-289 -28 -295 2 -5 13 -8 23 -8 10 0 21 3 23 8 3 4 13 80 23 169 17 162 17
162 43 165 21 2 27 9 29 36 3 29 1 32 -23 32 -29 0 -28 -12 -10 131 4 35 11
48 25 52 15 4 20 14 20 36 l0 31 -118 0 c-65 0 -122 -3 -125 -7z m140 -130
c-4 -38 -7 -78 -7 -90 0 -19 -6 -23 -31 -23 l-31 0 7 63 c11 109 14 117 42
117 26 0 26 0 20 -67z"/>
<path d="M6465 4148 c-3 -11 -35 -311 -35 -330 0 -5 25 -8 56 -8 l57 0 -7 -31
c-3 -17 -6 -38 -6 -45 0 -10 -15 -14 -55 -14 -52 0 -55 -1 -55 -25 0 -23 3
-25 51 -25 l50 0 -3 -47 -3 -48 -72 -3 c-70 -3 -73 -4 -73 -27 l0 -25 159 0
159 0 4 25 c5 25 4 25 -60 25 l-64 0 6 31 c3 17 6 40 6 50 0 16 8 19 55 19 30
0 55 4 55 9 0 5 3 16 6 25 5 13 -3 16 -51 16 l-56 0 3 43 3 42 56 3 57 3 5 47
c25 197 30 272 17 287 -17 20 -258 23 -265 3z m105 -77 c0 -45 -10 -61 -36
-61 -22 0 -24 4 -24 45 0 43 1 45 30 45 26 0 30 -3 30 -29z m110 -16 c0 -44
-1 -45 -33 -45 -32 0 -32 0 -29 45 4 42 6 45 33 45 28 0 29 -2 29 -45z m-124
-121 c-3 -9 -6 -29 -6 -45 0 -26 -4 -29 -30 -29 -32 0 -34 6 -24 59 6 26 11
31 36 31 23 0 29 -4 24 -16z m110 -6 c-3 -13 -6 -33 -6 -45 0 -19 -6 -23 -30
-23 -24 0 -30 4 -30 23 0 50 11 67 42 67 27 0 30 -3 24 -22z"/>
<path d="M2044 4135 c-10 -25 4 -45 31 -45 16 0 25 -6 25 -15 0 -21 -35 -88
-54 -104 -20 -17 -20 -35 0 -52 14 -11 20 -9 44 21 26 32 28 33 34 12 15 -47
82 -53 110 -9 22 33 33 186 15 198 -8 5 -56 9 -107 9 -73 0 -94 -3 -98 -15z
m159 -92 c-3 -27 -6 -54 -8 -60 -6 -18 -35 -16 -35 2 0 9 -6 12 -15 9 -18 -7
-18 -6 -4 37 6 19 12 40 15 47 2 6 14 12 27 12 23 0 24 -3 20 -47z"/>
<path d="M2982 4123 l3 -28 134 -5 135 -5 -67 -59 c-53 -46 -67 -64 -67 -86 0
-58 -4 -60 -111 -60 l-99 0 0 -30 0 -30 100 0 101 0 -5 -32 c-3 -18 -8 -67
-11 -108 -4 -41 -11 -83 -16 -93 -14 -25 -51 -18 -64 11 -7 16 -17 22 -35 20
-35 -4 -37 -38 -6 -76 67 -78 166 -31 180 86 3 26 8 80 12 120 l6 72 93 0 c75
0 94 3 99 16 16 41 10 44 -89 44 l-95 0 0 27 c0 20 20 47 80 109 124 126 117
134 -113 134 l-168 0 3 -27z"/>
<path d="M6297 4143 c-4 -3 -7 -17 -7 -30 0 -17 6 -23 21 -23 21 0 22 -3 15
-61 -3 -34 -6 -73 -6 -85 0 -19 -5 -24 -25 -24 -21 0 -25 -5 -25 -30 0 -24 4
-30 21 -30 18 0 20 -4 15 -37 -3 -21 -8 -69 -12 -107 -6 -64 -9 -69 -35 -80
-32 -11 -36 -23 -16 -49 11 -16 17 -15 72 12 88 43 89 45 75 70 -8 16 -17 20
-31 16 -17 -6 -19 -3 -15 17 3 13 8 53 11 91 6 56 10 67 25 67 18 0 30 19 30
46 0 8 -9 14 -21 14 -20 0 -20 3 -14 78 9 89 10 92 36 92 14 0 19 7 19 30 l0
30 -63 0 c-35 0 -67 -3 -70 -7z"/>
<path d="M7657 4143 c-4 -3 -7 -15 -7 -25 0 -14 8 -18 40 -18 43 0 46 -5 28
-45 -8 -18 -19 -25 -40 -25 -15 0 -28 -3 -28 -7 -1 -5 -9 -84 -19 -176 -15
-143 -15 -170 -4 -174 25 -10 32 10 43 122 18 188 13 175 70 175 34 0 50 -4
50 -12 0 -7 -7 -71 -15 -143 -14 -128 -11 -153 17 -142 10 3 19 53 31 167 19
175 17 190 -29 190 -27 0 -29 7 -14 44 8 21 16 26 44 26 32 0 46 13 46 41 0
10 -203 13 -213 2z"/>
<path d="M1307 4133 c-4 -3 -7 -19 -7 -34 l0 -28 145 -3 144 -3 -61 -73 -61
-74 -13 -160 c-8 -88 -19 -167 -25 -175 -18 -21 -52 -11 -67 20 -11 23 -17 26
-40 21 -36 -9 -35 -7 -19 -45 22 -51 52 -74 98 -73 80 3 103 50 115 244 3 63
10 124 14 135 4 11 36 54 70 95 84 100 91 117 61 141 -21 17 -41 19 -185 19
-90 0 -166 -3 -169 -7z"/>
<path d="M2386 4118 c-6 -27 -56 -515 -56 -540 0 -13 8 -18 25 -18 20 0 27 6
32 30 5 28 8 30 53 30 41 0 49 3 53 23 3 12 15 122 28 244 27 261 29 253 -67
253 -58 0 -64 -2 -68 -22z m94 -65 c0 -26 -23 -238 -35 -330 -5 -34 -10 -43
-26 -43 -23 0 -24 4 -4 191 22 205 23 209 45 209 15 0 20 -7 20 -27z"/>
<path d="M7105 4128 c-3 -7 -16 -125 -30 -263 -13 -137 -27 -267 -30 -287 l-5
-38 100 0 c97 0 100 1 101 23 0 12 12 135 27 272 15 138 26 258 24 268 -5 25
-42 37 -118 37 -43 0 -66 -4 -69 -12z m124 -85 c0 -16 -10 -120 -22 -233 l-22
-205 -39 -3 -39 -3 6 48 c3 26 13 132 23 236 l18 187 38 0 c35 0 38 -2 37 -27z"/>
<path d="M4418 3942 c-17 -26 -56 -70 -85 -98 -52 -51 -53 -52 -36 -73 l18
-22 43 36 c35 30 107 122 135 171 4 6 -5 16 -18 22 -23 10 -27 8 -57 -36z"/>
<path d="M130 3940 l0 -30 90 0 90 0 0 -37 c0 -54 -28 -292 -35 -303 -11 -17
-25 -11 -35 15 -7 18 -17 25 -35 25 -28 0 -29 -4 -14 -49 15 -43 61 -67 99
-51 40 16 50 48 66 200 8 74 17 150 20 168 l5 32 89 0 90 0 0 30 0 30 -215 0
-215 0 0 -30z"/>
<path d="M7700 3828 c-13 -130 -38 -196 -94 -250 -36 -35 -36 -36 -18 -58 l18
-22 47 52 c26 29 47 56 47 61 0 23 21 4 53 -46 32 -52 35 -54 55 -39 26 18 20
34 -39 105 l-38 47 14 108 c20 150 20 154 -9 154 -23 0 -24 -4 -36 -112z"/>
<path d="M7540 3897 c-14 -12 -38 -31 -53 -42 -25 -18 -26 -22 -13 -40 14 -19
15 -19 54 9 62 43 77 63 62 81 -16 19 -20 19 -50 -8z"/>
<path d="M2120 3860 c0 -20 -5 -30 -15 -30 -9 0 -15 10 -15 26 0 20 -4 25 -21
22 -17 -2 -25 -14 -34 -48 -6 -25 -15 -55 -19 -67 -5 -16 -2 -24 13 -33 18 -9
21 -7 27 15 4 18 13 25 30 25 25 0 28 -9 18 -47 -5 -17 -15 -23 -47 -25 -35
-3 -42 -7 -48 -30 -7 -28 -7 -28 38 -28 l46 0 -6 -65 -6 -65 29 0 c27 0 30 3
30 34 0 18 3 48 6 65 6 27 10 31 40 31 31 0 34 3 34 30 0 27 -3 30 -30 30 -28
0 -30 3 -30 34 0 32 3 35 33 38 27 2 33 8 35 31 3 24 0 27 -27 27 -28 0 -31 3
-31 30 0 25 -4 30 -25 30 -21 0 -25 -5 -25 -30z"/>
<path d="M3705 3874 c-11 -4 14 -156 27 -169 4 -4 16 -4 28 0 20 6 22 12 16
53 -15 109 -30 133 -71 116z"/>
<path d="M166 3775 c-9 -30 -31 -81 -47 -112 -28 -54 -29 -58 -13 -70 25 -18
36 -13 61 33 28 49 74 184 67 195 -3 5 -15 9 -28 9 -18 0 -25 -10 -40 -55z"/>
<path d="M447 3822 c-27 -3 -28 -5 -22 -45 4 -23 16 -82 27 -130 18 -81 21
-87 41 -81 34 10 37 17 26 59 -7 22 -19 76 -28 120 -16 79 -16 80 -44 77z"/>
<path d="M7525 3771 c-22 -21 -49 -42 -59 -48 -15 -8 -16 -14 -7 -32 7 -11 16
-21 21 -21 5 0 34 24 66 53 54 50 55 53 37 69 -17 16 -20 15 -58 -21z"/>
<path d="M4397 3716 c-15 -25 -57 -72 -92 -105 -64 -59 -64 -60 -46 -82 l18
-22 31 22 c41 29 122 121 146 165 19 36 19 37 0 51 -26 20 -26 20 -57 -29z"/>
<path d="M4768 3749 c-16 -9 -15 -14 15 -54 35 -48 48 -53 67 -30 11 13 8 22
-17 52 -34 42 -42 46 -65 32z"/>
<path d="M4590 3683 c-6 -27 -20 -67 -30 -89 l-18 -42 25 -11 c13 -6 25 -11
27 -11 5 0 43 107 54 152 9 33 8 37 -12 42 -33 9 -33 9 -46 -41z"/>
<path d="M4954 3720 l-21 -8 22 -86 c12 -47 24 -89 28 -92 3 -3 15 -3 27 1 19
6 21 12 15 43 -7 45 -35 135 -44 143 -3 4 -15 3 -27 -1z"/>
<path d="M4680 3655 c0 -105 39 -155 121 -155 59 0 103 34 121 92 10 33 9 41
-3 49 -23 14 -37 10 -44 -13 -11 -37 -46 -68 -75 -68 -40 0 -60 30 -65 91 -3
49 -5 54 -29 57 -25 3 -26 2 -26 -53z"/>
<path d="M715 3691 c-36 -15 -58 -49 -63 -100 -4 -43 -1 -53 21 -75 74 -74
191 19 163 128 -10 42 -73 66 -121 47z m69 -47 c37 -36 5 -114 -47 -114 -32 0
-47 18 -47 55 0 58 59 95 94 59z"/>
<path d="M5159 3674 c-8 -10 -10 -20 -3 -29 5 -7 29 -43 54 -79 24 -36 47 -66
50 -66 3 0 17 10 32 23 l28 22 -61 73 c-63 75 -77 83 -100 56z"/>
<path d="M5757 3661 c-73 -25 -77 -27 -72 -51 4 -14 9 -27 11 -29 5 -5 132 35
152 47 13 9 7 63 -7 61 -3 -1 -41 -13 -84 -28z"/>
<path d="M7521 3636 c-24 -24 -58 -52 -76 -62 -29 -16 -32 -20 -22 -41 5 -13
13 -23 17 -23 16 0 119 81 143 113 19 26 23 37 14 46 -18 18 -31 13 -76 -33z"/>
<path d="M1295 3250 l-7 -90 -29 0 c-26 0 -29 -4 -29 -30 0 -26 4 -30 26 -30
24 0 26 -3 21 -32 -3 -18 -9 -69 -13 -113 -8 -101 -16 -121 -49 -129 -23 -6
-26 -10 -20 -34 4 -15 8 -29 11 -31 5 -6 136 46 160 63 16 12 17 18 6 40 -10
23 -15 25 -33 15 -22 -11 -22 -11 -15 77 11 131 15 144 41 144 18 0 24 7 27
30 4 26 2 30 -20 30 l-24 0 7 90 7 90 -30 0 -30 0 -7 -90z"/>
<path d="M1536 3324 c-3 -9 -6 -24 -6 -35 0 -16 -7 -19 -50 -19 -36 0 -50 -4
-50 -14 0 -8 -3 -21 -6 -30 -5 -14 10 -16 130 -16 l136 0 0 30 c0 29 -1 30
-50 30 l-51 0 7 35 c6 34 5 35 -24 35 -18 0 -32 -6 -36 -16z"/>
<path d="M1932 3331 c-9 -5 -11 -17 -6 -34 6 -27 5 -27 -45 -27 -48 0 -51 -2
-51 -25 0 -25 1 -25 84 -25 l85 0 -10 -30 c-11 -29 -13 -30 -70 -30 -32 0 -59
-4 -59 -9 0 -5 -3 -16 -6 -25 -5 -13 3 -16 50 -16 l56 0 -16 -25 c-14 -21 -24
-25 -82 -27 -65 -3 -67 -4 -70 -30 -3 -27 -2 -28 43 -28 54 0 53 -6 -15 -59
-47 -38 -48 -38 -30 -61 l18 -24 46 38 c26 21 59 53 74 72 26 33 30 34 93 34
64 0 67 -1 79 -30 7 -16 32 -51 57 -77 l44 -48 19 23 c19 22 18 23 -33 75
l-52 52 53 3 c50 3 52 4 52 33 l0 29 -120 0 c-66 0 -120 3 -120 6 0 3 5 14 10
25 9 17 22 19 105 19 95 0 95 0 95 25 0 25 -1 25 -86 25 -74 0 -85 2 -80 16 3
9 6 22 6 29 0 11 23 15 98 17 92 3 97 4 100 26 3 20 -1 22 -43 22 -46 0 -47 1
-41 27 5 17 3 29 -6 34 -24 15 -34 9 -47 -26 l-13 -36 -56 3 c-54 3 -57 4 -66
36 -9 32 -20 38 -44 23z"/>
<path d="M3136 3324 c-3 -9 -6 -29 -6 -45 l0 -29 -90 0 -90 0 0 -30 0 -30 85
0 c94 0 91 3 79 -72 l-7 -38 -72 0 c-76 0 -85 -5 -85 -51 0 -17 8 -19 75 -19
84 0 82 1 69 -82 l-7 -38 -83 0 c-88 0 -88 0 -98 -42 l-6 -28 90 0 91 0 -7
-80 -7 -80 26 0 c33 0 35 4 43 89 l7 71 93 0 c91 0 94 1 100 24 10 41 -2 46
-98 46 -89 0 -90 0 -84 23 3 12 6 39 6 60 l0 37 85 0 85 0 0 35 0 35 -81 0
c-79 0 -81 1 -75 23 3 12 6 37 6 55 l0 32 94 0 94 0 4 30 5 30 -95 0 -94 0 6
45 c7 45 7 45 -22 45 -18 0 -32 -6 -36 -16z"/>
<path d="M3690 3315 c0 -25 0 -25 -94 -25 l-93 0 -7 -31 c-3 -17 -6 -44 -6
-60 0 -24 4 -29 24 -29 19 0 26 7 31 30 l7 30 169 0 170 0 -3 -27 c-3 -24 1
-28 22 -28 22 0 25 5 28 45 4 60 -11 70 -111 70 -79 0 -79 0 -75 25 5 23 2 25
-28 25 -30 0 -34 -3 -34 -25z"/>
<path d="M4815 3310 l-7 -30 -94 0 c-91 0 -94 -1 -94 -22 0 -13 -3 -40 -6 -60
-6 -37 -6 -38 24 -38 26 0 31 5 37 30 l7 30 157 0 158 0 -5 -30 c-4 -28 -2
-30 26 -30 22 0 31 6 36 23 19 73 -7 97 -109 97 l-72 0 5 30 c4 28 2 30 -26
30 -26 0 -31 -5 -37 -30z"/>
<path d="M5297 3333 c-14 -4 -17 -11 -13 -29 6 -23 4 -24 -39 -24 -43 0 -45
-1 -45 -30 l0 -30 86 0 85 0 -3 -27 c-3 -28 -4 -28 -80 -31 l-78 -3 0 -29 0
-30 76 0 c74 0 76 -1 70 -22 -3 -13 -6 -29 -6 -35 0 -10 -26 -13 -94 -13 -87
0 -95 -2 -101 -21 -4 -12 -3 -25 2 -30 5 -5 103 -8 224 -7 l214 3 3 28 3 27
-95 0 -96 0 0 35 0 35 80 0 80 0 0 30 0 30 -76 0 c-74 0 -76 1 -70 23 3 12 6
25 6 30 0 4 38 7 84 7 78 0 84 1 90 23 9 36 8 37 -39 37 -43 0 -45 1 -39 25 4
15 2 25 -4 25 -6 0 -17 3 -25 6 -10 3 -18 -5 -25 -25 -11 -30 -13 -31 -71 -31
-57 0 -60 1 -63 27 -3 28 -12 33 -41 26z"/>
<path d="M6476 3319 c-22 -32 -115 -99 -168 -122 -52 -22 -53 -22 -35 -54 l12
-22 44 20 c24 10 72 39 107 64 l63 45 29 -25 c30 -25 161 -105 173 -105 5 0
29 45 29 55 0 2 -28 16 -62 32 -73 35 -131 80 -124 98 2 7 -7 18 -20 24 -32
14 -30 15 -48 -10z"/>
<path d="M226 3269 c-22 -33 -62 -85 -90 -114 -50 -53 -51 -54 -33 -76 l18
-22 24 23 c31 29 30 34 9 -145 -18 -161 -11 -201 41 -241 91 -69 288 -25 340
77 20 37 19 46 -5 54 -14 5 -30 -5 -62 -38 -50 -52 -108 -72 -178 -63 -71 10
-84 31 -81 134 l1 42 154 0 154 0 6 38 c26 173 23 182 -65 182 -33 0 -59 2
-59 4 0 3 14 27 31 55 43 69 33 81 -67 81 l-74 0 12 25 c13 28 12 30 -17 39
-16 4 -27 -6 -59 -55z m137 -90 c-31 -53 -45 -60 -111 -57 l-61 3 32 42 c32
42 33 42 95 43 l63 0 -18 -31z m-43 -126 c0 -10 -3 -35 -6 -55 -6 -37 -8 -38
-50 -38 -48 0 -49 2 -38 73 6 36 8 37 50 37 35 0 44 -3 44 -17z m156 -14 c-3
-17 -6 -42 -6 -55 0 -22 -4 -24 -50 -24 -55 0 -58 6 -44 79 6 30 9 31 57 31
l50 0 -7 -31z"/>
<path d="M4117 3280 c-15 -42 -22 -50 -42 -50 -15 0 -25 -6 -25 -14 0 -8 -11
-121 -25 -252 -31 -299 -31 -294 -1 -294 18 0 25 7 30 30 5 30 6 30 69 30 l63
0 22 213 c13 116 22 223 22 238 0 31 -17 49 -47 49 -27 0 -27 -2 -7 45 13 31
13 39 2 46 -28 18 -44 8 -61 -41z m59 -132 c-3 -13 -8 -49 -11 -80 l-6 -58
-35 0 c-38 0 -38 -1 -28 99 l7 61 39 0 c35 0 38 -2 34 -22z m-30 -270 c-4 -46
-11 -87 -16 -91 -4 -5 -20 -7 -36 -5 -22 2 -29 8 -27 23 1 11 5 50 8 88 l7 67
35 0 36 0 -7 -82z"/>
<path d="M4329 3303 c-5 -16 -29 -68 -51 -116 -35 -74 -40 -90 -27 -98 26 -17
39 -9 61 36 21 43 24 45 66 45 l44 0 -6 -37 c-3 -21 -13 -105 -21 -188 -20
-192 -27 -215 -66 -215 -22 0 -32 7 -41 25 -8 18 -18 25 -32 23 -33 -5 -31
-42 2 -79 53 -59 135 -41 167 36 7 17 23 126 35 244 l22 215 -22 18 c-13 10
-38 18 -61 18 l-39 0 15 37 c18 43 14 63 -15 63 -13 0 -24 -10 -31 -27z"/>
<path d="M2387 3313 c-4 -3 -7 -17 -7 -30 0 -22 2 -23 95 -23 l95 0 0 -30 0
-30 -80 0 c-58 0 -80 -3 -80 -13 0 -7 -4 -51 -10 -97 -5 -47 -12 -106 -15
-132 -5 -44 -4 -48 16 -48 21 0 21 -1 6 -18 -16 -17 -15 -21 19 -60 l35 -42
-47 -30 c-27 -16 -53 -30 -58 -30 -28 -1 -37 -16 -25 -42 10 -24 14 -25 41
-16 16 6 52 26 80 44 58 40 63 40 103 14 34 -23 145 -60 180 -60 15 0 25 7 28
22 7 26 -3 34 -53 42 -42 6 -115 36 -143 58 -17 12 -16 16 5 66 l22 52 81 0
82 0 13 130 c15 158 15 160 -76 160 l-64 0 0 30 0 30 95 0 95 0 0 30 0 30
-213 0 c-118 0 -217 -3 -220 -7z m173 -203 c0 -29 -1 -30 -50 -30 -49 0 -50 1
-50 30 0 29 1 30 50 30 49 0 50 -1 50 -30z m160 0 c0 -30 0 -30 -56 -30 -47 0
-55 3 -50 16 3 9 6 22 6 30 0 10 14 14 50 14 49 0 50 -1 50 -30z m-172 -107
c-3 -26 -7 -28 -54 -31 l-51 -3 5 31 c4 29 6 30 54 30 48 0 49 -1 46 -27z
m162 -3 c0 -30 -1 -30 -55 -30 -57 0 -59 1 -49 38 6 19 13 22 55 22 48 0 49
-1 49 -30z m-180 -95 c0 -8 -30 -65 -34 -65 -2 0 -16 16 -30 35 l-27 35 45 0
c26 0 46 -2 46 -5z"/>
<path d="M5925 3308 c-2 -7 -11 -83 -20 -168 -8 -85 -18 -170 -21 -187 -5 -31
-3 -33 24 -33 l29 0 16 158 c10 86 17 163 17 170 0 8 20 12 65 12 76 0 71 18
50 -165 -20 -176 -20 -175 9 -175 28 0 27 -7 51 219 9 84 11 141 5 151 -12 22
-52 30 -147 30 -50 0 -75 -4 -78 -12z"/>
<path d="M5726 3294 c-14 -38 -7 -44 49 -44 46 0 55 -3 55 -17 -1 -28 -26
-153 -33 -159 -3 -3 -14 17 -24 45 -18 51 -26 58 -50 43 -10 -6 -6 -29 18 -99
l30 -90 -24 -55 c-14 -31 -41 -80 -60 -111 -35 -55 -35 -55 -16 -73 20 -18 21
-18 39 6 11 14 34 51 51 84 34 63 43 62 54 -7 6 -33 10 -37 28 -31 12 4 24 8
26 10 2 2 -7 41 -20 86 l-24 82 26 105 c56 223 52 241 -56 241 -48 0 -64 -4
-69 -16z"/>
<path d="M7436 3273 c-5 -33 -52 -495 -59 -578 -2 -26 2 -30 25 -33 22 -3 28
2 32 20 6 25 56 523 56 551 0 15 14 17 150 17 83 0 150 -4 150 -9 0 -24 -51
-478 -56 -493 -8 -26 -33 -29 -55 -7 -15 15 -28 19 -45 15 -31 -8 -30 -27 2
-65 44 -53 127 -38 152 26 13 34 65 507 60 554 l-3 34 -202 3 -201 2 -6 -37z"/>
<path d="M5996 3123 c-16 -196 -47 -277 -142 -368 -51 -49 -52 -50 -35 -71
l17 -22 43 35 c23 20 58 59 77 87 l34 51 0 -52 c0 -66 15 -99 50 -112 56 -19
100 32 115 132 7 45 6 47 -18 47 -22 0 -26 -6 -32 -42 -9 -53 -22 -78 -39 -78
-20 0 -27 42 -20 115 6 58 5 65 -11 65 -13 0 -16 6 -12 23 3 12 11 63 17 112
6 50 13 107 15 128 5 35 4 37 -24 37 l-28 0 -7 -87z"/>
<path d="M6468 3194 c-15 -15 -13 -19 19 -47 32 -28 35 -29 51 -14 15 16 14
19 -13 47 -33 35 -35 35 -57 14z"/>
<path d="M1468 3183 c-21 -5 -22 -13 -6 -64 7 -26 17 -39 29 -39 27 0 32 16
19 58 -15 44 -20 50 -42 45z"/>
<path d="M1585 3124 l-27 -64 -84 0 -84 0 0 -30 0 -30 150 0 150 0 0 30 c0 28
-2 30 -40 30 l-41 0 16 30 c34 66 35 77 10 88 -21 10 -24 7 -50 -54z"/>
<path d="M3562 3168 c3 -23 5 -23 147 -23 140 0 144 1 152 23 l8 22 -155 0
-155 0 3 -22z"/>
<path d="M4806 3156 l-7 -36 -74 0 c-41 0 -77 -4 -80 -10 -7 -11 -35 -240 -35
-287 l0 -33 79 0 80 0 -5 -35 c-2 -19 -6 -51 -8 -70 -4 -33 -3 -35 24 -35 32
0 40 14 40 70 0 67 3 70 91 70 43 0 79 3 79 8 0 4 7 66 16 137 8 72 12 140 10
151 -7 25 -32 34 -104 34 l-52 0 2 33 c3 28 0 32 -23 35 -23 3 -27 -1 -33 -32z
m-16 -136 l0 -40 -56 0 c-54 0 -56 1 -50 23 3 12 6 30 6 40 0 14 9 17 50 17
l50 0 0 -40z m170 23 c-1 -53 -10 -63 -61 -63 -49 0 -49 0 -49 33 0 44 4 47
62 47 39 0 48 -3 48 -17z m-182 -150 l-3 -38 -52 -3 -53 -3 0 40 0 41 56 0 55
0 -3 -37z m162 -3 l0 -40 -53 0 -53 0 4 40 4 40 49 0 49 0 0 -40z"/>
<path d="M7517 3183 c-4 -3 -7 -17 -7 -30 0 -23 1 -23 120 -23 l120 0 0 30 0
30 -113 0 c-63 0 -117 -3 -120 -7z"/>
<path d="M3550 3093 c0 -10 -3 -42 -6 -70 l-7 -53 162 0 161 0 0 33 c0 17 3
41 6 53 3 13 -1 28 -11 38 -14 13 -40 16 -161 16 -130 0 -144 -2 -144 -17z
m260 -53 c0 -19 -7 -20 -105 -20 -98 0 -105 1 -105 20 0 19 7 20 105 20 98 0
105 -1 105 -20z"/>
<path d="M6344 3086 c-12 -30 7 -36 118 -36 110 0 111 0 93 -20 -10 -11 -50
-30 -89 -42 -39 -12 -72 -23 -73 -23 -1 0 1 -11 4 -24 5 -20 11 -22 39 -18 98
16 219 102 212 150 -3 21 -8 22 -151 25 -123 2 -148 0 -153 -12z"/>
<path d="M7526 3069 c-5 -18 -26 -211 -26 -244 0 -20 5 -25 24 -25 16 0 27 7
31 20 6 17 15 20 75 20 l68 0 6 58 c16 132 16 148 7 162 -14 21 -179 28 -185
9z m130 -80 c-3 -17 -6 -47 -6 -65 0 -34 -1 -34 -45 -34 l-44 0 5 53 c8 76 9
77 55 77 41 0 41 0 35 -31z"/>
<path d="M4265 3034 c-11 -4 14 -156 27 -169 4 -4 16 -4 28 0 20 6 22 12 16
53 -15 109 -30 133 -71 116z"/>
<path d="M5338 2928 c-3 -22 -8 -23 -92 -28 -77 -4 -90 -8 -96 -25 -4 -11 -6
-23 -3 -27 2 -5 38 -8 79 -8 l74 0 -16 -25 c-17 -26 -125 -85 -156 -85 -19 0
-24 -25 -9 -49 20 -31 153 29 211 95 30 35 33 36 43 18 19 -36 82 -87 135
-112 55 -25 67 -23 74 13 2 15 -9 25 -52 46 -30 15 -71 43 -89 63 l-35 36 81
0 c74 0 81 2 86 22 3 12 4 25 1 30 -3 4 -45 8 -93 8 -84 0 -88 1 -87 23 1 17
-5 23 -26 25 -21 3 -27 -1 -30 -20z"/>
<path d="M1401 2840 c-6 -56 -11 -114 -11 -131 l0 -30 118 3 117 3 7 65 c4 36
9 85 11 109 8 69 -11 81 -132 81 l-98 0 -12 -100z m183 3 c-3 -21 -7 -53 -10
-70 l-5 -33 -61 0 -61 0 7 38 c3 20 6 52 6 70 l0 32 64 0 65 0 -5 -37z"/>
<path d="M1917 2923 c-4 -3 -7 -17 -7 -30 0 -61 -48 -131 -113 -164 -36 -19
-37 -20 -21 -44 15 -24 17 -24 47 -9 78 39 131 115 143 203 6 49 6 51 -18 51
-14 0 -28 -3 -31 -7z"/>
<path d="M2047 2873 c-4 -32 -10 -93 -13 -136 l-7 -79 29 4 c32 3 29 -7 48
196 l7 72 -29 0 c-28 0 -30 -2 -35 -57z"/>
<path d="M3496 2908 c-3 -13 -7 -52 -11 -88 -3 -36 -8 -84 -11 -107 l-6 -43
199 0 199 0 12 116 c10 88 10 120 1 130 -9 11 -51 14 -195 14 -182 0 -184 0
-188 -22z m164 -37 c0 -32 -14 -41 -65 -41 -50 0 -52 1 -47 25 4 23 9 25 58
25 30 0 54 -4 54 -9z m170 -16 c0 -24 -3 -25 -60 -25 -57 0 -60 1 -60 25 0 24
3 25 60 25 57 0 60 -1 60 -25z m-184 -91 c-3 -9 -6 -22 -6 -30 0 -10 -14 -14
-55 -14 -57 0 -59 1 -49 38 6 19 13 22 61 22 46 0 54 -3 49 -16z m174 2 c0
-38 -12 -46 -66 -46 -53 0 -54 0 -54 30 l0 30 60 0 c45 0 60 -4 60 -14z"/>
<path d="M6275 2883 c-3 -21 -19 -68 -34 -105 l-28 -66 24 -13 c20 -11 26 -11
34 1 11 18 71 201 67 205 -2 2 -15 6 -29 10 -24 6 -27 4 -34 -32z"/>
<path d="M6633 2909 c-26 -9 -27 -14 -13 -55 6 -16 16 -58 24 -94 11 -55 16
-64 32 -62 34 6 37 19 20 94 -25 107 -36 128 -63 117z"/>
<path d="M6467 2885 c-18 -13 -17 -15 3 -54 23 -45 23 -45 51 -31 19 11 19 11
-1 50 -24 48 -30 52 -53 35z"/>
<path d="M6352 2817 c9 -107 51 -157 133 -157 51 0 92 27 115 75 26 54 25 62
-6 68 -21 4 -27 -1 -35 -22 -16 -40 -39 -61 -69 -61 -41 0 -68 37 -76 103 -7
55 -8 57 -37 57 l-30 0 5 -63z"/>
<path d="M6875 2851 c-36 -15 -58 -49 -63 -100 -4 -43 -1 -53 21 -75 74 -74
191 19 163 128 -10 42 -73 66 -121 47z m69 -47 c37 -36 5 -114 -47 -114 -32 0
-47 18 -47 55 0 58 59 95 94 59z"/>
<path d="M692 2688 c-41 -117 -40 -111 -21 -115 11 -3 25 11 42 40 27 45 70
147 65 152 -2 2 -14 6 -28 10 -24 5 -27 1 -58 -87z"/>
<path d="M216 2478 c-3 -13 -6 -40 -6 -60 0 -35 -2 -37 -37 -40 -33 -3 -38 -7
-41 -30 -3 -24 0 -28 22 -28 14 0 26 -3 26 -8 0 -23 -44 -159 -75 -232 -33
-79 -34 -86 -18 -98 9 -6 20 -9 24 -5 4 5 24 55 43 113 39 114 39 118 11 -105
-21 -166 -21 -167 12 -163 l28 3 17 155 c9 85 17 164 18 175 1 20 1 20 15 1
12 -16 17 -17 30 -6 21 18 19 33 -10 60 -36 34 -33 110 5 110 10 0 20 10 23
22 7 27 1 38 -21 38 -16 0 -17 8 -12 60 6 60 6 60 -21 60 -19 0 -28 -6 -33
-22z"/>
<path d="M1865 2430 c-7 -69 -7 -70 -36 -70 -26 0 -29 -4 -29 -30 0 -26 4 -30
26 -30 25 0 26 -2 20 -37 -3 -21 -6 -55 -6 -75 0 -35 -3 -38 -40 -49 -39 -12
-46 -22 -34 -53 4 -11 14 -13 36 -9 26 5 30 3 25 -13 -3 -10 -9 -54 -13 -96
-3 -43 -10 -78 -15 -78 -5 0 -9 7 -9 15 0 16 -35 21 -45 5 -3 -5 1 -25 9 -45
13 -29 20 -35 45 -35 46 0 60 31 73 163 12 114 12 116 41 128 22 9 27 17 23
33 -3 12 -6 24 -6 28 0 3 -8 4 -19 1 -17 -4 -18 0 -14 44 6 66 9 73 32 73 11
0 21 9 25 23 9 34 8 37 -19 37 -27 0 -27 1 -10 113 4 24 1 27 -24 27 -28 0
-29 -1 -36 -70z"/>
<path d="M2580 2475 c0 -24 -1 -24 -97 -27 l-98 -3 -3 -27 -3 -28 220 0 c184
0 221 2 221 14 0 8 3 21 6 30 5 14 -6 16 -90 16 -96 0 -96 0 -96 25 0 21 -5
25 -30 25 -25 0 -30 -4 -30 -25z"/>
<path d="M3110 2465 l0 -34 -67 -3 c-66 -3 -68 -4 -71 -30 l-3 -28 67 0 67 0
-7 -31 c-3 -17 -6 -35 -6 -40 0 -5 -38 -9 -85 -9 l-85 0 0 -30 0 -29 103 -3
102 -3 -60 -38 c-33 -21 -86 -50 -117 -65 -61 -28 -66 -37 -44 -67 13 -18 16
-17 70 13 31 18 56 30 56 27 0 -3 -7 -22 -15 -42 -27 -63 -27 -63 105 -63
l120 0 -6 -32 c-4 -18 -13 -43 -20 -55 -20 -32 -68 -31 -89 1 -11 17 -22 22
-40 18 -29 -5 -29 -5 -10 -42 42 -81 164 -77 197 6 23 58 32 133 17 150 -8 10
-37 14 -115 14 -57 0 -104 2 -104 5 0 2 5 16 12 30 11 25 12 25 130 25 l118 0
0 30 0 30 -97 0 -97 0 34 30 c33 27 41 29 118 30 64 0 82 3 82 14 0 8 3 21 6
30 5 13 -3 16 -50 16 l-57 0 51 62 c27 35 50 66 50 70 0 4 -9 12 -20 18 -17 9
-24 7 -40 -12 -11 -13 -20 -27 -20 -33 -1 -5 -5 0 -10 13 -8 19 -17 22 -60 22
l-50 0 0 35 c0 32 -2 35 -30 35 -28 0 -30 -3 -30 -35z m150 -102 c0 -17 -66
-73 -87 -73 -24 0 -28 14 -17 58 6 19 13 22 55 22 27 0 49 -3 49 -7z"/>
<path d="M3698 2453 l-3 -48 -97 -3 -98 -3 0 -29 0 -30 88 0 c49 0 91 -2 93
-4 2 -2 2 -27 1 -55 l-4 -51 -83 0 c-77 0 -83 -1 -89 -22 -3 -13 -6 -26 -6
-30 0 -5 87 -8 194 -8 168 0 195 2 200 16 15 40 9 44 -74 44 -89 0 -89 1 -74
79 l7 31 93 0 94 0 0 30 0 30 -91 0 -91 0 4 50 3 50 -32 0 c-31 0 -32 -1 -35
-47z"/>
<path d="M6895 2486 c-2 -6 -13 -45 -25 -86 -12 -41 -28 -87 -36 -101 -12 -24
-11 -27 10 -37 23 -10 26 -7 52 51 26 58 28 60 32 32 2 -16 1 -53 -3 -82 l-6
-53 -45 0 c-24 0 -44 -3 -44 -7 0 -5 -3 -18 -6 -30 -6 -21 -3 -23 40 -23 l46
0 -7 -32 c-11 -57 -42 -132 -84 -203 -39 -65 -41 -69 -23 -82 10 -7 21 -13 24
-13 13 0 40 37 74 103 20 37 39 68 42 70 4 1 15 -20 24 -47 18 -55 27 -62 53
-44 15 12 14 19 -18 93 -23 52 -35 92 -33 115 3 33 6 35 41 38 34 3 37 6 37
33 0 26 -3 29 -30 29 -34 0 -35 8 -24 108 6 49 8 52 35 52 16 0 29 4 29 9 0 5
3 16 6 25 5 14 -4 16 -60 16 -36 0 -66 1 -66 3 0 1 4 16 9 34 8 28 7 31 -16
36 -13 2 -26 -1 -28 -7z"/>
<path d="M7453 2482 l-22 -17 36 -57 c33 -53 37 -56 59 -46 13 6 24 14 24 17
0 10 -59 109 -68 114 -4 3 -17 -2 -29 -11z"/>
<path d="M364 2477 c-3 -8 0 -26 6 -41 13 -36 14 -36 -14 -36 -19 0 -25 -6
-28 -30 -4 -29 -4 -30 39 -30 l43 0 0 -39 c0 -61 -7 -71 -51 -71 -35 0 -39 -3
-39 -24 0 -21 5 -25 37 -28 l37 -3 -3 -50 c-1 -27 -5 -53 -7 -57 -3 -5 -30 -8
-60 -8 -53 0 -54 0 -54 -30 0 -30 1 -30 55 -30 l55 0 -5 -37 c-3 -21 -7 -60
-8 -88 -2 -47 -1 -50 23 -50 27 0 37 24 39 102 2 68 7 73 67 73 53 0 54 0 54
30 0 30 -1 30 -53 30 l-53 0 3 38 c8 80 9 82 58 82 41 0 45 2 45 25 0 23 -4
25 -46 25 -43 0 -46 2 -40 23 3 12 6 36 6 54 0 31 1 32 53 35 48 3 52 5 55 31
3 23 0 27 -22 27 l-26 0 17 36 c15 31 15 36 3 44 -27 17 -38 10 -56 -35 -16
-42 -19 -45 -53 -45 -24 0 -31 3 -22 9 11 7 11 15 0 45 -13 37 -44 50 -55 23z"/>
<path d="M1287 2478 c-16 -12 -16 -17 3 -75 21 -61 22 -61 50 -51 l29 10 -22
61 c-24 65 -33 74 -60 55z"/>
<path d="M1536 2468 c-3 -13 -6 -33 -6 -45 0 -18 -6 -23 -25 -23 -22 0 -24 3
-18 30 5 27 3 30 -20 30 -21 0 -28 -7 -37 -37 -7 -21 -21 -53 -32 -71 -20 -32
-20 -33 -2 -47 26 -19 29 -19 44 10 10 19 21 25 47 25 29 0 33 -3 33 -27 0
-65 -7 -72 -74 -75 -58 -3 -61 -4 -64 -30 -3 -26 -1 -28 36 -28 40 0 40 0 33
-32 -11 -48 -39 -98 -74 -135 -30 -32 -30 -33 -12 -53 l19 -21 37 37 c40 39
73 104 84 167 5 26 12 37 25 37 15 0 17 -9 12 -95 -4 -77 -2 -99 12 -120 26
-40 86 -33 110 14 19 36 30 111 18 111 -6 0 -17 3 -25 6 -11 4 -16 -6 -21 -40
-4 -25 -12 -48 -17 -52 -23 -14 -30 15 -23 94 l7 82 43 0 c42 0 44 1 44 30 l0
30 -60 0 c-59 0 -60 1 -60 28 0 62 8 72 61 72 36 0 49 4 49 14 0 8 3 21 6 30
5 13 -2 16 -45 16 l-51 0 0 45 c0 41 -2 45 -24 45 -16 0 -26 -7 -30 -22z"/>
<path d="M5810 2470 c-36 -9 -65 -22 -64 -29 1 -6 2 -18 3 -27 1 -13 8 -15 31
-10 33 6 35 2 24 -53 -6 -27 -10 -31 -40 -31 -31 0 -34 -3 -34 -30 0 -24 4
-30 20 -30 19 0 20 -4 14 -37 -8 -46 -50 -165 -75 -214 -18 -36 -18 -37 1 -54
11 -10 20 -16 20 -14 1 18 70 199 70 184 0 -11 -7 -76 -15 -145 -19 -164 -20
-160 10 -160 28 0 28 1 46 178 11 102 20 133 32 100 3 -10 7 -10 20 1 23 18
21 30 -9 62 -21 22 -24 32 -19 63 6 31 11 36 36 36 26 0 29 4 29 30 0 25 -4
30 -25 30 -23 0 -25 4 -25 43 0 49 7 62 38 71 23 8 26 14 16 40 -7 19 -19 19
-104 -4z"/>
<path d="M8135 2481 c-11 -5 -43 -12 -70 -15 -64 -9 -76 -16 -69 -43 5 -18 11
-21 40 -16 33 6 34 5 34 -30 0 -58 -7 -67 -55 -67 -37 0 -43 -3 -47 -25 -6
-30 -2 -35 34 -35 15 0 28 -5 28 -11 0 -20 -61 -164 -90 -211 l-29 -47 21 -16
c13 -8 26 -11 31 -6 5 5 24 46 43 92 38 96 40 88 19 -91 -8 -69 -15 -129 -15
-133 0 -5 12 -7 28 -5 l27 3 16 140 c9 77 17 142 18 144 0 2 10 -4 22 -15 20
-18 21 -18 35 0 12 16 11 23 -7 47 -11 16 -24 31 -29 34 -6 4 -10 21 -10 40 0
31 3 34 33 37 27 2 33 8 35 31 3 24 0 27 -29 27 -31 0 -32 1 -25 38 3 20 6 47
6 59 0 16 8 23 29 28 25 5 29 10 22 28 -9 25 -19 29 -46 18z"/>
<path d="M1970 2450 c0 -20 5 -30 16 -30 8 0 22 -17 31 -37 8 -21 22 -46 31
-56 16 -18 15 -20 -7 -38 -12 -10 -41 -24 -62 -30 -43 -13 -44 -14 -26 -47
l13 -23 71 36 70 36 48 -30 c54 -34 90 -40 99 -15 10 27 7 30 -32 42 -20 6
-46 18 -57 26 -18 13 -18 15 14 51 46 53 68 102 55 123 -9 14 -32 17 -138 20
l-126 3 0 -31z m200 -38 c0 -4 -15 -23 -33 -40 -37 -36 -46 -33 -66 21 l-11
27 55 0 c30 0 55 -4 55 -8z"/>
<path d="M4086 2448 c-3 -18 -15 -114 -26 -213 -17 -152 -48 -308 -75 -376 -4
-12 1 -18 21 -23 14 -4 27 -6 29 -4 6 7 36 109 50 169 12 52 55 374 55 412 0
4 36 7 81 7 60 0 80 -3 77 -12 -3 -8 -28 -15 -59 -18 l-54 -5 -7 -60 c-4 -33
-9 -79 -12 -102 l-6 -43 61 0 60 0 -3 -42 c-3 -42 -4 -43 -35 -40 -17 2 -34
-2 -37 -7 -9 -15 30 -51 54 -51 28 0 70 44 70 72 0 59 9 68 65 68 l52 0 7 53
c16 135 6 157 -68 157 -25 0 -36 5 -36 15 0 11 18 15 83 17 81 3 82 3 85 31
l3 27 -215 0 -215 0 -5 -32z m324 -128 c0 -19 -7 -20 -90 -20 -83 0 -90 1 -90
20 0 19 7 20 90 20 83 0 90 -1 90 -20z m-10 -75 c0 -12 -17 -15 -90 -15 -73 0
-90 3 -90 15 0 12 17 15 90 15 73 0 90 -3 90 -15z"/>
<path d="M4660 2455 c0 -24 2 -25 75 -25 60 0 75 -3 75 -15 0 -12 -17 -15 -89
-15 -50 0 -92 -3 -94 -7 -3 -5 -8 -47 -12 -95 l-7 -88 25 0 c28 0 37 20 37 88
l0 42 66 0 67 0 -6 -65 -6 -65 29 0 c29 0 30 2 30 43 0 83 4 87 78 87 l65 0
-7 -65 -7 -65 30 0 29 0 7 81 c5 57 4 84 -4 92 -7 7 -50 14 -96 15 -67 3 -83
7 -78 18 4 10 26 14 84 14 78 0 79 0 79 25 l0 25 -185 0 -185 0 0 -25z"/>
<path d="M5180 2450 l0 -30 66 0 65 0 -3 -27 c-3 -26 -6 -28 -60 -31 l-57 -3
-6 -57 c-3 -31 -8 -72 -11 -89 l-5 -33 71 0 c72 0 79 -5 60 -41 -9 -16 -22
-19 -85 -19 l-75 0 0 -30 c0 -28 1 -29 55 -32 l56 -3 -32 -38 c-17 -21 -28
-41 -24 -45 3 -4 27 -14 53 -23 l47 -16 -25 -13 c-14 -8 -52 -21 -85 -30 -59
-17 -74 -32 -56 -59 12 -18 79 -2 174 41 l67 31 89 -40 89 -41 11 25 c7 14 10
27 8 29 -2 2 -35 18 -75 37 l-72 33 29 34 c15 19 33 45 40 58 9 17 20 22 50
22 38 0 51 11 51 46 0 11 -22 14 -115 14 -63 0 -115 2 -115 5 0 2 5 16 12 30
11 24 14 25 108 25 l97 0 7 38 c9 59 7 117 -6 130 -7 7 -31 12 -55 12 -44 0
-51 8 -37 44 5 12 21 16 74 16 68 0 68 0 72 30 l5 30 -229 0 -228 0 0 -30z
m248 -57 c-2 -23 -8 -29 -35 -31 -24 -2 -33 1 -33 12 0 32 13 46 42 46 26 0
29 -3 26 -27z m-130 -125 c-3 -29 -7 -33 -30 -33 -16 0 -28 3 -28 8 0 4 0 18
0 32 0 21 5 25 31 25 28 0 30 -2 27 -32z m118 10 c-3 -13 -6 -29 -6 -35 0 -8
-13 -13 -30 -13 -28 0 -30 3 -30 35 0 34 2 35 36 35 33 0 36 -2 30 -22z m116
-13 c-4 -31 -8 -35 -33 -35 -26 0 -29 3 -29 35 0 33 2 35 33 35 32 0 33 -1 29
-35z m-102 -213 c0 -17 -74 -83 -88 -77 -7 3 -25 8 -38 11 -29 7 -29 9 -3 45
18 26 26 29 75 29 30 0 54 -4 54 -8z"/>
<path d="M5949 2478 c-6 -22 -36 -334 -33 -340 8 -12 212 -10 219 3 4 5 14 78
23 161 20 184 24 178 -115 178 -51 0 -93 -1 -94 -2z m158 -105 c-4 -27 -9 -76
-13 -110 l-7 -63 -55 0 -55 0 7 73 c4 39 10 89 13 110 l6 37 55 0 55 0 -6 -47z"/>
<path d="M6335 2468 c-2 -7 -6 -47 -10 -88 -3 -41 -9 -92 -12 -112 l-6 -38 54
0 54 -1 -35 -29 c-19 -16 -45 -30 -57 -30 -18 0 -23 -6 -23 -26 l0 -27 78 7
c85 7 85 5 -10 -44 -32 -17 -69 -30 -84 -30 -20 0 -25 -4 -20 -16 3 -9 6 -20
6 -26 0 -8 30 -9 94 -5 l94 6 -5 -42 c-8 -75 -12 -87 -32 -87 -11 0 -21 4 -23
10 -4 13 -48 0 -48 -14 0 -21 45 -56 72 -56 54 0 87 57 88 153 0 42 2 43 77
51 45 4 53 2 58 -14 5 -16 10 -17 30 -8 l24 11 -23 46 c-13 25 -32 56 -42 68
-17 20 -21 21 -38 8 -16 -12 -17 -17 -6 -30 20 -24 3 -32 -80 -39 l-75 -6 50
30 c28 16 69 45 90 64 38 33 39 35 23 52 -17 17 -19 17 -40 -3 -15 -14 -43
-24 -83 -28 l-60 -7 35 31 c34 29 38 30 136 31 l101 0 6 38 c17 107 19 182 7
197 -17 20 -358 23 -365 3z m155 -63 c0 -24 -3 -25 -54 -25 -51 0 -53 1 -48
25 4 23 9 25 53 25 46 0 49 -2 49 -25z m160 0 c0 -24 -3 -25 -55 -25 -47 0
-55 3 -55 18 0 28 9 32 62 32 45 0 48 -2 48 -25z m-172 -97 c-2 -19 -10 -24
-42 -26 -51 -4 -66 2 -59 27 4 18 13 21 55 21 46 0 49 -2 46 -22z m162 -3 c0
-24 -3 -25 -55 -25 -52 0 -55 1 -55 25 0 24 3 25 55 25 52 0 55 -1 55 -25z"/>
<path d="M7599 2473 c0 -5 -8 -81 -18 -171 -9 -89 -15 -165 -12 -167 2 -3 55
-5 118 -5 136 0 125 -14 143 184 16 172 21 166 -127 166 -57 0 -103 -3 -104
-7z m177 -110 c-4 -32 -9 -82 -12 -110 l-6 -53 -65 0 -65 0 5 43 c4 23 9 72
13 110 l6 67 65 0 65 0 -6 -57z"/>
<path d="M8225 2448 c-3 -7 -16 -125 -30 -263 -13 -137 -27 -267 -30 -287 l-5
-38 100 0 c97 0 100 1 101 23 0 12 12 135 27 272 15 138 26 258 24 268 -5 25
-42 37 -118 37 -43 0 -66 -4 -69 -12z m124 -85 c0 -16 -10 -120 -22 -233 l-22
-205 -39 -3 -39 -3 6 48 c3 26 13 132 23 236 l18 187 38 0 c35 0 38 -2 37 -27z"/>
<path d="M7100 2443 c0 -5 -14 -136 -30 -292 -16 -156 -27 -287 -24 -292 3 -5
47 -9 99 -9 l93 0 6 28 c3 15 17 143 32 284 21 208 24 261 14 273 -9 11 -34
15 -101 15 -49 0 -89 -3 -89 -7z m136 -95 c-5 -38 -46 -415 -46 -424 0 -2 -18
-4 -40 -4 -31 0 -40 4 -40 18 0 9 10 115 22 235 l22 217 44 0 43 0 -5 -42z"/>
<path d="M2449 2333 c0 -10 -4 -44 -8 -75 l-7 -58 147 0 147 0 7 60 c10 89 9
90 -151 90 -121 0 -134 -2 -135 -17z m231 -58 c0 -25 -1 -25 -90 -25 -89 0
-90 0 -90 25 0 25 1 25 90 25 89 0 90 0 90 -25z"/>
<path d="M4690 2290 c0 -17 7 -20 45 -20 38 0 45 3 45 20 0 17 -7 20 -45 20
-38 0 -45 -3 -45 -20z"/>
<path d="M4870 2290 c0 -17 7 -20 50 -20 43 0 50 3 50 20 0 17 -7 20 -50 20
-43 0 -50 -3 -50 -20z"/>
<path d="M7397 2283 c-4 -3 -7 -17 -7 -30 0 -18 5 -23 25 -23 14 0 25 -3 25
-7 -1 -28 -29 -255 -31 -257 -2 -1 -14 -9 -26 -17 -21 -14 -21 -15 -3 -39 l18
-24 54 42 c29 22 64 52 77 66 24 25 24 26 6 46 -17 19 -19 19 -38 3 -19 -18
-20 -17 -14 37 19 164 19 180 7 195 -12 15 -81 21 -93 8z"/>
<path d="M1236 2258 c-9 -36 -8 -38 24 -38 29 0 31 -2 26 -32 -3 -18 -10 -76
-16 -128 -11 -92 -12 -96 -51 -136 l-40 -41 20 -24 20 -24 38 38 c39 37 40 37
57 18 10 -10 40 -29 68 -41 60 -26 166 -29 238 -7 38 11 45 17 42 37 -4 33 -7
35 -51 22 -52 -16 -165 -15 -204 2 -18 7 -44 26 -59 42 l-27 29 14 115 c8 63
15 125 15 137 0 32 -27 53 -70 53 -31 0 -39 -4 -44 -22z"/>
<path d="M4680 2220 c0 -17 7 -20 45 -20 38 0 45 3 45 20 0 17 -7 20 -45 20
-38 0 -45 -3 -45 -20z"/>
<path d="M4866 2224 c-3 -9 -6 -18 -6 -20 0 -2 23 -4 50 -4 43 0 50 3 50 20 0
17 -7 20 -44 20 -31 0 -46 -5 -50 -16z"/>
<path d="M2066 2175 c-7 -34 -8 -35 -56 -35 -49 0 -50 -1 -50 -30 0 -29 1 -30
48 -30 l48 0 -4 -35 -4 -35 -64 0 -64 0 0 -30 0 -30 61 0 61 0 -4 -62 c-3 -61
-2 -63 22 -63 14 0 26 6 27 15 1 8 5 36 8 63 l6 47 58 0 c58 0 59 1 63 30 l5
30 -59 0 -58 0 0 35 0 35 50 0 c49 0 50 1 50 30 0 29 -2 30 -45 30 -45 0 -45
0 -45 35 0 30 -3 35 -24 35 -19 0 -25 -7 -30 -35z"/>
<path d="M2365 2148 c-9 -42 -33 -313 -28 -320 6 -12 41 -10 48 2 5 7 29 199
35 278 0 1 68 2 151 2 l151 0 -6 -37 c-3 -21 -8 -65 -12 -98 -4 -33 -11 -68
-16 -77 -10 -20 -38 -24 -55 -7 -12 12 -53 -4 -53 -21 0 -18 54 -50 86 -50 73
0 96 49 110 239 l7 90 -27 11 c-15 5 -108 10 -206 10 -178 0 -180 0 -185 -22z"/>
<path d="M4617 2163 c-4 -3 -7 -15 -7 -25 0 -16 9 -18 85 -18 47 0 85 -4 85
-9 0 -35 -13 -41 -91 -41 -43 0 -79 -1 -79 -2 -7 -34 -26 -235 -23 -240 4 -7
42 -12 44 -5 0 1 6 45 12 97 12 94 12 95 40 98 l29 3 -7 -83 c-4 -46 -8 -87
-9 -93 0 -5 10 -10 24 -10 24 0 25 3 34 93 l9 92 30 0 29 0 -7 -95 c-7 -92 -6
-95 14 -95 12 0 24 7 27 15 5 12 11 10 35 -7 24 -18 34 -20 57 -12 32 11 46
48 55 142 9 86 -7 102 -103 102 -69 0 -76 3 -64 34 5 13 23 16 95 16 88 0 89
0 89 25 l0 25 -198 0 c-109 0 -202 -3 -205 -7z m333 -160 c0 -10 -3 -41 -6
-69 l-6 -51 -38 1 -38 1 5 55 c7 77 8 80 48 80 27 0 35 -4 35 -17z"/>
<path d="M4153 2123 c-37 -39 -38 -44 -21 -61 18 -18 102 66 86 85 -16 19 -29
14 -65 -24z"/>
<path d="M4382 2151 c-11 -7 -8 -19 15 -59 24 -41 32 -49 46 -41 23 13 22 22
-8 69 -27 42 -32 45 -53 31z"/>
<path d="M3654 2122 l-21 -17 36 -47 c20 -26 38 -47 41 -47 3 0 13 6 24 14 18
13 17 16 -19 64 -20 28 -37 51 -38 51 -1 -1 -11 -8 -23 -18z"/>
<path d="M5926 2056 c-4 -20 -25 -71 -46 -113 l-40 -78 21 -17 c12 -10 24 -16
29 -13 22 13 110 229 98 240 -2 2 -15 6 -29 10 -24 6 -27 3 -33 -29z"/>
<path d="M6057 2083 c-12 -3 -16 -11 -12 -22 13 -42 35 -159 35 -190 0 -31 2
-33 27 -26 16 4 30 8 32 10 5 5 -17 152 -30 198 -10 36 -15 39 -52 30z"/>
<path d="M7575 2023 c-15 -36 -43 -85 -61 -109 l-32 -42 23 -22 23 -21 25 33
c14 18 44 71 66 118 38 78 40 86 24 97 -29 22 -38 15 -68 -54z"/>
<path d="M7717 2083 c-13 -3 -16 -10 -12 -21 4 -10 19 -65 34 -123 26 -105 26
-106 51 -97 13 5 26 10 27 12 5 5 -14 88 -38 169 -19 65 -24 70 -62 60z"/>
<path d="M2456 2068 c-3 -7 -7 -39 -10 -70 l-6 -58 109 0 c104 0 109 1 115 23
12 45 7 105 -10 111 -31 12 -194 7 -198 -6z m164 -53 c0 -24 -3 -25 -60 -25
-57 0 -60 1 -60 25 0 24 3 25 60 25 57 0 60 -1 60 -25z"/>
<path d="M3485 2066 c-1 -6 -16 -52 -32 -103 l-29 -92 24 -10 c12 -6 24 -11
26 -11 4 0 51 151 60 191 5 23 2 27 -20 32 -14 2 -27 0 -29 -7z"/>
<path d="M3824 2062 c-9 -5 -7 -26 7 -77 10 -38 18 -79 19 -90 1 -32 14 -45
38 -38 27 7 27 14 1 124 -21 89 -32 103 -65 81z"/>
<path d="M3560 1998 c0 -119 40 -178 119 -178 57 0 87 20 112 74 26 58 25 83
-6 88 -22 5 -26 1 -35 -33 -20 -74 -97 -91 -119 -28 -6 18 -11 54 -11 80 0 48
-1 49 -30 49 -30 0 -30 -1 -30 -52z"/>
<path d="M4257 2016 c-17 -13 -17 -15 4 -50 22 -38 26 -41 48 -27 15 10 9 35
-17 68 -15 19 -19 20 -35 9z"/>
<path d="M4101 1943 c-21 -64 -21 -68 -5 -80 10 -7 21 -10 25 -6 9 9 51 134
47 138 -2 1 -12 5 -24 9 -19 6 -24 -1 -43 -61z"/>
<path d="M4406 1997 c-16 -11 -16 -17 1 -80 16 -59 20 -66 38 -61 30 9 29 8
10 79 -19 73 -25 80 -49 62z"/>
<path d="M6566 1981 c-18 -20 -17 -22 29 -76 50 -58 61 -63 87 -42 15 11 10
19 -41 75 -57 62 -58 62 -75 43z"/>
<path d="M6336 1961 c-15 -16 -43 -37 -62 -47 -36 -19 -40 -29 -24 -54 8 -13
13 -13 42 3 18 10 51 33 73 52 l40 34 -20 21 -21 20 -28 -29z"/>
<path d="M4177 1966 c-7 -19 8 -82 27 -111 36 -55 138 -37 170 30 19 40 20 40
-9 49 -15 4 -24 -2 -37 -24 -13 -23 -24 -30 -47 -30 -35 0 -51 22 -51 69 0 26
-4 31 -24 31 -13 0 -26 -6 -29 -14z"/>
<path d="M692 1848 c-41 -117 -40 -111 -21 -115 11 -3 25 11 42 40 27 45 70
147 65 152 -2 2 -14 6 -28 10 -24 5 -27 1 -58 -87z"/>
<path d="M965 1598 c-16 -34 -50 -91 -77 -126 -46 -60 -48 -65 -31 -77 15 -12
21 -11 41 7 l22 21 0 -21 c0 -20 5 -22 65 -22 50 0 67 4 72 15 5 14 8 14 24
-1 18 -16 20 -16 38 0 19 17 18 19 -19 73 -42 59 -76 146 -64 164 7 11 -12 29
-32 29 -6 0 -23 -28 -39 -62z m62 -108 l22 -50 -55 0 c-55 0 -66 8 -40 29 8 6
19 25 26 41 7 17 15 30 19 30 3 0 16 -23 28 -50z"/>
<path d="M2155 1603 c-22 -213 -42 -290 -96 -374 -34 -54 -135 -151 -180 -174
-32 -17 -35 -31 -15 -58 12 -16 18 -14 75 24 33 22 87 70 120 106 l59 66 32
-99 c17 -54 33 -100 34 -102 2 -1 15 2 29 9 l25 11 -20 72 c-11 39 -31 95 -44
124 l-24 54 19 56 c19 57 34 147 47 275 l6 67 -30 0 c-30 0 -31 -1 -37 -57z"/>
<path d="M2556 1615 c-57 -69 -105 -111 -168 -147 -61 -35 -66 -43 -45 -72 13
-17 15 -17 45 -2 31 16 32 16 32 -4 0 -18 6 -20 66 -20 l67 0 -7 -37 c-3 -21
-6 -48 -6 -60 0 -21 -5 -22 -77 -25 -77 -3 -78 -3 -81 -30 l-3 -28 75 0 c85 0
82 4 70 -83 l-7 -46 -96 -3 -96 -3 -3 -32 -3 -33 221 0 c231 0 225 -1 232 45
3 19 -3 20 -96 23 -96 3 -98 3 -92 25 3 12 6 41 6 65 l0 42 74 0 c58 0 75 3
80 16 15 40 9 44 -70 44 l-77 0 7 38 c3 20 6 47 6 60 0 21 4 22 65 22 53 0 65
3 65 16 0 12 6 15 20 10 11 -3 28 -9 39 -12 14 -4 20 1 25 22 4 16 4 30 -1 31
-5 2 -36 21 -70 43 -78 51 -127 105 -119 133 4 18 -16 46 -35 47 -4 0 -23 -20
-43 -45z m88 -125 l59 -60 -122 0 -122 0 63 60 c35 32 63 59 63 60 0 0 27 -27
59 -60z"/>
<path d="M4254 1630 l-6 -29 -92 -3 -91 -3 -5 -52 -6 -53 33 0 c29 0 33 3 33
25 l0 25 155 0 155 0 0 -25 c0 -21 5 -25 30 -25 29 0 30 2 30 44 0 24 -6 48
-13 54 -7 6 -46 12 -87 14 l-75 3 3 28 c3 24 0 27 -28 27 -26 0 -31 -4 -36
-30z"/>
<path d="M6490 1625 l0 -35 -90 0 c-100 0 -95 4 -104 -78 l-5 -53 32 3 c28 3
32 7 35 36 l3 32 156 0 156 0 -6 -35 c-6 -34 -5 -35 29 -35 l34 0 0 55 c0 50
-2 56 -26 65 -14 6 -55 10 -91 10 l-65 0 4 35 c4 34 3 35 -29 35 -31 0 -33 -2
-33 -35z"/>
<path d="M7606 1615 l-7 -45 -84 0 c-66 0 -84 -3 -89 -16 -15 -40 -9 -44 74
-44 44 0 80 -4 80 -8 0 -35 -121 -169 -175 -194 -29 -13 -30 -16 -9 -46 18
-26 25 -23 100 34 l48 37 26 -32 c26 -31 27 -31 45 -11 17 19 17 21 -9 55
l-27 35 22 40 c13 22 25 40 28 40 3 -1 17 -23 30 -51 12 -28 48 -77 78 -110
l56 -60 23 22 23 22 -57 56 c-31 31 -69 81 -84 111 l-26 55 86 3 c87 3 102 9
102 45 0 15 -11 17 -99 17 l-99 0 6 45 c5 45 4 45 -26 45 -28 0 -30 -3 -36
-45z"/>
<path d="M8197 1653 c-4 -3 -7 -15 -7 -25 0 -16 -9 -18 -90 -18 -106 0 -92 23
-115 -200 -16 -155 -45 -303 -72 -368 -16 -39 -17 -38 18 -47 25 -6 27 -3 49
67 25 81 59 262 60 321 0 37 0 37 40 37 l40 0 -6 -55 -7 -55 112 0 111 0 0 33
c0 59 9 76 44 79 26 2 32 8 34 31 3 25 1 27 -31 27 -31 0 -34 2 -29 25 4 22 1
25 -27 25 -26 0 -31 -4 -31 -25 0 -24 -3 -25 -56 -25 -55 0 -56 1 -50 25 6 23
3 25 -24 25 -25 0 -30 -4 -30 -25 0 -23 -4 -25 -41 -25 -41 0 -41 0 -35 31 3
17 6 35 6 40 0 5 83 9 185 9 l185 0 0 25 c0 24 -2 24 -87 27 -85 3 -88 4 -85
26 3 18 -1 22 -26 22 -16 0 -32 -3 -35 -7z m81 -260 c-3 -26 -7 -28 -55 -31
l-53 -3 0 30 c0 31 0 31 56 31 54 0 55 0 52 -27z"/>
<path d="M210 1639 c0 -21 -81 -194 -96 -206 -11 -8 -13 -19 -9 -33 6 -20 12
-21 52 -15 l46 7 -23 -39 c-13 -21 -36 -55 -51 -75 -16 -20 -29 -46 -29 -57 0
-24 25 -26 105 -7 44 10 50 14 50 36 0 26 -2 27 -49 16 l-29 -7 22 33 c12 18
41 70 64 116 35 70 40 84 27 92 -23 15 -26 13 -49 -25 -12 -21 -28 -35 -40
-35 -17 0 -15 9 25 97 32 72 40 99 31 105 -18 11 -47 10 -47 -3z"/>
<path d="M5861 1605 c-24 -34 -97 -103 -129 -121 -6 -4 23 -44 31 -44 5 0 23
11 41 25 l33 25 27 -34 c14 -19 26 -37 26 -40 0 -3 -39 -17 -87 -32 -49 -15
-89 -28 -91 -29 -1 -1 3 -14 9 -29 14 -31 24 -29 149 20 76 30 87 32 106 19
27 -17 143 -65 159 -65 7 0 17 11 23 25 11 23 9 27 -14 35 -14 6 -28 10 -30
10 -3 0 -28 10 -55 21 l-49 22 55 58 c90 95 74 129 -61 129 -66 0 -75 2 -64
15 15 19 5 35 -24 35 -15 0 -33 -14 -55 -45z m145 -111 l-49 -45 -39 38 c-21
20 -38 41 -38 45 0 4 39 8 88 8 l87 -1 -49 -45z"/>
<path d="M6917 1600 c-15 -42 -22 -50 -42 -50 -15 0 -25 -6 -25 -14 0 -8 -11
-121 -25 -252 -31 -299 -31 -294 -1 -294 18 0 25 7 30 30 5 30 6 30 69 30 l63
0 22 213 c13 116 22 223 22 238 0 31 -17 49 -47 49 -27 0 -27 -2 -7 45 13 31
13 39 2 46 -28 18 -44 8 -61 -41z m59 -132 c-3 -13 -8 -49 -11 -80 l-6 -58
-35 0 c-38 0 -38 -1 -28 99 l7 61 39 0 c35 0 38 -2 34 -22z m-30 -270 c-4 -46
-11 -87 -16 -91 -4 -5 -20 -7 -36 -5 -22 2 -29 8 -27 23 1 11 5 50 8 88 l7 67
35 0 36 0 -7 -82z"/>
<path d="M7129 1623 c-5 -16 -29 -68 -51 -116 -35 -74 -40 -90 -27 -98 26 -17
39 -9 61 36 21 43 24 45 66 45 l44 0 -6 -37 c-3 -21 -13 -105 -21 -188 -20
-192 -27 -215 -66 -215 -22 0 -32 7 -41 25 -8 18 -18 25 -32 23 -33 -5 -31
-42 2 -79 53 -59 135 -41 167 36 7 17 23 126 35 244 l22 215 -22 18 c-13 10
-38 18 -61 18 l-39 0 15 37 c18 43 14 63 -15 63 -13 0 -24 -10 -31 -27z"/>
<path d="M328 1610 c-3 -17 -2 -32 0 -35 3 -3 38 -5 79 -5 40 0 73 -4 73 -8 0
-4 -13 -26 -30 -49 -32 -44 -76 -80 -127 -107 -37 -18 -39 -24 -20 -50 13 -18
15 -18 48 -1 19 10 49 29 68 43 l34 25 37 -43 c33 -39 40 -43 54 -31 23 19 20
29 -19 77 l-35 43 30 47 c38 61 40 101 4 114 -14 6 -63 10 -109 10 l-83 0 -4
-30z"/>
<path d="M706 1618 c-9 -37 -8 -38 45 -38 43 0 50 -2 45 -17 -2 -10 -10 -60
-17 -112 -8 -59 -18 -95 -27 -98 -7 -3 -15 -4 -17 -1 -4 4 9 107 20 156 5 19
1 22 -23 22 l-29 0 -12 -97 c-7 -54 -14 -106 -17 -115 -4 -14 4 -17 48 -20 52
-3 53 -3 50 -33 -5 -37 -1 -35 -64 -56 -32 -10 -54 -24 -56 -34 -6 -30 12 -36
57 -20 24 8 45 15 47 15 6 0 3 -73 -5 -99 -9 -32 -31 -39 -38 -12 -3 14 -13
21 -29 21 -28 0 -31 -18 -9 -60 24 -47 78 -50 114 -7 16 20 44 250 37 307 -3
25 2 98 12 163 20 145 18 151 -65 155 -56 3 -61 1 -67 -20z"/>
<path d="M1840 1408 c-21 -222 -24 -234 -47 -254 -21 -18 -23 -25 -14 -43 7
-11 15 -21 20 -21 11 0 173 98 190 115 12 11 12 19 3 40 l-12 25 -45 -32 c-24
-17 -47 -30 -49 -27 -3 3 4 83 14 179 11 96 20 192 20 213 0 34 -2 37 -28 37
l-28 0 -24 -232z"/>
<path d="M2947 1634 c-4 -4 -7 -18 -7 -31 0 -22 2 -23 90 -23 97 0 102 -3 78
-55 -11 -23 -16 -25 -85 -25 -57 0 -73 -3 -73 -14 0 -8 -11 -119 -25 -247 -14
-127 -22 -235 -19 -240 8 -14 381 -11 390 2 10 17 55 440 49 465 -6 27 -31 34
-117 34 -38 0 -68 2 -68 4 0 2 7 20 15 40 l15 36 101 0 100 0 -3 28 -3 27
-216 3 c-118 1 -218 -1 -222 -4z m113 -204 c0 -14 -28 -284 -36 -337 -4 -37
-8 -43 -30 -43 -30 0 -29 -6 -7 218 l17 172 28 0 c15 0 28 -5 28 -10z m112
-35 c-4 -42 -6 -45 -33 -45 -27 0 -29 3 -29 38 0 46 5 52 39 52 25 0 26 -2 23
-45z m118 38 c0 -5 -9 -84 -20 -178 -11 -93 -20 -178 -20 -187 0 -13 -8 -18
-30 -18 -17 0 -30 5 -30 13 0 6 9 91 20 187 11 96 20 178 20 183 0 4 14 7 30
7 17 0 30 -3 30 -7z m-130 -152 c0 -10 -3 -33 -6 -50 -6 -26 -11 -31 -36 -31
-29 0 -30 2 -24 31 3 17 6 40 6 50 0 14 7 19 30 19 23 0 30 -5 30 -19z m-20
-181 c0 -49 -1 -50 -30 -50 -29 0 -30 1 -30 50 0 49 1 50 30 50 29 0 30 -1 30
-50z"/>
<path d="M4805 1628 c-2 -7 -11 -83 -20 -168 -8 -85 -18 -170 -21 -187 -5 -31
-3 -33 24 -33 l29 0 16 158 c10 86 17 163 17 170 0 8 20 12 65 12 76 0 71 18
50 -165 -20 -176 -20 -175 9 -175 28 0 27 -7 51 219 9 84 11 141 5 151 -12 22
-52 30 -147 30 -50 0 -75 -4 -78 -12z"/>
<path d="M4606 1614 c-14 -38 -7 -44 49 -44 46 0 55 -3 55 -17 -1 -28 -26
-153 -33 -159 -3 -3 -14 17 -24 45 -18 51 -26 58 -50 43 -10 -6 -6 -29 18 -99
l30 -90 -24 -55 c-14 -31 -41 -80 -60 -111 -35 -55 -35 -55 -16 -73 20 -18 21
-18 39 6 11 14 34 51 51 84 34 63 43 62 54 -7 6 -33 10 -37 28 -31 12 4 24 8
26 10 2 2 -7 41 -20 86 l-24 82 26 105 c56 223 52 241 -56 241 -48 0 -64 -4
-69 -16z"/>
<path d="M1974 1568 l-22 -10 29 -56 c16 -32 29 -62 29 -69 0 -19 18 -25 40
-13 26 14 25 23 -10 98 -31 65 -33 67 -66 50z"/>
<path d="M4169 1482 c-19 -25 -54 -61 -79 -80 -53 -40 -54 -41 -35 -66 14 -19
16 -18 55 8 l40 26 30 -32 29 -33 -74 -37 c-41 -20 -88 -41 -105 -46 -26 -9
-29 -14 -21 -34 9 -24 17 -25 64 -13 l29 8 -7 -79 c-4 -44 -9 -87 -11 -96 -5
-17 7 -18 145 -18 l149 0 8 68 c4 37 8 82 8 99 1 18 2 33 2 33 1 0 17 -7 36
-15 34 -14 36 -13 47 12 6 14 10 27 9 28 -2 2 -28 13 -58 26 -30 13 -70 32
-88 42 l-33 19 56 58 c83 88 74 110 -47 110 -73 0 -78 1 -75 21 1 14 -5 24
-19 29 -17 7 -26 0 -55 -38z m133 -103 l-44 -41 -34 33 c-19 18 -34 37 -34 41
0 4 35 8 78 8 l77 -1 -43 -40z m33 -161 c5 -4 -31 -8 -80 -8 -94 0 -96 2 -37
35 l37 22 35 -20 c19 -11 39 -24 45 -29z m-3 -118 l-4 -50 -89 0 c-98 0 -97
-1 -83 69 l7 31 86 0 86 0 -3 -50z"/>
<path d="M4876 1443 c-16 -196 -47 -277 -142 -368 -51 -49 -52 -50 -35 -71
l17 -22 43 35 c23 20 58 59 77 87 l34 51 0 -52 c0 -66 15 -99 50 -112 56 -19
100 32 115 132 7 45 6 47 -18 47 -22 0 -26 -6 -32 -42 -9 -53 -22 -78 -39 -78
-20 0 -27 42 -20 115 6 58 5 65 -11 65 -13 0 -16 6 -12 23 3 12 11 63 17 112
6 50 13 107 15 128 5 35 4 37 -24 37 l-28 0 -7 -87z"/>
<path d="M6526 1488 c-2 -7 -8 -54 -14 -105 -16 -137 -12 -133 -142 -133
l-110 0 0 -30 0 -30 97 0 97 0 -39 -40 c-22 -22 -72 -57 -111 -77 -74 -39 -74
-38 -45 -82 12 -18 107 32 178 94 28 25 55 45 60 45 5 0 43 -31 85 -70 l75
-69 22 23 22 24 -63 55 c-35 30 -74 65 -88 76 l-25 20 93 1 92 0 0 30 0 30
-81 0 c-80 0 -81 1 -75 23 5 20 19 106 31 195 3 30 2 32 -26 32 -16 0 -31 -6
-33 -12z"/>
<path d="M6379 1464 c-11 -13 -6 -21 29 -57 41 -40 41 -41 62 -22 l21 19 -38
38 c-41 42 -54 46 -74 22z"/>
<path d="M6319 1374 c-11 -13 -6 -21 29 -57 41 -40 41 -41 62 -22 l21 19 -38
38 c-41 42 -54 46 -74 22z"/>
<path d="M7065 1354 c-11 -4 14 -156 27 -169 4 -4 16 -4 28 0 20 6 22 12 16
53 -15 109 -30 133 -71 116z"/>
<path d="M952 1342 c-19 -3 -23 -8 -18 -26 3 -12 8 -48 12 -79 5 -45 10 -57
21 -53 8 4 19 6 25 6 6 0 7 22 3 63 -10 82 -15 93 -43 89z"/>
<path d="M1036 1259 c-9 -34 -29 -92 -43 -130 l-27 -69 -67 0 c-61 0 -67 -2
-73 -22 -3 -13 -6 -26 -6 -30 0 -5 61 -8 135 -8 110 0 135 3 135 14 0 8 3 21
6 30 5 13 -2 16 -35 16 l-41 0 22 53 c28 68 63 185 57 190 -2 3 -13 7 -25 11
-18 6 -23 -1 -38 -55z"/>
<path d="M5875 1290 c-7 -30 -7 -30 -76 -30 l-69 0 0 -30 c0 -29 1 -29 61 -32
l60 -3 -31 -47 c-19 -28 -54 -61 -86 -81 l-54 -34 19 -24 19 -23 37 19 c48 26
109 93 137 150 l22 45 68 0 68 0 -6 -57 c-10 -94 -52 -133 -88 -82 -11 16 -21
20 -40 15 -32 -8 -32 -17 -1 -54 31 -37 75 -47 121 -27 44 18 60 55 69 162 7
75 6 82 -13 92 -11 6 -52 11 -91 11 l-70 0 6 30 c5 28 4 30 -25 30 -26 0 -31
-5 -37 -30z"/>
<path d="M295 1295 c-3 -8 -7 -22 -9 -29 -4 -11 6 -16 42 -18 35 -2 47 -7 45
-18 -1 -8 -4 -50 -8 -92 l-7 -77 -56 -3 c-54 -3 -57 -5 -60 -30 l-3 -28 146 0
146 0 -3 28 c-3 25 -6 27 -57 30 l-53 3 7 77 c9 112 9 112 60 112 35 0 44 4
48 22 3 12 4 25 1 30 -3 4 -57 8 -120 8 -93 0 -116 -3 -119 -15z"/>
<path d="M867 1283 c-15 -4 -17 -11 -11 -36 4 -18 9 -54 13 -82 5 -41 9 -50
26 -50 17 0 20 6 19 50 0 60 -12 125 -22 124 -4 -1 -15 -3 -25 -6z"/>
<path d="M8050 1230 c0 -19 5 -30 14 -30 7 0 22 -12 31 -27 10 -16 28 -40 42
-54 l24 -26 -50 -22 c-28 -12 -64 -24 -81 -28 -25 -5 -29 -9 -24 -27 4 -11 8
-23 10 -25 7 -8 73 11 128 37 l60 28 60 -33 c72 -38 94 -41 105 -11 7 20 2 25
-46 44 -30 13 -58 25 -61 28 -3 4 8 21 25 39 63 67 81 118 47 131 -9 3 -76 6
-150 6 l-134 0 0 -30z m200 -65 c-19 -19 -39 -35 -46 -35 -12 0 -54 50 -54 64
0 3 30 6 67 6 l67 0 -34 -35z"/>
<path d="M7568 1229 c-16 -9 -15 -14 15 -54 35 -48 48 -53 67 -30 11 13 8 22
-17 52 -34 42 -42 46 -65 32z"/>
<path d="M7390 1163 c-6 -27 -20 -67 -30 -89 l-18 -42 25 -11 c13 -6 25 -11
27 -11 5 0 43 107 54 152 9 33 8 37 -12 42 -33 9 -33 9 -46 -41z"/>
<path d="M7754 1200 l-21 -8 22 -86 c12 -47 24 -89 28 -92 3 -3 15 -3 27 1 19
6 21 12 15 43 -7 45 -35 135 -44 143 -3 4 -15 3 -27 -1z"/>
<path d="M7480 1135 c0 -105 39 -155 121 -155 59 0 103 34 121 92 10 33 9 41
-3 49 -23 14 -37 10 -44 -13 -11 -37 -46 -68 -75 -68 -40 0 -60 30 -65 91 -3
49 -5 54 -29 57 -25 3 -26 2 -26 -53z"/>
<path d="M3479 1154 c-8 -10 -10 -20 -3 -29 5 -7 29 -43 54 -79 24 -36 47 -66
50 -66 3 0 17 10 32 23 l28 22 -61 73 c-63 75 -77 83 -100 56z"/>
<path d="M5159 1154 c-8 -10 -10 -20 -3 -29 5 -7 29 -43 54 -79 24 -36 47 -66
50 -66 3 0 17 10 32 23 l28 22 -61 73 c-63 75 -77 83 -100 56z"/>
<path d="M165 1124 c-80 -29 -90 -35 -87 -55 1 -13 5 -25 8 -28 7 -7 92 17
146 42 45 21 46 23 35 48 l-12 26 -90 -33z"/>
<path d="M1252 1008 c-41 -117 -40 -111 -21 -115 11 -3 25 11 42 40 27 45 70
147 65 152 -2 2 -14 6 -28 10 -24 5 -27 1 -58 -87z"/>
<path d="M175 753 c-9 -100 -13 -113 -34 -113 -11 0 -21 -9 -25 -22 -9 -35 -8
-38 17 -38 l23 0 -12 -112 c-7 -62 -13 -121 -13 -131 -1 -9 -12 -23 -26 -29
-25 -11 -31 -32 -16 -56 6 -10 23 -5 74 22 61 31 67 33 67 15 0 -18 9 -19 155
-19 l155 0 0 30 c0 20 -5 30 -15 30 -19 0 -19 12 0 174 9 71 13 137 10 147 -5
14 -16 19 -46 19 -39 0 -44 5 -33 34 5 12 21 16 65 16 56 0 59 1 59 25 0 24
-3 25 -61 25 -60 0 -61 0 -55 25 6 23 3 25 -24 25 -25 0 -30 -4 -30 -25 0 -24
-3 -25 -60 -25 -57 0 -60 -1 -60 -25 0 -24 3 -25 56 -25 52 0 55 -1 52 -22 -2
-19 -11 -24 -48 -28 l-45 -5 -17 -155 c-9 -85 -17 -161 -17 -167 -2 -21 -39
-15 -46 8 -6 17 -9 18 -22 7 -15 -12 -16 -8 -10 37 4 28 9 80 13 117 6 58 9
67 28 70 15 2 22 11 24 31 3 22 -1 27 -18 27 -20 0 -21 4 -15 58 3 31 8 72 11
90 5 30 3 32 -25 32 -29 0 -29 -1 -36 -67z m305 -153 c0 -18 -7 -20 -65 -20
-58 0 -65 2 -65 20 0 18 7 20 65 20 58 0 65 -2 65 -20z m-7 -80 c-5 -17 -14
-20 -69 -20 -57 0 -64 2 -64 20 0 18 7 20 69 20 64 0 69 -1 64 -20z m-10 -90
c-5 -17 -14 -20 -69 -20 -57 0 -64 2 -64 20 0 18 7 20 69 20 64 0 69 -1 64
-20z m-5 -82 c-5 -15 -138 -24 -138 -10 0 18 15 22 78 22 46 0 63 -3 60 -12z"/>
<path d="M756 804 c-3 -9 -6 -30 -6 -47 0 -59 -10 -77 -41 -77 -16 0 -29 -3
-29 -7 0 -5 -3 -18 -6 -30 -6 -21 -3 -23 28 -23 l34 0 -7 -57 c-4 -32 -8 -66
-8 -75 -1 -11 -15 -21 -41 -29 -31 -10 -40 -17 -40 -35 0 -30 12 -36 45 -24
l27 10 -7 -82 c-3 -46 -9 -91 -11 -100 -6 -22 -24 -24 -24 -3 0 16 -35 21 -44
6 -3 -5 -1 -23 5 -40 19 -53 88 -55 107 -3 9 22 32 191 32 232 0 6 16 18 35
26 30 12 33 17 26 36 -6 15 -16 22 -30 21 -23 -3 -24 2 -15 71 6 43 9 46 35
46 26 0 29 4 29 30 0 26 -4 30 -26 30 l-25 0 7 70 c7 70 7 70 -19 70 -14 0
-28 -7 -31 -16z"/>
<path d="M1458 773 l-3 -48 -97 -3 -98 -3 0 -29 0 -30 88 0 c49 0 91 -2 93 -4
2 -2 2 -27 1 -55 l-4 -51 -83 0 c-77 0 -83 -1 -89 -22 -3 -13 -6 -26 -6 -30 0
-5 87 -8 194 -8 168 0 195 2 200 16 15 40 9 44 -74 44 -89 0 -89 1 -74 79 l7
31 93 0 94 0 0 30 0 30 -91 0 -91 0 4 50 3 50 -32 0 c-31 0 -32 -1 -35 -47z"/>
<path d="M890 788 c-1 -7 -16 -152 -34 -323 -19 -171 -32 -313 -29 -317 9 -17
45 -7 50 12 5 19 7 20 23 5 17 -15 21 -14 57 19 l40 35 33 -34 c40 -41 47 -43
61 -12 9 20 6 28 -25 59 l-36 36 30 58 c39 80 63 171 49 195 -8 16 -22 19
-100 19 l-91 0 5 33 c3 17 9 62 13 100 l6 67 67 0 67 0 -4 -42 c-2 -24 -9 -49
-14 -55 -16 -20 -39 -15 -45 8 -9 31 -49 22 -45 -11 2 -27 44 -70 67 -70 26 0
63 22 74 44 22 40 31 138 15 164 -14 21 -21 22 -124 22 -81 0 -110 -3 -110
-12z m41 -345 c0 -21 8 -68 18 -105 l17 -68 -38 -37 c-45 -44 -43 -50 -26 125
11 117 27 164 29 85z m129 34 c0 -8 -39 -118 -46 -128 -11 -18 -21 9 -29 74
l-7 57 41 0 c22 0 41 -2 41 -3z"/>
<path d="M1846 768 c-3 -18 -15 -114 -26 -213 -17 -152 -48 -308 -75 -376 -4
-12 1 -18 21 -23 14 -4 27 -6 29 -4 6 7 36 109 50 169 12 52 55 374 55 412 0
4 36 7 81 7 60 0 80 -3 77 -12 -3 -8 -28 -15 -59 -18 l-54 -5 -7 -60 c-4 -33
-9 -79 -12 -102 l-6 -43 61 0 60 0 -3 -42 c-3 -42 -4 -43 -35 -40 -17 2 -34
-2 -37 -7 -9 -15 30 -51 54 -51 28 0 70 44 70 72 0 59 9 68 65 68 l52 0 7 53
c16 135 6 157 -68 157 -25 0 -36 5 -36 15 0 11 18 15 83 17 81 3 82 3 85 31
l3 27 -215 0 -215 0 -5 -32z m324 -128 c0 -19 -7 -20 -90 -20 -83 0 -90 1 -90
20 0 19 7 20 90 20 83 0 90 -1 90 -20z m-10 -75 c0 -12 -17 -15 -90 -15 -73 0
-90 3 -90 15 0 12 17 15 90 15 73 0 90 -3 90 -15z"/>
<path d="M1913 443 c-37 -39 -38 -44 -21 -61 18 -18 102 66 86 85 -16 19 -29
14 -65 -24z"/>
<path d="M2142 471 c-11 -7 -8 -19 15 -59 24 -41 32 -49 46 -41 23 13 22 22
-8 69 -27 42 -32 45 -53 31z"/>
<path d="M1414 442 l-21 -17 36 -47 c20 -26 38 -47 41 -47 3 0 13 6 24 14 18
13 17 16 -19 64 -20 28 -37 51 -38 51 -1 -1 -11 -8 -23 -18z"/>
<path d="M1245 386 c-1 -6 -16 -52 -32 -103 l-29 -92 24 -10 c12 -6 24 -11 26
-11 4 0 51 151 60 191 5 23 2 27 -20 32 -14 2 -27 0 -29 -7z"/>
<path d="M1584 382 c-9 -5 -7 -26 7 -77 10 -38 18 -79 19 -90 1 -32 14 -45 38
-38 27 7 27 14 1 124 -21 89 -32 103 -65 81z"/>
<path d="M1320 318 c0 -119 40 -178 119 -178 57 0 87 20 112 74 26 58 25 83
-6 88 -22 5 -26 1 -35 -33 -20 -74 -97 -91 -119 -28 -6 18 -11 54 -11 80 0 48
-1 49 -30 49 -30 0 -30 -1 -30 -52z"/>
<path d="M2017 336 c-17 -13 -17 -15 4 -50 22 -38 26 -41 48 -27 15 10 9 35
-17 68 -15 19 -19 20 -35 9z"/>
<path d="M2395 331 c-36 -15 -58 -49 -63 -100 -4 -43 -1 -53 21 -75 74 -74
191 19 163 128 -10 42 -73 66 -121 47z m69 -47 c37 -36 5 -114 -47 -114 -32 0
-47 18 -47 55 0 58 59 95 94 59z"/>
<path d="M1861 263 c-21 -64 -21 -68 -5 -80 10 -7 21 -10 25 -6 9 9 51 134 47
138 -2 1 -12 5 -24 9 -19 6 -24 -1 -43 -61z"/>
<path d="M2166 317 c-16 -11 -16 -17 1 -80 16 -59 20 -66 38 -61 30 9 29 8 10
79 -19 73 -25 80 -49 62z"/>
<path d="M1937 286 c-7 -19 8 -82 27 -111 36 -55 138 -37 170 30 19 40 20 40
-9 49 -15 4 -24 -2 -37 -24 -13 -23 -24 -30 -47 -30 -35 0 -51 22 -51 69 0 26
-4 31 -24 31 -13 0 -26 -6 -29 -14z"/>
<path d="M270 224 c-25 -20 -46 -37 -48 -39 -2 -2 1 -13 8 -24 l11 -22 32 22
c63 44 77 60 66 80 -13 25 -16 24 -69 -17z"/>
<path d="M412 248 c-18 -18 -15 -27 19 -56 50 -43 59 -46 78 -27 15 15 13 19
-29 55 -51 44 -51 45 -68 28z"/>
</g>
</svg>
