<?xml version="1.0" standalone="no"?>
<!DOCTYPE svg PUBLIC "-//W3C//DTD SVG 20010904//EN"
 "http://www.w3.org/TR/2001/REC-SVG-20010904/DTD/svg10.dtd">
<svg version="1.0" xmlns="http://www.w3.org/2000/svg"
 width="852.000000pt" height="352.000000pt" viewBox="0 0 852.000000 352.000000"
 preserveAspectRatio="xMidYMid meet">

<g transform="translate(0.000000,352.000000) scale(0.100000,-0.100000)"
fill="#000000" stroke="none">
<path d="M417 3338 c-4 -24 -9 -74 -12 -113 -10 -106 -9 -105 -65 -105 -34 0
-50 -4 -54 -16 -14 -38 -7 -44 49 -44 54 0 54 0 50 -27 -12 -71 -34 -316 -29
-324 7 -12 41 -12 48 0 3 5 13 76 22 158 22 209 15 193 74 193 49 0 50 1 50
30 0 29 -2 30 -43 30 -24 0 -46 2 -49 5 -2 3 -1 33 3 67 4 35 10 91 13 126 l7
62 -29 0 c-27 0 -30 -3 -35 -42z"/>
<path d="M1859 3328 c-13 -28 -36 -69 -51 -90 -16 -21 -28 -47 -28 -59 0 -17
5 -20 28 -15 71 13 162 17 162 7 0 -17 40 -13 46 4 6 16 -24 122 -37 130 -4 3
-15 2 -24 -1 -13 -5 -15 -14 -11 -39 6 -28 3 -33 -16 -39 -13 -3 -33 -6 -45
-6 -22 0 -21 2 14 71 31 59 35 72 23 79 -27 17 -36 11 -61 -42z"/>
<path d="M2060 3363 c0 -10 -5 -58 -11 -108 -5 -49 -7 -105 -4 -123 8 -44 41
-72 84 -72 67 0 102 33 117 109 6 28 4 31 -18 31 -20 0 -28 -8 -41 -41 -15
-37 -19 -40 -49 -37 -32 3 -33 5 -36 50 -3 41 0 47 20 53 28 8 128 67 128 75
0 3 -6 15 -14 25 -13 18 -15 17 -63 -13 -27 -18 -53 -32 -58 -32 -4 0 -5 23
-1 50 l7 50 -31 0 c-22 0 -30 -5 -30 -17z"/>
<path d="M2468 3358 c-3 -20 -10 -23 -50 -26 -43 -3 -48 -5 -48 -28 0 -22 4
-24 46 -24 41 0 45 -2 42 -22 -2 -19 -10 -24 -45 -26 -38 -3 -43 -6 -43 -28 0
-21 5 -24 33 -24 40 0 46 -5 40 -31 -4 -15 -14 -19 -48 -19 -36 0 -44 -4 -49
-22 -9 -36 -8 -38 26 -38 l32 0 -41 -42 c-34 -35 -40 -46 -32 -60 6 -10 17
-18 25 -18 12 0 14 -7 10 -27 -2 -16 -8 -58 -11 -95 -7 -67 -6 -68 18 -68 28
0 37 16 37 63 0 18 3 49 6 70 7 37 7 37 53 37 l47 0 -11 -111 c-9 -90 -8 -112
2 -116 38 -15 46 8 59 150 l6 77 54 0 54 0 -6 -57 c-8 -63 -20 -79 -44 -59
-18 15 -50 10 -50 -9 0 -18 48 -55 71 -55 10 0 30 10 44 23 22 18 27 34 34 97
4 41 6 81 3 88 -7 20 -47 32 -103 32 -46 0 -49 2 -49 26 0 22 -4 25 -27 22
-20 -2 -29 -9 -31 -25 -3 -21 -9 -23 -58 -23 l-55 0 32 40 c30 38 35 40 86 40
52 0 53 0 53 30 0 29 -2 30 -44 30 -41 0 -43 1 -38 25 4 22 10 25 43 25 35 0
39 3 39 25 0 22 -4 25 -35 25 -31 0 -35 3 -35 25 0 23 4 25 45 25 41 0 45 2
45 25 0 23 -4 25 -40 25 -36 0 -40 3 -40 25 0 34 -47 37 -52 3z"/>
<path d="M3200 3346 c0 -18 -3 -48 -6 -65 -6 -26 -11 -31 -35 -31 -26 0 -29
-4 -29 -30 0 -25 4 -30 25 -30 20 0 25 -5 25 -24 0 -73 -62 -306 -81 -306 -5
0 -9 7 -9 15 0 9 -6 12 -16 8 -13 -5 -14 0 -10 28 3 19 13 99 21 179 8 80 17
162 20 182 8 58 -18 78 -100 78 -36 0 -65 -1 -65 -2 0 -2 -13 -120 -29 -262
-21 -200 -31 -261 -43 -270 -15 -11 -14 -67 1 -66 3 1 51 16 106 35 55 18 101
32 103 30 2 -2 -5 -17 -17 -33 -26 -38 -26 -48 1 -63 26 -14 34 -5 84 98 37
76 77 219 89 316 7 54 9 57 34 57 l27 0 -18 -177 c-9 -98 -21 -194 -25 -213
-9 -40 -33 -46 -48 -12 -6 13 -18 22 -32 22 -27 0 -28 -8 -9 -54 26 -63 104
-65 133 -4 12 23 51 343 55 441 2 45 -11 57 -65 57 l-39 0 7 65 7 65 -31 0
c-29 0 -31 -3 -31 -34z m-154 -97 c-3 -17 -6 -40 -6 -50 0 -14 -7 -19 -30 -19
-29 0 -30 2 -30 43 0 52 4 57 43 57 28 0 29 -2 23 -31z m-16 -153 c0 -53 -9
-66 -42 -66 -30 0 -30 1 -24 38 3 20 6 43 6 50 0 7 13 12 30 12 27 0 30 -3 30
-34z m-17 -173 c-6 -67 -8 -69 -47 -79 -28 -7 -29 -6 -23 26 4 18 7 50 7 71 0
38 1 39 34 39 l35 0 -6 -57z"/>
<path d="M3528 3348 c-2 -25 -8 -34 -24 -36 -25 -4 -39 -41 -20 -48 7 -3 40
-4 72 -2 52 3 59 6 62 25 2 16 -3 22 -20 25 -19 2 -22 8 -20 36 3 28 1 32 -22
32 -21 0 -25 -5 -28 -32z"/>
<path d="M3707 3373 c-3 -5 -8 -46 -11 -93 -25 -299 -51 -416 -111 -495 l-33
-43 23 -22 23 -21 20 28 c64 92 95 201 117 416 8 84 17 171 21 195 5 40 4 42
-20 42 -14 0 -27 -3 -29 -7z"/>
<path d="M3830 3345 c0 -30 -3 -35 -24 -35 -15 0 -26 -7 -29 -21 -7 -26 6 -31
84 -27 58 3 64 5 67 26 3 18 -1 22 -24 22 -25 0 -26 2 -21 35 5 33 4 35 -24
35 -27 0 -29 -3 -29 -35z"/>
<path d="M4073 3362 l-22 -17 36 -57 c33 -53 37 -56 59 -46 13 6 24 14 24 17
0 10 -59 109 -68 114 -4 3 -17 -2 -29 -11z"/>
<path d="M4660 3348 c0 -18 -3 -50 -6 -70 -6 -33 -10 -38 -34 -38 -27 0 -40
-15 -40 -46 0 -8 7 -14 16 -14 23 0 13 -56 -34 -196 -35 -102 -37 -112 -21
-122 14 -9 19 -4 32 31 9 23 24 70 33 105 10 34 19 61 21 59 1 -2 -6 -80 -16
-173 -10 -93 -15 -173 -11 -177 4 -5 16 -7 26 -5 19 3 24 27 49 271 6 66 8 68
25 52 17 -16 19 -15 29 3 9 17 6 26 -14 50 -35 42 -32 102 5 102 12 0 19 10
22 30 4 26 1 30 -18 30 -20 0 -23 4 -19 28 18 114 18 112 -15 112 -27 0 -30
-3 -30 -32z"/>
<path d="M4886 3355 c-6 -23 -11 -25 -60 -25 -47 0 -54 -3 -59 -22 -9 -32 -1
-38 52 -38 46 0 48 -1 43 -25 -4 -22 -9 -25 -46 -25 l-42 0 -22 -207 c-12
-115 -22 -218 -22 -230 0 -15 -7 -23 -22 -25 -17 -2 -23 -10 -23 -28 l0 -25
155 0 155 0 3 27 c2 19 -2 27 -15 30 -18 3 -18 9 4 213 l23 210 -21 18 c-12 9
-32 17 -45 17 -19 0 -24 5 -24 25 0 22 4 24 58 27 54 3 57 4 60 31 3 26 2 27
-48 27 -51 0 -52 1 -46 25 6 22 3 25 -23 25 -22 0 -30 -5 -35 -25z m64 -209
c0 -39 -12 -46 -71 -46 -59 0 -59 0 -59 30 l0 30 65 0 c49 0 65 -3 65 -14z
m-14 -112 c-3 -9 -6 -22 -6 -30 0 -10 -15 -14 -60 -14 l-60 0 0 30 0 30 66 0
c56 0 65 -2 60 -16z m-16 -129 l0 -35 -63 0 -63 0 4 35 4 35 59 0 59 0 0 -35z
m-10 -115 l0 -30 -66 0 c-56 0 -65 2 -60 16 3 9 6 22 6 30 0 10 15 14 60 14
l60 0 0 -30z"/>
<path d="M5226 3358 c-3 -13 -6 -36 -6 -53 0 -41 -10 -75 -22 -75 -6 0 -7 16
-3 39 5 30 3 40 -10 45 -24 9 -35 -1 -35 -30 0 -14 -7 -57 -16 -96 -14 -59
-14 -72 -3 -79 22 -14 26 -11 35 23 6 18 16 34 25 36 13 2 13 -10 4 -95 l-10
-97 -38 -15 c-34 -13 -38 -17 -32 -40 9 -34 8 -33 40 -21 27 10 27 10 22 -22
-3 -18 -9 -64 -13 -101 l-6 -69 28 4 29 3 12 105 c6 58 12 108 12 111 1 4 15
12 31 19 34 14 33 11 20 44 -6 17 -14 24 -25 20 -17 -7 -19 16 -9 104 5 40 11
52 24 52 18 0 30 19 30 46 0 8 -9 14 -20 14 -20 0 -20 4 -14 75 l7 75 -25 0
c-18 0 -27 -7 -32 -22z"/>
<path d="M5356 3309 c-9 -39 -24 -90 -35 -114 -19 -43 -19 -44 0 -61 19 -17
20 -16 41 34 22 52 38 67 38 36 0 -30 -69 -223 -94 -262 -24 -39 -24 -40 -6
-57 17 -16 19 -15 34 7 32 49 76 159 97 242 12 47 25 86 30 86 13 0 11 -25
-10 -120 -32 -144 -80 -252 -148 -334 -22 -27 -23 -30 -7 -47 20 -22 27 -19
63 31 l28 39 16 -35 c31 -64 103 -65 132 -2 8 19 26 131 39 258 30 281 34 270
-90 270 -71 0 -85 3 -81 14 3 8 9 31 13 50 6 34 4 36 -19 36 -23 0 -26 -6 -41
-71z m184 -101 c0 -46 -43 -407 -50 -425 -13 -30 -38 -29 -50 2 -5 14 -16 25
-25 25 -13 0 -13 5 3 38 31 60 59 150 83 265 12 59 26 107 31 107 4 0 8 -6 8
-12z"/>
<path d="M6570 3353 c0 -16 -3 -45 -6 -65 -7 -38 -7 -38 -54 -38 -47 0 -47 0
-53 -37 -3 -21 -9 -73 -13 -115 -4 -43 -10 -78 -14 -78 -3 0 -17 11 -29 24
-30 32 -26 90 7 94 17 3 22 10 22 33 0 19 -5 29 -15 29 -11 0 -15 12 -15 44 0
46 18 76 46 76 17 0 18 11 1 34 -12 17 -16 17 -82 0 -83 -21 -89 -25 -80 -54
6 -18 12 -21 37 -16 28 5 30 4 24 -17 -3 -12 -6 -32 -6 -44 0 -19 -5 -23 -34
-23 -22 0 -36 -6 -40 -16 -12 -31 -6 -44 19 -44 24 0 26 -2 19 -37 -8 -46 -50
-165 -75 -215 -16 -32 -17 -37 -3 -49 22 -18 31 -4 64 97 34 103 36 93 15 -71
-20 -158 -19 -165 4 -165 11 0 23 4 26 10 5 8 34 241 35 279 0 11 3 11 15 1
12 -10 18 -10 30 0 13 11 15 7 15 -29 l0 -41 46 0 47 0 -7 -87 c-4 -49 -8 -97
-9 -108 -2 -15 4 -20 23 -20 27 0 33 18 45 147 l6 67 52 3 52 3 15 142 c9 78
12 151 8 163 -6 16 -16 20 -49 20 l-42 0 7 65 7 65 -31 0 c-26 0 -30 -4 -30
-27z m-24 -235 c-11 -122 -16 -138 -38 -138 -20 0 -20 4 -14 83 10 112 14 127
38 127 19 0 20 -4 14 -72z m108 30 c-3 -24 -8 -70 -12 -103 -6 -53 -10 -60
-31 -63 -23 -4 -24 -3 -17 60 15 143 16 148 42 148 22 0 23 -3 18 -42z"/>
<path d="M8115 3330 l-16 -49 -67 -3 c-65 -3 -67 -4 -70 -30 -3 -28 -3 -28 53
-28 l56 0 -27 -50 c-15 -27 -52 -80 -82 -116 l-54 -66 21 -21 c20 -20 21 -20
41 -2 25 22 24 28 6 -135 -8 -63 -10 -119 -6 -123 4 -5 18 -7 31 -5 23 3 24 7
44 193 19 179 22 194 55 257 l35 68 133 0 132 0 0 30 0 30 -120 0 c-66 0 -120
2 -120 4 0 2 7 21 16 41 13 31 13 39 2 46 -30 20 -46 9 -63 -41z"/>
<path d="M1278 3358 l-27 -9 25 -52 c13 -29 24 -58 24 -64 0 -7 2 -13 5 -13
10 0 55 24 55 29 -1 3 -13 31 -28 62 -26 54 -28 56 -54 47z"/>
<path d="M2625 3358 c-2 -7 -9 -67 -15 -133 -6 -66 -14 -141 -17 -167 l-6 -48
32 0 c24 0 31 4 31 20 0 17 7 20 39 20 45 0 86 28 95 64 3 14 -1 43 -10 65
-15 38 -15 40 16 94 l31 56 -20 20 c-18 18 -34 21 -96 21 -52 0 -77 -4 -80
-12z m101 -97 c-23 -44 -24 -50 -10 -70 23 -33 14 -74 -18 -85 -15 -5 -30 -7
-34 -3 -3 3 -3 51 1 106 l7 101 39 0 39 0 -24 -49z"/>
<path d="M4219 3353 c0 -5 -8 -81 -18 -171 -9 -89 -15 -165 -12 -167 2 -3 55
-5 118 -5 136 0 125 -14 143 184 16 172 21 166 -127 166 -57 0 -103 -3 -104
-7z m177 -110 c-4 -32 -9 -82 -12 -110 l-6 -53 -65 0 -65 0 5 43 c4 23 9 72
13 110 l6 67 65 0 65 0 -6 -57z"/>
<path d="M5805 3348 c-4 -13 -25 -207 -25 -233 0 -13 25 -15 148 -15 l148 0
12 113 c16 148 18 147 -154 147 -91 0 -126 -3 -129 -12z m227 -93 c-1 -22 -5
-52 -8 -67 l-6 -28 -88 0 -89 0 5 38 c3 20 7 52 10 70 l5 33 87 -3 87 -3 -3
-40z"/>
<path d="M7400 3325 l0 -35 95 0 c52 0 95 -2 95 -5 0 -3 -7 -21 -14 -40 l-15
-35 -75 0 c-42 0 -76 -1 -76 -3 0 -1 -11 -105 -25 -231 -32 -291 -32 -278 3
-274 l27 3 22 200 c12 110 22 212 22 228 1 23 5 27 31 27 36 0 36 12 10 -225
-25 -228 -25 -215 5 -215 14 0 25 3 26 8 0 4 10 102 22 217 l22 210 28 3 c25
3 27 1 27 -35 0 -21 -9 -117 -20 -213 -11 -96 -20 -178 -20 -182 0 -5 11 -8
25 -8 30 0 30 -2 50 205 24 244 22 235 56 235 21 0 29 -5 29 -17 -1 -43 -39
-364 -45 -373 -3 -5 -13 -10 -21 -10 -14 0 -20 -45 -6 -53 19 -10 73 15 82 39
6 14 20 117 31 230 17 161 19 207 9 219 -8 10 -37 15 -95 17 l-83 3 15 37 15
37 96 3 97 3 3 33 3 32 -225 0 -226 0 0 -35z"/>
<path d="M722 3323 l3 -28 134 -5 135 -5 -67 -59 c-53 -46 -67 -64 -67 -86 0
-58 -4 -60 -111 -60 l-99 0 0 -30 0 -30 100 0 101 0 -5 -32 c-3 -18 -8 -67
-11 -108 -4 -41 -11 -83 -16 -93 -14 -25 -51 -18 -64 11 -7 16 -17 22 -35 20
-35 -4 -37 -38 -6 -76 67 -78 166 -31 180 86 3 26 8 80 12 120 l6 72 93 0 c75
0 94 3 99 16 16 41 10 44 -89 44 l-95 0 0 27 c0 20 20 47 80 109 124 126 117
134 -113 134 l-168 0 3 -27z"/>
<path d="M126 3318 c-6 -27 -56 -515 -56 -540 0 -13 8 -18 25 -18 20 0 27 6
32 30 5 28 8 30 53 30 41 0 49 3 53 23 3 12 15 122 28 244 27 261 29 253 -67
253 -58 0 -64 -2 -68 -22z m94 -65 c0 -26 -23 -238 -35 -330 -5 -34 -10 -43
-26 -43 -23 0 -24 4 -4 191 22 205 23 209 45 209 15 0 20 -7 20 -27z"/>
<path d="M1385 3320 c-10 -32 3 -40 65 -40 l60 0 -21 -52 c-26 -66 -78 -151
-124 -203 l-35 -40 6 71 c8 86 -4 104 -72 104 -42 0 -44 -1 -44 -30 0 -27 3
-30 30 -30 35 0 34 9 16 -140 l-15 -115 -45 -42 c-44 -42 -44 -43 -26 -65 l19
-23 39 39 40 38 39 -30 c21 -16 56 -35 77 -42 47 -15 140 -15 193 -1 58 17 65
24 54 54 -10 26 -11 26 -45 12 -41 -17 -152 -20 -193 -4 -15 5 -42 24 -60 41
-30 29 -32 35 -26 77 7 54 11 61 24 41 7 -12 16 -8 47 25 20 22 48 54 60 70
l23 30 -6 -85 c-3 -47 -9 -106 -12 -132 l-6 -48 32 0 c18 0 31 5 31 13 0 50
33 390 42 424 l10 42 62 3 c58 3 61 4 64 31 l3 27 -150 0 c-141 0 -150 -1
-156 -20z"/>
<path d="M3470 3228 c1 -50 14 -88 31 -88 20 0 25 31 13 78 -7 23 -44 32 -44
10z"/>
<path d="M3547 3180 l-17 -60 -39 0 c-33 0 -39 -3 -43 -25 -4 -21 -1 -25 18
-25 22 0 24 -4 24 -44 0 -39 -3 -45 -22 -48 -29 -4 -40 -58 -12 -58 23 0 13
-46 -26 -125 -27 -55 -28 -61 -13 -72 9 -7 20 -13 25 -13 12 0 57 95 72 152
10 42 18 54 37 58 33 8 41 60 10 60 -17 0 -21 6 -21 29 0 45 10 61 36 61 19 0
24 5 24 25 0 15 -6 25 -14 25 -12 0 -12 7 0 47 18 61 18 73 -4 73 -14 0 -23
-15 -35 -60z"/>
<path d="M3782 3193 c3 -42 6 -48 27 -51 22 -3 23 -1 17 28 -3 18 -6 41 -6 51
0 12 -7 19 -21 19 -18 0 -20 -5 -17 -47z"/>
<path d="M3855 3180 l-18 -60 -44 0 c-39 0 -43 -2 -43 -25 0 -20 5 -25 25 -25
22 0 25 -4 25 -34 0 -50 -9 -66 -36 -66 -19 0 -24 -5 -24 -25 0 -20 5 -25 26
-25 22 0 25 -4 21 -22 -3 -13 -9 -62 -12 -110 l-7 -88 25 0 c28 0 31 10 43
143 6 77 6 77 35 77 24 0 29 4 29 25 0 20 -5 25 -25 25 -27 0 -30 12 -19 69 6
26 11 31 35 31 24 0 29 4 29 25 0 18 -5 25 -20 25 -24 0 -24 -3 -5 50 20 56
19 70 -3 70 -14 0 -23 -15 -37 -60z"/>
<path d="M3630 3193 c0 -16 -6 -56 -13 -90 -12 -54 -11 -63 1 -68 22 -8 29 3
41 69 17 91 15 116 -9 116 -15 0 -20 -7 -20 -27z"/>
<path d="M1572 3161 c-11 -6 -8 -27 14 -102 14 -52 28 -100 30 -106 4 -15 23
-17 43 -4 12 8 8 27 -19 115 -32 103 -41 115 -68 97z"/>
<path d="M4017 3163 c-4 -3 -7 -17 -7 -30 0 -18 5 -23 25 -23 14 0 25 -3 25
-7 -1 -28 -29 -255 -31 -257 -2 -1 -14 -9 -26 -17 -21 -14 -21 -15 -3 -39 l18
-24 54 42 c29 22 64 52 77 66 24 25 24 26 6 46 -17 19 -19 19 -38 3 -19 -18
-20 -17 -14 37 19 164 19 180 7 195 -12 15 -81 21 -93 8z"/>
<path d="M8217 3153 c-4 -3 -7 -21 -7 -38 0 -18 -3 -47 -6 -64 -6 -30 -9 -31
-55 -31 -48 0 -49 -1 -49 -30 0 -29 2 -30 45 -30 51 0 50 2 39 -109 l-7 -61
-58 0 c-59 0 -59 0 -59 -30 l0 -30 150 0 150 0 0 30 0 30 -60 0 c-68 0 -66 -6
-54 109 l7 61 53 0 c53 0 54 0 54 30 0 29 -1 30 -50 30 l-50 0 6 70 c7 70 7
70 -18 70 -14 0 -28 -3 -31 -7z"/>
<path d="M1790 3118 c0 -7 -9 -94 -20 -193 -25 -233 -26 -225 5 -225 27 0 30
7 40 103 l6 57 45 0 c41 0 44 -2 44 -27 0 -43 -11 -73 -26 -73 -8 0 -14 7 -14
15 0 17 -9 19 -29 6 -18 -12 -5 -48 25 -68 31 -20 70 -6 83 30 14 35 46 350
38 370 -5 14 -21 17 -102 17 -69 0 -95 -3 -95 -12z m142 -68 c-4 -28 -7 -30
-48 -30 -42 0 -44 1 -44 30 0 29 1 30 48 30 48 0 49 0 44 -30z m-12 -110 c0
-29 -2 -30 -45 -30 -43 0 -45 1 -45 30 0 29 2 30 45 30 43 0 45 -1 45 -30z"/>
<path d="M5700 3038 c-1 -2 -9 -74 -18 -160 l-18 -158 98 0 c95 0 98 1 98 23
1 12 7 74 14 137 13 115 12 139 -8 152 -10 7 -165 12 -166 6z m116 -158 l-9
-100 -40 0 -39 0 6 63 c15 140 14 137 54 137 l37 0 -9 -100z"/>
<path d="M5940 3033 c0 -5 -7 -66 -15 -138 -22 -195 -31 -175 80 -175 52 0 95
3 95 8 0 4 7 66 15 137 8 72 15 133 15 137 0 4 -7 14 -16 22 -11 12 -36 16
-95 16 -43 0 -79 -3 -79 -7z m127 -75 c-3 -13 -9 -58 -12 -100 l-7 -78 -40 0
c-40 0 -40 0 -35 33 3 17 9 62 13 100 l6 67 40 0 c37 0 40 -2 35 -22z"/>
<path d="M2017 2983 c-25 -197 -19 -250 29 -272 31 -14 53 -14 92 0 36 13 58
43 71 98 9 40 8 41 -19 41 -22 0 -29 -5 -33 -29 -8 -39 -34 -63 -66 -59 -24 3
-26 7 -29 59 -3 54 -2 57 27 69 17 7 51 25 76 41 42 27 44 30 33 54 -10 23
-13 24 -32 10 -12 -8 -39 -24 -60 -36 l-39 -21 6 46 c7 45 6 46 -22 46 -26 0
-29 -3 -34 -47z"/>
<path d="M4195 2903 c-15 -36 -43 -85 -61 -109 l-32 -42 23 -22 23 -21 25 33
c14 18 44 71 66 118 38 78 40 86 24 97 -29 22 -38 15 -68 -54z"/>
<path d="M4337 2963 c-13 -3 -16 -10 -12 -21 4 -10 19 -65 34 -123 26 -105 26
-106 51 -97 13 5 26 10 27 12 5 5 -14 88 -38 169 -19 65 -24 70 -62 60z"/>
<path d="M6832 2728 c-41 -117 -40 -111 -21 -115 11 -3 25 11 42 40 27 45 70
147 65 152 -2 2 -14 6 -28 10 -24 5 -27 1 -58 -87z"/>
<path d="M155 2473 c-9 -100 -13 -113 -34 -113 -11 0 -21 -9 -25 -22 -9 -35
-8 -38 17 -38 l23 0 -12 -112 c-7 -62 -13 -121 -13 -131 -1 -9 -12 -23 -26
-29 -25 -11 -31 -32 -16 -56 6 -10 23 -5 74 22 61 31 67 33 67 15 0 -18 9 -19
155 -19 l155 0 0 30 c0 20 -5 30 -15 30 -19 0 -19 12 0 174 9 71 13 137 10
147 -5 14 -16 19 -46 19 -39 0 -44 5 -33 34 5 12 21 16 65 16 56 0 59 1 59 25
0 24 -3 25 -61 25 -60 0 -61 0 -55 25 6 23 3 25 -24 25 -25 0 -30 -4 -30 -25
0 -24 -3 -25 -60 -25 -57 0 -60 -1 -60 -25 0 -24 3 -25 56 -25 52 0 55 -1 52
-22 -2 -19 -11 -24 -48 -28 l-45 -5 -17 -155 c-9 -85 -17 -161 -17 -167 -2
-21 -39 -15 -46 8 -6 17 -9 18 -22 7 -15 -12 -16 -8 -10 37 4 28 9 80 13 117
6 58 9 67 28 70 15 2 22 11 24 31 3 22 -1 27 -18 27 -20 0 -21 4 -15 58 3 31
8 72 11 90 5 30 3 32 -25 32 -29 0 -29 -1 -36 -67z m305 -153 c0 -18 -7 -20
-65 -20 -58 0 -65 2 -65 20 0 18 7 20 65 20 58 0 65 -2 65 -20z m-7 -80 c-5
-17 -14 -20 -69 -20 -57 0 -64 2 -64 20 0 18 7 20 69 20 64 0 69 -1 64 -20z
m-10 -90 c-5 -17 -14 -20 -69 -20 -57 0 -64 2 -64 20 0 18 7 20 69 20 64 0 69
-1 64 -20z m-5 -82 c-5 -15 -138 -24 -138 -10 0 18 15 22 78 22 46 0 63 -3 60
-12z"/>
<path d="M736 2524 c-3 -9 -6 -30 -6 -47 0 -59 -10 -77 -41 -77 -16 0 -29 -3
-29 -7 0 -5 -3 -18 -6 -30 -6 -21 -3 -23 28 -23 l34 0 -7 -57 c-4 -32 -8 -66
-8 -75 -1 -11 -15 -21 -41 -29 -31 -10 -40 -17 -40 -35 0 -30 12 -36 45 -24
l27 10 -7 -82 c-3 -46 -9 -91 -11 -100 -6 -22 -24 -24 -24 -3 0 16 -35 21 -44
6 -3 -5 -1 -23 5 -40 19 -53 88 -55 107 -3 9 22 32 191 32 232 0 6 16 18 35
26 30 12 33 17 26 36 -6 15 -16 22 -30 21 -23 -3 -24 2 -15 71 6 43 9 46 35
46 26 0 29 4 29 30 0 26 -4 30 -26 30 l-25 0 7 70 c7 70 7 70 -19 70 -14 0
-28 -7 -31 -16z"/>
<path d="M1440 2515 c0 -24 -1 -24 -97 -27 l-98 -3 -3 -27 -3 -28 220 0 c184
0 221 2 221 14 0 8 3 21 6 30 5 14 -6 16 -90 16 -96 0 -96 0 -96 25 0 21 -5
25 -30 25 -25 0 -30 -4 -30 -25z"/>
<path d="M1970 2505 l0 -34 -67 -3 c-66 -3 -68 -4 -71 -30 l-3 -28 67 0 67 0
-7 -31 c-3 -17 -6 -35 -6 -40 0 -5 -38 -9 -85 -9 l-85 0 0 -30 0 -29 103 -3
102 -3 -60 -38 c-33 -21 -86 -50 -117 -65 -61 -28 -66 -37 -44 -67 13 -18 16
-17 70 13 31 18 56 30 56 27 0 -3 -7 -22 -15 -42 -27 -63 -27 -63 105 -63
l120 0 -6 -32 c-4 -18 -13 -43 -20 -55 -20 -32 -68 -31 -89 1 -11 17 -22 22
-40 18 -29 -5 -29 -5 -10 -42 42 -81 164 -77 197 6 23 58 32 133 17 150 -8 10
-37 14 -115 14 -57 0 -104 2 -104 5 0 2 5 16 12 30 11 25 12 25 130 25 l118 0
0 30 0 30 -97 0 -97 0 34 30 c33 27 41 29 118 30 64 0 82 3 82 14 0 8 3 21 6
30 5 13 -3 16 -50 16 l-57 0 51 62 c27 35 50 66 50 70 0 4 -9 12 -20 18 -17 9
-24 7 -40 -12 -11 -13 -20 -27 -20 -33 -1 -5 -5 0 -10 13 -8 19 -17 22 -60 22
l-50 0 0 35 c0 32 -2 35 -30 35 -28 0 -30 -3 -30 -35z m150 -102 c0 -17 -66
-73 -87 -73 -24 0 -28 14 -17 58 6 19 13 22 55 22 27 0 49 -3 49 -7z"/>
<path d="M2558 2493 l-3 -48 -97 -3 -98 -3 0 -29 0 -30 88 0 c49 0 91 -2 93
-4 2 -2 2 -27 1 -55 l-4 -51 -83 0 c-77 0 -83 -1 -89 -22 -3 -13 -6 -26 -6
-30 0 -5 87 -8 194 -8 168 0 195 2 200 16 15 40 9 44 -74 44 -89 0 -89 1 -74
79 l7 31 93 0 94 0 0 30 0 30 -91 0 -91 0 4 50 3 50 -32 0 c-31 0 -32 -1 -35
-47z"/>
<path d="M3837 2533 c-4 -3 -7 -23 -7 -43 0 -21 -3 -52 -6 -69 l-6 -31 -79 0
-79 0 0 -30 0 -30 75 0 c65 0 75 -2 75 -17 0 -10 -7 -92 -17 -182 -12 -118
-21 -169 -33 -184 -21 -25 -46 -17 -63 20 -9 21 -18 27 -34 25 -29 -4 -30 -35
-3 -80 26 -42 62 -56 108 -41 52 17 67 63 89 274 18 176 19 179 43 185 18 4
26 14 28 33 3 23 0 27 -22 27 -22 0 -25 4 -21 28 2 15 6 48 9 75 6 46 5 47
-23 47 -15 0 -31 -3 -34 -7z"/>
<path d="M4846 2503 c-3 -21 -6 -56 -6 -78 0 -74 -7 -85 -54 -85 l-42 0 6 56
c6 53 19 73 48 74 16 0 15 12 -1 34 -13 18 -17 17 -89 -8 -42 -14 -83 -26 -92
-26 -12 0 -13 -5 -5 -29 10 -28 12 -29 46 -19 19 5 36 8 38 6 2 -2 1 -22 -2
-45 l-6 -42 -51 -3 c-47 -3 -51 -5 -54 -30 -3 -27 -2 -28 47 -28 57 0 56 1 45
-84 l-7 -47 -58 -16 c-59 -16 -70 -30 -51 -61 7 -10 17 -9 52 3 24 8 45 13 47
11 9 -9 -9 -136 -22 -152 -14 -20 -33 -11 -46 23 -12 31 -56 30 -51 -2 9 -65
42 -94 97 -86 34 4 62 46 69 100 3 28 9 73 12 99 5 44 9 51 40 65 34 17 41 31
25 56 -5 8 -16 11 -30 6 -18 -5 -21 -2 -21 24 0 52 8 61 56 61 l44 0 0 -110 0
-110 -43 -28 c-40 -25 -43 -29 -34 -55 l9 -27 33 20 c18 11 35 20 37 20 3 0 8
-17 12 -38 11 -69 52 -104 101 -86 37 15 81 157 54 175 -27 17 -35 8 -47 -51
-14 -65 -35 -79 -52 -34 -17 44 -12 86 14 113 32 34 97 142 91 151 -3 4 -14
10 -24 13 -16 4 -26 -6 -50 -48 -45 -79 -51 -78 -51 14 l0 81 75 0 75 0 0 30
0 30 -71 0 -72 0 8 100 7 100 -25 0 c-20 0 -25 -6 -31 -37z"/>
<path d="M5253 2523 c-21 -63 -89 -207 -117 -251 -34 -50 -34 -51 -14 -69 19
-17 21 -17 44 12 l24 30 -1 -30 c0 -16 -8 -100 -18 -185 -10 -85 -16 -158 -14
-162 2 -5 15 -8 28 -8 28 0 25 -16 60 315 17 167 30 245 45 285 20 51 21 55 4
67 -24 17 -33 16 -41 -4z"/>
<path d="M5361 2529 c-14 -6 -21 -15 -18 -23 3 -8 11 -32 18 -55 13 -42 16
-45 43 -35 20 8 19 39 -2 85 -15 33 -20 36 -41 28z"/>
<path d="M7595 2510 l-7 -30 -87 0 -88 0 -7 -37 c-12 -73 -9 -83 24 -83 27 0
30 3 30 30 l0 30 158 0 159 0 -5 -30 c-4 -28 -2 -30 26 -30 25 0 30 5 36 31
15 76 -1 89 -103 89 l-78 0 5 30 c4 28 2 30 -26 30 -26 0 -31 -5 -37 -30z"/>
<path d="M870 2508 c-1 -7 -16 -152 -34 -323 -19 -170 -32 -313 -29 -317 9
-17 45 -7 50 12 5 19 7 20 23 5 17 -15 21 -14 57 19 l40 35 33 -34 c40 -41 47
-43 61 -12 9 20 6 28 -25 59 l-36 36 30 58 c39 80 63 171 49 195 -8 16 -22 19
-100 19 l-91 0 5 33 c3 17 9 62 13 100 l6 67 67 0 67 0 -4 -42 c-2 -24 -9 -49
-14 -55 -16 -20 -39 -15 -45 8 -9 31 -49 22 -45 -11 2 -27 44 -70 67 -70 26 0
63 22 74 44 22 40 31 138 15 164 -14 21 -21 22 -124 22 -81 0 -110 -3 -110
-12z m41 -345 c0 -21 8 -68 18 -105 l17 -68 -38 -37 c-45 -44 -43 -50 -26 125
11 117 27 164 29 85z m129 34 c0 -8 -39 -118 -46 -128 -11 -18 -21 9 -29 74
l-7 57 41 0 c22 0 41 -2 41 -3z"/>
<path d="M2946 2488 c-3 -18 -15 -114 -26 -213 -17 -152 -48 -308 -75 -376 -4
-12 1 -18 21 -23 14 -4 27 -6 29 -4 6 7 36 109 50 169 12 52 55 374 55 412 0
4 36 7 81 7 60 0 80 -3 77 -12 -3 -8 -28 -15 -59 -18 l-54 -5 -7 -60 c-4 -33
-9 -79 -12 -102 l-6 -43 61 0 60 0 -3 -42 c-3 -42 -4 -43 -35 -40 -17 2 -34
-2 -37 -7 -9 -15 30 -51 54 -51 28 0 70 44 70 72 0 59 9 68 65 68 l52 0 7 53
c16 135 6 157 -68 157 -25 0 -36 5 -36 15 0 11 18 15 83 17 81 3 82 3 85 31
l3 27 -215 0 -215 0 -5 -32z m324 -128 c0 -19 -7 -20 -90 -20 -83 0 -90 1 -90
20 0 19 7 20 90 20 83 0 90 -1 90 -20z m-10 -75 c0 -12 -17 -15 -90 -15 -73 0
-90 3 -90 15 0 12 17 15 90 15 73 0 90 -3 90 -15z"/>
<path d="M4943 2505 l-22 -15 32 -53 c17 -28 32 -54 33 -55 6 -9 44 11 44 22
0 6 -15 35 -33 64 -31 50 -33 51 -54 37z"/>
<path d="M5760 2495 c0 -24 2 -25 75 -25 60 0 75 -3 75 -15 0 -12 -17 -15 -89
-15 -50 0 -92 -3 -94 -7 -3 -5 -8 -47 -12 -95 l-7 -88 25 0 c28 0 37 20 37 88
l0 42 66 0 67 0 -6 -65 -6 -65 29 0 c29 0 30 2 30 43 0 83 4 87 78 87 l65 0
-7 -65 -7 -65 30 0 29 0 7 81 c5 57 4 84 -4 92 -7 7 -50 14 -96 15 -67 3 -83
7 -78 18 4 10 26 14 84 14 78 0 79 0 79 25 l0 25 -185 0 -185 0 0 -25z"/>
<path d="M6280 2490 l0 -30 66 0 65 0 -3 -27 c-3 -26 -6 -28 -60 -31 l-57 -3
-6 -57 c-3 -31 -8 -72 -11 -89 l-5 -33 71 0 c72 0 79 -5 60 -41 -9 -16 -22
-19 -85 -19 l-75 0 0 -30 c0 -28 1 -29 55 -32 l56 -3 -32 -38 c-17 -21 -28
-41 -24 -45 3 -4 27 -14 53 -23 l47 -16 -25 -13 c-14 -8 -52 -21 -85 -30 -59
-17 -74 -32 -56 -59 12 -18 79 -2 174 41 l67 31 89 -40 89 -41 11 25 c7 14 10
27 8 29 -2 2 -35 18 -75 37 l-72 33 29 34 c15 19 33 45 40 58 9 17 20 22 50
22 38 0 51 11 51 46 0 11 -22 14 -115 14 -63 0 -115 2 -115 5 0 2 5 16 12 30
11 24 14 25 108 25 l97 0 7 38 c9 59 7 117 -6 130 -7 7 -31 12 -55 12 -44 0
-51 8 -37 44 5 12 21 16 74 16 68 0 68 0 72 30 l5 30 -229 0 -228 0 0 -30z
m248 -57 c-2 -23 -8 -29 -35 -31 -24 -2 -33 1 -33 12 0 32 13 46 42 46 26 0
29 -3 26 -27z m-130 -125 c-3 -29 -7 -33 -30 -33 -16 0 -28 3 -28 8 0 4 0 18
0 32 0 21 5 25 31 25 28 0 30 -2 27 -32z m118 10 c-3 -13 -6 -29 -6 -35 0 -8
-13 -13 -30 -13 -28 0 -30 3 -30 35 0 34 2 35 36 35 33 0 36 -2 30 -22z m116
-13 c-4 -31 -8 -35 -33 -35 -26 0 -29 3 -29 35 0 33 2 35 33 35 32 0 33 -1 29
-35z m-102 -213 c0 -17 -74 -83 -88 -77 -7 3 -25 8 -38 11 -29 7 -29 9 -3 45
18 26 26 29 75 29 30 0 54 -4 54 -8z"/>
<path d="M7037 2493 c-6 -33 -1 -43 21 -43 16 0 17 -8 8 -90 -8 -84 -10 -90
-31 -90 -15 0 -25 -8 -29 -22 -10 -39 -7 -48 18 -48 l24 0 -14 -62 c-17 -81
-39 -142 -69 -195 l-25 -42 22 -15 c21 -15 24 -15 40 6 27 36 64 136 84 226
17 79 18 82 46 82 33 0 32 11 13 -155 -20 -181 -20 -185 9 -185 28 0 29 5 46
185 15 151 16 155 45 155 22 0 25 4 25 35 0 28 -4 35 -20 35 -23 0 -24 16 -14
119 6 49 10 61 24 61 19 0 30 19 30 51 0 18 -8 19 -124 19 l-124 0 -5 -27z
m149 -70 c-3 -16 -8 -56 -11 -90 -7 -62 -8 -63 -37 -63 -23 0 -28 4 -24 18 2
9 8 50 11 90 7 72 7 72 37 72 27 0 29 -2 24 -27z"/>
<path d="M8000 2490 l0 -30 140 0 c147 0 150 -1 134 -44 -5 -14 -27 -16 -140
-16 l-134 0 0 -25 0 -25 130 0 130 0 0 -25 0 -25 -164 0 -164 0 -4 -25 c-3
-13 -3 -27 0 -30 3 -3 50 -5 105 -5 l100 0 -7 -67 c-3 -38 -9 -103 -12 -146
-8 -93 -27 -123 -55 -88 -15 18 -21 20 -42 10 -30 -14 -26 -41 11 -69 65 -52
142 3 142 102 0 78 7 80 64 23 53 -54 110 -90 125 -81 5 3 11 15 14 26 4 16
-4 26 -37 45 -53 31 -93 73 -80 83 5 4 30 25 57 46 50 39 57 56 32 76 -12 10
-24 4 -66 -34 -28 -25 -55 -46 -60 -46 -15 0 -29 38 -29 79 l0 40 98 3 97 3 3
28 c3 25 1 27 -33 27 -36 0 -37 1 -32 33 4 17 9 59 13 93 10 92 6 94 -182 94
l-154 0 0 -30z"/>
<path d="M5456 2488 c-9 -37 -8 -38 45 -38 50 0 51 0 45 -27 -3 -16 -15 -125
-26 -243 -12 -118 -25 -225 -30 -237 -17 -42 -50 -23 -50 28 0 14 -7 19 -25
19 -22 0 -25 -4 -25 -36 0 -26 8 -43 29 -65 35 -35 61 -37 96 -6 32 27 38 63
69 366 22 217 22 225 4 243 -13 13 -33 18 -72 18 -47 0 -54 -3 -60 -22z"/>
<path d="M6847 2503 c-4 -3 -7 -17 -7 -30 0 -18 5 -23 26 -23 24 0 26 -2 20
-32 -3 -18 -24 -69 -45 -113 -36 -74 -38 -81 -23 -98 14 -16 14 -31 1 -162
l-15 -145 27 0 c21 0 28 5 31 23 2 18 10 23 45 25 23 2 43 9 46 16 3 6 11 79
18 160 14 164 14 166 -49 166 -32 0 -32 0 -19 28 8 15 22 51 31 80 16 46 21
52 46 52 27 0 40 15 40 46 0 11 -18 14 -83 14 -46 0 -87 -3 -90 -7z m80 -295
c-3 -18 -9 -64 -12 -103 -8 -90 -13 -105 -32 -105 -13 0 -14 8 -9 48 3 26 9
80 12 120 6 63 9 72 27 72 16 0 18 -5 14 -32z"/>
<path d="M3485 2478 c-2 -7 -15 -132 -30 -278 -14 -146 -28 -273 -30 -282 -2
-14 4 -18 25 -18 24 0 29 5 32 28 3 25 7 27 55 30 62 4 54 -23 84 279 19 184
21 224 10 237 -17 20 -139 23 -146 4z m95 -82 c0 -18 -3 -54 -6 -80 -6 -41
-10 -46 -32 -46 -24 0 -25 1 -18 53 3 28 6 64 6 80 0 22 4 27 25 27 22 0 25
-4 25 -34z m-24 -253 c-11 -114 -15 -123 -43 -123 -21 0 -24 3 -19 28 2 15 8
57 11 95 6 63 8 67 32 67 25 0 25 0 19 -67z"/>
<path d="M1309 2373 c0 -10 -4 -44 -8 -75 l-7 -58 147 0 147 0 7 60 c10 89 9
90 -151 90 -121 0 -134 -2 -135 -17z m231 -58 c0 -25 -1 -25 -90 -25 -89 0
-90 0 -90 25 0 25 1 25 90 25 89 0 90 0 90 -25z"/>
<path d="M7511 2366 c-13 -13 -43 -35 -67 -48 -45 -24 -50 -32 -34 -58 8 -12
14 -12 46 3 20 10 57 34 81 54 41 34 43 37 27 54 -22 24 -26 24 -53 -5z"/>
<path d="M7656 2371 c-16 -18 -16 -20 16 -39 18 -11 48 -37 67 -56 33 -34 36
-35 53 -19 24 21 23 31 -4 54 -28 24 -105 79 -111 79 -2 0 -12 -8 -21 -19z"/>
<path d="M5315 2368 c-8 -26 -54 -492 -49 -500 8 -13 44 -9 49 5 5 11 55 467
55 495 0 6 -11 12 -25 12 -14 0 -27 -6 -30 -12z"/>
<path d="M5790 2330 c0 -17 7 -20 45 -20 38 0 45 3 45 20 0 17 -7 20 -45 20
-38 0 -45 -3 -45 -20z"/>
<path d="M5970 2330 c0 -17 7 -20 50 -20 43 0 50 3 50 20 0 17 -7 20 -50 20
-43 0 -50 -3 -50 -20z"/>
<path d="M3677 2283 c-12 -3 -16 -11 -12 -22 3 -10 12 -53 20 -96 9 -43 17
-81 20 -83 2 -2 15 -2 28 2 23 5 24 8 16 53 -29 159 -28 157 -72 146z"/>
<path d="M5780 2260 c0 -17 7 -20 45 -20 38 0 45 3 45 20 0 17 -7 20 -45 20
-38 0 -45 -3 -45 -20z"/>
<path d="M5966 2264 c-3 -9 -6 -18 -6 -20 0 -2 23 -4 50 -4 43 0 50 3 50 20 0
17 -7 20 -44 20 -31 0 -46 -5 -50 -16z"/>
<path d="M7530 2256 c0 -47 -9 -56 -60 -56 -41 0 -49 -3 -54 -22 -9 -37 -8
-38 44 -38 l49 0 -15 -42 c-18 -52 -54 -102 -111 -153 l-45 -40 19 -24 19 -23
57 52 c62 57 98 110 123 184 16 46 16 46 61 46 l46 0 -7 -47 c-16 -115 -18
-170 -7 -192 30 -56 119 -42 146 24 23 55 23 76 -2 85 -19 8 -23 4 -35 -33
-10 -32 -19 -43 -37 -45 -24 -4 -24 -3 -17 55 25 219 27 213 -64 213 l-56 0 4
40 c4 39 3 40 -27 40 -26 0 -31 -4 -31 -24z"/>
<path d="M7960 2206 c-17 -21 -12 -28 44 -71 48 -37 49 -37 68 -17 20 19 20
20 -14 44 -73 55 -84 60 -98 44z"/>
<path d="M1225 2188 c-9 -42 -33 -313 -28 -320 6 -12 41 -10 48 2 5 7 29 199
35 278 0 1 68 2 151 2 l151 0 -6 -37 c-3 -21 -8 -65 -12 -98 -4 -33 -11 -68
-16 -77 -10 -20 -38 -24 -55 -7 -12 12 -53 -4 -53 -21 0 -18 54 -50 86 -50 73
0 96 49 110 239 l7 90 -27 11 c-15 5 -108 10 -206 10 -178 0 -180 0 -185 -22z"/>
<path d="M5717 2203 c-4 -3 -7 -15 -7 -25 0 -16 9 -18 85 -18 47 0 85 -4 85
-9 0 -35 -13 -41 -91 -41 -43 0 -79 -1 -79 -2 -7 -34 -26 -235 -23 -240 4 -7
42 -12 44 -5 0 1 6 45 12 97 12 94 12 95 40 98 l29 3 -7 -83 c-4 -46 -8 -87
-9 -93 0 -5 10 -10 24 -10 24 0 25 3 34 93 l9 92 30 0 29 0 -7 -95 c-7 -92 -6
-95 14 -95 12 0 24 7 27 15 5 12 11 10 35 -7 24 -18 34 -20 57 -12 32 11 46
48 55 142 9 86 -7 102 -103 102 -69 0 -76 3 -64 34 5 13 23 16 95 16 88 0 89
0 89 25 l0 25 -198 0 c-109 0 -202 -3 -205 -7z m333 -160 c0 -10 -3 -41 -6
-69 l-6 -51 -38 1 -38 1 5 55 c7 77 8 80 48 80 27 0 35 -4 35 -17z"/>
<path d="M3013 2163 c-37 -39 -38 -44 -21 -61 18 -18 102 66 86 85 -16 19 -29
14 -65 -24z"/>
<path d="M3242 2191 c-11 -7 -8 -19 15 -59 24 -41 32 -49 46 -41 23 13 22 22
-8 69 -27 42 -32 45 -53 31z"/>
<path d="M2514 2162 l-21 -17 36 -47 c20 -26 38 -47 41 -47 3 0 13 6 24 14 18
13 17 16 -19 64 -20 28 -37 51 -38 51 -1 -1 -11 -8 -23 -18z"/>
<path d="M1316 2108 c-3 -7 -7 -39 -10 -70 l-6 -58 109 0 c104 0 109 1 115 23
12 45 7 105 -10 111 -31 12 -194 7 -198 -6z m164 -53 c0 -24 -3 -25 -60 -25
-57 0 -60 1 -60 25 0 24 3 25 60 25 57 0 60 -1 60 -25z"/>
<path d="M2345 2106 c-1 -6 -16 -52 -32 -103 l-29 -92 24 -10 c12 -6 24 -11
26 -11 4 0 51 151 60 191 5 23 2 27 -20 32 -14 2 -27 0 -29 -7z"/>
<path d="M2684 2102 c-9 -5 -7 -26 7 -77 10 -38 18 -79 19 -90 1 -32 14 -45
38 -38 27 7 27 14 1 124 -21 89 -32 103 -65 81z"/>
<path d="M2420 2038 c0 -119 40 -178 119 -178 57 0 87 20 112 74 26 58 25 83
-6 88 -22 5 -26 1 -35 -33 -20 -74 -97 -91 -119 -28 -6 18 -11 54 -11 80 0 48
-1 49 -30 49 -30 0 -30 -1 -30 -52z"/>
<path d="M3117 2056 c-17 -13 -17 -15 4 -50 22 -38 26 -41 48 -27 15 10 9 35
-17 68 -15 19 -19 20 -35 9z"/>
<path d="M8020 2050 c-14 -11 -49 -29 -77 -41 -53 -21 -61 -32 -44 -58 11 -17
39 -9 119 37 63 37 71 49 50 70 -16 16 -18 15 -48 -8z"/>
<path d="M2961 1983 c-21 -64 -21 -68 -5 -80 10 -7 21 -10 25 -6 9 9 51 134
47 138 -2 1 -12 5 -24 9 -19 6 -24 -1 -43 -61z"/>
<path d="M3266 2037 c-16 -11 -16 -17 1 -80 16 -59 20 -66 38 -61 30 9 29 8
10 79 -19 73 -25 80 -49 62z"/>
<path d="M3037 2006 c-7 -19 8 -82 27 -111 36 -55 138 -37 170 30 19 40 20 40
-9 49 -15 4 -24 -2 -37 -24 -13 -23 -24 -30 -47 -30 -35 0 -51 22 -51 69 0 26
-4 31 -24 31 -13 0 -26 -6 -29 -14z"/>
<path d="M250 1944 c-25 -20 -46 -37 -48 -39 -2 -2 1 -13 8 -24 l11 -22 32 22
c63 44 77 60 66 80 -13 25 -16 24 -69 -17z"/>
<path d="M392 1968 c-18 -18 -15 -27 19 -56 50 -43 59 -46 78 -27 15 15 13 19
-29 55 -51 44 -51 45 -68 28z"/>
<path d="M4032 1888 c-41 -117 -40 -111 -21 -115 11 -3 25 11 42 40 27 45 70
147 65 152 -2 2 -14 6 -28 10 -24 5 -27 1 -58 -87z"/>
<path d="M725 1643 c-3 -32 -7 -65 -8 -73 -2 -10 -11 -14 -27 -12 -24 3 -26
-2 -46 -95 -12 -54 -23 -105 -25 -113 -3 -9 4 -16 17 -18 23 -3 30 14 58 148
21 96 19 57 -9 -202 -14 -128 -25 -239 -25 -245 0 -7 11 -13 24 -13 22 0 26 6
31 43 5 36 45 404 45 413 0 2 7 1 15 -2 8 -4 15 -17 15 -30 l0 -24 155 0 c152
0 156 0 164 23 5 12 7 25 4 30 -2 4 -33 7 -69 7 -57 0 -64 2 -64 20 0 18 7 20
55 20 52 0 55 1 55 25 0 23 -3 25 -50 25 -37 0 -50 4 -50 15 0 11 16 15 68 17
65 3 67 4 70 31 l3 27 -65 0 c-59 0 -66 2 -66 20 0 16 -7 20 -30 20 -23 0 -30
-4 -30 -20 0 -16 -8 -19 -62 -22 -60 -3 -63 -4 -63 -28 0 -23 4 -25 58 -28 42
-2 57 -7 57 -17 0 -11 -13 -15 -50 -15 -47 0 -50 -2 -50 -25 0 -23 4 -25 45
-25 38 0 45 -3 45 -20 0 -18 -7 -20 -56 -20 -40 0 -54 4 -52 12 3 7 -6 21 -20
32 -23 18 -24 22 -17 97 l7 79 -25 0 c-24 0 -26 -4 -32 -57z"/>
<path d="M2440 1671 c0 -28 -2 -30 -47 -33 -44 -3 -48 -5 -51 -30 l-3 -28 119
0 c119 0 120 0 124 25 7 32 3 35 -48 35 -43 0 -43 0 -37 30 5 28 4 30 -26 30
-28 0 -31 -3 -31 -29z"/>
<path d="M2644 1620 l-7 -80 -32 0 c-25 0 -34 -5 -39 -22 -9 -36 -8 -38 29
-38 l35 0 -6 -42 c-12 -75 -43 -187 -65 -236 l-22 -47 -10 63 c-8 55 -11 62
-31 62 -24 0 -24 4 -10 -108 5 -38 8 -42 26 -36 23 7 21 1 -19 -52 -23 -31
-23 -31 -3 -49 15 -13 23 -15 33 -7 21 18 68 108 93 181 l24 66 0 -97 c0 -110
9 -143 40 -151 44 -11 83 55 92 153 3 29 0 35 -19 38 -22 3 -23 1 -39 -90 -3
-21 -11 -38 -17 -38 -10 0 -5 183 9 283 6 39 4 47 -10 47 -11 0 -16 9 -16 30
0 30 1 30 54 30 47 0 54 3 60 23 10 36 8 37 -49 37 l-55 0 6 63 c3 34 7 70 9
80 2 13 -4 17 -25 17 -28 0 -29 0 -36 -80z"/>
<path d="M3040 1480 c-13 -121 -25 -219 -27 -216 -6 6 -43 247 -43 284 0 29
-3 32 -30 32 -37 0 -36 8 -8 -193 l22 -159 28 6 c26 5 28 3 28 -27 0 -17 -3
-49 -6 -69 l-7 -38 -68 0 -69 0 0 -30 0 -30 220 0 c183 0 220 2 220 14 0 8 3
21 6 30 5 14 -4 16 -60 16 -56 0 -66 3 -66 18 0 9 14 143 30 297 16 154 30
281 30 283 0 1 -13 2 -30 2 -16 0 -30 -4 -30 -10 0 -5 -13 -134 -30 -287 -16
-152 -30 -283 -30 -290 0 -8 -12 -13 -30 -13 -16 0 -30 4 -30 10 0 5 14 134
30 287 17 152 30 283 30 290 0 8 -12 13 -29 13 l-28 0 -23 -220z"/>
<path d="M3576 1687 c-16 -11 -16 -15 -1 -50 l15 -37 -60 0 -60 0 0 -30 0 -30
224 0 224 0 4 30 5 30 -59 0 -59 0 16 30 c21 40 19 57 -7 63 -12 4 -23 5 -23
4 -1 -1 -14 -23 -29 -49 l-27 -48 -62 0 c-37 0 -57 4 -49 9 11 6 10 16 -4 49
-18 46 -22 48 -48 29z"/>
<path d="M5918 1663 l-3 -38 -96 -3 -96 -3 -7 -61 c-9 -92 -8 -98 14 -98 13 0
20 -7 20 -20 0 -18 7 -20 75 -20 73 0 75 -1 75 -25 0 -31 -20 -222 -26 -254
-5 -22 -6 -23 -24 -6 -34 31 -53 97 -41 141 6 22 11 51 11 67 0 22 -4 27 -25
27 -19 0 -26 -6 -30 -27 -19 -92 -41 -156 -75 -220 -39 -72 -39 -73 -18 -87
19 -14 23 -13 38 7 10 12 27 42 39 66 l23 44 17 -30 c46 -75 132 -110 226 -92
82 15 107 28 99 53 -10 34 -20 39 -52 22 -17 -9 -54 -16 -83 -16 l-52 0 7 38
c3 20 6 54 6 74 l0 37 68 3 c65 3 67 4 70 31 l3 27 -67 0 c-64 0 -66 1 -60 23
3 12 6 39 6 60 l0 37 69 0 c60 0 69 2 74 20 3 12 14 20 26 20 16 0 21 6 21 29
0 16 3 42 6 59 5 22 1 35 -15 51 -17 17 -33 21 -91 21 l-70 0 0 40 c0 38 -2
40 -29 40 -27 0 -30 -3 -33 -37z m178 -125 c-3 -13 -6 -31 -6 -40 0 -16 -14
-18 -160 -18 l-160 0 0 40 0 40 166 0 166 0 -6 -22z"/>
<path d="M7006 1685 c-3 -9 -6 -25 -6 -36 0 -17 -8 -19 -65 -19 -61 0 -66 -2
-75 -26 -14 -37 -6 -44 56 -44 57 0 60 -3 44 -44 -9 -24 -14 -26 -75 -26 l-65
0 0 -30 c0 -29 1 -30 50 -30 33 0 50 -4 50 -12 0 -7 -14 -40 -31 -72 -30 -57
-31 -60 -13 -73 23 -17 33 -16 40 2 5 12 27 15 111 15 l104 0 -29 -42 c-17
-24 -41 -53 -55 -66 l-25 -23 -53 26 -53 27 -18 -22 -18 -23 66 -38 c37 -22
88 -55 114 -74 45 -33 48 -34 64 -17 23 26 20 34 -19 61 l-35 24 40 43 c40 43
100 131 100 145 0 4 -7 15 -16 23 -12 13 -39 16 -125 16 -60 0 -109 2 -109 5
0 2 8 20 17 40 l17 35 138 0 138 0 0 30 0 30 -125 0 c-71 0 -125 4 -125 9 0 5
4 21 10 35 9 26 11 26 114 26 103 0 104 0 110 25 4 14 4 30 1 35 -4 6 -49 10
-102 10 l-95 0 6 30 c4 22 2 30 -8 30 -8 0 -21 3 -29 6 -8 3 -17 -2 -21 -11z"/>
<path d="M7520 1480 c-13 -121 -25 -219 -27 -216 -6 6 -43 247 -43 284 0 29
-3 32 -30 32 -37 0 -36 8 -8 -193 l22 -159 28 6 c26 5 28 3 28 -27 0 -17 -3
-49 -6 -69 l-7 -38 -68 0 -69 0 0 -30 0 -30 220 0 c183 0 220 2 220 14 0 8 3
21 6 30 5 14 -4 16 -60 16 -56 0 -66 3 -66 18 0 9 14 143 30 297 16 154 30
281 30 283 0 1 -13 2 -30 2 -16 0 -30 -4 -30 -10 0 -5 -13 -134 -30 -287 -16
-152 -30 -283 -30 -290 0 -8 -12 -13 -30 -13 -16 0 -30 4 -30 10 0 5 14 134
30 287 17 152 30 283 30 290 0 8 -12 13 -29 13 l-28 0 -23 -220z"/>
<path d="M1955 1681 c-11 -5 -43 -12 -70 -15 -64 -9 -76 -16 -69 -43 5 -18 11
-21 40 -16 33 6 34 5 34 -30 0 -58 -7 -67 -55 -67 -37 0 -43 -3 -47 -25 -6
-30 -2 -35 34 -35 15 0 28 -5 28 -11 0 -20 -61 -164 -90 -211 l-29 -47 21 -16
c13 -8 26 -11 31 -6 5 5 24 46 43 92 38 96 40 88 19 -91 -8 -69 -15 -129 -15
-133 0 -5 12 -7 28 -5 l27 3 16 140 c9 77 17 142 18 144 0 2 10 -4 22 -15 20
-18 21 -18 35 0 12 16 11 23 -7 47 -11 16 -24 31 -29 34 -6 4 -10 21 -10 40 0
31 3 34 33 37 27 2 33 8 35 31 3 24 0 27 -29 27 -31 0 -32 1 -25 38 3 20 6 47
6 59 0 16 8 23 29 28 25 5 29 10 22 28 -9 25 -19 29 -46 18z"/>
<path d="M2748 1683 c-21 -5 -21 -6 -4 -62 14 -48 23 -56 45 -42 11 7 11 17
-4 60 -9 28 -17 50 -18 50 -1 -1 -10 -3 -19 -6z"/>
<path d="M5391 1659 c-6 -17 -28 -57 -50 -89 -35 -50 -38 -59 -25 -72 13 -13
13 -31 -1 -147 -15 -131 -37 -237 -57 -274 -6 -13 -6 -23 3 -33 24 -29 37 -13
66 76 25 80 31 90 52 90 23 0 24 0 17 -81 -7 -80 -7 -81 16 -77 26 3 35 31 37
111 1 45 2 47 31 47 25 0 30 -4 29 -22 -1 -34 -16 -116 -18 -95 -1 17 -26 24
-34 10 -8 -15 13 -71 28 -77 23 -8 45 4 55 30 13 33 52 418 44 437 -3 9 -19
19 -35 22 l-30 7 21 33 c24 39 26 71 4 79 -9 3 -35 6 -58 6 -41 0 -43 1 -38
25 4 21 1 25 -21 25 -19 0 -28 -7 -36 -31z m92 -101 c-16 -28 -26 -33 -61 -36
-23 -2 -42 0 -42 3 0 4 9 20 21 36 17 24 28 29 61 29 l40 0 -19 -32z m-55
-130 c-3 -28 -7 -34 -32 -36 -23 -3 -28 0 -22 13 3 9 6 25 6 36 0 14 7 19 26
19 23 0 25 -3 22 -32z m104 -3 c-4 -30 -8 -35 -31 -35 -25 0 -27 3 -23 35 4
30 8 35 31 35 25 0 27 -3 23 -35z m-116 -107 c-3 -13 -6 -29 -6 -35 0 -7 -11
-13 -25 -13 -18 0 -25 5 -25 19 0 35 12 51 37 51 21 0 24 -4 19 -22z m104 -13
c0 -33 -2 -35 -31 -35 -28 0 -31 3 -25 23 3 12 6 28 6 35 0 6 11 12 25 12 22
0 25 -4 25 -35z"/>
<path d="M6402 1640 c-19 -27 -56 -70 -84 -96 l-50 -47 20 -20 20 -20 32 23
c17 12 35 19 38 14 4 -5 20 -23 36 -41 l28 -32 -58 -29 c-33 -16 -76 -35 -96
-41 -43 -14 -42 -12 -26 -46 14 -31 21 -29 139 29 l86 43 69 -43 c84 -53 114
-62 131 -38 7 10 13 21 13 25 0 4 -28 21 -62 37 -35 16 -72 37 -83 45 -19 15
-18 16 23 61 55 59 80 111 66 134 -9 13 -29 18 -93 20 -44 2 -81 5 -81 8 0 3
5 15 11 26 9 16 8 23 -2 29 -27 17 -44 8 -77 -41z m149 -118 c-56 -72 -59 -72
-102 -22 -22 25 -39 48 -39 53 0 4 39 7 86 7 l86 0 -31 -38z"/>
<path d="M120 1651 c0 -16 6 -31 13 -34 10 -4 9 -45 -9 -213 -13 -115 -23
-212 -23 -216 -1 -5 -8 -8 -16 -8 -10 0 -15 -10 -15 -30 0 -35 1 -35 66 -15
27 8 53 15 57 15 5 0 7 -28 5 -62 -3 -61 -2 -63 22 -63 24 0 25 4 34 76 7 67
11 78 32 88 13 6 24 15 24 20 0 21 -13 41 -26 41 -8 0 -14 3 -14 8 0 4 9 85
20 180 13 123 23 176 34 188 9 8 16 24 16 35 0 18 -8 19 -110 19 l-110 0 0
-29z m130 -58 c0 -53 -11 -73 -37 -73 -19 0 -24 4 -19 16 3 9 6 31 6 50 0 30
3 34 25 34 21 0 25 -5 25 -27z m-20 -173 c0 -36 -2 -40 -25 -40 -22 0 -25 4
-25 33 0 38 6 47 32 47 14 0 18 -8 18 -40z m-14 -146 c-7 -56 -12 -64 -38 -64
-18 0 -20 4 -14 38 3 20 6 45 6 55 0 12 8 17 26 17 26 0 27 -1 20 -46z"/>
<path d="M1272 1673 c-16 -3 -22 -9 -18 -20 3 -8 9 -60 13 -115 6 -95 7 -99
27 -94 12 3 25 6 30 6 5 0 6 36 3 83 -8 96 -17 148 -26 146 -3 -1 -16 -4 -29
-6z"/>
<path d="M1395 1668 c-2 -7 -9 -62 -15 -123 -5 -60 -13 -127 -16 -147 -6 -37
-5 -38 24 -38 l29 0 -9 -52 c-17 -96 -63 -176 -127 -220 -22 -16 -23 -20 -11
-42 12 -23 15 -24 39 -11 71 37 134 144 154 261 10 58 13 64 35 64 22 0 24 -3
18 -31 -3 -18 -9 -83 -13 -144 l-6 -113 27 -27 c30 -30 66 -29 99 4 16 15 53
129 45 136 -2 1 -15 5 -30 9 -23 5 -28 3 -28 -11 0 -40 -21 -93 -37 -93 -14 0
-15 12 -9 98 11 162 14 172 47 172 16 0 29 5 29 10 0 18 20 203 25 237 4 24 1
37 -15 53 -18 18 -33 20 -135 20 -84 0 -117 -3 -120 -12z m200 -140 c-4 -51
-9 -96 -12 -100 -2 -5 -38 -8 -80 -8 l-75 0 6 68 c4 37 10 82 13 100 l5 32 75
0 75 0 -7 -92z"/>
<path d="M4086 1633 c-3 -27 -8 -74 -12 -105 l-6 -58 71 0 c64 0 71 -2 71 -20
0 -19 -7 -20 -94 -20 -76 0 -95 -3 -100 -16 -17 -44 -18 -44 213 -44 190 0
220 2 225 16 16 41 10 44 -95 44 -88 0 -100 2 -95 16 3 9 6 18 6 20 0 2 33 4
74 4 l74 0 7 63 c3 34 8 74 11 88 10 53 -11 59 -186 59 l-158 0 -6 -47z m292
-20 c-3 -16 -18 -18 -121 -21 -112 -3 -117 -2 -117 18 0 19 6 20 121 20 109 0
120 -2 117 -17z m-10 -80 c-3 -16 -18 -18 -121 -21 -112 -3 -117 -2 -117 18 0
19 6 20 121 20 109 0 120 -2 117 -17z"/>
<path d="M7985 1671 c-3 -5 -19 -135 -35 -288 -16 -153 -31 -293 -34 -310 l-5
-33 213 0 214 0 4 30 5 30 -185 0 -184 0 6 28 c3 15 15 119 26 232 11 113 23
215 26 228 4 22 6 22 184 22 l180 0 0 35 0 35 -204 0 c-116 0 -207 -4 -211 -9z"/>
<path d="M5167 1663 c-4 -3 -7 -19 -7 -35 0 -23 4 -28 25 -28 l25 0 -24 -64
c-13 -35 -32 -78 -41 -96 -14 -27 -15 -37 -4 -56 9 -19 9 -51 -3 -165 -12
-116 -12 -142 -1 -146 21 -8 43 5 43 27 0 17 6 20 39 20 47 0 44 -7 62 183 14
142 12 147 -45 147 -23 0 -27 3 -21 18 4 9 16 43 27 74 16 48 23 57 46 60 22
2 28 9 30 36 l3 32 -74 0 c-40 0 -77 -3 -80 -7z m68 -310 c-4 -27 -9 -77 -13
-112 -5 -41 -12 -66 -21 -69 -12 -4 -13 10 -7 84 10 117 16 144 33 144 11 0
12 -10 8 -47z"/>
<path d="M357 1653 c-4 -3 -7 -19 -7 -35 l0 -28 75 0 75 0 -6 -27 c-14 -64
-44 -180 -52 -202 -14 -40 -23 -9 -29 100 l-6 99 -29 0 -30 0 7 -77 c3 -43 13
-115 21 -161 l15 -84 -59 -88 c-58 -88 -59 -90 -40 -107 19 -17 21 -16 48 17
16 19 37 50 47 68 10 17 20 32 24 32 3 0 18 -29 34 -65 28 -68 34 -72 66 -55
19 10 18 12 -5 58 -12 26 -31 68 -41 94 l-17 46 30 79 c26 69 58 183 77 279
10 51 -12 64 -109 64 -45 0 -86 -3 -89 -7z"/>
<path d="M2045 1648 c-3 -7 -16 -125 -30 -263 -13 -137 -27 -267 -30 -287 l-5
-38 100 0 c97 0 100 1 101 23 0 12 12 135 27 272 15 138 26 258 24 268 -5 25
-42 37 -118 37 -43 0 -66 -4 -69 -12z m124 -85 c0 -16 -10 -120 -22 -233 l-22
-205 -39 -3 -39 -3 6 48 c3 26 13 132 23 236 l18 187 38 0 c35 0 38 -2 37 -27z"/>
<path d="M3285 1506 c-14 -67 -53 -202 -71 -251 -3 -6 6 -17 20 -23 24 -11 26
-9 45 43 11 30 31 98 45 152 40 165 40 150 7 155 -28 4 -29 3 -46 -76z"/>
<path d="M7765 1506 c-14 -67 -53 -202 -71 -251 -3 -6 6 -17 20 -23 24 -11 26
-9 45 43 11 30 31 98 45 152 40 165 40 150 7 155 -28 4 -29 3 -46 -76z"/>
<path d="M8256 1494 c-21 -46 -42 -84 -46 -84 -4 0 -11 8 -15 18 -9 24 -79
132 -86 132 -3 0 -13 -6 -24 -14 -17 -12 -15 -18 35 -104 l52 -92 -25 -33
c-14 -19 -49 -57 -78 -86 l-53 -51 22 -23 23 -22 73 78 73 77 32 -70 c34 -72
39 -77 72 -60 18 10 17 15 -25 98 l-44 88 29 50 c15 27 39 75 53 106 l25 56
-27 10 c-27 9 -28 8 -66 -74z"/>
<path d="M2354 1473 c-14 -133 -13 -138 24 -141 30 -3 33 -6 28 -30 -2 -15 -7
-54 -11 -87 -12 -130 -14 -136 -41 -129 -33 9 -43 -21 -16 -48 25 -25 66 -18
83 14 9 16 37 215 39 271 0 4 13 7 29 7 17 0 32 4 35 8 3 5 9 44 15 87 14 111
10 115 -94 115 l-83 0 -8 -67z m136 0 c0 -10 -3 -35 -6 -55 -6 -36 -8 -38 -45
-38 l-39 0 0 48 c0 27 3 52 7 55 3 4 24 7 45 7 30 0 38 -4 38 -17z"/>
<path d="M3830 1501 c0 -24 -42 -389 -46 -403 -7 -22 -33 -24 -40 -3 -9 23
-54 19 -54 -4 0 -25 30 -59 55 -62 79 -11 97 28 120 266 9 94 18 180 21 193 4
19 0 22 -26 22 -16 0 -30 -4 -30 -9z"/>
<path d="M3486 1463 c-3 -21 -13 -108 -21 -193 -9 -85 -18 -174 -21 -197 -6
-41 -5 -43 19 -43 27 0 26 -3 42 123 l6 47 45 0 44 0 0 -37 c0 -21 -3 -48 -6
-60 -7 -26 -29 -31 -37 -9 -4 9 -14 12 -26 9 -24 -6 -26 -15 -10 -44 24 -46
98 -40 118 9 11 28 41 307 41 378 0 51 -6 54 -110 54 l-78 0 -6 -37z m140 -35
c-3 -13 -6 -29 -6 -35 0 -9 -16 -13 -45 -13 -45 0 -45 0 -45 35 l0 35 51 0
c48 0 51 -1 45 -22z m-14 -103 c2 -3 3 -18 0 -35 -4 -28 -7 -30 -48 -30 -44 0
-44 0 -44 35 0 35 0 35 43 35 24 0 46 -2 49 -5z"/>
<path d="M3726 1458 c-8 -51 -26 -235 -26 -268 0 -25 4 -30 25 -30 17 0 25 6
25 18 0 9 7 78 15 152 19 171 19 160 -10 160 -20 0 -25 -6 -29 -32z"/>
<path d="M819 1378 c0 -7 -8 -87 -18 -178 -10 -91 -15 -169 -11 -173 4 -5 16
-7 26 -5 15 2 21 17 28 66 l9 62 69 0 68 0 -6 -27 c-4 -16 -9 -31 -11 -35 -7
-13 -35 -9 -47 8 -13 18 -46 9 -46 -12 0 -20 35 -52 65 -60 30 -8 72 17 85 50
4 13 14 85 21 160 11 118 11 139 -2 147 -23 14 -229 11 -230 -3z m191 -42 c0
-28 -16 -36 -76 -36 -57 0 -64 2 -64 20 0 18 7 20 70 20 39 0 70 -2 70 -4z
m-10 -95 c0 -34 -13 -41 -76 -41 -62 0 -64 1 -64 25 0 24 2 25 70 25 39 0 70
-4 70 -9z"/>
<path d="M1253 1312 c-16 -53 -65 -167 -90 -213 -2 -3 8 -14 21 -23 l25 -16
40 82 c35 75 85 217 79 224 -2 1 -14 5 -28 9 -24 6 -26 2 -47 -63z"/>
<path d="M4060 1303 c0 -21 -3 -55 -6 -75 l-7 -38 73 0 73 0 -5 -50 c-6 -59
-12 -68 -37 -53 -10 7 -28 9 -40 6 -19 -5 -19 -7 -6 -34 39 -74 135 -33 135
58 0 68 6 73 80 73 l67 0 7 61 c10 90 12 89 -175 89 l-159 0 0 -37z m278 -35
c-3 -22 -8 -23 -102 -26 -115 -3 -126 -1 -119 27 5 20 13 21 115 21 108 0 109
0 106 -22z"/>
<path d="M2330 1270 c0 -10 -11 -48 -24 -84 -23 -65 -21 -76 14 -76 12 0 62
159 55 171 -11 18 -45 10 -45 -11z"/>
<path d="M6317 1283 c-2 -5 -7 -42 -11 -83 -4 -41 -9 -96 -13 -122 l-6 -48
162 0 c88 0 161 1 162 3 5 15 23 207 21 220 -2 10 -15 22 -28 28 -30 11 -281
12 -287 2z m253 -82 c0 -10 -3 -39 -6 -65 l-7 -46 -98 0 -99 0 0 34 c0 18 3
48 6 65 l7 31 98 0 c90 0 99 -2 99 -19z"/>
<path d="M4065 1146 c-11 -11 -36 -32 -54 -46 -31 -24 -33 -28 -20 -47 l13
-21 42 30 c69 50 89 75 74 93 -16 20 -31 18 -55 -9z"/>
<path d="M4300 1155 c-10 -12 -7 -21 16 -51 67 -84 60 -79 81 -64 10 8 20 15
22 17 6 4 -84 112 -95 112 -6 1 -17 -6 -24 -14z"/>
<path d="M4592 1048 c-41 -117 -40 -111 -21 -115 11 -3 25 11 42 40 27 45 70
147 65 152 -2 2 -14 6 -28 10 -24 5 -27 1 -58 -87z"/>
<path d="M420 831 c0 -16 -3 -43 -6 -60 l-6 -31 -84 0 c-83 0 -84 0 -84 -25 0
-25 1 -25 83 -25 l83 0 -4 -157 -4 -158 -51 -53 c-29 -29 -67 -62 -84 -73 -37
-23 -39 -28 -19 -54 13 -18 15 -18 52 9 22 16 55 44 75 63 l36 34 6 -38 c8
-50 33 -83 61 -83 35 0 56 32 68 105 9 55 9 68 -3 76 -29 18 -37 8 -44 -51 -9
-75 -27 -75 -37 1 -6 46 -3 60 16 94 13 22 36 73 51 113 24 62 26 75 14 83
-24 15 -36 10 -42 -18 -8 -39 -37 -106 -43 -100 -3 3 -3 51 1 106 l8 101 48 0
c46 0 49 2 49 25 0 23 -3 25 -47 25 l-48 0 3 60 c4 59 3 60 -22 60 -22 0 -26
-4 -26 -29z"/>
<path d="M501 851 c-11 -7 -11 -15 -1 -47 17 -54 19 -55 40 -44 16 9 17 15 8
43 -14 42 -30 58 -47 48z"/>
<path d="M1416 823 c-4 -21 -12 -55 -17 -75 -9 -36 -12 -38 -48 -38 l-39 0 13
51 c14 53 16 50 -28 63 -8 2 -21 -27 -38 -86 l-26 -90 21 -8 c11 -4 25 -4 30
1 6 5 27 9 49 9 44 0 45 3 -5 -116 -35 -88 -84 -170 -139 -235 l-41 -49 23
-20 24 -20 33 38 c19 20 57 74 85 120 l50 82 29 -51 c15 -29 28 -56 28 -60 0
-9 -87 -74 -122 -89 -23 -11 -25 -15 -16 -36 6 -13 14 -24 17 -24 9 0 103 58
132 81 l26 21 67 -51 c68 -52 78 -54 96 -22 8 15 3 23 -28 44 -20 13 -50 36
-65 51 l-28 26 25 33 c32 42 76 136 76 164 0 32 -29 43 -113 43 l-75 0 11 35
10 34 116 3 116 3 3 28 3 27 -109 0 -110 0 14 58 c20 85 19 92 -15 92 -25 0
-30 -4 -35 -37z m109 -339 c-20 -49 -55 -95 -66 -88 -11 6 -43 68 -53 102 -7
21 -5 22 63 22 l71 0 -15 -36z"/>
<path d="M2430 831 c0 -47 -10 -61 -41 -61 -26 0 -29 -4 -29 -30 0 -27 3 -30
31 -30 24 0 30 -3 25 -16 -3 -9 -6 -27 -6 -40 0 -21 -5 -24 -34 -24 -26 0 -35
-5 -39 -22 -9 -31 -1 -38 45 -38 l40 0 -6 -57 c-4 -32 -9 -76 -13 -98 -5 -37
-6 -38 -15 -15 -5 13 -6 48 -2 77 6 51 5 53 -18 53 -23 0 -25 -5 -40 -103 -9
-57 -25 -129 -36 -161 -18 -54 -18 -57 -1 -66 26 -14 26 -15 44 43 9 28 19 58
21 66 3 9 18 -2 44 -31 70 -80 191 -111 306 -79 55 15 64 23 57 50 -5 19 -10
22 -32 16 -14 -4 -64 -9 -111 -11 -69 -4 -92 -2 -119 13 -48 25 -55 41 -47
106 7 52 10 57 32 57 13 0 24 4 24 9 0 5 3 16 6 25 5 12 0 16 -20 16 -24 0
-26 3 -26 44 0 41 2 45 28 48 21 2 28 9 30 31 3 24 0 27 -27 27 -29 0 -31 2
-31 40 0 36 2 40 25 40 18 0 28 7 35 26 14 35 14 34 -21 34 l-30 0 7 45 6 45
-31 0 c-28 0 -31 -3 -31 -29z"/>
<path d="M2609 798 c-17 -35 -41 -76 -52 -92 -15 -21 -17 -31 -9 -34 7 -2 12
-15 12 -28 0 -24 2 -24 86 -24 l87 0 -7 -31 c-3 -17 -6 -37 -6 -45 0 -10 -21
-14 -77 -16 -77 -3 -78 -3 -81 -30 l-3 -28 75 0 76 0 0 -32 c0 -75 -4 -78 -95
-78 -83 0 -95 -5 -95 -41 0 -5 52 -9 115 -9 134 0 118 -19 135 165 6 66 13
130 16 142 2 14 -4 29 -17 42 -20 18 -20 20 -4 51 9 17 15 41 13 53 -3 19 -10
22 -52 25 -47 3 -48 4 -43 32 4 20 2 30 -9 34 -28 11 -34 6 -65 -56z m94 -90
c-16 -28 -26 -33 -61 -36 l-42 -3 21 35 c18 32 26 36 61 36 l40 0 -19 -32z"/>
<path d="M2987 831 c-5 -25 -12 -30 -39 -33 -25 -2 -34 -8 -36 -25 -3 -20 1
-23 33 -23 30 0 36 -3 31 -16 -3 -9 -6 -24 -6 -35 0 -14 -10 -20 -40 -25 -39
-6 -46 -16 -35 -46 4 -10 16 -13 35 -10 28 4 30 2 30 -26 0 -16 -7 -35 -16
-42 -13 -11 -16 -10 -21 8 -8 30 -43 29 -43 -1 0 -36 27 -67 60 -67 34 0 70
40 70 79 0 43 11 71 29 71 28 0 41 15 34 39 -4 17 -11 21 -28 17 -19 -5 -21
-2 -17 24 3 23 9 30 27 30 16 0 24 7 27 25 4 21 1 25 -18 25 -20 0 -24 5 -24
30 0 25 -4 30 -24 30 -18 0 -25 -7 -29 -29z"/>
<path d="M3170 830 c0 -27 -3 -30 -30 -30 -25 0 -30 -4 -30 -25 0 -20 5 -25
25 -25 25 0 31 -14 17 -38 -5 -7 -16 -10 -25 -7 -10 4 -20 -1 -27 -15 -9 -17
-8 -24 11 -39 l22 -18 -44 -46 c-42 -44 -44 -47 -29 -67 l16 -21 26 21 c15 11
36 36 48 56 20 32 24 34 39 20 13 -12 20 -13 29 -4 9 9 12 7 12 -9 0 -34 21
-83 41 -94 39 -20 73 17 88 96 8 43 7 45 -14 45 -19 0 -24 -7 -30 -40 -4 -22
-12 -40 -17 -40 -7 0 -8 25 -3 78 4 42 8 97 9 122 l1 45 -43 3 c-42 3 -43 4
-37 33 6 27 5 29 -24 29 -28 0 -31 -3 -31 -30z m75 -137 c-4 -32 -9 -60 -11
-62 -2 -2 -12 3 -22 13 -17 14 -18 22 -9 61 8 34 15 45 30 45 18 0 19 -5 12
-57z"/>
<path d="M4230 835 c0 -25 -1 -25 -90 -25 l-89 0 -5 -32 c-3 -18 -8 -54 -11
-80 l-6 -48 30 0 c29 0 31 2 37 50 l7 50 159 0 160 0 -7 -50 -7 -50 30 0 c26
0 30 4 36 38 17 103 0 122 -111 122 -71 0 -73 1 -73 25 0 21 -5 25 -30 25 -25
0 -30 -4 -30 -25z"/>
<path d="M737 800 c-15 -42 -22 -50 -42 -50 -15 0 -25 -6 -25 -14 0 -8 -11
-121 -25 -252 -31 -299 -31 -294 -1 -294 18 0 25 7 30 30 5 30 6 30 69 30 l63
0 22 213 c13 116 22 223 22 238 0 31 -17 49 -47 49 -27 0 -27 -2 -7 45 13 31
13 39 2 46 -28 18 -44 8 -61 -41z m59 -132 c-3 -13 -8 -49 -11 -80 l-6 -58
-35 0 c-38 0 -38 -1 -28 99 l7 61 39 0 c35 0 38 -2 34 -22z m-30 -270 c-4 -46
-11 -87 -16 -91 -4 -5 -20 -7 -36 -5 -22 2 -29 8 -27 23 1 11 5 50 8 88 l7 67
35 0 36 0 -7 -82z"/>
<path d="M949 823 c-5 -16 -29 -68 -51 -116 -35 -74 -40 -90 -27 -98 26 -17
39 -9 61 36 21 43 24 45 66 45 l44 0 -6 -37 c-3 -21 -13 -105 -21 -188 -20
-192 -27 -215 -66 -215 -22 0 -32 7 -41 25 -8 18 -18 25 -32 23 -33 -5 -31
-42 2 -79 53 -59 135 -41 167 36 7 17 23 126 35 244 l22 215 -22 18 c-13 10
-38 18 -61 18 l-39 0 15 37 c18 43 14 63 -15 63 -13 0 -24 -10 -31 -27z"/>
<path d="M1536 828 c-14 -20 -14 -23 7 -36 12 -8 34 -26 48 -39 l26 -23 19 21
c19 21 19 21 -26 60 -25 21 -48 39 -52 39 -4 0 -14 -10 -22 -22z"/>
<path d="M3635 841 c-11 -5 -43 -12 -70 -15 -64 -9 -76 -16 -69 -43 5 -18 11
-21 40 -16 33 6 34 5 34 -30 0 -58 -7 -67 -55 -67 -37 0 -43 -3 -47 -25 -6
-30 -2 -35 34 -35 15 0 28 -5 28 -11 0 -20 -61 -164 -90 -211 l-29 -47 21 -16
c13 -8 26 -11 31 -6 5 5 24 46 43 92 38 96 40 88 19 -91 -8 -69 -15 -129 -15
-133 0 -5 12 -7 28 -5 l27 3 16 140 c9 77 17 142 18 144 0 2 10 -4 22 -15 20
-18 21 -18 35 0 12 16 11 23 -7 47 -11 16 -24 31 -29 34 -6 4 -10 21 -10 40 0
31 3 34 33 37 27 2 33 8 35 31 3 24 0 27 -29 27 -31 0 -32 1 -25 38 3 20 6 47
6 59 0 16 8 23 29 28 25 5 29 10 22 28 -9 25 -19 29 -46 18z"/>
<path d="M4636 835 c-17 -13 -16 -16 15 -57 19 -24 35 -44 36 -46 0 -2 13 4
27 13 l26 17 -32 44 c-34 47 -43 51 -72 29z"/>
<path d="M1821 718 c-20 -207 -41 -329 -72 -421 -16 -49 -29 -92 -29 -96 0 -4
11 -13 24 -19 24 -11 26 -9 46 46 12 31 29 85 37 120 14 55 19 62 40 62 24 0
24 -2 18 -57 -9 -89 -13 -100 -35 -106 -21 -6 -25 -23 -10 -47 8 -12 18 -11
77 8 92 29 109 42 94 70 -10 18 -15 20 -37 12 -14 -6 -27 -10 -30 -10 -6 0 -5
49 2 93 6 33 10 37 35 37 22 0 29 -5 29 -19 0 -34 31 -105 58 -134 29 -31 92
-67 115 -67 8 0 17 11 19 25 4 21 -1 28 -38 46 -24 11 -44 24 -44 28 0 4 18
22 41 41 38 30 40 34 25 49 -11 11 -20 13 -30 6 -73 -54 -86 -54 -86 -5 0 29
0 29 68 32 61 3 67 5 70 26 3 20 -1 22 -42 22 -46 0 -46 0 -46 35 0 33 2 35
34 35 28 0 34 4 38 25 5 23 2 25 -28 25 -31 0 -34 3 -34 30 0 25 -4 30 -24 30
-19 0 -26 -7 -31 -30 -6 -26 -11 -30 -42 -30 -34 0 -35 1 -31 30 4 27 2 30
-23 30 -22 0 -29 -6 -34 -30 -6 -26 -11 -30 -41 -30 -33 0 -34 1 -34 40 l0 40
174 0 174 0 7 71 c11 110 12 109 -210 109 l-182 0 -12 -122z m345 46 c-3 -9
-6 -22 -6 -30 0 -11 -26 -14 -140 -14 -77 0 -140 3 -140 8 0 4 3 17 6 30 6 21
10 22 146 22 124 0 139 -2 134 -16z m-230 -250 c-3 -9 -6 -24 -6 -35 0 -16 -7
-19 -41 -19 -38 0 -41 2 -35 23 3 12 6 28 6 35 0 7 15 12 41 12 33 0 40 -3 35
-16z m130 0 c-3 -9 -6 -24 -6 -35 0 -15 -7 -19 -35 -19 -33 0 -35 2 -35 35 0
34 1 35 41 35 33 0 40 -3 35 -16z"/>
<path d="M145 740 c-7 -80 -7 -80 -36 -80 -24 0 -29 -4 -29 -25 0 -20 5 -25
26 -25 26 0 26 -1 21 -47 -4 -27 -9 -81 -13 -120 -4 -40 -10 -73 -15 -73 -4 0
-19 -4 -32 -9 -19 -8 -23 -15 -20 -35 6 -31 24 -29 116 12 47 20 57 29 55 46
-2 16 -9 20 -30 18 -27 -3 -28 -2 -22 40 3 24 8 70 12 103 6 52 10 60 30 63
30 5 32 52 2 52 -19 0 -20 4 -14 68 3 37 7 73 10 80 2 7 -7 12 -25 12 -29 0
-29 0 -36 -80z"/>
<path d="M3725 808 c-3 -7 -16 -125 -30 -263 -13 -137 -27 -267 -30 -287 l-5
-38 100 0 c97 0 100 1 101 23 0 12 12 135 27 272 15 138 26 258 24 268 -5 25
-42 37 -118 37 -43 0 -66 -4 -69 -12z m124 -85 c0 -16 -10 -120 -22 -233 l-22
-205 -39 -3 -39 -3 6 48 c3 26 13 132 23 236 l18 187 38 0 c35 0 38 -2 37 -27z"/>
<path d="M4780 790 l0 -30 95 0 c69 0 95 -3 95 -12 0 -35 -49 -465 -55 -480
-13 -33 -55 -33 -71 2 -8 16 -13 17 -36 7 -27 -12 -27 -13 -12 -43 16 -33 50
-54 89 -54 30 0 81 42 89 74 9 35 56 460 56 504 0 21 -5 43 -12 50 -8 8 -50
12 -125 12 l-113 0 0 -30z"/>
<path d="M4610 696 c0 -8 -11 -120 -25 -248 -31 -291 -31 -270 3 -266 l27 3
22 205 c12 113 24 231 28 263 l6 57 -31 0 c-19 0 -30 -5 -30 -14z"/>
<path d="M4162 671 c-12 -16 -50 -48 -86 -72 -60 -39 -63 -44 -53 -66 5 -12
14 -23 19 -23 29 0 203 142 187 152 -2 2 -13 11 -25 21 -20 16 -21 16 -42 -12z"/>
<path d="M4287 666 c-16 -23 -15 -25 63 -89 l79 -66 15 23 c14 22 13 25 -27
63 -23 22 -58 52 -78 67 l-36 26 -16 -24z"/>
<path d="M4720 673 c0 -10 -7 -76 -15 -148 -8 -72 -15 -145 -15 -162 l0 -33
94 0 93 0 12 123 c7 67 15 140 18 163 8 61 -10 74 -108 74 -69 0 -79 -2 -79
-17z m130 -72 c0 -51 -9 -61 -52 -61 -37 0 -40 2 -34 23 3 12 6 32 6 45 0 19
5 22 40 22 38 0 40 -2 40 -29z m-14 -133 c-3 -13 -6 -35 -6 -50 0 -26 -3 -28
-40 -28 -39 0 -40 1 -40 34 0 56 8 66 52 66 37 0 40 -2 34 -22z"/>
<path d="M243 538 c-6 -57 -7 -107 -3 -111 4 -4 34 -7 66 -5 l59 3 9 93 c4 50
6 99 2 107 -4 11 -21 15 -64 15 l-59 0 -10 -102z m87 13 c0 -61 -7 -81 -29
-81 -14 0 -17 7 -14 33 9 79 14 97 28 97 11 0 15 -13 15 -49z"/>
<path d="M885 554 c-11 -4 14 -156 27 -169 4 -4 16 -4 28 0 20 6 22 12 16 53
-15 109 -30 133 -71 116z"/>
<path d="M3048 468 c-3 -21 -9 -23 -81 -26 l-78 -3 3 -27 c3 -26 6 -27 66 -30
34 -2 62 -7 62 -12 0 -21 -65 -81 -116 -106 -30 -14 -54 -29 -54 -33 0 -4 6
-16 14 -26 14 -19 15 -19 64 4 60 28 116 80 143 133 l19 38 75 0 75 0 -6 -47
c-4 -27 -13 -58 -20 -70 -19 -31 -52 -29 -66 2 -12 27 -24 30 -48 15 -24 -15
-1 -62 42 -83 32 -16 43 -17 73 -7 49 16 66 47 78 140 14 106 10 110 -99 110
-83 0 -84 0 -84 25 0 21 -5 25 -29 25 -23 0 -30 -5 -33 -22z"/>
<path d="M4067 484 c-4 -4 -7 -20 -7 -36 l0 -28 68 0 68 0 -7 -67 c-5 -38 -8
-73 -8 -80 -1 -9 -31 -13 -98 -15 l-98 -3 -3 -32 -3 -33 225 0 226 0 0 35 0
35 -93 0 -93 0 7 68 c5 37 8 72 8 79 1 8 25 13 69 15 l67 3 0 30 0 30 -161 3
c-88 1 -163 -1 -167 -4z"/>
<path d="M260 349 c-30 -15 -74 -34 -97 -41 -42 -12 -52 -28 -35 -56 10 -15
55 -1 150 47 63 32 67 37 56 65 -8 20 -8 20 -74 -15z"/>
<path d="M5175 371 c-36 -15 -58 -49 -63 -100 -4 -43 -1 -53 21 -75 74 -74
191 19 163 128 -10 42 -73 66 -121 47z m69 -47 c37 -36 5 -114 -47 -114 -32 0
-47 18 -47 55 0 58 59 95 94 59z"/>
</g>
</svg>
