<?xml version="1.0" standalone="no"?>
<!DOCTYPE svg PUBLIC "-//W3C//DTD SVG 20010904//EN"
 "http://www.w3.org/TR/2001/REC-SVG-20010904/DTD/svg10.dtd">
<svg version="1.0" xmlns="http://www.w3.org/2000/svg"
 width="851.000000pt" height="427.000000pt" viewBox="0 0 851.000000 427.000000"
 preserveAspectRatio="xMidYMid meet">

<g transform="translate(0.000000,427.000000) scale(0.100000,-0.100000)"
fill="#000000" stroke="none">
<path d="M745 4080 c-7 -69 -7 -70 -36 -70 -26 0 -29 -4 -29 -30 0 -26 4 -30
26 -30 25 0 26 -2 20 -37 -3 -21 -6 -55 -6 -75 0 -35 -3 -38 -40 -49 -39 -12
-46 -22 -34 -53 4 -11 14 -13 36 -9 26 5 30 3 25 -13 -3 -10 -9 -54 -13 -96
-3 -43 -10 -78 -15 -78 -5 0 -9 7 -9 15 0 16 -35 21 -45 5 -3 -5 1 -25 9 -45
13 -29 20 -35 45 -35 46 0 60 31 73 163 12 114 12 116 41 128 22 9 27 17 23
33 -3 12 -6 24 -6 28 0 3 -8 4 -19 1 -17 -4 -18 0 -14 44 6 66 9 73 32 73 11
0 21 9 25 23 9 34 8 37 -19 37 -27 0 -27 1 -10 113 4 24 1 27 -24 27 -28 0
-29 -1 -36 -70z"/>
<path d="M1426 4135 c-3 -9 -6 -25 -6 -36 0 -17 -8 -19 -65 -19 -61 0 -66 -2
-75 -26 -14 -37 -6 -44 56 -44 57 0 60 -3 44 -44 -9 -24 -14 -26 -75 -26 l-65
0 0 -30 c0 -29 1 -30 50 -30 33 0 50 -4 50 -12 0 -7 -14 -40 -31 -72 -30 -57
-31 -60 -13 -73 23 -17 33 -16 40 2 5 12 27 15 111 15 l104 0 -29 -42 c-17
-24 -41 -53 -55 -66 l-25 -23 -53 26 -53 27 -18 -22 -18 -23 66 -38 c37 -22
88 -55 114 -74 45 -33 48 -34 64 -17 23 26 20 34 -19 61 l-35 24 40 43 c40 43
100 131 100 145 0 4 -7 15 -16 23 -12 13 -39 16 -125 16 -60 0 -109 2 -109 5
0 2 8 20 17 40 l17 35 138 0 138 0 0 30 0 30 -125 0 c-71 0 -125 4 -125 9 0 5
4 21 10 35 9 26 11 26 114 26 103 0 104 0 110 25 4 14 4 30 1 35 -4 6 -49 10
-102 10 l-95 0 6 30 c4 22 2 30 -8 30 -8 0 -21 3 -29 6 -8 3 -17 -2 -21 -11z"/>
<path d="M1940 3930 c-13 -121 -25 -219 -27 -216 -6 6 -43 247 -43 284 0 29
-3 32 -30 32 -37 0 -36 8 -8 -193 l22 -159 28 6 c26 5 28 3 28 -27 0 -17 -3
-49 -6 -69 l-7 -38 -68 0 -69 0 0 -30 0 -30 220 0 c183 0 220 2 220 14 0 8 3
21 6 30 5 14 -4 16 -60 16 -56 0 -66 3 -66 18 0 9 14 143 30 297 16 154 30
281 30 283 0 1 -13 2 -30 2 -16 0 -30 -4 -30 -10 0 -5 -13 -134 -30 -287 -16
-152 -30 -283 -30 -290 0 -8 -12 -13 -30 -13 -16 0 -30 4 -30 10 0 5 14 134
30 287 17 152 30 283 30 290 0 8 -12 13 -29 13 l-28 0 -23 -220z"/>
<path d="M2737 4143 c-4 -3 -7 -23 -7 -43 0 -21 -3 -52 -6 -69 l-6 -31 -79 0
-79 0 0 -30 0 -30 75 0 c65 0 75 -2 75 -17 0 -10 -7 -92 -17 -182 -12 -118
-21 -169 -33 -184 -21 -25 -46 -17 -63 20 -9 21 -18 27 -34 25 -29 -4 -30 -35
-3 -80 26 -42 62 -56 108 -41 52 17 67 63 89 274 18 176 19 179 43 185 18 4
26 14 28 33 3 23 0 27 -22 27 -22 0 -25 4 -21 28 2 15 6 48 9 75 6 46 5 47
-23 47 -15 0 -31 -3 -34 -7z"/>
<path d="M3746 4113 c-3 -21 -6 -56 -6 -78 0 -74 -7 -85 -54 -85 l-42 0 6 56
c6 53 19 73 48 74 16 0 15 12 -1 34 -13 18 -17 17 -89 -8 -42 -14 -83 -26 -92
-26 -12 0 -13 -5 -5 -29 10 -28 12 -29 46 -19 19 5 36 8 38 6 2 -2 1 -22 -2
-45 l-6 -42 -51 -3 c-47 -3 -51 -5 -54 -30 -3 -27 -2 -28 47 -28 57 0 56 1 45
-84 l-7 -47 -58 -16 c-59 -16 -70 -30 -51 -61 7 -10 17 -9 52 3 24 8 45 13 47
11 9 -9 -9 -136 -22 -152 -14 -20 -33 -11 -46 23 -12 31 -56 30 -51 -2 9 -65
42 -94 97 -86 34 4 62 46 69 100 3 28 9 73 12 99 5 44 9 51 40 65 34 17 41 31
25 56 -5 8 -16 11 -30 6 -18 -5 -21 -2 -21 24 0 52 8 61 56 61 l44 0 0 -110 0
-110 -43 -28 c-40 -25 -43 -29 -34 -55 l9 -27 33 20 c18 11 35 20 37 20 3 0 8
-17 12 -38 11 -69 52 -104 101 -86 37 15 81 157 54 175 -27 17 -35 8 -47 -51
-14 -65 -35 -79 -52 -34 -17 44 -12 86 14 113 32 34 97 142 91 151 -3 4 -14
10 -24 13 -16 4 -26 -6 -50 -48 -45 -79 -51 -78 -51 14 l0 81 75 0 75 0 0 30
0 30 -71 0 -72 0 8 100 7 100 -25 0 c-20 0 -25 -6 -31 -37z"/>
<path d="M4153 4133 c-21 -63 -89 -207 -117 -251 -34 -50 -34 -51 -14 -69 19
-17 21 -17 44 12 l24 30 -1 -30 c0 -16 -8 -100 -18 -185 -10 -85 -16 -158 -14
-162 2 -5 15 -8 28 -8 28 0 25 -16 60 315 17 167 30 245 45 285 20 51 21 55 4
67 -24 17 -33 16 -41 -4z"/>
<path d="M4261 4139 c-14 -6 -21 -15 -18 -23 3 -8 11 -32 18 -55 13 -42 16
-45 43 -35 20 8 19 39 -2 85 -15 33 -20 36 -41 28z"/>
<path d="M5246 4128 c-6 -30 -66 -607 -66 -635 0 -16 6 -23 19 -23 11 0 22 4
25 9 3 4 15 105 27 222 12 118 26 218 30 223 5 5 14 4 23 -3 12 -10 16 -8 21
9 13 42 15 11 5 -86 -18 -176 -19 -181 -40 -187 -14 -3 -20 -14 -20 -31 l0
-26 155 0 155 0 0 30 c0 20 -5 30 -15 30 -19 0 -19 12 0 174 9 71 13 137 10
147 -5 14 -16 19 -46 19 -39 0 -44 5 -33 34 5 12 21 16 65 16 56 0 59 1 59 25
0 24 -3 25 -61 25 -60 0 -61 0 -55 25 6 23 3 25 -24 25 -25 0 -30 -4 -30 -25
0 -24 -3 -25 -60 -25 -57 0 -60 -1 -60 -25 0 -24 3 -25 56 -25 52 0 55 -1 52
-22 -2 -19 -10 -24 -47 -26 -33 -3 -44 -8 -48 -23 -5 -18 -7 -18 -34 -2 -20
12 -27 23 -24 37 2 12 7 47 10 79 6 56 6 57 -19 57 -19 0 -27 -6 -30 -22z
m274 -198 c0 -18 -7 -20 -65 -20 -58 0 -65 2 -65 20 0 18 7 20 65 20 58 0 65
-2 65 -20z m-7 -80 c-5 -17 -14 -20 -69 -20 -57 0 -64 2 -64 20 0 18 7 20 69
20 64 0 69 -1 64 -20z m-10 -90 c-5 -17 -14 -20 -69 -20 -57 0 -64 2 -64 20 0
18 7 20 69 20 64 0 69 -1 64 -20z m-5 -82 c-5 -15 -138 -24 -138 -10 0 18 15
22 78 22 46 0 63 -3 60 -12z"/>
<path d="M6470 4115 l0 -34 -67 -3 c-66 -3 -68 -4 -71 -30 l-3 -28 67 0 67 0
-7 -31 c-3 -17 -6 -35 -6 -40 0 -5 -38 -9 -85 -9 l-85 0 0 -30 0 -29 103 -3
102 -3 -60 -38 c-33 -21 -86 -50 -117 -65 -61 -28 -66 -37 -44 -67 13 -18 16
-17 70 13 31 18 56 30 56 27 0 -3 -7 -22 -15 -42 -27 -63 -27 -63 105 -63
l120 0 -6 -32 c-4 -18 -13 -43 -20 -55 -20 -32 -68 -31 -89 1 -11 17 -22 22
-40 18 -29 -5 -29 -5 -10 -42 42 -81 164 -77 197 6 23 58 32 133 17 150 -8 10
-37 14 -115 14 -57 0 -104 2 -104 5 0 2 5 16 12 30 11 25 12 25 130 25 l118 0
0 30 0 30 -97 0 -97 0 34 30 c33 27 41 29 118 30 64 0 82 3 82 14 0 8 3 21 6
30 5 13 -3 16 -50 16 l-57 0 51 62 c27 35 50 66 50 70 0 4 -9 12 -20 18 -17 9
-24 7 -40 -12 -11 -13 -20 -27 -20 -33 -1 -5 -5 0 -10 13 -8 19 -17 22 -60 22
l-50 0 0 35 c0 32 -2 35 -30 35 -28 0 -30 -3 -30 -35z m150 -102 c0 -17 -66
-73 -87 -73 -24 0 -28 14 -17 58 6 19 13 22 55 22 27 0 49 -3 49 -7z"/>
<path d="M7036 4108 c-3 -24 -7 -54 -8 -68 -3 -24 -7 -25 -83 -30 l-80 -5 -13
-125 c-15 -145 -43 -273 -72 -331 -21 -39 -21 -41 -3 -55 10 -7 21 -14 25 -14
13 0 56 93 72 156 12 48 46 270 46 305 0 5 23 9 50 9 37 0 50 -4 50 -14 0 -22
-29 -46 -56 -46 -19 0 -24 -5 -24 -25 0 -22 4 -25 35 -25 30 0 35 -3 35 -23 0
-79 122 -101 204 -36 31 25 33 35 6 49 -16 8 -26 6 -48 -10 -20 -15 -40 -20
-63 -18 -28 2 -35 7 -37 29 -3 26 -1 27 57 34 57 6 61 9 61 32 0 25 -1 25 -59
19 -56 -6 -59 -6 -54 14 5 18 13 20 80 20 l75 0 -7 -29 c-5 -25 -3 -29 19 -33
22 -5 27 0 42 40 27 68 17 76 -100 80 -95 3 -96 3 -96 27 0 25 1 25 91 25 l90
0 -3 28 c-3 27 -4 27 -85 30 -65 2 -83 6 -83 17 0 10 -10 15 -29 15 -27 0 -30
-3 -35 -42z"/>
<path d="M7580 4136 c0 -16 30 -199 33 -203 1 -1 14 1 29 4 31 6 31 9 4 148
-11 54 -14 60 -39 63 -19 2 -27 -1 -27 -12z"/>
<path d="M167 4128 c-16 -12 -16 -17 3 -75 21 -61 22 -61 50 -51 l29 10 -22
61 c-24 65 -33 74 -60 55z"/>
<path d="M416 4118 c-3 -13 -6 -33 -6 -45 0 -18 -6 -23 -25 -23 -22 0 -24 3
-18 30 5 27 3 30 -20 30 -21 0 -28 -7 -37 -37 -7 -21 -21 -53 -32 -71 -20 -32
-20 -33 -2 -47 26 -19 29 -19 44 10 10 19 21 25 47 25 29 0 33 -3 33 -27 0
-65 -7 -72 -74 -75 -58 -3 -61 -4 -64 -30 -3 -26 -1 -28 36 -28 40 0 40 0 33
-32 -11 -48 -39 -98 -74 -135 -30 -32 -30 -33 -12 -53 l19 -21 37 37 c40 39
73 104 84 167 5 26 12 37 25 37 15 0 17 -9 12 -95 -4 -77 -2 -99 12 -120 26
-40 86 -33 110 14 19 36 30 111 18 111 -6 0 -17 3 -25 6 -11 4 -16 -6 -21 -40
-4 -25 -12 -48 -17 -52 -23 -14 -30 15 -23 94 l7 82 43 0 c42 0 44 1 44 30 l0
30 -60 0 c-59 0 -60 1 -60 28 0 62 8 72 61 72 36 0 49 4 49 14 0 8 3 21 6 30
5 13 -2 16 -45 16 l-51 0 0 45 c0 41 -2 45 -24 45 -16 0 -26 -7 -30 -22z"/>
<path d="M850 4100 c0 -20 5 -30 16 -30 8 0 22 -17 31 -37 8 -21 22 -46 31
-56 16 -18 15 -20 -7 -38 -12 -10 -41 -24 -62 -30 -43 -13 -44 -14 -26 -47
l13 -23 71 36 70 36 48 -30 c54 -34 90 -40 99 -15 10 27 7 30 -32 42 -20 6
-46 18 -57 26 -18 13 -18 15 14 51 46 53 68 102 55 123 -9 14 -32 17 -138 20
l-126 3 0 -31z m200 -38 c0 -4 -15 -23 -33 -40 -37 -36 -46 -33 -66 21 l-11
27 55 0 c30 0 55 -4 55 -8z"/>
<path d="M3843 4115 l-22 -15 32 -53 c17 -28 32 -54 33 -55 6 -9 44 11 44 22
0 6 -15 35 -33 64 -31 50 -33 51 -54 37z"/>
<path d="M4660 4105 c0 -24 2 -25 75 -25 60 0 75 -3 75 -15 0 -12 -17 -15 -89
-15 -50 0 -92 -3 -94 -7 -3 -5 -8 -47 -12 -95 l-7 -88 25 0 c28 0 37 20 37 88
l0 42 66 0 67 0 -6 -65 -6 -65 29 0 c29 0 30 2 30 43 0 83 4 87 78 87 l65 0
-7 -65 -7 -65 30 0 29 0 7 81 c5 57 4 84 -4 92 -7 7 -50 14 -96 15 -67 3 -83
7 -78 18 4 10 26 14 84 14 78 0 79 0 79 25 l0 25 -185 0 -185 0 0 -25z"/>
<path d="M5903 4123 l-143 -4 0 -29 0 -30 86 0 c83 0 85 -1 82 -22 -3 -22 -8
-23 -98 -26 -92 -3 -109 -9 -110 -39 0 -10 27 -13 100 -13 93 0 100 -1 100
-20 0 -18 -7 -20 -78 -20 l-79 0 -11 -107 c-7 -60 -12 -114 -12 -120 0 -9 22
-13 75 -13 68 0 75 -2 75 -20 0 -18 -7 -20 -85 -20 -84 0 -85 0 -85 -25 0 -25
1 -25 80 -25 79 0 80 0 80 -25 0 -25 0 -25 -99 -25 -81 0 -100 -3 -105 -16
-17 -44 -19 -44 229 -44 196 0 235 2 235 14 0 8 3 21 6 30 5 14 -7 16 -101 16
-105 0 -106 0 -103 23 3 21 8 22 91 25 85 3 87 3 87 27 0 25 -1 25 -85 25 -78
0 -85 2 -85 20 0 17 8 19 78 22 l77 3 10 98 c14 127 8 137 -76 137 -52 0 -59
2 -59 20 0 19 7 20 100 20 55 0 100 4 100 9 0 5 3 16 6 25 5 14 -7 16 -96 16
l-101 0 3 28 c3 26 5 27 80 32 43 3 80 9 84 12 3 4 3 16 -1 27 -5 18 -13 21
-58 19 -29 -1 -116 -4 -194 -5z m5 -275 c-2 -19 -10 -24 -45 -26 -40 -3 -43
-1 -43 22 0 24 3 26 46 26 41 0 45 -2 42 -22z m152 -3 c0 -23 -4 -25 -45 -25
-41 0 -45 2 -45 25 0 23 4 25 45 25 41 0 45 -2 45 -25z m-160 -95 c0 -17 -7
-20 -45 -20 -38 0 -45 3 -45 20 0 17 7 20 45 20 38 0 45 -3 45 -20z m150 0 c0
-17 -7 -20 -45 -20 -38 0 -45 3 -45 20 0 17 7 20 45 20 38 0 45 -3 45 -20z"/>
<path d="M7752 4023 c-23 -60 -51 -123 -62 -140 l-20 -33 -139 0 -139 0 -4
-30 -5 -30 228 0 c198 0 228 2 233 16 14 38 7 44 -49 44 -30 0 -55 2 -55 5 0
3 14 34 31 68 54 107 82 189 67 198 -33 21 -44 8 -86 -98z"/>
<path d="M4356 4098 c-9 -37 -8 -38 45 -38 50 0 51 0 45 -27 -3 -16 -15 -125
-26 -243 -12 -118 -25 -225 -30 -237 -17 -42 -50 -23 -50 28 0 14 -7 19 -25
19 -22 0 -25 -4 -25 -36 0 -26 8 -43 29 -65 35 -35 61 -37 96 -6 32 27 38 63
69 366 22 217 22 225 4 243 -13 13 -33 18 -72 18 -47 0 -54 -3 -60 -22z"/>
<path d="M7443 4102 c-8 -5 -5 -29 13 -91 13 -46 24 -92 24 -103 0 -16 5 -19
23 -14 12 3 26 6 30 6 11 0 0 68 -25 148 -19 62 -34 74 -65 54z"/>
<path d="M2385 4088 c-2 -7 -15 -132 -30 -278 -14 -146 -28 -273 -30 -282 -2
-14 4 -18 25 -18 24 0 29 5 32 28 3 25 7 27 55 30 62 4 54 -23 84 279 19 184
21 224 10 237 -17 20 -139 23 -146 4z m95 -82 c0 -18 -3 -54 -6 -80 -6 -41
-10 -46 -32 -46 -24 0 -25 1 -18 53 3 28 6 64 6 80 0 22 4 27 25 27 22 0 25
-4 25 -34z m-24 -253 c-11 -114 -15 -123 -43 -123 -21 0 -24 3 -19 28 2 15 8
57 11 95 6 63 8 67 32 67 25 0 25 0 19 -67z"/>
<path d="M2185 3956 c-14 -67 -53 -202 -71 -251 -3 -6 6 -17 20 -23 24 -11 26
-9 45 43 11 30 31 98 45 152 40 165 40 150 7 155 -28 4 -29 3 -46 -76z"/>
<path d="M5176 3988 c-3 -13 -14 -62 -25 -110 -25 -105 -25 -95 -1 -101 16 -4
22 2 30 31 25 97 41 176 36 188 -8 22 -35 16 -40 -8z"/>
<path d="M4215 3978 c-8 -26 -54 -492 -49 -500 8 -13 44 -9 49 5 5 11 55 467
55 495 0 6 -11 12 -25 12 -14 0 -27 -6 -30 -12z"/>
<path d="M4690 3940 c0 -17 7 -20 45 -20 38 0 45 3 45 20 0 17 -7 20 -45 20
-38 0 -45 -3 -45 -20z"/>
<path d="M4870 3940 c0 -17 7 -20 50 -20 43 0 50 3 50 20 0 17 -7 20 -50 20
-43 0 -50 -3 -50 -20z"/>
<path d="M116 3908 c-9 -36 -8 -38 24 -38 29 0 31 -2 26 -32 -3 -18 -10 -76
-16 -128 -11 -92 -12 -96 -51 -136 l-40 -41 20 -24 20 -24 38 38 c39 37 40 37
57 18 10 -10 40 -29 68 -41 60 -26 166 -29 238 -7 38 11 45 17 42 37 -4 33 -7
35 -51 22 -52 -16 -165 -15 -204 2 -18 7 -44 26 -59 42 l-27 29 14 115 c8 63
15 125 15 137 0 32 -27 53 -70 53 -31 0 -39 -4 -44 -22z"/>
<path d="M2577 3893 c-12 -3 -16 -11 -12 -22 3 -10 12 -53 20 -96 9 -43 17
-81 20 -83 2 -2 15 -2 28 2 23 5 24 8 16 53 -29 159 -28 157 -72 146z"/>
<path d="M4680 3870 c0 -17 7 -20 45 -20 38 0 45 3 45 20 0 17 -7 20 -45 20
-38 0 -45 -3 -45 -20z"/>
<path d="M4866 3874 c-3 -9 -6 -18 -6 -20 0 -2 23 -4 50 -4 43 0 50 3 50 20 0
17 -7 20 -44 20 -31 0 -46 -5 -50 -16z"/>
<path d="M946 3825 c-7 -34 -8 -35 -56 -35 -49 0 -50 -1 -50 -30 0 -29 1 -30
48 -30 l48 0 -4 -35 -4 -35 -64 0 -64 0 0 -30 0 -30 61 0 61 0 -4 -62 c-3 -61
-2 -63 22 -63 14 0 26 6 27 15 1 8 5 36 8 63 l6 47 58 0 c58 0 59 1 63 30 l5
30 -59 0 -58 0 0 35 0 35 50 0 c49 0 50 1 50 30 0 29 -2 30 -45 30 -45 0 -45
0 -45 35 0 30 -3 35 -24 35 -19 0 -25 -7 -30 -35z"/>
<path d="M4617 3813 c-4 -3 -7 -15 -7 -25 0 -16 9 -18 85 -18 47 0 85 -4 85
-9 0 -35 -13 -41 -91 -41 -43 0 -79 -1 -79 -2 -7 -34 -26 -235 -23 -240 4 -7
42 -12 44 -5 0 1 6 45 12 97 12 94 12 95 40 98 l29 3 -7 -83 c-4 -46 -8 -87
-9 -93 0 -5 10 -10 24 -10 24 0 25 3 34 93 l9 92 30 0 29 0 -7 -95 c-7 -92 -6
-95 14 -95 12 0 24 7 27 15 5 12 11 10 35 -7 24 -18 34 -20 57 -12 32 11 46
48 55 142 9 86 -7 102 -103 102 -69 0 -76 3 -64 34 5 13 23 16 95 16 88 0 89
0 89 25 l0 25 -198 0 c-109 0 -202 -3 -205 -7z m333 -160 c0 -10 -3 -41 -6
-69 l-6 -51 -38 1 -38 1 5 55 c7 77 8 80 48 80 27 0 35 -4 35 -17z"/>
<path d="M7472 3680 c-18 -32 -51 -83 -72 -112 l-40 -52 21 -21 21 -20 39 45
c21 25 57 79 79 121 l39 76 -25 12 c-14 6 -26 11 -27 11 -1 0 -17 -27 -35 -60z"/>
<path d="M7674 3727 c-22 -12 -22 -12 22 -112 25 -55 51 -108 59 -118 12 -17
15 -17 37 -3 l23 15 -55 115 c-30 64 -57 115 -60 115 -3 0 -15 -5 -26 -12z"/>
<path d="M7053 3709 c-8 -8 -4 -23 15 -55 28 -45 38 -49 55 -22 8 11 4 25 -12
52 -23 37 -39 44 -58 25z"/>
<path d="M6910 3672 c0 -11 -9 -49 -20 -84 -18 -59 -19 -64 -3 -75 9 -7 20
-13 24 -13 9 0 45 117 51 160 2 21 -2 26 -24 28 -22 3 -28 -1 -28 -16z"/>
<path d="M7192 3682 c-9 -6 -10 -16 -3 -38 6 -16 15 -55 21 -86 11 -57 21 -67
49 -49 12 8 12 19 2 71 -21 106 -33 124 -69 102z"/>
<path d="M6987 3664 c-10 -11 -8 -83 3 -126 13 -45 43 -68 88 -68 44 0 68 14
87 50 23 44 20 70 -9 70 -17 0 -26 -7 -30 -25 -7 -28 -50 -45 -69 -26 -7 7
-14 38 -17 69 -4 48 -8 57 -25 60 -12 2 -24 0 -28 -4z"/>
<path d="M2932 3498 c-41 -117 -40 -111 -21 -115 11 -3 25 11 42 40 27 45 70
147 65 152 -2 2 -14 6 -28 10 -24 5 -27 1 -58 -87z"/>
<path d="M5304 3556 c-45 -28 -50 -34 -41 -54 6 -12 14 -22 19 -22 7 0 65 35
101 61 10 7 -9 50 -21 48 -4 -1 -30 -15 -58 -33z"/>
<path d="M5450 3570 c-6 -12 -10 -23 -8 -24 25 -21 93 -66 99 -66 5 0 13 8 18
18 8 16 2 24 -37 53 -61 44 -59 44 -72 19z"/>
<path d="M198 3268 c-3 -39 -6 -43 -30 -46 -22 -3 -28 -9 -28 -28 0 -19 5 -24
26 -24 24 0 26 -3 20 -31 -3 -17 -6 -37 -6 -45 0 -7 -12 -14 -27 -16 -22 -2
-29 -9 -31 -30 -3 -26 -1 -28 32 -28 35 0 36 -1 35 -37 0 -21 -4 -60 -8 -88
-10 -67 -26 -34 -18 36 6 46 5 49 -16 49 -20 0 -23 -9 -39 -103 -9 -57 -25
-129 -36 -161 -18 -54 -18 -57 -1 -66 10 -6 20 -10 22 -10 2 0 12 28 22 63 18
60 35 94 35 69 0 -24 72 -90 122 -112 59 -25 163 -30 226 -9 49 15 54 21 47
51 -6 24 -8 25 -43 12 -45 -16 -170 -18 -209 -3 -50 19 -73 48 -73 93 0 54 9
86 25 86 12 0 25 21 25 40 0 4 -8 10 -18 12 -27 7 -18 78 9 78 14 0 19 7 19
30 0 26 -4 30 -26 30 -24 0 -26 3 -20 31 3 17 6 38 6 45 0 8 10 14 25 14 20 0
25 5 25 25 0 18 -5 25 -20 25 -17 0 -20 7 -20 45 0 41 -2 45 -24 45 -22 0 -25
-5 -28 -42z"/>
<path d="M1940 3090 c-13 -121 -25 -219 -27 -216 -6 6 -43 247 -43 284 0 29
-3 32 -30 32 -37 0 -36 8 -8 -193 l22 -159 28 6 c26 5 28 3 28 -27 0 -17 -3
-49 -6 -69 l-7 -38 -68 0 -69 0 0 -30 0 -30 220 0 c183 0 220 2 220 14 0 8 3
21 6 30 5 14 -4 16 -60 16 -56 0 -66 3 -66 18 0 9 14 143 30 297 16 154 30
281 30 283 0 1 -13 2 -30 2 -16 0 -30 -4 -30 -10 0 -5 -13 -134 -30 -287 -16
-152 -30 -283 -30 -290 0 -8 -12 -13 -30 -13 -16 0 -30 4 -30 10 0 5 14 134
30 287 17 152 30 283 30 290 0 8 -12 13 -29 13 l-28 0 -23 -220z"/>
<path d="M2445 3255 c-7 -52 -9 -55 -36 -55 -26 0 -29 -4 -29 -30 0 -25 4 -30
25 -30 22 0 25 -4 25 -37 0 -65 -9 -82 -44 -85 -26 -2 -32 -8 -34 -30 -3 -25
0 -28 28 -28 32 0 32 -1 25 -37 -10 -56 -42 -133 -79 -195 l-34 -57 22 -20 22
-21 37 62 c21 35 43 78 49 96 7 17 15 32 18 32 4 0 13 -18 20 -40 15 -44 18
-46 44 -27 17 13 16 17 -14 90 -37 89 -34 117 11 117 27 0 30 3 27 28 -2 19
-9 28 -25 30 -25 4 -29 29 -17 91 5 24 12 31 30 31 20 0 24 5 24 30 0 24 -4
30 -21 30 -19 0 -21 5 -17 55 3 54 2 55 -24 55 -25 0 -27 -4 -33 -55z"/>
<path d="M2994 3218 l-9 -93 -35 -5 c-30 -4 -36 -9 -38 -33 -3 -27 -2 -29 34
-25 l38 3 -1 -130 -1 -130 -55 -58 c-49 -51 -55 -61 -44 -78 16 -26 21 -25 66
16 21 19 41 35 44 35 2 0 8 -12 12 -27 15 -62 67 -82 104 -42 17 18 28 54 45
141 2 10 -4 18 -17 22 -27 7 -37 0 -37 -28 0 -69 -28 -113 -44 -70 -15 39 -5
88 29 144 57 94 80 151 64 161 -26 16 -35 9 -69 -58 l-35 -68 -3 40 c-2 22 -1
63 3 91 l6 52 65 7 c63 6 64 7 64 36 0 32 -3 33 -83 20 l-49 -8 7 88 7 89 -30
0 -29 0 -9 -92z"/>
<path d="M3330 3288 c0 -13 -13 -146 -29 -296 -28 -278 -38 -317 -67 -278 -8
11 -14 27 -14 37 0 12 -6 15 -26 11 -23 -4 -25 -8 -19 -40 9 -46 25 -72 52
-78 41 -11 73 4 89 42 10 25 73 553 74 622 0 1 -13 2 -30 2 -24 0 -30 -4 -30
-22z"/>
<path d="M4110 3248 c-23 -62 -85 -194 -111 -236 -12 -19 -11 -23 6 -36 18
-13 21 -12 37 12 l18 27 0 -30 c-1 -16 -9 -100 -20 -185 -10 -85 -16 -158 -14
-162 7 -11 42 -10 49 2 3 5 19 128 34 272 22 202 34 276 51 321 25 62 25 61
-6 71 -19 6 -24 -1 -44 -56z"/>
<path d="M4811 3197 c-6 -62 -11 -119 -11 -125 0 -8 -18 -12 -50 -12 l-50 0 1
43 c0 23 4 68 8 100 l7 57 -31 0 -32 0 -11 -107 c-19 -168 -25 -153 68 -153
44 0 80 -3 80 -7 0 -5 -7 -66 -15 -138 -8 -71 -15 -136 -15 -142 0 -9 -20 -13
-66 -13 l-67 0 6 38 c3 20 9 72 13 115 l7 77 -30 0 -30 0 -12 -122 c-7 -68
-14 -133 -17 -145 l-4 -23 220 0 c169 0 220 3 220 13 0 15 18 178 25 235 6 41
6 42 -24 42 -33 0 -36 -6 -46 -125 -10 -108 -8 -105 -77 -105 l-60 0 5 33 c3
17 11 85 18 149 l12 117 81 3 80 3 7 35 c4 19 11 77 14 128 l7 92 -30 0 -29 0
-7 -82 c-10 -120 -9 -118 -67 -118 l-50 0 7 63 c3 34 9 90 13 125 l7 62 -31 0
-32 0 -12 -113z"/>
<path d="M5511 3098 c-13 -117 -24 -214 -26 -216 -1 -2 -38 -8 -81 -15 -76
-12 -79 -13 -82 -41 l-4 -29 58 7 c32 4 69 9 82 13 24 6 24 6 17 -63 -3 -38
-9 -81 -11 -96 -5 -25 -3 -28 24 -28 33 0 35 5 48 133 5 55 9 67 24 67 35 0
50 12 50 41 0 26 -2 28 -30 23 -36 -8 -35 -27 -10 201 25 230 26 215 -8 215
l-29 0 -22 -212z"/>
<path d="M5918 3303 c-22 -5 -22 -11 -3 -56 21 -51 19 -57 -18 -57 -30 0 -34
4 -45 43 -20 65 -24 70 -55 56 l-26 -12 19 -38 c25 -49 25 -49 -9 -49 -37 0
-40 -4 -47 -79 l-7 -61 32 0 c30 0 31 2 31 40 l0 40 160 0 160 0 0 -41 c0 -38
1 -40 28 -37 26 3 27 5 27 63 l0 59 -36 11 -37 10 24 35 c29 42 30 56 5 69
-16 9 -23 3 -52 -47 -26 -43 -40 -58 -60 -60 -17 -2 -26 2 -26 12 0 21 -33
106 -41 105 -4 -1 -15 -3 -24 -6z"/>
<path d="M6475 3268 c-44 -68 -118 -150 -179 -198 -60 -48 -63 -55 -41 -84 14
-19 16 -19 52 10 60 47 67 51 60 25 -5 -21 -5 -22 121 -19 124 3 127 4 130 26
3 22 6 21 49 -18 43 -40 45 -41 64 -24 10 9 19 20 19 25 0 4 -34 40 -75 80
-84 81 -139 158 -129 182 3 10 -2 20 -15 26 -27 15 -25 16 -56 -31z m113 -180
l26 -28 -113 0 -114 0 40 43 c22 24 48 56 58 70 l17 27 30 -43 c17 -23 42 -54
56 -69z"/>
<path d="M8220 3260 l0 -50 -50 0 c-49 0 -50 -1 -50 -30 0 -29 2 -30 46 -30
l45 0 -6 -47 c-3 -27 -8 -65 -11 -85 l-6 -38 -49 0 c-48 0 -49 -1 -49 -30 0
-28 2 -30 40 -30 22 0 40 -5 40 -10 0 -27 -67 -139 -112 -186 -45 -47 -48 -54
-36 -73 7 -12 17 -21 23 -21 19 0 111 108 139 165 28 55 30 57 40 34 33 -81
54 -116 86 -150 43 -46 52 -47 70 -15 12 23 10 27 -23 56 -38 33 -81 111 -92
167 l-6 32 67 3 c64 3 68 5 75 30 5 20 3 27 -10 31 -15 4 -16 14 -8 100 11
116 6 127 -62 127 l-46 0 3 50 c4 50 4 50 -27 50 -31 0 -31 -1 -31 -50z m106
-187 c-4 -42 -9 -80 -12 -85 -3 -4 -19 -8 -35 -8 l-30 0 6 53 c13 118 13 117
47 117 l31 0 -7 -77z"/>
<path d="M3104 3286 c-19 -14 -18 -15 3 -60 23 -46 39 -56 60 -35 9 9 6 24
-13 60 -13 27 -26 49 -27 49 -2 0 -12 -6 -23 -14z"/>
<path d="M4220 3266 c0 -68 -11 -96 -36 -96 -14 0 -24 -6 -24 -14 0 -8 -3 -21
-6 -30 -5 -12 0 -16 20 -16 24 0 26 -3 26 -44 0 -57 -8 -76 -30 -76 -20 0 -22
-7 -40 -175 -14 -127 -14 -127 13 -123 14 2 23 11 25 26 3 19 9 22 52 22 31 0
50 5 53 13 3 8 8 59 12 114 7 96 6 102 -14 112 -22 12 -26 41 -15 100 5 24 12
31 30 31 20 0 24 5 24 30 0 24 -4 30 -21 30 -21 0 -22 3 -16 65 l6 65 -29 0
c-27 0 -30 -3 -30 -34z m16 -382 c-3 -26 -6 -57 -6 -70 0 -19 -5 -24 -26 -24
-26 0 -27 1 -20 46 3 26 6 57 6 70 0 19 5 24 26 24 26 0 27 -1 20 -46z"/>
<path d="M4352 3210 c-12 -49 -33 -113 -47 -142 -24 -49 -24 -54 -9 -65 9 -7
20 -10 24 -8 5 3 13 -33 20 -80 12 -81 11 -86 -11 -122 -13 -21 -41 -57 -63
-81 -38 -41 -38 -43 -21 -62 18 -20 19 -20 52 12 19 18 44 48 56 67 l21 35 27
-62 c27 -60 44 -73 66 -51 7 7 0 34 -24 90 l-35 80 26 92 c14 51 30 119 36
152 5 33 15 62 20 63 6 2 10 17 10 33 0 28 -1 29 -51 29 -57 0 -55 -4 -33 84
5 23 3 26 -18 26 -22 0 -26 -8 -46 -90z m68 -107 c0 -26 -11 -85 -27 -143 -5
-22 -7 -19 -14 20 -10 58 -11 135 -2 143 3 4 15 7 25 7 13 0 18 -7 18 -27z"/>
<path d="M5253 3281 c-73 -20 -77 -23 -68 -51 6 -18 12 -21 37 -16 30 6 30 5
24 -25 -3 -17 -6 -38 -6 -45 0 -9 -12 -14 -34 -14 -30 0 -34 -3 -38 -30 -4
-26 -1 -30 19 -30 13 0 23 -3 23 -8 0 -23 -44 -162 -69 -217 -21 -46 -26 -66
-18 -74 6 -6 15 -11 20 -11 10 0 34 55 58 135 22 75 23 53 4 -100 -20 -162
-20 -165 10 -165 29 0 31 4 45 160 6 63 13 126 16 140 l6 25 17 -23 17 -23 19
21 c18 20 18 21 -13 53 -20 21 -32 43 -32 60 0 23 4 27 30 27 19 0 30 5 30 14
0 8 3 21 6 30 5 13 -1 16 -25 16 -28 0 -31 3 -31 33 0 52 11 77 36 83 27 7 28
8 14 35 -12 22 -15 22 -97 0z"/>
<path d="M7477 3250 c-15 -42 -22 -50 -42 -50 -15 0 -25 -6 -25 -14 0 -8 -11
-121 -25 -252 -31 -299 -31 -294 -1 -294 18 0 25 7 30 30 5 30 6 30 69 30 l63
0 22 213 c13 116 22 223 22 238 0 31 -17 49 -47 49 -27 0 -27 -2 -7 45 13 31
13 39 2 46 -28 18 -44 8 -61 -41z m59 -132 c-3 -13 -8 -49 -11 -80 l-6 -58
-35 0 c-38 0 -38 -1 -28 99 l7 61 39 0 c35 0 38 -2 34 -22z m-30 -270 c-4 -46
-11 -87 -16 -91 -4 -5 -20 -7 -36 -5 -22 2 -29 8 -27 23 1 11 5 50 8 88 l7 67
35 0 36 0 -7 -82z"/>
<path d="M7689 3273 c-5 -16 -29 -68 -51 -116 -35 -74 -40 -90 -27 -98 26 -17
39 -9 61 36 21 43 24 45 66 45 l44 0 -6 -37 c-3 -21 -13 -105 -21 -188 -20
-192 -27 -215 -66 -215 -22 0 -32 7 -41 25 -8 18 -18 25 -32 23 -33 -5 -31
-42 2 -79 53 -59 135 -41 167 36 7 17 23 126 35 244 l22 215 -22 18 c-13 10
-38 18 -61 18 l-39 0 15 37 c18 43 14 63 -15 63 -13 0 -24 -10 -31 -27z"/>
<path d="M304 3248 c9 -63 -23 -370 -40 -384 -8 -6 -14 -23 -14 -37 l0 -26 48
14 c26 8 48 15 48 15 1 0 -1 -20 -4 -45 -4 -40 -2 -45 16 -45 21 0 32 24 32
77 0 23 6 33 20 38 24 8 26 28 5 49 -13 13 -13 32 1 168 9 84 20 155 24 158 4
3 10 17 14 33 l6 27 -81 0 -82 0 7 -42z m86 -27 c0 -31 -15 -71 -26 -71 -15 0
-18 21 -8 58 6 21 34 32 34 13z m-19 -124 c-1 -4 -1 -23 -1 -42 0 -24 -5 -35
-15 -35 -11 0 -15 11 -15 38 0 21 3 42 7 46 8 8 25 3 24 -7z m-11 -144 c0 -44
-11 -73 -27 -73 -12 0 -14 7 -9 31 3 17 6 40 6 50 0 11 7 19 15 19 10 0 15
-10 15 -27z"/>
<path d="M1260 3261 c0 -16 5 -31 11 -33 8 -3 5 -61 -10 -203 -12 -110 -21
-208 -21 -217 0 -10 -7 -18 -15 -18 -10 0 -15 -10 -15 -30 0 -35 1 -35 66 -15
27 8 51 15 52 15 2 0 1 -27 -3 -60 -6 -51 -4 -61 10 -66 26 -10 36 8 45 82 5
38 12 70 17 71 26 10 34 22 28 46 -4 14 -12 24 -19 21 -18 -7 21 357 40 372 8
6 14 23 14 38 l0 26 -100 0 -100 0 0 -29z m120 -50 c0 -47 -13 -81 -31 -81
-16 0 -19 8 -19 43 0 48 5 57 32 57 11 0 18 -7 18 -19z m-22 -178 c-3 -41 -6
-48 -25 -51 -25 -4 -28 9 -17 67 5 22 12 31 26 31 17 0 19 -6 16 -47z m-14
-155 c-8 -62 -4 -54 -33 -63 -23 -7 -24 -5 -17 25 3 18 6 45 6 61 0 24 4 29
25 29 25 0 26 -1 19 -52z"/>
<path d="M1486 3268 c-13 -59 -34 -314 -27 -321 4 -4 52 -6 107 -5 l99 3 12
110 c6 61 14 130 16 154 7 67 -12 81 -118 81 -80 0 -85 -1 -89 -22z m145 -43
c4 -3 -15 -197 -20 -212 -1 -2 -22 -3 -47 -3 l-46 0 7 88 c10 132 10 132 59
132 24 0 45 -2 47 -5z"/>
<path d="M2576 3269 c-7 -32 -36 -317 -36 -351 0 -23 5 -28 24 -28 27 0 27 0
47 208 l13 122 63 0 c74 0 69 17 48 -165 -19 -171 -20 -165 10 -165 28 0 28
-2 51 214 19 186 24 179 -116 184 -97 4 -99 4 -104 -19z"/>
<path d="M7025 3278 c-3 -11 -35 -311 -35 -330 0 -5 25 -8 56 -8 l57 0 -7 -31
c-3 -17 -6 -38 -6 -45 0 -10 -15 -14 -55 -14 -52 0 -55 -1 -55 -25 0 -23 3
-25 51 -25 l50 0 -3 -47 -3 -48 -72 -3 c-70 -3 -73 -4 -73 -27 l0 -25 159 0
159 0 4 25 c5 25 4 25 -60 25 l-64 0 6 31 c3 17 6 40 6 50 0 16 8 19 55 19 30
0 55 4 55 9 0 5 3 16 6 25 5 13 -3 16 -51 16 l-56 0 3 43 3 42 56 3 57 3 5 47
c25 197 30 272 17 287 -17 20 -258 23 -265 3z m105 -77 c0 -45 -10 -61 -36
-61 -22 0 -24 4 -24 45 0 43 1 45 30 45 26 0 30 -3 30 -29z m110 -16 c0 -44
-1 -45 -33 -45 -32 0 -32 0 -29 45 4 42 6 45 33 45 28 0 29 -2 29 -45z m-124
-121 c-3 -9 -6 -29 -6 -45 0 -26 -4 -29 -30 -29 -32 0 -34 6 -24 59 6 26 11
31 36 31 23 0 29 -4 24 -16z m110 -6 c-3 -13 -6 -33 -6 -45 0 -19 -6 -23 -30
-23 -24 0 -30 4 -30 23 0 50 11 67 42 67 27 0 30 -3 24 -22z"/>
<path d="M7997 3283 c-4 -7 6 -101 19 -191 4 -29 7 -32 32 -26 15 4 28 7 28 8
2 2 -15 150 -21 184 -5 25 -11 32 -30 32 -13 0 -26 -3 -28 -7z"/>
<path d="M6857 3273 c-4 -3 -7 -17 -7 -30 0 -17 6 -23 21 -23 21 0 22 -3 15
-61 -3 -34 -6 -73 -6 -85 0 -19 -5 -24 -25 -24 -21 0 -25 -5 -25 -30 0 -24 4
-30 21 -30 18 0 20 -4 15 -37 -3 -21 -8 -69 -12 -107 -6 -64 -9 -69 -35 -80
-32 -11 -36 -23 -16 -49 11 -16 17 -15 72 12 88 43 89 45 75 70 -8 16 -17 20
-31 16 -17 -6 -19 -3 -15 17 3 13 8 53 11 91 6 56 10 67 25 67 18 0 30 19 30
46 0 8 -9 14 -21 14 -20 0 -20 3 -14 78 9 89 10 92 36 92 14 0 19 7 19 30 l0
30 -63 0 c-35 0 -67 -3 -70 -7z"/>
<path d="M467 3263 c-4 -3 -7 -17 -7 -30 0 -20 5 -23 36 -23 29 0 34 -3 30
-17 -3 -10 -8 -40 -12 -67 -7 -48 -24 -47 -24 1 0 26 -11 35 -29 23 -11 -6
-11 -23 2 -93 15 -81 15 -89 -2 -140 -10 -29 -28 -72 -40 -96 -21 -41 -22 -43
-4 -56 23 -17 31 -12 55 44 22 48 23 48 33 -11 4 -24 11 -38 21 -38 23 0 25
18 11 105 -12 74 -11 87 10 174 12 51 25 119 29 151 6 52 4 59 -14 69 -23 12
-85 15 -95 4z"/>
<path d="M5406 3255 c-18 -13 -17 -16 11 -64 28 -49 30 -50 51 -35 l22 15 -26
50 c-30 54 -31 55 -58 34z"/>
<path d="M3225 3188 c-6 -51 -35 -345 -35 -364 0 -8 11 -14 25 -14 29 0 28 -5
50 225 19 206 20 195 -9 195 -22 0 -26 -6 -31 -42z"/>
<path d="M2185 3116 c-14 -67 -53 -202 -71 -251 -3 -6 6 -17 20 -23 24 -11 26
-9 45 43 11 30 31 98 45 152 40 165 40 150 7 155 -28 4 -29 3 -46 -76z"/>
<path d="M2655 3133 c-30 -251 -51 -310 -141 -400 -46 -46 -52 -57 -44 -74 6
-10 17 -19 24 -19 14 0 98 86 128 130 l17 25 0 -38 c1 -52 26 -106 53 -116 50
-18 80 11 104 101 19 72 18 78 -11 78 -19 0 -26 -6 -30 -27 -15 -71 -22 -88
-38 -91 -15 -3 -17 7 -17 87 0 76 -3 91 -16 91 -11 0 -13 6 -9 19 7 23 35 226
35 259 0 17 -6 22 -24 22 -22 0 -25 -5 -31 -47z"/>
<path d="M5376 3057 c-17 -13 -17 -16 14 -70 31 -56 32 -56 56 -40 l24 15 -29
52 c-34 58 -40 61 -65 43z"/>
<path d="M5820 3045 c0 -25 1 -25 87 -25 l87 0 -37 -38 c-20 -21 -37 -43 -37
-50 0 -9 -29 -12 -104 -12 -99 0 -104 -1 -110 -22 -3 -13 -6 -26 -6 -30 0 -5
48 -8 106 -8 l107 0 -7 -72 c-3 -39 -11 -77 -17 -85 -18 -21 -48 -15 -60 10
-8 18 -17 23 -35 19 -28 -5 -29 -13 -9 -52 18 -34 43 -50 80 -50 63 0 92 43
103 153 l7 72 86 3 c79 2 87 5 92 24 4 12 4 25 1 30 -3 4 -43 8 -90 8 -46 0
-84 4 -84 9 0 5 20 26 45 47 47 38 60 76 29 88 -9 3 -65 6 -125 6 l-109 0 0
-25z"/>
<path d="M7625 3004 c-11 -4 14 -156 27 -169 4 -4 16 -4 28 0 20 6 22 12 16
53 -15 109 -30 133 -71 116z"/>
<path d="M8015 2976 c-15 -54 -54 -153 -82 -209 -32 -65 -33 -70 -16 -83 10
-7 23 -12 28 -10 22 6 125 247 125 292 0 16 -51 25 -55 10z"/>
<path d="M6316 2888 c-6 -35 -26 -220 -26 -238 0 -6 59 -10 169 -10 l169 0 5
28 c3 16 9 74 13 129 6 95 6 101 -14 112 -12 7 -79 11 -166 11 l-145 0 -5 -32z
m268 -100 c-3 -40 -9 -76 -11 -80 -2 -5 -52 -8 -110 -8 l-106 0 7 53 c3 28 6
64 6 80 l0 27 111 0 110 0 -7 -72z"/>
<path d="M1470 2858 c-19 -74 -32 -112 -52 -151 -11 -22 -18 -40 -16 -42 2 -1
13 -8 26 -14 21 -11 24 -9 47 44 34 75 59 170 52 189 -4 9 -15 16 -26 16 -15
0 -23 -10 -31 -42z"/>
<path d="M1574 2868 c3 -18 9 -57 12 -87 13 -139 13 -141 40 -141 22 0 24 3
24 55 0 30 -5 88 -11 130 -11 74 -12 75 -41 75 -29 0 -30 -2 -24 -32z"/>
<path d="M679 2804 c-8 -10 -10 -20 -3 -29 5 -7 29 -43 54 -79 24 -36 47 -66
50 -66 3 0 17 10 32 23 l28 22 -61 73 c-63 75 -77 83 -100 56z"/>
<path d="M3492 2658 c-41 -117 -40 -111 -21 -115 11 -3 25 11 42 40 27 45 70
147 65 152 -2 2 -14 6 -28 10 -24 5 -27 1 -58 -87z"/>
<path d="M186 2423 c-15 -26 -36 -60 -48 -75 -22 -28 -22 -28 -2 -43 26 -20
25 -20 58 25 36 49 61 52 70 9 5 -25 10 -30 28 -27 18 2 23 9 21 31 -2 24 2
27 28 27 24 0 29 4 29 25 0 24 -3 25 -61 25 -56 0 -60 2 -54 20 3 11 2 20 -4
20 -5 0 -16 3 -25 6 -10 4 -22 -9 -40 -43z"/>
<path d="M410 2438 c-8 -18 -24 -50 -37 -70 l-23 -37 22 -12 c19 -10 25 -8 47
20 34 40 49 39 57 -5 5 -25 11 -34 21 -30 8 3 19 6 25 6 6 0 8 13 6 30 -4 29
-3 30 34 30 34 0 38 3 38 25 0 24 -2 25 -65 25 -58 0 -65 2 -65 20 0 11 -4 20
-9 20 -5 0 -16 2 -24 6 -9 3 -19 -6 -27 -28z"/>
<path d="M1527 2463 c-4 -3 -7 -23 -7 -44 l0 -38 -62 -3 c-60 -3 -63 -4 -66
-30 l-3 -28 107 0 107 0 -7 -30 c-8 -41 -47 -130 -56 -130 -4 0 -27 29 -50 65
-41 63 -42 64 -66 49 l-23 -16 49 -73 c28 -41 50 -78 50 -82 0 -13 -79 -86
-123 -115 -37 -25 -37 -26 -20 -47 l18 -22 45 32 c25 17 61 47 81 66 l36 34
37 -70 37 -71 25 16 24 17 -36 66 c-20 36 -40 70 -44 74 -4 5 7 37 25 71 18
34 38 85 45 114 12 44 17 52 37 52 19 0 23 5 23 30 l0 30 -66 0 -66 0 4 45 c3
43 2 45 -23 45 -14 0 -29 -3 -32 -7z"/>
<path d="M1900 2441 c0 -28 -2 -30 -47 -33 -44 -3 -48 -5 -51 -30 l-3 -28 119
0 c119 0 120 0 124 25 7 32 3 35 -48 35 -43 0 -43 0 -37 30 5 28 4 30 -26 30
-28 0 -31 -3 -31 -29z"/>
<path d="M2104 2390 l-7 -80 -32 0 c-25 0 -34 -5 -39 -22 -9 -36 -8 -38 29
-38 l35 0 -6 -42 c-12 -75 -43 -187 -65 -236 l-22 -47 -10 63 c-8 55 -11 62
-31 62 -24 0 -24 4 -10 -108 5 -38 8 -42 26 -36 23 7 21 1 -19 -52 -23 -31
-23 -31 -3 -49 15 -13 23 -15 33 -7 21 18 68 108 93 181 l24 66 0 -97 c0 -110
9 -143 40 -151 44 -11 83 55 92 153 3 29 0 35 -19 38 -22 3 -23 1 -39 -90 -3
-21 -11 -38 -17 -38 -10 0 -5 183 9 283 6 39 4 47 -10 47 -11 0 -16 9 -16 30
0 30 1 30 54 30 47 0 54 3 60 23 10 36 8 37 -49 37 l-55 0 6 63 c3 34 7 70 9
80 2 13 -4 17 -25 17 -28 0 -29 0 -36 -80z"/>
<path d="M2445 2383 c-21 -48 -61 -120 -87 -160 -49 -76 -51 -85 -18 -103 15
-8 22 -4 39 23 26 40 26 39 2 -173 -11 -91 -17 -168 -14 -172 2 -5 15 -8 27
-8 29 0 28 -4 56 285 20 198 25 227 53 293 31 72 31 74 12 88 -10 8 -22 14
-25 14 -3 0 -23 -39 -45 -87z"/>
<path d="M2594 2432 c-15 -20 -38 -49 -51 -63 -20 -21 -26 -41 -29 -90 -2 -35
-6 -74 -9 -86 -5 -21 -2 -23 36 -23 37 0 40 -2 28 -16 -7 -8 -30 -24 -51 -35
-39 -20 -42 -26 -32 -53 6 -17 36 -8 86 26 31 21 48 23 48 5 0 -13 -89 -70
-127 -82 -24 -7 -28 -21 -14 -44 11 -18 51 -3 111 40 45 33 50 34 50 15 0 -21
-57 -66 -127 -98 -55 -26 -61 -32 -54 -51 6 -14 15 -21 27 -19 19 4 98 47 142
78 25 19 27 13 16 -46 -8 -37 -30 -49 -47 -26 -16 21 -47 11 -47 -15 0 -27 35
-59 65 -59 57 0 89 77 83 197 -2 48 0 74 8 77 7 3 13 -21 18 -71 6 -77 24
-153 36 -153 3 0 14 6 24 13 16 12 17 17 6 37 -7 13 -15 63 -18 111 -4 81 -3
88 17 100 22 15 26 26 13 47 -7 10 -19 7 -53 -13 -53 -30 -75 -31 -89 -6 -18
35 -11 40 58 43 l67 3 7 64 c8 70 0 91 -33 91 -18 0 -19 2 -4 29 13 27 13 31
-1 45 -9 10 -33 16 -61 16 -36 0 -44 3 -39 15 3 8 -3 19 -13 25 -16 8 -24 3
-47 -28z m96 -82 c-9 -16 -21 -20 -62 -20 -50 0 -51 0 -33 20 13 14 31 20 62
20 41 0 43 -1 33 -20z m-62 -97 c-2 -23 -8 -29 -35 -31 -35 -3 -36 -1 -27 36
5 16 14 22 36 22 26 0 29 -3 26 -27z m112 13 c0 -32 -13 -46 -42 -46 -23 0
-29 4 -24 16 3 9 6 22 6 30 0 9 11 14 30 14 19 0 30 -5 30 -14z"/>
<path d="M3237 2428 c-4 -24 -9 -74 -12 -113 -10 -106 -9 -105 -65 -105 -34 0
-50 -4 -54 -16 -14 -38 -7 -44 49 -44 54 0 54 0 50 -27 -12 -71 -34 -316 -29
-324 7 -12 41 -12 48 0 3 5 13 76 22 158 22 209 15 193 74 193 49 0 50 1 50
30 0 29 -2 30 -43 30 -24 0 -46 2 -49 5 -2 3 -1 33 3 67 4 35 10 91 13 126 l7
62 -29 0 c-27 0 -30 -3 -35 -42z"/>
<path d="M4215 2420 l-16 -49 -67 -3 c-65 -3 -67 -4 -70 -30 -3 -28 -3 -28 53
-28 l56 0 -27 -50 c-15 -27 -52 -80 -82 -116 l-54 -66 21 -21 c20 -20 21 -20
41 -2 25 22 24 28 6 -135 -8 -63 -10 -119 -6 -123 4 -5 18 -7 31 -5 23 3 24 7
44 193 19 179 22 194 55 257 l35 68 133 0 132 0 0 30 0 30 -120 0 c-66 0 -120
2 -120 4 0 2 7 21 16 41 13 31 13 39 2 46 -30 20 -46 9 -63 -41z"/>
<path d="M4854 2410 l-7 -60 -96 0 -97 0 -17 -152 c-19 -170 -37 -249 -73
-321 -30 -60 -30 -61 2 -75 24 -12 26 -10 49 42 28 63 49 135 66 224 12 61 12
62 45 62 21 0 34 -5 34 -12 0 -49 -25 -235 -32 -243 -6 -7 -14 -4 -22 7 -15
20 -56 14 -56 -9 0 -20 46 -63 67 -63 31 0 62 29 72 68 5 20 14 93 21 161 14
144 11 151 -67 151 l-44 0 3 48 3 47 71 3 71 3 6 -158 6 -158 -26 -26 c-21
-23 -23 -30 -14 -48 13 -23 26 -27 36 -11 12 19 22 10 40 -35 18 -48 38 -65
79 -65 34 0 53 31 65 109 6 36 9 66 8 67 -1 1 -14 5 -30 9 -26 7 -27 6 -27
-31 0 -83 -28 -113 -49 -53 -17 48 -15 56 34 154 25 49 48 104 51 121 5 28 3
32 -19 36 -21 4 -27 0 -32 -21 -11 -44 -47 -121 -56 -121 -5 0 -9 52 -9 115
l0 114 68 3 c65 3 67 4 70 31 l3 27 -72 0 -72 0 7 60 7 60 -30 0 c-29 0 -30
-2 -37 -60z"/>
<path d="M4967 2463 c-14 -4 -17 -11 -13 -26 4 -12 9 -34 13 -50 5 -22 9 -26
27 -21 11 4 22 8 24 9 5 5 -20 95 -27 94 -3 -1 -14 -3 -24 -6z"/>
<path d="M5269 2443 c0 -16 -6 -75 -12 -133 l-12 -105 -47 -3 c-46 -3 -48 -5
-48 -33 0 -28 2 -29 45 -29 l46 0 -5 -32 c-6 -33 -26 -219 -26 -237 0 -5 -11
-12 -25 -15 -25 -6 -30 -20 -19 -49 6 -16 63 -9 155 21 53 17 68 35 56 67 -5
11 -14 10 -51 -3 -25 -9 -47 -14 -49 -12 -2 3 2 57 9 120 7 63 13 121 13 128
1 7 14 12 30 12 28 0 30 -2 41 -71 15 -89 69 -199 118 -239 43 -36 53 -37 70
-9 13 20 10 26 -32 68 -51 52 -93 135 -102 204 l-7 47 92 0 91 0 0 30 0 30
-146 0 -147 0 7 63 c3 34 9 95 13 135 l6 72 -32 0 c-27 0 -31 -4 -32 -27z"/>
<path d="M6350 2463 c0 -5 -16 -28 -36 -52 -33 -39 -35 -43 -21 -59 18 -20 12
-62 -10 -75 -16 -9 -18 -37 -2 -37 7 0 8 -16 3 -45 l-6 -45 66 0 c36 0 66 -3
66 -7 0 -15 -70 -53 -95 -53 -19 0 -25 -5 -25 -21 0 -20 4 -21 75 -17 l75 3
-52 -27 c-30 -15 -70 -27 -92 -28 -31 0 -37 -3 -32 -16 3 -9 6 -20 6 -25 0 -6
37 -7 93 -3 l94 7 -4 -34 c-9 -79 -10 -80 -53 -73 -33 5 -40 4 -40 -10 0 -23
36 -56 63 -56 52 0 87 56 87 142 l0 36 58 4 c47 3 60 1 73 -15 13 -16 19 -17
38 -8 23 13 23 14 -22 79 -31 43 -42 48 -66 33 -12 -8 -12 -13 -3 -24 16 -19
-11 -27 -88 -27 l-55 1 65 35 c36 19 76 43 89 53 l24 19 -22 11 c-18 10 -26 9
-49 -7 -15 -11 -51 -22 -81 -24 -53 -5 -54 -5 -31 12 13 10 20 22 16 29 -5 7
2 11 19 11 26 0 26 2 20 41 -5 27 -3 44 4 48 7 5 8 27 3 67 l-7 59 -80 5 c-97
7 -80 19 30 22 74 3 80 5 83 26 3 21 0 22 -68 22 -45 0 -69 4 -65 10 3 6 2 10
-4 10 -5 0 -16 3 -25 6 -9 3 -16 2 -16 -3z m31 -142 c-9 -6 -10 -11 -2 -15 18
-11 13 -26 -9 -26 -15 0 -20 7 -20 25 0 19 5 25 23 25 16 0 18 -3 8 -9z m69
-16 c0 -16 -6 -25 -16 -25 -8 0 -13 4 -9 9 3 5 1 12 -5 16 -17 10 -11 25 10
25 15 0 20 -7 20 -25z m-75 -75 c-4 -6 -1 -17 5 -25 11 -13 7 -15 -19 -15 -17
0 -31 4 -31 9 0 23 14 41 32 41 11 0 16 -5 13 -10z m65 -15 c0 -17 -6 -25 -17
-25 -9 0 -13 3 -10 6 3 4 2 15 -4 25 -8 16 -6 19 11 19 15 0 20 -7 20 -25z"/>
<path d="M6584 2432 c-8 -21 -28 -53 -44 -73 -28 -36 -29 -37 -10 -54 10 -9
23 -14 28 -11 12 7 36 -49 27 -63 -3 -6 -22 -19 -41 -29 -33 -17 -33 -18 -18
-40 l16 -23 41 25 42 24 28 -24 c34 -29 39 -29 61 -5 16 18 15 20 -19 41 -20
12 -34 25 -32 29 1 3 16 33 32 66 15 33 31 62 35 65 4 3 9 15 12 28 6 21 3 22
-53 22 -57 0 -59 1 -53 24 4 18 1 25 -15 29 -17 4 -24 -2 -37 -31z m71 -109
c-21 -49 -23 -50 -35 -19 -17 45 -13 56 20 56 l30 0 -15 -37z"/>
<path d="M6970 2445 c0 -22 -4 -24 -57 -27 -55 -3 -58 -4 -61 -30 -3 -28 -3
-28 54 -28 l57 0 -6 -30 c-6 -28 -4 -30 24 -30 25 0 30 5 36 30 5 29 7 30 66
30 l60 0 -6 -30 c-6 -28 -4 -30 24 -30 25 0 30 5 36 30 5 29 8 30 59 30 53 0
54 0 54 30 0 29 -1 30 -50 30 -47 0 -50 2 -50 25 0 21 -5 25 -30 25 -25 0 -30
-4 -30 -25 0 -24 -3 -25 -60 -25 -57 0 -60 1 -60 25 0 21 -5 25 -30 25 -25 0
-30 -4 -30 -25z"/>
<path d="M8190 2436 c0 -52 -9 -66 -41 -66 -25 0 -29 -4 -29 -29 0 -25 4 -30
28 -33 25 -3 27 -6 24 -43 -6 -83 -11 -94 -45 -97 -28 -3 -32 -7 -32 -33 0
-25 4 -31 27 -33 24 -3 26 -5 18 -34 -5 -16 -23 -54 -39 -83 l-30 -53 24 -16
c23 -15 24 -14 49 28 14 24 33 69 43 100 l18 56 44 0 43 0 -5 -32 c-3 -18 -9
-64 -13 -101 l-6 -69 28 4 29 3 9 98 8 97 29 0 c22 0 32 6 39 26 13 33 6 44
-29 44 -28 0 -28 1 -24 48 7 82 11 92 37 92 16 0 26 7 30 23 9 35 8 37 -21 37
-27 0 -28 1 -25 50 4 47 3 50 -21 50 -26 0 -37 -20 -37 -72 0 -26 -3 -28 -41
-28 l-41 0 7 50 7 50 -31 0 c-29 0 -31 -3 -31 -34z m116 -172 c-3 -26 -6 -57
-6 -70 0 -21 -5 -24 -41 -24 l-42 0 7 46 c3 26 6 57 6 70 0 21 5 24 41 24 l42
0 -7 -46z"/>
<path d="M1287 2448 c-15 -12 -15 -17 6 -74 22 -61 23 -62 49 -50 l26 11 -21
59 c-24 64 -34 73 -60 54z"/>
<path d="M2208 2453 c-21 -5 -21 -6 -4 -62 14 -48 23 -56 45 -42 11 7 11 17
-4 60 -9 28 -17 50 -18 50 -1 -1 -10 -3 -19 -6z"/>
<path d="M5895 2451 c-11 -5 -43 -12 -70 -15 -64 -9 -76 -16 -69 -43 5 -18 11
-21 40 -16 33 6 34 5 34 -30 0 -58 -7 -67 -55 -67 -37 0 -43 -3 -47 -25 -6
-30 -2 -35 34 -35 15 0 28 -5 28 -11 0 -20 -61 -164 -90 -211 l-29 -47 21 -16
c13 -8 26 -11 31 -6 5 5 24 46 43 92 38 96 40 88 19 -91 -8 -69 -15 -129 -15
-133 0 -5 12 -7 28 -5 l27 3 16 140 c9 77 17 142 18 144 0 2 10 -4 22 -15 20
-18 21 -18 35 0 12 16 11 23 -7 47 -11 16 -24 31 -29 34 -6 4 -10 21 -10 40 0
31 3 34 33 37 27 2 33 8 35 31 3 24 0 27 -29 27 -31 0 -32 1 -25 38 3 20 6 47
6 59 0 16 8 23 29 28 25 5 29 10 22 28 -9 25 -19 29 -46 18z"/>
<path d="M7705 2445 c-33 -8 -97 -17 -143 -21 -45 -4 -85 -10 -87 -14 -3 -4
-14 -77 -25 -161 -21 -167 -46 -276 -83 -369 l-24 -59 23 -16 c22 -14 24 -14
40 17 27 52 61 162 79 250 8 46 18 93 21 106 4 22 6 22 169 22 l165 0 0 30 0
30 -161 0 -160 0 3 48 c3 44 5 47 33 50 50 5 198 31 236 42 31 9 36 14 31 35
-5 29 -23 31 -117 10z"/>
<path d="M7986 2447 c-16 -12 -16 -15 3 -61 12 -26 21 -54 21 -62 0 -17 2 -17
35 -2 28 12 27 19 -6 96 -19 45 -26 49 -53 29z"/>
<path d="M5519 2424 c-13 -14 -52 -44 -86 -66 -57 -38 -60 -43 -50 -65 5 -12
13 -23 17 -23 13 0 96 58 140 98 l45 41 -21 21 -20 20 -25 -26z"/>
<path d="M3542 2413 l3 -28 134 -5 135 -5 -67 -59 c-53 -46 -67 -64 -67 -86 0
-58 -4 -60 -111 -60 l-99 0 0 -30 0 -30 100 0 101 0 -5 -32 c-3 -18 -8 -67
-11 -108 -4 -41 -11 -83 -16 -93 -14 -25 -51 -18 -64 11 -7 16 -17 22 -35 20
-35 -4 -37 -38 -6 -76 67 -78 166 -31 180 86 3 26 8 80 12 120 l6 72 93 0 c75
0 94 3 99 16 16 41 10 44 -89 44 l-95 0 0 27 c0 20 20 47 80 109 124 126 117
134 -113 134 l-168 0 3 -27z"/>
<path d="M2946 2408 c-6 -27 -56 -515 -56 -540 0 -13 8 -18 25 -18 20 0 27 6
32 30 5 28 8 30 53 30 41 0 49 3 53 23 3 12 15 122 28 244 27 261 29 253 -67
253 -58 0 -64 -2 -68 -22z m94 -65 c0 -26 -23 -238 -35 -330 -5 -34 -10 -43
-26 -43 -23 0 -24 4 -4 191 22 205 23 209 45 209 15 0 20 -7 20 -27z"/>
<path d="M5985 2418 c-3 -7 -16 -125 -30 -263 -13 -137 -27 -267 -30 -287 l-5
-38 100 0 c97 0 100 1 101 23 0 12 12 135 27 272 15 138 26 258 24 268 -5 25
-42 37 -118 37 -43 0 -66 -4 -69 -12z m124 -85 c0 -16 -10 -120 -22 -233 l-22
-205 -39 -3 -39 -3 6 48 c3 26 13 132 23 236 l18 187 38 0 c35 0 38 -2 37 -27z"/>
<path d="M330 2285 c-9 -24 -12 -25 -105 -25 l-95 0 0 -30 0 -30 96 0 c86 0
95 -2 92 -17 -3 -15 -17 -19 -83 -23 l-80 -5 -6 -40 c-3 -22 -9 -66 -13 -97
l-6 -58 30 0 c27 0 30 3 30 33 0 17 3 49 6 70 l7 37 53 0 54 0 -7 -32 c-3 -18
-20 -51 -37 -72 -32 -41 -133 -120 -166 -131 -23 -7 -25 -24 -6 -50 13 -19 15
-18 57 9 24 16 65 49 92 74 l48 46 -7 -77 -7 -77 25 0 c28 0 37 19 39 80 0 19
4 44 8 54 7 17 10 16 32 -13 13 -17 49 -49 78 -71 l54 -41 15 22 c14 21 14 23
-9 41 -118 91 -159 142 -159 200 l0 38 58 0 58 0 -4 -35 c-5 -39 -18 -53 -35
-36 -13 13 -47 15 -47 2 0 -23 43 -61 70 -61 39 0 58 31 66 108 7 60 6 62 -20
72 -15 5 -52 10 -82 10 -47 0 -54 2 -54 20 0 19 7 20 94 20 l94 0 4 30 5 30
-94 0 c-93 0 -93 0 -93 25 0 18 -5 25 -20 25 -13 0 -24 -10 -30 -25z"/>
<path d="M1814 2243 c-14 -133 -13 -138 24 -141 30 -3 33 -6 28 -30 -2 -15 -7
-54 -11 -87 -12 -130 -14 -136 -41 -129 -33 9 -43 -21 -16 -48 25 -25 66 -18
83 14 9 16 37 215 39 271 0 4 13 7 29 7 17 0 32 4 35 8 3 5 9 44 15 87 14 111
10 115 -94 115 l-83 0 -8 -67z m136 0 c0 -10 -3 -35 -6 -55 -6 -36 -8 -38 -45
-38 l-39 0 0 48 c0 27 3 52 7 55 3 4 24 7 45 7 30 0 38 -4 38 -17z"/>
<path d="M6850 2253 c0 -16 -3 -45 -6 -65 -6 -37 -6 -38 24 -38 26 0 31 4 36
35 l7 35 154 0 155 0 0 -35 c0 -32 3 -35 29 -35 27 0 29 3 34 43 2 26 -1 51
-10 65 -13 22 -17 22 -218 22 l-205 0 0 -27z"/>
<path d="M1236 2228 c-9 -36 -8 -38 24 -38 36 0 36 -2 16 -159 -13 -103 -14
-105 -54 -142 -40 -38 -41 -39 -22 -61 l19 -23 38 38 c39 37 40 37 57 18 10
-10 40 -29 68 -41 60 -26 166 -29 238 -7 38 11 45 17 42 37 -4 33 -7 35 -51
22 -52 -16 -165 -15 -204 2 -18 7 -44 26 -58 42 l-27 29 14 100 c19 144 18
182 -5 195 -11 5 -35 10 -54 10 -27 0 -36 -5 -41 -22z"/>
<path d="M4317 2243 c-4 -3 -7 -21 -7 -38 0 -18 -3 -47 -6 -64 -6 -30 -9 -31
-55 -31 -48 0 -49 -1 -49 -30 0 -29 2 -30 45 -30 51 0 50 2 39 -109 l-7 -61
-58 0 c-59 0 -59 0 -59 -30 l0 -30 150 0 150 0 0 30 0 30 -60 0 c-68 0 -66 -6
-54 109 l7 61 53 0 c53 0 54 0 54 30 0 29 -1 30 -50 30 l-50 0 6 70 c7 70 7
70 -18 70 -14 0 -28 -3 -31 -7z"/>
<path d="M7956 2228 c-9 -36 -8 -38 24 -38 35 0 34 6 16 -144 -14 -106 -15
-109 -55 -150 l-42 -43 20 -24 20 -24 38 38 c39 37 40 37 57 18 10 -10 40 -29
68 -41 60 -26 166 -29 238 -7 38 11 45 17 42 37 -4 33 -7 35 -51 22 -48 -15
-160 -15 -198 -1 -15 5 -42 23 -59 40 l-30 29 13 103 c18 149 17 184 -6 197
-11 5 -35 10 -54 10 -27 0 -36 -5 -41 -22z"/>
<path d="M7028 2153 l-3 -38 -92 -3 c-71 -2 -93 -6 -93 -17 0 -7 -3 -20 -6
-29 -5 -14 4 -16 60 -16 39 0 66 -4 66 -11 0 -12 -118 -132 -143 -146 -16 -8
-17 -13 -6 -36 7 -15 15 -27 19 -27 19 0 122 101 163 159 18 26 18 25 11 -59
-12 -135 -12 -135 15 -138 13 -2 27 2 31 8 4 7 11 56 15 109 4 53 9 100 12
104 3 5 13 -9 24 -30 22 -44 93 -129 120 -143 15 -8 21 -6 34 14 16 23 15 25
-40 77 -49 46 -85 94 -85 114 0 3 32 5 70 5 l70 0 0 30 0 30 -90 0 -90 0 0 40
c0 38 -2 40 -29 40 -27 0 -30 -3 -33 -37z"/>
<path d="M7539 2108 c0 -2 -8 -70 -18 -152 -12 -107 -14 -149 -6 -152 6 -3 67
-3 136 -2 l124 3 12 90 c15 119 16 188 1 203 -8 8 -52 12 -130 12 -65 0 -118
-1 -119 -2z m196 -120 c-13 -126 -6 -118 -92 -118 l-75 0 6 28 c3 15 8 55 11
90 l7 62 75 0 75 0 -7 -62z"/>
<path d="M1790 2040 c0 -10 -11 -48 -24 -84 -23 -65 -21 -76 14 -76 12 0 62
159 55 171 -11 18 -45 10 -45 -11z"/>
<path d="M715 1981 c-36 -15 -58 -49 -63 -100 -4 -43 -1 -53 21 -75 74 -74
191 19 163 128 -10 42 -73 66 -121 47z m69 -47 c37 -36 5 -114 -47 -114 -32 0
-47 18 -47 55 0 58 59 95 94 59z"/>
<path d="M6336 1915 c-16 -13 -46 -31 -67 -40 -33 -15 -36 -20 -26 -36 16 -26
26 -24 95 21 65 42 73 53 44 69 -13 7 -25 3 -46 -14z"/>
<path d="M6565 1926 c-19 -14 -19 -15 0 -36 11 -12 37 -36 58 -53 36 -28 40
-29 55 -13 15 15 12 20 -38 66 -30 27 -55 50 -55 50 -1 0 -10 -6 -20 -14z"/>
<path d="M7575 1566 c-41 -42 -96 -85 -133 -104 -58 -31 -61 -35 -51 -55 7
-12 13 -23 14 -25 2 -2 26 8 54 22 61 31 65 32 58 6 -5 -19 0 -20 105 -20 101
0 110 2 115 20 5 19 6 19 47 -5 44 -26 76 -32 76 -16 0 5 2 16 5 24 4 9 -15
26 -59 52 -85 49 -144 109 -127 128 9 12 7 17 -11 29 -22 14 -26 11 -93 -56z
m100 -76 l39 -40 -88 0 -88 0 48 40 c27 21 49 39 49 40 1 0 19 -18 40 -40z"/>
<path d="M765 1560 l-7 -70 -39 0 c-27 0 -39 -4 -39 -14 0 -8 -3 -21 -6 -30
-5 -12 0 -16 20 -16 14 0 26 -3 26 -7 0 -18 -25 -96 -62 -197 -34 -89 -38
-110 -27 -117 28 -18 37 -7 70 90 18 55 34 99 35 98 1 -1 -6 -76 -16 -166 -11
-90 -17 -168 -14 -173 6 -10 41 -11 47 0 3 4 13 81 22 172 10 91 19 167 21
169 2 2 13 -4 25 -14 17 -17 22 -17 29 -5 7 11 10 6 10 -18 0 -32 -15 -190
-25 -264 l-5 -38 125 0 c121 0 125 1 129 23 9 37 56 519 56 564 0 56 -15 63
-139 63 l-100 0 -5 -32 c-3 -18 -10 -82 -16 -143 -6 -60 -12 -111 -14 -112 -1
-2 -17 12 -34 30 -37 38 -35 77 3 77 22 0 35 17 35 46 0 8 -10 14 -26 14 l-27
0 6 70 6 70 -29 0 c-27 0 -28 -1 -35 -70z m319 -47 c-3 -21 -7 -53 -10 -70
l-5 -33 -64 0 -65 0 0 33 c0 17 3 49 6 70 l7 37 68 0 68 0 -5 -37z m-21 -195
c-2 -18 -6 -48 -9 -65 l-5 -33 -64 0 c-64 0 -65 0 -65 28 0 15 3 44 6 65 l7
37 67 0 67 0 -4 -32z m-20 -195 c-2 -21 -6 -53 -9 -70 l-5 -33 -64 0 c-73 0
-72 -2 -59 94 l7 46 66 0 67 0 -3 -37z"/>
<path d="M1615 1618 c-2 -7 -6 -31 -7 -53 l-3 -40 -75 -5 c-73 -5 -75 -6 -78
-32 l-3 -28 69 0 c38 0 71 -2 73 -5 3 -2 -5 -97 -17 -211 -18 -167 -25 -210
-39 -220 -22 -17 -44 -7 -51 22 -8 32 -54 35 -54 3 0 -51 39 -88 93 -89 74 0
87 32 112 285 20 212 21 215 45 215 16 0 20 7 20 30 0 22 -5 30 -17 30 -15 0
-18 8 -15 55 4 54 3 55 -22 55 -15 0 -29 -6 -31 -12z"/>
<path d="M1925 1610 c-5 -17 -15 -20 -61 -20 -51 0 -54 -2 -54 -24 0 -23 4
-25 53 -28 43 -2 51 -6 49 -20 -4 -28 55 -25 63 2 6 18 14 21 63 18 43 -2 57
-7 57 -18 0 -9 11 -16 27 -18 19 -2 28 2 33 17 5 18 15 21 61 21 51 0 54 2 54
24 0 23 -4 25 -52 28 -44 2 -52 6 -50 21 5 27 -58 24 -65 -3 -5 -18 -12 -21
-62 -18 -47 3 -56 6 -53 21 4 26 -54 24 -63 -3z"/>
<path d="M2600 1605 l0 -25 -103 0 -104 0 -12 -127 c-17 -184 -40 -317 -67
-397 -22 -65 -22 -71 -7 -88 9 -10 20 -18 24 -18 10 0 53 135 69 215 6 33 19
128 28 210 l17 150 193 3 192 2 0 25 c0 25 -1 25 -85 25 -84 0 -85 0 -85 25 0
21 -5 25 -30 25 -25 0 -30 -4 -30 -25z"/>
<path d="M2977 1623 c-4 -3 -7 -16 -7 -29 0 -33 -10 -54 -26 -54 -8 0 -14 -4
-14 -9 0 -5 -3 -16 -6 -25 -4 -12 0 -16 16 -16 16 0 20 -5 16 -17 -2 -10 -10
-80 -17 -155 -10 -120 -14 -138 -29 -138 -21 0 -34 -49 -16 -56 7 -3 61 -3
122 -2 l109 3 3 28 c3 21 -1 27 -15 27 -18 0 -18 5 -3 152 13 130 18 153 33
156 21 4 24 52 3 52 -11 0 -14 11 -13 43 2 36 -1 42 -18 42 -15 0 -22 -10 -29
-42 -9 -38 -13 -43 -38 -43 -27 0 -28 2 -28 45 0 37 -3 45 -18 45 -10 0 -22
-3 -25 -7z m93 -168 c0 -34 -2 -35 -36 -35 -33 0 -36 2 -30 23 3 12 6 28 6 35
0 7 13 12 30 12 28 0 30 -3 30 -35z m-10 -115 c0 -28 -3 -30 -35 -30 -24 0
-35 5 -35 14 0 32 13 46 41 46 26 0 29 -4 29 -30z m-10 -97 c0 -45 -12 -63
-41 -63 -26 0 -29 3 -29 33 0 41 5 47 42 47 20 0 28 -5 28 -17z"/>
<path d="M3857 1623 c-4 -3 -7 -23 -7 -43 0 -21 -3 -52 -6 -69 l-6 -31 -79 0
-79 0 0 -30 0 -30 75 0 c65 0 75 -2 75 -17 0 -10 -7 -92 -17 -182 -12 -118
-21 -169 -33 -184 -21 -25 -46 -17 -63 20 -9 21 -18 27 -34 25 -29 -4 -30 -35
-3 -80 26 -42 62 -56 108 -41 52 17 67 63 89 274 18 176 19 179 43 185 18 4
26 14 28 33 3 23 0 27 -22 27 -22 0 -25 4 -21 28 2 15 6 48 9 75 6 46 5 47
-23 47 -15 0 -31 -3 -34 -7z"/>
<path d="M4699 1602 c-27 -71 -67 -154 -107 -220 -24 -41 -42 -74 -40 -76 1
-1 11 -8 21 -16 16 -12 21 -11 41 15 l22 28 -17 -154 c-10 -85 -18 -171 -18
-192 -1 -36 1 -38 27 -35 28 3 30 10 51 222 1 6 7 2 14 -8 12 -16 16 -15 51
21 l38 38 -7 -60 c-13 -126 -16 -136 -41 -145 -19 -8 -22 -13 -15 -32 4 -12
12 -23 17 -25 16 -5 159 72 161 88 2 8 -1 21 -7 29 -8 13 -13 13 -40 -3 -30
-18 -30 -18 -30 5 2 73 29 257 42 282 15 30 16 29 23 -55 13 -150 77 -341 108
-323 35 20 36 25 7 79 -16 30 -34 79 -41 109 l-12 55 53 57 52 58 -22 18 c-23
18 -23 18 -40 -9 -9 -16 -24 -34 -32 -41 -13 -10 -16 -7 -22 25 -3 21 -6 59
-6 85 l0 47 63 3 c62 3 62 3 65 36 l3 32 -62 0 -62 0 6 45 c7 44 6 45 -23 45
-27 0 -29 -3 -36 -45 l-6 -45 -64 0 -64 0 0 -35 0 -35 51 0 c48 0 50 -1 43
-22 -21 -71 -112 -210 -151 -232 -13 -7 -14 -2 -9 30 3 22 10 82 16 134 6 59
19 120 35 158 27 67 27 77 -5 85 -16 4 -23 -1 -31 -21z"/>
<path d="M5466 1593 c-3 -21 -8 -62 -12 -90 -6 -51 -7 -53 -36 -53 -30 0 -31
1 -25 40 6 50 -11 70 -60 70 -33 0 -34 1 -28 30 6 27 4 30 -18 30 -22 0 -27
-9 -47 -71 -13 -40 -41 -99 -63 -131 -36 -54 -38 -61 -24 -75 13 -13 19 -14
31 -4 13 11 21 9 47 -10 l32 -22 -49 -47 c-27 -25 -57 -51 -68 -57 -17 -9 -17
-12 -4 -38 l15 -27 63 53 c55 47 78 78 147 197 5 8 21 12 40 10 l33 -3 -26
-55 c-15 -34 -47 -75 -80 -107 -50 -46 -54 -53 -44 -73 11 -21 11 -21 57 12
25 18 61 55 79 81 l33 48 26 -52 c26 -50 66 -99 82 -99 5 0 14 9 21 21 11 18
9 24 -19 56 -38 44 -68 108 -69 146 0 26 2 27 55 27 52 0 55 1 55 24 0 23 -4
25 -52 28 -29 2 -52 8 -52 13 1 6 5 45 9 88 l7 77 -25 0 c-21 0 -26 -6 -31
-37z m-130 -109 c-3 -9 -6 -22 -6 -30 0 -12 -4 -12 -30 1 -45 23 -39 45 13 45
22 0 28 -4 23 -16z m-56 -71 c14 -9 26 -17 28 -19 6 -4 -18 -44 -26 -44 -4 1
-17 9 -30 20 -17 14 -22 25 -17 40 8 24 13 25 45 3z"/>
<path d="M5810 1607 c-40 -105 -57 -143 -96 -216 -41 -78 -43 -85 -27 -97 25
-18 28 -18 43 11 7 14 15 23 17 21 2 -2 -5 -83 -17 -180 -11 -98 -18 -181 -15
-187 8 -11 42 -12 49 -1 3 5 17 123 31 263 21 204 31 266 51 317 26 68 26 77
-6 85 -15 4 -23 -1 -30 -16z"/>
<path d="M6356 1608 c-3 -13 -6 -40 -6 -60 0 -34 -2 -37 -32 -40 -29 -3 -33
-7 -36 -35 -3 -31 -1 -33 28 -33 26 0 30 -3 26 -22 -3 -13 -8 -49 -11 -80 -6
-57 -7 -58 -46 -70 -36 -10 -40 -14 -34 -37 9 -34 8 -33 40 -21 l27 10 -7 -77
c-3 -43 -9 -88 -12 -100 -6 -26 -23 -31 -23 -8 0 14 -31 21 -42 9 -9 -8 10
-66 24 -76 22 -14 54 -9 73 12 12 13 21 53 31 127 7 59 13 115 14 124 0 9 13
22 29 29 22 9 27 16 23 32 -3 11 -13 23 -24 25 -20 6 -21 10 -12 77 5 36 11
46 25 46 11 0 21 10 25 24 7 29 -1 46 -23 46 -13 0 -15 9 -9 60 7 59 6 60 -17
60 -17 0 -27 -7 -31 -22z"/>
<path d="M7070 1603 c0 -16 -3 -45 -6 -65 -7 -38 -7 -38 -55 -38 l-48 0 10 32
c13 48 12 55 -16 60 -22 5 -26 0 -41 -51 -8 -31 -34 -92 -55 -136 -37 -74 -39
-80 -23 -92 10 -7 22 -13 26 -13 5 0 23 29 40 65 l32 65 60 0 59 0 -7 -52 c-3
-29 -6 -61 -6 -70 0 -16 -10 -18 -75 -18 -77 0 -81 -2 -87 -45 -3 -18 3 -20
75 -23 l78 -3 -6 -67 c-11 -122 -1 -112 -115 -112 l-100 0 0 -30 0 -30 225 0
225 0 0 30 0 30 -91 0 -92 0 6 68 c4 37 7 77 7 89 0 21 5 22 73 25 l72 3 3 33
3 32 -72 0 -71 0 6 31 c3 17 6 49 6 70 l0 38 78 3 77 3 3 33 3 32 -74 0 -75 0
6 65 5 65 -32 0 c-27 0 -31 -3 -31 -27z"/>
<path d="M8070 1605 c0 -22 -4 -25 -40 -25 -38 0 -40 -2 -40 -30 0 -28 3 -30
36 -30 l36 0 -6 -52 c-3 -29 -9 -81 -12 -115 l-7 -63 -43 0 c-42 0 -44 -1 -44
-30 0 -29 1 -30 52 -30 l52 0 -30 -31 c-16 -17 -41 -38 -56 -47 -31 -18 -35
-34 -13 -52 12 -10 20 -9 40 4 24 16 25 16 25 -4 0 -18 6 -20 56 -20 54 0 56
-1 50 -22 -3 -13 -6 -26 -6 -30 0 -5 -41 -8 -91 -8 l-90 0 3 -27 3 -28 196 -3
197 -2 6 22 c3 13 6 26 6 31 0 4 -38 7 -85 7 -88 0 -95 4 -79 44 5 12 20 16
60 16 48 0 54 2 54 21 0 20 1 20 30 2 29 -17 30 -17 45 2 19 27 19 32 -5 40
-11 3 -33 23 -50 43 l-31 37 48 5 c43 5 48 8 51 33 3 26 1 27 -38 27 l-41 0 6
48 c4 26 9 76 13 112 l7 65 35 5 c29 4 36 10 38 33 3 25 1 27 -33 27 -35 0
-37 2 -31 25 6 22 3 25 -23 25 -23 0 -30 -5 -33 -22 -3 -21 -9 -23 -80 -26
-78 -3 -78 -3 -78 23 0 21 -5 25 -30 25 -25 0 -30 -4 -30 -25z m210 -89 c0
-29 -16 -36 -86 -36 -67 0 -74 2 -74 20 0 18 7 20 80 20 44 0 80 -2 80 -4z
m-12 -103 c-3 -15 -16 -18 -81 -21 -72 -3 -77 -1 -77 18 0 18 6 20 81 20 71 0
80 -2 77 -17z m-8 -87 c0 -29 -16 -36 -86 -36 -67 0 -74 2 -74 20 0 18 7 20
80 20 44 0 80 -2 80 -4z m-13 -123 c7 -16 20 -38 29 -50 l16 -23 -51 0 -52 0
7 35 c6 34 5 35 -25 35 -24 0 -31 -4 -31 -19 0 -41 -11 -51 -56 -51 l-43 0 37
50 37 50 60 0 c57 0 61 -2 72 -27z"/>
<path d="M6574 1580 l-7 -40 -48 0 c-46 0 -49 -2 -49 -25 0 -23 4 -25 45 -25
l45 0 0 -45 0 -45 -64 0 c-61 0 -64 -1 -69 -26 -2 -15 0 -28 7 -30 7 -3 77 -3
156 -2 l145 3 3 28 c3 27 3 27 -58 27 l-61 0 3 43 3 42 53 3 c48 3 52 5 52 28
0 22 -4 24 -51 24 l-52 0 6 40 c5 39 4 40 -24 40 -26 0 -29 -4 -35 -40z"/>
<path d="M246 1595 c-13 -35 -6 -44 39 -51 l45 -6 0 -42 c0 -59 -36 -180 -76
-256 -38 -74 -117 -174 -163 -208 -30 -22 -31 -23 -15 -47 9 -14 22 -25 28
-25 17 0 108 96 154 162 22 32 50 85 62 118 13 34 26 58 29 53 4 -4 12 -30 19
-58 13 -56 106 -247 128 -266 12 -10 19 -7 39 11 l23 22 -34 48 c-77 107 -120
247 -131 422 -3 54 -11 105 -17 112 -6 8 -36 17 -67 21 -47 5 -57 3 -63 -10z"/>
<path d="M5896 1593 c-2 -10 -7 -49 -11 -88 -3 -38 -8 -87 -11 -107 l-6 -38
51 0 51 0 0 -40 0 -39 -67 -3 c-66 -3 -68 -4 -71 -30 -3 -27 -1 -28 37 -28 23
0 41 -4 41 -8 0 -14 -70 -126 -96 -153 l-24 -26 21 -19 c21 -19 21 -19 50 15
15 19 44 64 64 100 20 36 34 57 31 46 -4 -17 -20 -176 -21 -210 0 -5 11 -10
25 -10 27 0 29 6 45 170 l7 70 27 -76 c15 -43 35 -89 44 -103 17 -25 19 -25
41 -11 l24 16 -33 55 c-19 31 -40 76 -49 100 l-15 44 50 0 c48 0 49 1 49 30
l0 30 -66 0 -66 0 6 31 c3 17 6 35 6 40 0 5 22 9 49 9 57 0 56 -2 67 136 8
114 8 114 -140 114 -91 0 -105 -2 -110 -17z m194 -77 c0 -18 -3 -48 -6 -65
l-6 -31 -73 0 -72 0 4 33 c2 17 6 47 9 65 l5 32 69 0 70 0 0 -34z"/>
<path d="M3191 1473 c-24 -252 -47 -371 -95 -484 -5 -10 1 -19 18 -27 23 -10
25 -8 45 38 12 27 30 84 40 127 l18 78 37 3 38 3 -7 -88 c-4 -48 -12 -96 -17
-106 -10 -19 -28 -14 -28 9 0 8 -10 14 -25 14 -32 0 -33 -27 -4 -64 24 -31 68
-35 93 -7 21 23 28 69 57 369 20 212 21 244 9 252 -8 6 -49 10 -91 10 l-76 0
-12 -127z m127 15 l-3 -53 -39 -3 -39 -3 6 38 c4 21 7 46 7 56 0 13 8 17 36
17 l35 0 -3 -52z m-12 -140 c-3 -13 -6 -38 -6 -55 0 -32 -1 -33 -41 -33 -33 0
-40 3 -35 16 3 9 6 33 6 55 l0 39 41 0 c38 0 41 -2 35 -22z"/>
<path d="M5552 1592 c-10 -7 -10 -20 -1 -61 10 -46 13 -51 32 -45 12 4 23 7
24 8 0 0 -4 25 -9 54 -10 51 -20 60 -46 44z"/>
<path d="M1256 1564 c-15 -38 -8 -44 55 -44 l61 0 -6 -45 c-4 -25 -13 -64 -20
-87 l-13 -43 -19 53 c-19 52 -27 59 -52 43 -11 -6 -7 -26 18 -96 l31 -88 -35
-74 c-19 -40 -49 -93 -65 -117 -30 -43 -30 -44 -10 -62 25 -23 33 -15 93 89
l44 78 12 -51 c14 -58 20 -64 45 -46 18 13 18 17 -6 98 -23 75 -24 88 -13 121
7 21 23 83 35 138 30 139 25 149 -75 149 -58 0 -75 -3 -80 -16z"/>
<path d="M3505 1568 c-2 -7 -15 -132 -30 -278 -14 -146 -28 -273 -30 -282 -2
-14 4 -18 25 -18 24 0 29 5 32 28 3 25 7 27 55 30 62 4 54 -23 84 279 19 184
21 224 10 237 -17 20 -139 23 -146 4z m95 -82 c0 -18 -3 -54 -6 -80 -6 -41
-10 -46 -32 -46 -24 0 -25 1 -18 53 3 28 6 64 6 80 0 22 4 27 25 27 22 0 25
-4 25 -34z m-24 -253 c-11 -114 -15 -123 -43 -123 -21 0 -24 3 -19 28 2 15 8
57 11 95 6 63 8 67 32 67 25 0 25 0 19 -67z"/>
<path d="M2530 1490 c0 -16 -7 -20 -35 -20 -32 0 -35 -2 -35 -30 0 -23 4 -30
20 -30 20 0 20 -1 3 -27 -9 -16 -25 -37 -35 -49 -17 -20 -18 -22 -2 -35 15
-12 18 -11 30 6 41 62 43 63 37 17 -6 -42 -5 -44 18 -40 20 2 25 10 27 41 3
37 4 38 21 23 16 -15 19 -15 31 -1 11 13 9 19 -9 39 -22 23 -22 23 -2 29 29 7
30 57 1 57 -13 0 -20 7 -20 20 0 15 -7 20 -25 20 -18 0 -25 -5 -25 -20z"/>
<path d="M2700 1490 c0 -16 -7 -20 -30 -20 -26 0 -30 -3 -30 -29 0 -16 5 -31
11 -33 14 -5 -2 -41 -33 -74 -16 -18 -17 -23 -4 -33 20 -17 34 -6 57 43 l18
41 -6 -53 c-6 -52 -5 -54 18 -50 20 2 24 9 27 46 4 51 17 55 26 7 8 -40 21
-52 40 -36 12 10 11 18 -5 51 -24 49 -24 56 1 63 14 3 20 14 20 31 0 22 -4 26
-30 26 -23 0 -30 4 -30 20 0 15 -7 20 -25 20 -18 0 -25 -5 -25 -20z"/>
<path d="M2125 1489 c-38 -4 -118 -7 -177 -8 l-108 -1 0 -31 0 -32 80 6 c75 6
80 5 80 -13 0 -17 -9 -20 -92 -22 -88 -3 -93 -4 -96 -25 -3 -22 0 -23 57 -23
34 0 61 -4 61 -9 0 -9 -57 -40 -113 -60 -23 -9 -27 -15 -21 -34 3 -12 8 -24
10 -26 7 -8 88 34 131 67 24 17 46 32 49 32 3 0 4 -15 2 -32 -3 -29 0 -33 23
-36 23 -3 27 1 33 33 l7 35 37 -29 c46 -37 131 -76 142 -64 4 4 11 17 14 28 5
18 -2 23 -47 39 -29 10 -64 26 -77 37 l-25 19 73 0 c70 0 72 1 72 25 0 25 -1
25 -90 25 -81 0 -90 2 -90 19 0 21 34 31 106 31 40 0 44 2 44 24 0 14 -3 26
-7 28 -5 2 -39 1 -78 -3z"/>
<path d="M1464 1370 c-20 -8 -21 -11 -9 -62 7 -29 16 -65 19 -80 7 -31 42 -39
53 -12 6 16 -22 143 -35 155 -4 4 -17 3 -28 -1z"/>
<path d="M3697 1373 c-12 -3 -16 -11 -12 -22 3 -10 12 -53 20 -96 9 -43 17
-81 20 -83 2 -2 15 -2 28 2 23 5 24 8 16 53 -29 159 -28 157 -72 146z"/>
<path d="M7625 1308 c-5 -36 -35 -322 -35 -344 0 -19 46 -18 54 2 3 9 6 35 6
59 0 51 12 64 28 30 9 -20 19 -25 47 -25 51 0 64 27 78 165 14 143 12 145 -99
145 l-73 0 -6 -32z m131 -65 c-3 -21 -8 -64 -11 -95 -6 -58 -20 -82 -31 -54
-3 9 -17 16 -31 16 -24 0 -24 1 -18 58 12 113 12 112 57 112 l40 0 -6 -37z"/>
<path d="M6617 1323 c-4 -3 -7 -17 -7 -29 0 -22 -4 -23 -87 -26 -88 -3 -88 -3
-91 -30 l-3 -28 86 0 87 0 -7 -77 c-8 -84 -26 -126 -53 -121 -9 2 -21 13 -27
26 -10 23 -18 25 -47 14 -17 -7 -17 -9 0 -42 23 -48 61 -65 108 -50 46 16 69
66 79 172 6 74 8 77 33 80 21 2 27 8 27 28 0 18 -6 26 -22 28 -18 3 -23 10
-23 33 0 24 -4 29 -23 29 -13 0 -27 -3 -30 -7z"/>
<path d="M7410 1213 c-19 -187 -19 -188 10 -188 18 0 26 6 28 22 3 19 10 22
60 25 l57 3 12 115 c8 80 9 118 1 127 -7 8 -37 13 -83 13 l-73 0 -12 -117z
m114 -5 c-8 -87 -8 -88 -40 -88 -21 0 -24 5 -24 34 0 18 3 54 6 80 6 43 9 46
36 46 l29 0 -7 -72z"/>
<path d="M2540 1261 c0 -6 -24 -11 -52 -13 -46 -3 -53 -6 -56 -25 -3 -21 0
-23 47 -23 39 0 51 -4 51 -15 0 -11 -12 -15 -50 -15 -47 0 -50 -2 -50 -25 0
-23 4 -25 45 -25 33 0 45 -4 45 -15 0 -12 -13 -15 -61 -15 -57 0 -60 -1 -57
-22 2 -19 11 -24 47 -28 36 -4 42 -7 30 -17 -8 -6 -26 -14 -42 -18 -31 -8 -32
-12 -11 -40 14 -19 15 -19 59 4 69 37 88 77 100 224 l7 77 -26 0 c-14 0 -26
-4 -26 -9z"/>
<path d="M2630 1258 c0 -7 -7 -71 -15 -143 -19 -168 -20 -157 13 -153 22 2 28
8 30 35 3 32 4 32 60 35 50 3 57 6 60 26 3 21 0 22 -52 22 -49 0 -56 2 -56 20
0 17 7 20 51 20 47 0 50 2 47 23 -2 18 -10 23 -45 25 -29 2 -43 8 -43 18 0 10
14 14 55 14 52 0 55 1 55 25 0 23 -3 25 -50 25 -27 0 -50 5 -50 10 0 6 -13 10
-30 10 -17 0 -30 -5 -30 -12z"/>
<path d="M1942 1215 c-11 -24 -16 -25 -87 -25 l-76 0 3 -27 c3 -25 7 -28 51
-33 l49 -5 -26 -24 c-14 -14 -26 -28 -26 -32 0 -4 24 -13 53 -20 l52 -13 -40
-12 c-22 -7 -56 -13 -75 -13 -48 -2 -64 -13 -55 -41 7 -21 11 -22 59 -16 28 4
84 18 123 32 l73 24 79 -29 80 -29 15 23 c15 23 14 23 -47 46 -34 12 -64 24
-66 25 -1 1 12 21 30 43 27 35 38 41 70 41 35 0 48 14 49 53 0 4 -52 7 -116 7
-111 0 -116 1 -111 20 3 13 0 20 -8 20 -7 0 -20 2 -27 5 -9 4 -19 -4 -26 -20z
m103 -115 c-32 -34 -35 -34 -88 -19 -38 10 -38 11 -21 30 13 15 31 19 77 19
l61 0 -29 -30z"/>
<path d="M6458 1177 c-15 -10 -14 -15 14 -54 35 -48 36 -48 60 -29 17 12 16
16 -12 55 -32 44 -36 46 -62 28z"/>
<path d="M5150 1053 l-36 -73 23 -15 c21 -14 24 -13 37 7 22 34 57 128 51 138
-2 4 -13 10 -22 12 -14 4 -26 -12 -53 -69z"/>
<path d="M5502 1111 c-12 -7 -10 -21 9 -80 23 -71 31 -79 59 -61 12 8 11 19
-8 79 -23 69 -33 80 -60 62z"/>
<path d="M5270 1040 l0 -70 30 0 c27 0 30 3 30 33 0 17 -3 49 -6 70 -6 31 -11
37 -30 37 -23 0 -24 -3 -24 -70z"/>
<path d="M5386 1102 c-3 -5 0 -36 7 -70 8 -44 16 -62 27 -62 26 0 42 17 37 36
-3 11 -11 38 -17 62 -8 31 -16 42 -30 42 -10 0 -21 -4 -24 -8z"/>
<path d="M2902 1044 c-43 -56 -44 -57 -24 -76 19 -19 19 -19 49 19 16 21 37
50 46 65 16 26 16 28 -2 38 -11 5 -21 10 -23 10 -2 0 -23 -25 -46 -56z"/>
<path d="M3026 1091 c-8 -13 24 -81 38 -81 6 0 17 4 25 9 12 8 11 15 -6 42
-19 34 -46 48 -57 30z"/>
<path d="M4052 978 c-41 -117 -40 -111 -21 -115 11 -3 25 11 42 40 27 45 70
147 65 152 -2 2 -14 6 -28 10 -24 5 -27 1 -58 -87z"/>
<path d="M1454 773 c-24 -79 -62 -163 -96 -214 -39 -58 -40 -61 -23 -80 17
-18 19 -18 37 -2 18 16 19 16 13 -23 -8 -62 -35 -311 -35 -329 0 -24 51 -20
57 5 5 19 14 20 123 20 98 0 119 3 124 16 15 38 7 44 -50 44 -47 0 -55 3 -50
16 3 9 6 31 6 50 0 34 0 34 45 34 41 0 45 2 45 25 0 23 -4 25 -40 25 -43 0
-46 6 -34 69 6 29 9 31 50 31 40 0 44 2 44 25 0 23 -4 25 -41 25 l-40 0 3 48
3 47 48 3 c42 3 47 5 47 28 0 24 0 24 -105 24 -58 0 -105 3 -105 8 0 4 7 29
15 56 8 27 14 50 13 51 -2 2 -13 6 -26 9 -16 6 -24 3 -28 -11z m82 -194 c-3
-17 -6 -40 -6 -50 0 -15 -8 -19 -40 -19 -37 0 -40 2 -40 28 0 60 9 72 52 72
40 0 40 0 34 -31z m-16 -146 c0 -61 -9 -73 -52 -73 -37 0 -40 2 -34 23 3 12 6
34 6 50 0 25 3 27 40 27 37 0 40 -2 40 -27z m-17 -135 c-2 -5 -3 -26 -3 -48
l0 -40 -40 0 c-39 0 -40 1 -40 34 0 57 8 67 49 64 20 -2 35 -6 34 -10z"/>
<path d="M1559 783 c-14 -3 -14 -10 -4 -51 10 -37 16 -46 31 -44 30 6 34 15
22 60 -10 41 -15 44 -49 35z"/>
<path d="M2986 748 c-3 -24 -7 -54 -8 -68 -2 -19 -10 -26 -30 -28 -24 -3 -28
-8 -28 -33 0 -24 4 -29 24 -29 22 0 23 -3 18 -52 -7 -77 -16 -95 -52 -103 -22
-5 -30 -11 -26 -22 3 -8 6 -21 6 -30 0 -9 6 -13 15 -9 8 3 21 8 28 11 11 5 11
-13 2 -94 -6 -55 -14 -103 -18 -107 -4 -4 -7 0 -7 9 0 11 -8 17 -25 17 -29 0
-30 -8 -11 -55 11 -26 21 -35 39 -35 53 0 67 36 82 208 7 75 10 85 32 95 30
13 30 63 -1 60 -15 -1 -17 4 -12 29 3 17 6 41 6 54 0 16 7 24 23 26 31 4 38
58 7 58 -20 0 -21 3 -14 70 l7 70 -26 0 c-23 0 -26 -5 -31 -42z"/>
<path d="M3210 760 c0 -30 -1 -30 -55 -30 -54 0 -55 0 -55 -30 l0 -30 140 0
140 0 0 30 c0 30 0 30 -60 30 l-59 0 6 30 c5 28 4 30 -26 30 -28 0 -31 -3 -31
-30z"/>
<path d="M3734 730 l-7 -60 -96 0 -97 0 -17 -152 c-19 -170 -37 -249 -73 -321
-30 -60 -30 -61 2 -75 24 -12 26 -10 49 42 28 63 49 135 66 224 12 61 12 62
45 62 21 0 34 -5 34 -12 0 -49 -25 -235 -32 -243 -6 -7 -14 -4 -22 7 -15 20
-56 14 -56 -9 0 -20 46 -63 67 -63 31 0 62 29 72 68 5 20 14 93 21 161 14 144
11 151 -67 151 l-44 0 3 48 3 47 71 3 71 3 6 -158 6 -158 -26 -26 c-21 -23
-23 -30 -14 -48 13 -23 26 -27 36 -11 12 19 22 10 40 -35 18 -48 38 -65 79
-65 34 0 53 31 65 109 6 36 9 66 8 67 -1 1 -14 5 -30 9 -26 7 -27 6 -27 -31 0
-83 -28 -113 -49 -53 -17 48 -15 56 34 154 25 49 48 104 51 121 5 28 3 32 -19
36 -21 4 -27 0 -32 -21 -11 -44 -47 -121 -56 -121 -5 0 -9 52 -9 115 l0 114
68 3 c65 3 67 4 70 31 l3 27 -72 0 -72 0 7 60 7 60 -30 0 c-29 0 -30 -2 -37
-60z"/>
<path d="M3847 783 c-14 -4 -17 -11 -13 -26 4 -12 9 -34 13 -50 5 -22 9 -26
27 -21 11 4 22 8 24 9 5 5 -20 95 -27 94 -3 -1 -14 -3 -24 -6z"/>
<path d="M4143 770 c-4 -16 -14 -20 -44 -20 -35 0 -39 -3 -39 -25 l0 -25 105
0 105 0 0 25 c0 22 -4 25 -35 25 -28 0 -35 4 -35 20 0 15 -7 20 -26 20 -17 0
-28 -6 -31 -20z"/>
<path d="M4324 740 c-5 -38 -11 -50 -24 -50 -26 0 -34 -51 -9 -57 16 -5 18
-11 13 -42 -8 -43 -13 -53 -24 -46 -4 3 -13 -2 -20 -10 -10 -13 -10 -19 4 -34
16 -17 16 -22 0 -67 -9 -27 -25 -66 -36 -88 -18 -35 -18 -40 -4 -54 22 -22 40
-3 72 79 21 53 30 66 40 58 9 -8 16 -5 24 11 9 17 8 25 -5 40 -14 15 -14 26
-4 84 10 55 16 66 32 66 18 0 19 -5 13 -47 -13 -91 -19 -210 -12 -246 8 -42
36 -63 65 -48 21 12 37 49 45 104 4 32 2 37 -15 37 -14 0 -20 -9 -25 -40 -4
-22 -10 -40 -15 -40 -13 0 -10 113 5 215 16 107 11 125 -40 125 l-36 0 7 50
c7 49 6 50 -19 50 -23 0 -26 -5 -32 -50z"/>
<path d="M1264 774 c-7 -3 -8 -22 -3 -57 4 -28 8 -76 8 -104 1 -44 4 -53 19
-53 40 1 45 14 38 96 -11 123 -18 136 -62 118z"/>
<path d="M1941 735 c-24 -34 -97 -103 -129 -121 -6 -4 23 -44 31 -44 5 0 23
11 41 25 l33 25 27 -34 c14 -19 26 -37 26 -39 0 -3 -39 -17 -87 -33 -49 -15
-89 -28 -91 -29 -1 -1 2 -14 8 -29 12 -32 23 -30 150 20 76 30 87 32 106 19
27 -17 143 -65 159 -65 7 0 17 11 23 25 11 23 9 27 -14 35 -14 6 -28 10 -30
10 -3 0 -28 10 -55 21 l-49 22 55 58 c90 95 74 129 -61 129 -66 0 -75 2 -64
15 15 19 5 35 -24 35 -15 0 -33 -14 -55 -45z m145 -111 l-49 -45 -39 38 c-21
20 -38 41 -38 45 0 4 39 8 88 8 l87 -1 -49 -45z"/>
<path d="M2575 762 c-22 -9 -43 -20 -46 -25 -3 -4 -14 -94 -24 -199 -13 -126
-24 -195 -33 -204 -14 -15 -8 -54 9 -54 5 0 36 14 69 30 33 17 62 30 65 30 4
0 3 -31 -1 -70 l-7 -70 26 0 c22 0 27 6 32 33 6 41 45 413 45 438 0 15 7 19
30 19 29 0 31 -2 25 -32 -3 -18 -12 -90 -20 -161 -15 -136 -18 -147 -41 -147
-9 0 -14 -11 -14 -30 0 -24 4 -30 21 -30 34 0 57 18 68 52 14 46 46 361 38
381 -5 14 -20 17 -80 17 l-74 0 -18 -177 c-20 -208 -21 -213 -39 -188 -11 15
-16 16 -35 5 -13 -6 -24 -10 -25 -8 -4 4 31 328 35 332 2 1 19 8 37 16 22 8
31 18 28 27 -4 8 -6 19 -6 24 0 12 -18 10 -65 -9z"/>
<path d="M4677 730 c-15 -42 -22 -50 -42 -50 -15 0 -25 -6 -25 -14 0 -8 -11
-121 -25 -252 -31 -299 -31 -294 -1 -294 18 0 25 7 30 30 5 30 6 30 69 30 l63
0 22 213 c13 116 22 223 22 238 0 31 -17 49 -47 49 -27 0 -27 -2 -7 45 13 31
13 39 2 46 -28 18 -44 8 -61 -41z m59 -132 c-3 -13 -8 -49 -11 -80 l-6 -58
-35 0 c-38 0 -38 -1 -28 99 l7 61 39 0 c35 0 38 -2 34 -22z m-30 -270 c-4 -46
-11 -87 -16 -91 -4 -5 -20 -7 -36 -5 -22 2 -29 8 -27 23 1 11 5 50 8 88 l7 67
35 0 36 0 -7 -82z"/>
<path d="M4889 753 c-5 -16 -29 -68 -51 -116 -35 -74 -40 -90 -27 -98 26 -17
39 -9 61 36 21 43 24 45 66 45 l44 0 -6 -37 c-3 -21 -13 -105 -21 -188 -20
-192 -27 -215 -66 -215 -22 0 -32 7 -41 25 -8 18 -18 25 -32 23 -33 -5 -31
-42 2 -79 53 -59 135 -41 167 36 7 17 23 126 35 244 l22 215 -22 18 c-13 10
-38 18 -61 18 l-39 0 15 37 c18 43 14 63 -15 63 -13 0 -24 -10 -31 -27z"/>
<path d="M6558 707 c-20 -40 -58 -98 -86 -128 -49 -54 -50 -55 -33 -78 15 -20
19 -21 30 -7 26 31 33 17 26 -46 -10 -88 -40 -173 -86 -242 -21 -32 -39 -62
-39 -66 0 -4 8 -15 19 -24 18 -16 20 -15 55 33 63 85 95 182 111 329 6 57 5
62 -14 62 -18 0 -15 7 21 59 l40 59 29 -57 c16 -31 29 -57 29 -57 0 -1 -8 -4
-18 -6 -16 -5 -21 -27 -36 -174 -9 -93 -19 -188 -22 -211 -6 -42 -6 -43 23
-43 l30 0 17 173 c9 94 19 185 22 200 6 28 6 28 26 10 19 -17 20 -17 38 6 17
24 17 25 -24 75 -48 59 -89 147 -80 171 7 17 -10 35 -31 35 -6 0 -27 -33 -47
-73z"/>
<path d="M6938 773 c-56 -5 -48 21 -78 -267 -20 -195 -25 -215 -57 -216 -7 0
-13 -11 -13 -25 0 -19 5 -25 21 -25 19 0 21 -5 17 -63 -3 -60 -2 -62 22 -62
23 0 26 5 34 67 l9 67 56 13 c49 12 56 17 59 41 4 30 -3 32 -61 16 -22 -6 -41
-8 -44 -5 -3 2 -2 28 2 55 l7 51 43 0 c37 0 43 3 47 25 7 32 2 35 -44 35 -37
0 -38 1 -38 34 0 57 8 66 56 66 40 0 44 2 44 25 0 23 -4 25 -46 25 -43 0 -46
2 -40 23 3 12 6 32 6 43 0 19 8 23 55 29 50 6 55 9 55 31 0 26 2 26 -112 17z"/>
<path d="M145 758 c-3 -13 -65 -612 -65 -635 0 -10 51 -13 220 -13 l219 0 6
33 c3 17 16 142 30 277 14 135 28 261 31 281 10 66 1 69 -232 69 -155 0 -206
-3 -209 -12z m380 -75 c-3 -16 -14 -116 -25 -223 -11 -107 -22 -214 -26 -237
l-5 -43 -163 0 -162 0 22 223 c13 122 26 241 29 265 l6 42 164 0 165 0 -5 -27z"/>
<path d="M325 621 l-7 -50 -46 -3 c-40 -3 -47 -6 -53 -30 -7 -28 -7 -28 42
-28 27 0 49 -2 49 -3 0 -2 -9 -29 -19 -59 -22 -65 -43 -100 -84 -144 -24 -27
-27 -35 -18 -53 7 -12 17 -21 24 -21 17 0 55 50 94 124 l31 61 12 -30 c6 -16
18 -56 27 -90 9 -33 17 -61 18 -63 1 -1 14 2 28 7 l25 10 -17 58 c-10 32 -30
88 -44 124 -15 36 -27 69 -27 72 0 4 25 7 55 7 54 0 55 0 55 30 0 29 -1 30
-50 30 l-49 0 6 50 c6 48 5 50 -20 50 -23 0 -26 -5 -32 -49z"/>
<path d="M2403 762 c-17 -11 17 -132 37 -132 38 1 43 14 25 79 -17 60 -31 73
-62 53z"/>
<path d="M5187 763 c-4 -3 -7 -17 -7 -30 0 -22 3 -23 85 -23 l85 0 0 -27 c0
-16 -11 -138 -25 -273 -31 -308 -31 -300 -1 -300 14 0 27 4 31 9 3 6 17 121
30 258 14 136 27 267 30 291 l6 42 100 0 c54 0 99 3 99 8 0 4 3 17 6 30 l6 22
-219 0 c-121 0 -223 -3 -226 -7z"/>
<path d="M6306 748 c-15 -72 -65 -623 -57 -631 5 -5 17 -7 27 -5 15 2 20 15
24 60 3 31 7 58 10 60 3 2 22 11 42 20 64 29 93 127 66 218 -13 43 -13 50 18
135 47 134 46 131 29 149 -12 12 -35 16 -86 16 -63 0 -69 -2 -73 -22z m104
-50 c0 -7 -13 -53 -29 -101 -27 -83 -27 -91 -14 -130 18 -51 12 -121 -12 -147
-25 -28 -47 -26 -40 3 2 12 12 99 20 192 9 94 18 176 20 183 3 6 16 12 30 12
14 0 25 -6 25 -12z"/>
<path d="M7075 704 c-4 -38 -16 -91 -28 -117 -19 -47 -19 -48 -1 -62 17 -12
21 -12 31 2 17 22 40 89 48 136 5 33 9 37 37 37 l30 0 -7 -65 c-7 -73 -2 -101
25 -115 29 -15 70 4 63 29 -3 12 -12 21 -21 21 -13 0 -14 13 -9 83 3 46 2 89
-3 97 -6 10 -33 16 -84 18 l-74 4 -7 -68z"/>
<path d="M4076 648 c-3 -13 -7 -40 -10 -60 l-5 -38 88 0 88 0 6 48 c3 26 1 53
-5 60 -7 7 -37 12 -84 12 -68 0 -74 -2 -78 -22z m122 -35 c-2 -13 -14 -19 -41
-21 -32 -3 -37 0 -37 17 0 18 6 21 41 21 33 0 40 -3 37 -17z"/>
<path d="M3138 653 c-10 -2 -18 -5 -18 -6 0 -1 4 -17 9 -35 10 -32 9 -32 -25
-32 -31 0 -34 -2 -34 -30 0 -30 1 -30 54 -30 l55 0 -13 -37 c-12 -36 -16 -38
-58 -41 -38 -2 -47 -7 -52 -25 -9 -35 -8 -37 30 -37 l36 0 -26 -46 c-14 -26
-26 -50 -26 -55 0 -5 19 -18 42 -30 l42 -21 -39 -24 c-22 -13 -52 -26 -67 -29
-31 -7 -35 -22 -15 -49 12 -16 18 -14 92 23 l80 40 51 -39 52 -39 16 24 c15
23 14 24 -35 61 -45 33 -49 38 -35 53 8 9 27 42 41 74 19 41 32 57 46 57 14 0
19 7 19 30 l0 30 -75 0 c-41 0 -75 2 -75 4 0 3 4 16 10 31 8 22 7 27 -13 35
-15 6 5 9 71 9 72 1 92 4 92 15 0 8 3 21 6 30 5 13 -1 16 -31 16 -31 0 -36 3
-30 18 13 32 10 47 -12 50 -16 2 -24 -4 -33 -32 -10 -32 -15 -36 -45 -36 -31
0 -35 3 -45 40 -6 22 -14 39 -18 39 -4 -1 -15 -3 -24 -6z m122 -278 c0 -11
-32 -70 -48 -87 -18 -21 -31 -22 -55 -4 -18 14 -18 16 3 55 19 38 24 41 60 41
22 0 40 -2 40 -5z"/>
<path d="M5460 577 c-35 -15 -34 -15 -21 -31 7 -8 32 -63 56 -121 24 -59 45
-109 48 -111 2 -3 16 0 31 6 32 12 32 13 -26 146 -51 118 -56 125 -88 111z"/>
<path d="M2356 548 c-9 -35 -8 -38 19 -38 14 0 25 -3 25 -7 0 -5 -7 -64 -15
-132 -14 -121 -15 -126 -50 -161 l-36 -37 21 -24 20 -24 30 34 30 35 30 -23
c17 -12 50 -29 73 -37 69 -25 226 -17 274 14 7 4 10 17 6 31 -5 19 -10 22 -32
16 -14 -4 -63 -9 -109 -12 -94 -6 -153 10 -191 51 l-22 23 16 126 c8 69 15
132 15 140 0 26 -30 47 -65 47 -25 0 -34 -5 -39 -22z"/>
<path d="M4057 523 c-4 -3 -7 -15 -7 -25 0 -15 8 -18 58 -18 l57 0 -30 -25
c-20 -16 -43 -24 -67 -25 -34 0 -38 -3 -38 -25 0 -22 4 -25 40 -25 41 0 49
-11 29 -40 -8 -11 -12 -12 -16 -2 -8 19 -43 15 -43 -6 0 -30 25 -55 55 -55 33
1 52 22 61 69 5 27 11 33 40 39 27 5 34 11 34 29 0 20 -4 22 -32 18 l-33 -4
40 36 c39 35 39 36 21 51 -20 15 -156 22 -169 8z"/>
<path d="M5702 498 l3 -33 230 0 229 0 7 33 6 32 -239 0 -239 0 3 -32z"/>
<path d="M4825 484 c-11 -4 14 -156 27 -169 4 -4 16 -4 28 0 20 6 22 12 16 53
-15 109 -30 133 -71 116z"/>
<path d="M7030 450 c0 -16 4 -30 9 -30 5 0 15 -24 21 -52 7 -29 19 -65 26 -80
13 -25 11 -28 -27 -63 -22 -20 -51 -41 -64 -47 -20 -9 -22 -14 -13 -34 6 -13
15 -24 20 -24 13 0 91 54 108 75 12 14 18 11 62 -32 l49 -48 19 23 c19 22 19
23 -30 68 l-49 45 28 43 c15 24 35 68 46 99 27 80 19 87 -106 87 l-99 0 0 -30z
m146 -65 c-9 -20 -22 -45 -29 -56 -14 -20 -15 -19 -26 12 -6 18 -11 43 -11 55
0 21 5 24 40 24 l40 0 -14 -35z"/>
<path d="M1256 373 c-10 -38 -33 -101 -52 -142 -19 -41 -33 -75 -32 -76 7 -5
47 -25 51 -25 8 0 63 139 87 217 23 78 21 93 -13 93 -20 0 -25 -10 -41 -67z"/>
<path d="M1840 413 c0 -10 -7 -76 -15 -148 -8 -72 -15 -133 -15 -137 0 -5 78
-8 173 -8 l174 0 11 108 c16 148 16 188 -4 196 -9 3 -85 6 -170 6 -140 0 -154
-2 -154 -17z m138 -75 c-3 -31 -6 -33 -45 -36 l-43 -3 0 35 c0 36 0 36 46 36
45 0 45 0 42 -32z m142 -3 c0 -35 0 -35 -45 -35 -45 0 -45 0 -45 35 0 35 0 35
45 35 45 0 45 0 45 -35z m-154 -107 c-3 -13 -6 -31 -6 -40 0 -14 -9 -18 -40
-18 l-40 0 0 40 0 40 46 0 c43 0 46 -2 40 -22z m142 -15 c-3 -35 -6 -38 -36
-41 -51 -5 -59 1 -54 42 4 35 5 36 49 36 l44 0 -3 -37z"/>
<path d="M7435 301 c-36 -15 -58 -49 -63 -100 -4 -43 -1 -53 21 -75 74 -74
191 19 163 128 -10 42 -73 66 -121 47z m69 -47 c37 -36 5 -114 -47 -114 -32 0
-47 18 -47 55 0 58 59 95 94 59z"/>
<path d="M4039 218 c-12 -24 -28 -50 -35 -59 -13 -14 -12 -18 10 -32 27 -18
31 -15 75 72 18 35 20 45 9 52 -25 16 -38 9 -59 -33z"/>
<path d="M4381 251 c-11 -7 -9 -20 9 -70 23 -62 26 -66 54 -55 21 8 20 21 -5
83 -22 51 -32 58 -58 42z"/>
<path d="M4150 190 l0 -60 30 0 c26 0 30 3 30 29 0 63 -11 91 -36 91 -23 0
-24 -4 -24 -60z"/>
<path d="M4266 241 c-3 -5 0 -32 7 -60 10 -42 16 -51 34 -51 32 0 35 11 17 69
-11 38 -20 51 -34 51 -10 0 -21 -4 -24 -9z"/>
<path d="M692 138 c-41 -117 -40 -111 -21 -115 11 -3 25 11 42 40 27 45 70
147 65 152 -2 2 -14 6 -28 10 -24 5 -27 1 -58 -87z"/>
</g>
</svg>
